<?xml version="1.0" encoding="UTF-8"?>
<svg id="a" data-name="Layer_1" xmlns="http://www.w3.org/2000/svg" width="1355" height="770" viewBox="0 0 1355 770">
  <g>
    <rect x="0" y=".239" width="1355" height="769.521" fill="#f2e7e5"/>
    <g>
      <path d="M12.429,741.371v-1.549h9.226v1.549h-3.719v10.372h-1.793v-10.372h-3.713Z"/>
      <path d="M26.148,751.941c-.567,0-1.079-.106-1.537-.317-.458-.212-.819-.52-1.085-.923-.266-.403-.398-.898-.398-1.484,0-.504.097-.919.291-1.245.194-.326.456-.584.786-.774.33-.19.699-.334,1.106-.431s.823-.171,1.246-.222c.536-.062.97-.113,1.304-.153.334-.041.576-.108.728-.201s.227-.244.227-.454v-.041c0-.508-.143-.902-.428-1.182s-.709-.419-1.272-.419c-.586,0-1.046.129-1.382.388-.335.258-.567.544-.695.858l-1.636-.373c.194-.543.478-.982.853-1.318.375-.335.806-.58,1.295-.733.489-.153,1.003-.229,1.542-.229.357,0,.736.042,1.138.125.402.083.778.235,1.129.457.351.221.639.536.864.945.225.41.337.94.337,1.593v5.937h-1.699v-1.223h-.07c-.112.226-.281.446-.506.664-.225.217-.514.397-.867.541s-.776.216-1.269.216ZM26.526,750.544c.481,0,.894-.095,1.237-.285.344-.19.605-.439.786-.748.18-.309.271-.639.271-.992v-1.152c-.062.062-.182.119-.358.172-.177.052-.377.097-.603.134s-.444.069-.658.099-.392.054-.536.073c-.337.042-.645.114-.922.215-.277.102-.499.245-.664.434s-.248.438-.248.748c0,.431.159.756.478.975.318.22.724.329,1.216.329Z"/>
      <path d="M33.016,751.743v-11.921h1.74v4.43h.105c.101-.187.247-.401.437-.646.19-.245.454-.459.792-.644.338-.185.784-.276,1.339-.276.722,0,1.366.183,1.933.547.566.365,1.012.891,1.335,1.577.324.688.486,1.514.486,2.479s-.161,1.794-.483,2.482c-.322.689-.764,1.219-1.327,1.59-.562.37-1.205.556-1.926.556-.543,0-.987-.092-1.33-.273-.343-.183-.612-.396-.806-.641-.194-.244-.343-.462-.448-.652h-.146v1.392h-1.7ZM34.721,747.273c0,.628.091,1.179.273,1.652s.446.844.792,1.109c.346.266.769.398,1.269.398.52,0,.955-.139,1.304-.416s.614-.655.794-1.132c.181-.478.271-1.016.271-1.612,0-.59-.088-1.12-.265-1.59-.176-.469-.44-.84-.792-1.111s-.789-.407-1.312-.407c-.504,0-.93.13-1.278.39-.347.26-.61.623-.789,1.089-.178.465-.268,1.009-.268,1.63Z"/>
      <path d="M43.272,751.743v-11.921h1.74v4.43h.105c.101-.187.247-.401.437-.646.19-.245.454-.459.792-.644.338-.185.784-.276,1.339-.276.722,0,1.366.183,1.933.547.566.365,1.012.891,1.335,1.577.324.688.486,1.514.486,2.479s-.161,1.794-.483,2.482c-.322.689-.764,1.219-1.327,1.59-.562.37-1.205.556-1.926.556-.543,0-.987-.092-1.33-.273-.343-.183-.612-.396-.806-.641-.194-.244-.343-.462-.448-.652h-.146v1.392h-1.7ZM44.977,747.273c0,.628.091,1.179.273,1.652s.446.844.792,1.109c.346.266.769.398,1.269.398.52,0,.955-.139,1.304-.416s.614-.655.794-1.132c.181-.478.271-1.016.271-1.612,0-.59-.088-1.12-.265-1.59-.176-.469-.44-.84-.792-1.111s-.789-.407-1.312-.407c-.504,0-.93.13-1.278.39-.347.26-.61.623-.789,1.089-.178.465-.268,1.009-.268,1.63Z"/>
      <path d="M54.267,741.423c-.303,0-.562-.102-.777-.305-.215-.204-.323-.447-.323-.731,0-.287.108-.532.323-.735.215-.204.474-.306.777-.306s.562.102.777.306c.215.203.323.447.323.73,0,.287-.108.532-.323.736-.215.203-.474.305-.777.305ZM53.388,751.743v-8.94h1.74v8.94h-1.74Z"/>
      <path d="M61.641,742.803v1.396h-4.883v-1.396h4.883ZM58.068,740.661h1.74v8.457c0,.338.05.591.151.76s.232.283.393.343c.161.061.336.091.526.091.14,0,.262-.01.367-.029.105-.02.187-.035.245-.047l.314,1.438c-.101.039-.245.079-.431.12-.187.04-.419.062-.699.066-.458.008-.885-.073-1.28-.244-.396-.171-.716-.435-.96-.792-.245-.356-.367-.805-.367-1.345v-8.817Z"/>
      <path d="M65.058,739.822v1.118c0,.329-.062.676-.184,1.039-.122.362-.294.711-.515,1.044-.221.334-.481.621-.78.862l-.861-.617c.229-.334.428-.688.596-1.065.169-.376.253-.792.253-1.245v-1.136h1.49Z"/>
      <path d="M73.527,744.985l-1.578.279c-.066-.201-.17-.394-.312-.576s-.333-.332-.573-.448-.541-.175-.902-.175c-.493,0-.904.11-1.234.329-.33.22-.495.502-.495.847,0,.299.111.54.332.722.221.183.578.332,1.071.448l1.42.326c.822.19,1.436.483,1.839.879.404.396.605.91.605,1.543,0,.535-.154,1.012-.462,1.429-.309.417-.737.744-1.287.98-.549.237-1.185.355-1.906.355-1.001,0-1.818-.215-2.45-.644-.633-.429-1.021-1.039-1.165-1.83l1.682-.257c.105.438.32.77.646.993.326.223.75.334,1.274.334.57,0,1.026-.119,1.368-.357.341-.239.512-.531.512-.876,0-.279-.104-.515-.312-.704-.208-.19-.525-.334-.952-.431l-1.514-.332c-.834-.19-1.45-.493-1.848-.908-.398-.415-.597-.941-.597-1.577,0-.528.147-.99.442-1.386s.702-.705,1.222-.928c.52-.224,1.116-.335,1.787-.335.966,0,1.727.208,2.282.626.555.417.921.975,1.1,1.673Z"/>
      <path d="M80.092,739.822h2.183l3.795,9.267h.14l3.795-9.267h2.183v11.921h-1.711v-8.626h-.11l-3.516,8.608h-1.42l-3.516-8.614h-.11v8.632h-1.711v-11.921Z"/>
      <path d="M95.546,741.423c-.303,0-.562-.102-.777-.305-.215-.204-.323-.447-.323-.731,0-.287.108-.532.323-.735.215-.204.474-.306.777-.306s.562.102.777.306c.215.203.323.447.323.73,0,.287-.108.532-.323.736-.215.203-.474.305-.777.305ZM94.667,751.743v-8.94h1.74v8.94h-1.74Z"/>
      <path d="M105.447,744.985l-1.578.279c-.066-.201-.17-.394-.312-.576s-.333-.332-.573-.448-.541-.175-.902-.175c-.493,0-.904.11-1.234.329-.33.22-.495.502-.495.847,0,.299.111.54.332.722.221.183.578.332,1.071.448l1.42.326c.822.19,1.436.483,1.839.879.404.396.605.91.605,1.543,0,.535-.154,1.012-.462,1.429-.309.417-.737.744-1.287.98-.549.237-1.185.355-1.906.355-1.001,0-1.818-.215-2.45-.644-.633-.429-1.021-1.039-1.165-1.83l1.682-.257c.105.438.32.77.646.993.326.223.75.334,1.274.334.57,0,1.026-.119,1.368-.357.341-.239.512-.531.512-.876,0-.279-.104-.515-.312-.704-.208-.19-.525-.334-.952-.431l-1.514-.332c-.834-.19-1.45-.493-1.848-.908-.398-.415-.597-.941-.597-1.577,0-.528.147-.99.442-1.386s.702-.705,1.222-.928c.52-.224,1.116-.335,1.787-.335.966,0,1.727.208,2.282.626.555.417.921.975,1.1,1.673Z"/>
      <path d="M114.23,744.985l-1.578.279c-.066-.201-.17-.394-.312-.576s-.333-.332-.573-.448-.541-.175-.902-.175c-.493,0-.904.11-1.234.329-.33.22-.495.502-.495.847,0,.299.111.54.332.722.221.183.578.332,1.071.448l1.42.326c.822.19,1.436.483,1.839.879.404.396.605.91.605,1.543,0,.535-.154,1.012-.462,1.429-.309.417-.737.744-1.287.98-.549.237-1.185.355-1.906.355-1.001,0-1.818-.215-2.45-.644-.633-.429-1.021-1.039-1.165-1.83l1.682-.257c.105.438.32.77.646.993.326.223.75.334,1.274.334.57,0,1.026-.119,1.368-.357.341-.239.512-.531.512-.876,0-.279-.104-.515-.312-.704-.208-.19-.525-.334-.952-.431l-1.514-.332c-.834-.19-1.45-.493-1.848-.908-.398-.415-.597-.941-.597-1.577,0-.528.147-.99.442-1.386s.702-.705,1.222-.928c.52-.224,1.116-.335,1.787-.335.966,0,1.727.208,2.282.626.555.417.921.975,1.1,1.673Z"/>
      <path d="M117.192,741.423c-.303,0-.562-.102-.777-.305-.215-.204-.323-.447-.323-.731,0-.287.108-.532.323-.735.215-.204.474-.306.777-.306s.562.102.777.306c.215.203.323.447.323.73,0,.287-.108.532-.323.736-.215.203-.474.305-.777.305ZM116.313,751.743v-8.94h1.74v8.94h-1.74Z"/>
      <path d="M124.16,751.924c-.838,0-1.57-.192-2.194-.576-.625-.385-1.11-.922-1.456-1.612-.345-.691-.518-1.498-.518-2.422s.172-1.738.518-2.433c.346-.694.831-1.234,1.456-1.618.625-.385,1.356-.576,2.194-.576s1.569.191,2.194.576c.625.384,1.109.924,1.455,1.618.345.694.518,1.506.518,2.433s-.173,1.73-.518,2.422c-.346.69-.831,1.228-1.455,1.612-.625.384-1.356.576-2.194.576ZM124.166,750.463c.543,0,.993-.144,1.35-.431s.622-.67.794-1.146c.173-.478.259-1.004.259-1.578,0-.57-.086-1.095-.259-1.574-.172-.479-.438-.864-.794-1.155s-.807-.437-1.35-.437c-.547,0-1,.146-1.359.437s-.625.676-.797,1.155-.259,1.004-.259,1.574c0,.574.086,1.101.259,1.578.173.477.438.859.797,1.146s.812.431,1.359.431Z"/>
      <path d="M132.006,746.435v5.309h-1.74v-8.94h1.67v1.455h.111c.206-.474.528-.854.969-1.141.44-.287.996-.431,1.667-.431.609,0,1.143.127,1.601.381s.813.632,1.065,1.132c.252.501.378,1.12.378,1.857v5.687h-1.74v-5.478c0-.647-.169-1.155-.506-1.521-.338-.367-.801-.55-1.391-.55-.404,0-.762.087-1.074.262-.312.175-.559.43-.739.766-.181.335-.271.739-.271,1.213Z"/>
    </g>
    <g id="b" data-name="c">
      <g>
        <g>
          <path d="M1252.757,734.66v1.262c0,1.03-.598,1.594-1.627,1.594h-5.381v17.206c0,1.03-.564,1.594-1.594,1.594h-1.993c-1.03,0-1.594-.565-1.594-1.594v-17.206h-5.314c-1.03,0-1.594-.565-1.594-1.594v-1.262c0-1.03.565-1.594,1.594-1.594h15.877c1.03,0,1.627.564,1.627,1.594h0Z" fill="#1b38e0"/>
          <path d="M1251.394,747.78c0-5.015,3.421-8.902,8.204-8.902,2.259,0,4.252.864,5.48,2.79v-.83c0-1.03.565-1.594,1.594-1.594h1.96c1.03,0,1.594.565,1.594,1.594v13.884c0,1.03-.565,1.594-1.594,1.594h-1.96c-1.03,0-1.594-.565-1.594-1.594v-.797c-1.229,1.893-3.222,2.757-5.48,2.757-4.783,0-8.204-3.853-8.204-8.902h0ZM1265.146,747.78c0-2.724-1.727-4.783-4.351-4.783-2.69,0-4.252,2.159-4.252,4.783,0,2.657,1.561,4.783,4.252,4.783,2.624,0,4.351-2.059,4.351-4.783Z" fill="#1b38e0"/>
          <path d="M1279.493,753.925v.797c0,1.03-.598,1.594-1.627,1.594h-1.926c-1.03,0-1.594-.565-1.594-1.594v-20.826c0-1.03.565-1.594,1.594-1.594h1.926c1.03,0,1.627.565,1.627,1.594v7.772c1.229-1.926,3.222-2.79,5.447-2.79,4.816,0,8.238,3.886,8.238,8.902,0,5.049-3.421,8.902-8.238,8.902-2.225,0-4.218-.864-5.447-2.757h0ZM1288.03,747.78c0-2.624-1.594-4.783-4.252-4.783s-4.351,2.059-4.384,4.783c.033,2.724,1.727,4.783,4.384,4.783s4.252-2.126,4.252-4.783Z" fill="#1b38e0"/>
          <path d="M1301.414,753.925v.797c0,1.03-.598,1.594-1.627,1.594h-1.926c-1.03,0-1.594-.565-1.594-1.594v-20.826c0-1.03.565-1.594,1.594-1.594h1.926c1.03,0,1.627.565,1.627,1.594v7.772c1.229-1.926,3.222-2.79,5.447-2.79,4.816,0,8.238,3.886,8.238,8.902,0,5.049-3.421,8.902-8.238,8.902-2.225,0-4.218-.864-5.447-2.757h0ZM1309.95,747.78c0-2.624-1.594-4.783-4.252-4.783s-4.351,2.059-4.384,4.783c.033,2.724,1.727,4.783,4.384,4.783s4.252-2.126,4.252-4.783Z" fill="#1b38e0"/>
          <path d="M1317.721,734.561c0-1.528,1.096-2.69,3.089-2.69,1.96,0,3.089,1.162,3.089,2.69,0,1.495-1.196,2.657-3.089,2.657s-3.089-1.162-3.089-2.657ZM1318.253,754.722v-13.884c0-1.03.565-1.594,1.594-1.594h1.926c1.03,0,1.628.565,1.628,1.594v13.884c0,1.03-.598,1.594-1.628,1.594h-1.926c-1.03,0-1.594-.565-1.594-1.594Z" fill="#1b38e0"/>
          <path d="M1328.648,750.637v-7.573h-1.694c-.531,0-.864-.299-.864-.83v-2.159c0-.531.332-.83.864-.83h2.093l.565-3.454c.133-.698.598-1.063,1.295-1.063h1.628c.764,0,1.162.432,1.162,1.162v3.355h3.853c.531,0,.83.299.83.83v2.159c0,.532-.299.83-.83.83h-3.853v7.739c0,1.262.631,1.76,1.395,1.76.864,0,1.428-.664,1.428-1.561,0-.166,0-.365-.033-.598-.066-.598.133-.897.698-.897h2.026c.432,0,.797.166.93.664.133.498.199,1.03.199,1.296,0,3.687-2.624,5.215-5.713,5.215-2.89,0-5.979-1.329-5.979-6.045h0Z" fill="#1b38e0"/>
        </g>
        <g>
          <g>
            <path d="M1310.052,712.73l5.701,6.356c.103.115,0,.208-.232.208h-57.044c-.231,0-.335-.094-.232-.208l5.701-6.356c.907-1.011,3.584-1.773,6.043-1.773h34.02c2.459,0,5.137.763,6.043,1.773h0Z" fill="#f2e7e5"/>
            <path d="M1315.521,720.295h-57.044c-.547,0-.987-.256-1.179-.685-.178-.398-.1-.854.202-1.191l5.701-6.356c1.24-1.383,4.354-2.106,6.788-2.106h34.02c2.435,0,5.548.724,6.788,2.106l5.701,6.356c.302.337.38.794.202,1.192-.192.429-.632.685-1.179.685h0ZM1260.3,718.293h53.399l-4.391-4.895c-.611-.681-2.937-1.441-5.298-1.441h-34.02c-2.361,0-4.687.759-5.299,1.441l-4.391,4.895h0Z" fill="#1b38e0"/>
          </g>
          <g>
            <g>
              <path d="M1270.673,714.618l-2.352-.703c1.06-3.547,1.406-7.01,1.03-10.293-.244-2.128-.73-3.724-1.244-5.414-.721-2.369-1.467-4.818-1.622-8.846-.154-3.973.423-6.329,1.99-8.132,1.609-1.851,3.724-2.51,4.841-2.737,1.213-.247,4.309-.604,6.856,1.41,1.147.906,1.691,1.913,2.268,2.978.754,1.393,1.341,3.306,1.651,5.386.223,1.497.266,2.813.298,3.773.006.193.013.401.022.602,1.244-.512,2.404-.428,3.439-.354,2.628.189,4.761,1.55,5.799,2.345l-1.493,1.95c-.66-.505-2.419-1.697-4.483-1.846-1.084-.078-1.785-.107-2.526.266-.146.073-.253.143-.357.21-.273.176-.781.504-1.468.309-.472-.134-1.075-.53-1.266-1.656-.079-.467-.098-1.031-.121-1.745-.031-.951-.07-2.134-.272-3.491-.363-2.435-1.022-3.914-1.382-4.579-.512-.945-.881-1.628-1.632-2.221-1.788-1.414-4.159-1.069-4.843-.93-.812.166-2.345.638-3.478,1.942-.941,1.083-1.538,2.591-1.39,6.427.143,3.711.842,6.006,1.518,8.226.524,1.72,1.065,3.5,1.335,5.85.415,3.615.039,7.409-1.117,11.276Z" fill="#1b38e0"/>
              <path d="M1305.761,715.655l-2.213-1.064c1.083-2.251,1.61-4.704,1.526-7.094-.043-1.228-.116-3.283-1.361-5.51-.548-.98-1.253-1.868-2.097-2.639-.42-.384-.521-1.007-.243-1.504.908-1.626,1.565-3.35,1.952-5.122.492-2.253,1.315-6.023-.672-8.906-.335-.485-1.224-1.775-2.865-2.301-1.366-.438-2.875-.232-4.486.612-2.676,1.401-3.631,4.247-4.201,5.947-.629,1.873-.847,3.865-.65,5.919l-2.444.235c-.231-2.399.027-4.733.766-6.935.642-1.916,1.838-5.481,5.389-7.341,2.758-1.444,4.989-1.219,6.374-.775,2.438.781,3.717,2.636,4.137,3.245,2.592,3.76,1.589,8.355,1.049,10.823-.373,1.708-.966,3.374-1.766,4.964.74.782,1.377,1.647,1.898,2.58,1.535,2.746,1.624,5.267,1.672,6.621.098,2.786-.513,5.636-1.767,8.244Z" fill="#1b38e0"/>
            </g>
            <circle cx="1285.323" cy="701.2" r="1.516" fill="#1b38e0"/>
            <circle cx="1296.138" cy="700.251" r="1.516" fill="#1b38e0"/>
            <circle cx="1293.12" cy="706.089" r="2.405" fill="#1b38e0"/>
          </g>
        </g>
      </g>
    </g>
  </g>
  <g>
    <g>
      <g>
        <circle cx="1107.942" cy="431.447" r="12.873" fill="#ff8585"/>
        <circle cx="1212.621" cy="416.154" r="12.873" fill="#ff8585"/>
        <circle cx="1224.529" cy="479.514" r="20.412" fill="#ff8585"/>
        <path d="M930.531,554.392l-19.687-6.841c21.124-60.798,37.316-123.714,48.128-187.003,7.705-45.106,11.563-92.01,14.966-133.393.324-3.934,1.3-15.795,8.36-28.985,15.369-28.712,45.833-37.063,47.122-37.405,25.379-6.725,54.143,1.085,73.281,19.893,19.612,19.274,21.678,43.467,23.675,66.864,1.967,23.034-.589,46.241-7.602,69.184h.074c12.206,0,24.371,1.352,36.336,4.046,17.285,3.893,33.749,10.495,48.933,19.624l-10.739,17.862c-13.273-7.98-27.664-13.751-42.773-17.153-15.024-3.383-30.414-4.346-45.744-2.86-3.606.348-7.138-1.201-9.322-4.094-2.184-2.893-2.708-6.712-1.384-10.086,9.721-24.768,13.575-49.918,11.455-74.75-1.904-22.295-3.407-39.905-17.518-53.773-10.626-10.443-30.97-20.534-53.337-14.611-.222.06-23.01,6.406-34.083,27.094-5.019,9.376-5.728,17.991-5.96,20.822-3.441,41.843-7.338,89.228-15.196,135.23-11.004,64.416-27.485,128.454-48.985,190.333Z" fill="#ff8585"/>
        <path d="M1274.294,571.576l-14.519-14.952c4.289-4.165,41.647-42.166,32.672-93.212-4.485-25.512-18.409-43.486-29.299-54.072-3.251-3.16-4.086-8.059-2.065-12.118,14.771-29.661,25.158-60.56,30.872-91.839,6.346-34.737,3.218-47.939-1.108-57.033-9.624-20.232-28.162-28.925-31.781-30.462-6.181-2.625-22.6-9.601-34.276-3.489-7.889,4.129-10.823,13.177-16.199,31.62-1.041,3.572-2.118,7.266-3.346,11.25-8.216,26.65-19.348,53.318-33.089,79.262l-18.418-9.754c13.13-24.793,23.759-50.244,31.59-75.648,1.181-3.831,2.235-7.446,3.254-10.943,5.834-20.017,10.443-35.827,26.543-44.253,20.412-10.683,43.425-.908,52.088,2.772,6.791,2.885,29.92,14.345,42.453,40.693,5.827,12.25,10.198,29.176,2.789,69.731-5.639,30.869-15.548,61.354-29.483,90.73,11.99,13.105,25.263,33.007,29.999,59.945,10.832,61.612-33.58,106.821-38.68,111.773Z" fill="#ff8585"/>
      </g>
      <path d="M1122.335,499.011c-39.837,0-72.248-34.23-72.248-76.302s32.411-76.3,72.248-76.3,72.25,34.228,72.25,76.3-32.411,76.302-72.25,76.302ZM1122.335,362.515c-30.956,0-56.143,27.003-56.143,60.194s25.186,60.196,56.143,60.196,56.145-27.005,56.145-60.196-25.186-60.194-56.145-60.194Z" fill="#ff8585"/>
      <path d="M1248.356,459.931c-31.849,0-57.759-27.317-57.759-60.896s25.91-60.896,57.759-60.896,57.759,27.317,57.759,60.896-25.91,60.896-57.759,60.896ZM1248.356,354.244c-22.969,0-41.653,20.092-41.653,44.791s18.685,44.791,41.653,44.791,41.653-20.092,41.653-44.791-18.685-44.791-41.653-44.791Z" fill="#ff8585"/>
      <path d="M896.644,416.76l-12.622-10.003c12.62-15.921,27.188-25.279,43.299-27.813,6.617-1.04,11.816-.629,13.772-.476,28.287,2.218,92.234,12.966,118.417,17.485l-2.741,15.869c-20.254-3.496-88.546-15.073-116.939-17.301-1.583-.126-5.269-.417-10.005.33-11.991,1.887-23.155,9.258-33.182,21.907Z" fill="#ff8585"/>
    </g>
    <text transform="translate(38.633 218.62)" fill="#ff8585" font-family="FilsonSoftMedium, &apos;Filson Soft&apos;" font-size="45.187"><tspan x="0" y="0" letter-spacing="-.004em">W</tspan><tspan x="44.645" y="0">ha</tspan><tspan x="101.67" y="0" letter-spacing="-.015em">t</tspan><tspan x="120.874" y="0" letter-spacing="-.026em">’</tspan><tspan x="131.222" y="0" letter-spacing="0em">s ou</tspan><tspan x="218.793" y="0" letter-spacing="-.024em">r</tspan><tspan x="235.197" y="0" letter-spacing="-.03em"> </tspan><tspan x="245.229" y="0">visio</tspan><tspan x="344.277" y="0" letter-spacing="-.01em">n</tspan><tspan x="371.435" y="0">?</tspan><tspan x="395.474" y="0" letter-spacing="-.028em"> </tspan><tspan x="405.596" y="0" letter-spacing="-.096em">T</tspan><tspan x="428.731" y="0">o be</tspan><tspan x="524.799" y="0" letter-spacing="-.012em">c</tspan><tspan x="548.566" y="0" letter-spacing="0em">ome the</tspan><tspan x="0" y="54.225">main app </tspan><tspan x="222.002" y="54.225" letter-spacing="-.025em">f</tspan><tspan x="238.405" y="54.225" letter-spacing="0em">o</tspan><tspan x="266.285" y="54.225" letter-spacing="-.024em">r</tspan><tspan x="282.688" y="54.225" xml:space="preserve"> small business </tspan><tspan x="619.511" y="54.225" letter-spacing="-.018em">o</tspan><tspan x="646.577" y="54.225" letter-spacing="0em">wne</tspan><tspan x="738.713" y="54.225" letter-spacing="0em">r</tspan><tspan x="756.155" y="54.225">s</tspan><tspan x="0" y="108.449">to go to in o</tspan><tspan x="266.013" y="108.449" letter-spacing="-.007em">r</tspan><tspan x="283.184" y="108.449" letter-spacing="0em">de</tspan><tspan x="339.983" y="108.449" letter-spacing="-.024em">r</tspan><tspan x="356.387" y="108.449" xml:space="preserve" letter-spacing="0em"> to run thei</tspan><tspan x="597.953" y="108.449" letter-spacing="-.024em">r</tspan><tspan x="0" y="162.674">businesses</tspan><tspan x="234.474" y="162.674" letter-spacing="-.027em"> </tspan><tspan x="244.642" y="162.674">with pleasu</tspan><tspan x="499.719" y="162.674" letter-spacing="-.009em">r</tspan><tspan x="516.8" y="162.674">e and ease,</tspan><tspan x="0" y="216.898">so th</tspan><tspan x="107.453" y="216.898" letter-spacing="-.021em">e</tspan><tspan x="133.797" y="216.898" letter-spacing="-.029em">y</tspan><tspan x="158.47" y="216.898" letter-spacing="0em"> </tspan><tspan x="169.856" y="216.898" letter-spacing="-.01em">c</tspan><tspan x="193.715" y="216.898">an spend less time on the</tspan><tspan x="0" y="271.123">logi</tspan><tspan x="81.697" y="271.123" letter-spacing="-.002em">s</tspan><tspan x="102.348" y="271.123">tics and </tspan><tspan x="288.879" y="271.123" letter-spacing="-.025em">f</tspan><tspan x="305.281" y="271.123">ocus on thei</tspan><tspan x="571.022" y="271.123" letter-spacing="-.024em">r</tspan><tspan x="587.426" y="271.123" xml:space="preserve"> passion,</tspan><tspan x="0" y="325.348">hone thei</tspan><tspan x="208.716" y="325.348" letter-spacing="-.024em">r</tspan><tspan x="225.119" y="325.348" xml:space="preserve"> c</tspan><tspan x="260.816" y="325.348" letter-spacing="-.007em">r</tspan><tspan x="277.988" y="325.348" letter-spacing="0em">aft, and do</tspan><tspan x="523.668" y="325.348" letter-spacing="-.027em"> </tspan><tspan x="533.835" y="325.348">what th</tspan><tspan x="706.809" y="325.348" letter-spacing="-.021em">e</tspan><tspan x="733.152" y="325.348" letter-spacing="-.029em">y</tspan><tspan x="0" y="379.572">l</tspan><tspan x="12.246" y="379.572" letter-spacing="-.021em">ov</tspan><tspan x="64.165" y="379.572">e the mo</tspan><tspan x="258.376" y="379.572" letter-spacing="-.002em">s</tspan><tspan x="279.027" y="379.572" letter-spacing="0em">t. </tspan></text>
  </g>
</svg>