<svg width="655" height="364" viewBox="0 0 655 364" fill="none" xmlns="http://www.w3.org/2000/svg">
<rect x="0.5" y="0.5" width="654" height="363" rx="20.5" stroke="#1C0706"/>
<path d="M44.9332 287.517C42.2741 287.517 39.9105 287.062 37.8423 286.151C35.7865 285.24 34.1615 283.972 32.9673 282.347C31.7732 280.722 31.1392 278.844 31.0653 276.714H38.0085C38.0701 277.736 38.4086 278.629 39.0241 279.392C39.6397 280.143 40.4583 280.728 41.4801 281.146C42.5019 281.565 43.6468 281.774 44.9148 281.774C46.2689 281.774 47.4692 281.54 48.5156 281.072C49.562 280.592 50.3807 279.928 50.9716 279.078C51.5625 278.229 51.8518 277.25 51.8395 276.142C51.8518 274.997 51.5563 273.988 50.9531 273.114C50.3499 272.24 49.4759 271.556 48.331 271.064C47.1984 270.571 45.8319 270.325 44.2315 270.325H40.8892V265.044H44.2315C45.5488 265.044 46.6998 264.816 47.6847 264.361C48.6818 263.905 49.4635 263.265 50.0298 262.44C50.5961 261.603 50.8731 260.637 50.8608 259.541C50.8731 258.47 50.633 257.541 50.1406 256.753C49.6605 255.953 48.9773 255.331 48.0909 254.888C47.2169 254.445 46.1889 254.223 45.0071 254.223C43.8499 254.223 42.7789 254.432 41.794 254.851C40.8092 255.269 40.0152 255.866 39.4119 256.642C38.8087 257.405 38.4886 258.316 38.4517 259.375H31.8594C31.9086 257.258 32.518 255.399 33.6875 253.798C34.8693 252.186 36.4451 250.93 38.4148 250.031C40.3845 249.12 42.5942 248.665 45.044 248.665C47.5677 248.665 49.759 249.139 51.6179 250.087C53.4891 251.022 54.9356 252.284 55.9574 253.872C56.9792 255.46 57.4901 257.214 57.4901 259.135C57.5024 261.265 56.8745 263.05 55.6065 264.49C54.3509 265.93 52.7012 266.872 50.6577 267.315V267.611C53.3168 267.98 55.3542 268.965 56.7699 270.565C58.1979 272.153 58.9058 274.129 58.8935 276.493C58.8935 278.61 58.2902 280.506 57.0838 282.18C55.8897 283.842 54.2401 285.147 52.1349 286.095C50.0421 287.043 47.6416 287.517 44.9332 287.517ZM79.2106 287.72C76.1699 287.72 73.56 286.951 71.381 285.412C69.2144 283.861 67.5463 281.626 66.3768 278.709C65.2196 275.779 64.641 272.252 64.641 268.128C64.6533 264.004 65.238 260.495 66.3952 257.602C67.5647 254.697 69.2328 252.481 71.3995 250.955C73.5785 249.428 76.1822 248.665 79.2106 248.665C82.239 248.665 84.8427 249.428 87.0217 250.955C89.2006 252.481 90.8687 254.697 92.0259 257.602C93.1954 260.508 93.7802 264.016 93.7802 268.128C93.7802 272.264 93.1954 275.797 92.0259 278.727C90.8687 281.645 89.2006 283.873 87.0217 285.412C84.855 286.951 82.2513 287.72 79.2106 287.72ZM79.2106 281.94C81.5742 281.94 83.4393 280.777 84.8058 278.45C86.1845 276.111 86.8739 272.67 86.8739 268.128C86.8739 265.124 86.56 262.6 85.9322 260.557C85.3043 258.513 84.418 256.974 83.2731 255.94C82.1282 254.894 80.774 254.371 79.2106 254.371C76.8593 254.371 75.0004 255.54 73.6339 257.879C72.2674 260.206 71.578 263.622 71.5657 268.128C71.5534 271.144 71.855 273.68 72.4705 275.736C73.0984 277.792 73.9847 279.343 75.1296 280.389C76.2745 281.423 77.6348 281.94 79.2106 281.94ZM120.136 279.909V277.915C120.136 276.45 120.443 275.102 121.059 273.871C121.687 272.64 122.598 271.649 123.792 270.898C124.986 270.147 126.433 269.771 128.131 269.771C129.879 269.771 131.344 270.147 132.526 270.898C133.708 271.636 134.601 272.621 135.204 273.852C135.819 275.083 136.127 276.437 136.127 277.915V279.909C136.127 281.374 135.819 282.722 135.204 283.953C134.588 285.184 133.683 286.175 132.489 286.926C131.308 287.677 129.855 288.053 128.131 288.053C126.408 288.053 124.949 287.677 123.755 286.926C122.561 286.175 121.656 285.184 121.04 283.953C120.437 282.722 120.136 281.374 120.136 279.909ZM124.955 277.915V279.909C124.955 280.882 125.189 281.774 125.657 282.587C126.125 283.399 126.95 283.805 128.131 283.805C129.326 283.805 130.144 283.405 130.587 282.605C131.043 281.793 131.271 280.894 131.271 279.909V277.915C131.271 276.93 131.055 276.031 130.624 275.219C130.193 274.394 129.362 273.982 128.131 273.982C126.974 273.982 126.156 274.394 125.675 275.219C125.195 276.031 124.955 276.93 124.955 277.915ZM100.913 258.267V256.273C100.913 254.795 101.227 253.441 101.854 252.21C102.482 250.979 103.393 249.994 104.587 249.256C105.781 248.505 107.228 248.129 108.927 248.129C110.663 248.129 112.121 248.505 113.303 249.256C114.497 249.994 115.396 250.979 115.999 252.21C116.603 253.441 116.904 254.795 116.904 256.273V258.267C116.904 259.744 116.596 261.098 115.981 262.33C115.378 263.548 114.479 264.527 113.285 265.266C112.091 266.004 110.638 266.374 108.927 266.374C107.191 266.374 105.726 266.004 104.532 265.266C103.35 264.527 102.451 263.542 101.836 262.311C101.22 261.08 100.913 259.732 100.913 258.267ZM105.769 256.273V258.267C105.769 259.252 105.997 260.151 106.452 260.963C106.92 261.763 107.745 262.163 108.927 262.163C110.109 262.163 110.921 261.763 111.364 260.963C111.82 260.151 112.048 259.252 112.048 258.267V256.273C112.048 255.288 111.832 254.389 111.401 253.577C110.97 252.752 110.146 252.339 108.927 252.339C107.757 252.339 106.939 252.752 106.471 253.577C106.003 254.402 105.769 255.3 105.769 256.273ZM103.018 287L129.018 249.182H133.634L107.634 287H103.018ZM36.5909 321.298C35.0464 321.298 33.7107 320.97 32.5838 320.314C31.4635 319.651 30.5985 318.73 29.9886 317.55C29.3788 316.363 29.0739 314.988 29.0739 313.423C29.0739 311.846 29.3788 310.467 29.9886 309.287C30.5985 308.1 31.4635 307.179 32.5838 306.523C33.7107 305.86 35.0464 305.528 36.5909 305.528C38.1354 305.528 39.4678 305.86 40.5881 306.523C41.715 307.179 42.5833 308.1 43.1932 309.287C43.803 310.467 44.108 311.846 44.108 313.423C44.108 314.988 43.803 316.363 43.1932 317.55C42.5833 318.73 41.715 319.651 40.5881 320.314C39.4678 320.97 38.1354 321.298 36.5909 321.298ZM36.6108 318.017C37.3134 318.017 37.9001 317.818 38.3707 317.42C38.8414 317.016 39.196 316.466 39.4347 315.77C39.6799 315.074 39.8026 314.282 39.8026 313.393C39.8026 312.505 39.6799 311.713 39.4347 311.017C39.196 310.321 38.8414 309.771 38.3707 309.366C37.9001 308.962 37.3134 308.76 36.6108 308.76C35.9015 308.76 35.3049 308.962 34.821 309.366C34.3438 309.771 33.9825 310.321 33.7372 311.017C33.4986 311.713 33.3793 312.505 33.3793 313.393C33.3793 314.282 33.4986 315.074 33.7372 315.77C33.9825 316.466 34.3438 317.016 34.821 317.42C35.3049 317.818 35.9015 318.017 36.6108 318.017ZM55.0753 305.727V308.909H45.6491V305.727H55.0753ZM47.8068 321V304.624C47.8068 303.517 48.0223 302.598 48.4531 301.869C48.8906 301.14 49.4872 300.593 50.2429 300.229C50.9986 299.864 51.857 299.682 52.8182 299.682C53.4678 299.682 54.0611 299.732 54.598 299.831C55.1416 299.93 55.5459 300.02 55.8111 300.099L55.0554 303.281C54.8897 303.228 54.6842 303.179 54.4389 303.132C54.2003 303.086 53.955 303.062 53.7031 303.062C53.08 303.062 52.6458 303.208 52.4006 303.5C52.1553 303.785 52.0327 304.186 52.0327 304.703V321H47.8068ZM64.1435 321V305.727H68.1804V308.422H68.3594C68.6776 307.527 69.2079 306.821 69.9503 306.304C70.6927 305.787 71.581 305.528 72.6151 305.528C73.6624 305.528 74.554 305.79 75.2898 306.314C76.0256 306.831 76.5161 307.534 76.7614 308.422H76.9205C77.232 307.547 77.7955 306.848 78.6108 306.324C79.4328 305.794 80.4039 305.528 81.5241 305.528C82.9493 305.528 84.1061 305.982 84.9943 306.891C85.8892 307.792 86.3366 309.071 86.3366 310.729V321H82.1108V311.564C82.1108 310.715 81.8854 310.079 81.4347 309.655C80.9839 309.231 80.4205 309.018 79.7443 309.018C78.9754 309.018 78.3755 309.264 77.9446 309.754C77.5137 310.238 77.2983 310.878 77.2983 311.673V321H73.1918V311.474C73.1918 310.725 72.9763 310.129 72.5455 309.685C72.1212 309.241 71.5611 309.018 70.8651 309.018C70.3944 309.018 69.9702 309.138 69.5923 309.376C69.2211 309.608 68.9261 309.937 68.7074 310.361C68.4886 310.778 68.3793 311.269 68.3793 311.832V321H64.1435ZM89.6825 321V305.727H93.9183V321H89.6825ZM91.8104 303.759C91.1806 303.759 90.6404 303.55 90.1896 303.132C89.7455 302.708 89.5234 302.201 89.5234 301.611C89.5234 301.027 89.7455 300.527 90.1896 300.109C90.6404 299.685 91.1806 299.473 91.8104 299.473C92.4401 299.473 92.977 299.685 93.4212 300.109C93.8719 300.527 94.0973 301.027 94.0973 301.611C94.0973 302.201 93.8719 302.708 93.4212 303.132C92.977 303.55 92.4401 303.759 91.8104 303.759ZM101.547 300.636V321H97.3114V300.636H101.547ZM109.176 300.636V321H104.94V300.636H109.176ZM119.529 321.298C117.958 321.298 116.606 320.98 115.473 320.344C114.346 319.701 113.477 318.793 112.868 317.619C112.258 316.439 111.953 315.044 111.953 313.433C111.953 311.862 112.258 310.483 112.868 309.297C113.477 308.11 114.336 307.186 115.443 306.523C116.556 305.86 117.862 305.528 119.36 305.528C120.368 305.528 121.306 305.691 122.174 306.016C123.049 306.334 123.812 306.814 124.461 307.457C125.118 308.1 125.628 308.909 125.993 309.884C126.357 310.851 126.539 311.985 126.539 313.284V314.447H113.643V311.822H122.552C122.552 311.213 122.42 310.672 122.154 310.202C121.889 309.731 121.521 309.363 121.051 309.098C120.587 308.826 120.047 308.69 119.43 308.69C118.787 308.69 118.217 308.839 117.72 309.138C117.229 309.429 116.845 309.824 116.566 310.321C116.288 310.812 116.145 311.358 116.139 311.962V314.457C116.139 315.213 116.278 315.866 116.556 316.416C116.842 316.966 117.243 317.391 117.76 317.689C118.277 317.987 118.89 318.136 119.599 318.136C120.07 318.136 120.501 318.07 120.892 317.938C121.283 317.805 121.618 317.606 121.896 317.341C122.174 317.076 122.386 316.751 122.532 316.366L126.45 316.625C126.251 317.566 125.843 318.388 125.227 319.091C124.617 319.787 123.828 320.33 122.86 320.722C121.899 321.106 120.789 321.298 119.529 321.298ZM133.539 312.17V321H129.304V305.727H133.341V308.422H133.52C133.858 307.534 134.424 306.831 135.22 306.314C136.015 305.79 136.98 305.528 138.113 305.528C139.174 305.528 140.099 305.76 140.887 306.224C141.676 306.688 142.289 307.351 142.727 308.213C143.164 309.068 143.383 310.089 143.383 311.276V321H139.147V312.031C139.154 311.097 138.915 310.367 138.431 309.844C137.948 309.313 137.281 309.048 136.433 309.048C135.863 309.048 135.359 309.171 134.922 309.416C134.491 309.661 134.153 310.019 133.907 310.49C133.669 310.954 133.546 311.514 133.539 312.17ZM150.957 312.17V321H146.722V305.727H150.759V308.422H150.938C151.276 307.534 151.842 306.831 152.638 306.314C153.433 305.79 154.398 305.528 155.531 305.528C156.592 305.528 157.517 305.76 158.305 306.224C159.094 306.688 159.707 307.351 160.145 308.213C160.582 309.068 160.801 310.089 160.801 311.276V321H156.565V312.031C156.572 311.097 156.333 310.367 155.849 309.844C155.366 309.313 154.699 309.048 153.851 309.048C153.281 309.048 152.777 309.171 152.339 309.416C151.909 309.661 151.571 310.019 151.325 310.49C151.087 310.954 150.964 311.514 150.957 312.17ZM164.14 321V305.727H168.375V321H164.14ZM166.267 303.759C165.638 303.759 165.097 303.55 164.647 303.132C164.203 302.708 163.98 302.201 163.98 301.611C163.98 301.027 164.203 300.527 164.647 300.109C165.097 299.685 165.638 299.473 166.267 299.473C166.897 299.473 167.434 299.685 167.878 300.109C168.329 300.527 168.554 301.027 168.554 301.611C168.554 302.201 168.329 302.708 167.878 303.132C167.434 303.55 166.897 303.759 166.267 303.759ZM176.124 321.288C175.149 321.288 174.281 321.119 173.518 320.781C172.756 320.437 172.153 319.929 171.709 319.26C171.271 318.584 171.053 317.742 171.053 316.734C171.053 315.886 171.208 315.173 171.52 314.597C171.831 314.02 172.256 313.556 172.793 313.205C173.33 312.853 173.939 312.588 174.622 312.409C175.312 312.23 176.034 312.104 176.79 312.031C177.678 311.938 178.394 311.852 178.938 311.773C179.481 311.687 179.875 311.561 180.121 311.395C180.366 311.229 180.489 310.984 180.489 310.659V310.599C180.489 309.97 180.29 309.482 179.892 309.138C179.501 308.793 178.944 308.621 178.222 308.621C177.459 308.621 176.853 308.79 176.402 309.128C175.951 309.459 175.653 309.877 175.507 310.381L171.589 310.062C171.788 309.134 172.179 308.332 172.763 307.656C173.346 306.973 174.098 306.45 175.02 306.085C175.948 305.714 177.022 305.528 178.241 305.528C179.09 305.528 179.902 305.628 180.678 305.827C181.46 306.026 182.152 306.334 182.756 306.751C183.366 307.169 183.846 307.706 184.197 308.362C184.549 309.012 184.724 309.791 184.724 310.699V321H180.707V318.882H180.588C180.343 319.359 180.015 319.78 179.604 320.145C179.193 320.503 178.699 320.785 178.122 320.99C177.545 321.189 176.879 321.288 176.124 321.288ZM177.337 318.365C177.96 318.365 178.51 318.242 178.987 317.997C179.464 317.745 179.839 317.407 180.111 316.983C180.383 316.559 180.518 316.078 180.518 315.541V313.92C180.386 314.007 180.204 314.086 179.972 314.159C179.746 314.225 179.491 314.288 179.206 314.348C178.921 314.401 178.636 314.451 178.351 314.497C178.066 314.537 177.807 314.573 177.575 314.607C177.078 314.679 176.644 314.795 176.273 314.955C175.902 315.114 175.613 315.329 175.408 315.601C175.202 315.866 175.099 316.197 175.099 316.595C175.099 317.172 175.308 317.613 175.726 317.918C176.15 318.216 176.687 318.365 177.337 318.365ZM192.246 300.636V321H188.011V300.636H192.246ZM208.347 310.082L204.469 310.321C204.403 309.99 204.26 309.691 204.042 309.426C203.823 309.154 203.534 308.939 203.176 308.78C202.825 308.614 202.404 308.531 201.914 308.531C201.257 308.531 200.704 308.67 200.253 308.949C199.802 309.221 199.577 309.585 199.577 310.043C199.577 310.407 199.723 310.715 200.015 310.967C200.306 311.219 200.807 311.421 201.516 311.574L204.28 312.131C205.765 312.436 206.872 312.926 207.601 313.602C208.33 314.278 208.695 315.167 208.695 316.267C208.695 317.268 208.4 318.146 207.81 318.902C207.227 319.658 206.425 320.248 205.404 320.672C204.39 321.089 203.22 321.298 201.894 321.298C199.872 321.298 198.261 320.877 197.061 320.036C195.868 319.187 195.169 318.034 194.963 316.575L199.13 316.357C199.256 316.973 199.56 317.444 200.044 317.768C200.528 318.087 201.148 318.246 201.904 318.246C202.646 318.246 203.243 318.103 203.694 317.818C204.151 317.527 204.383 317.152 204.39 316.695C204.383 316.31 204.221 315.995 203.902 315.75C203.584 315.498 203.094 315.306 202.431 315.173L199.786 314.646C198.294 314.348 197.184 313.831 196.455 313.095C195.732 312.359 195.371 311.421 195.371 310.281C195.371 309.3 195.636 308.455 196.167 307.746C196.703 307.036 197.456 306.49 198.424 306.105C199.398 305.721 200.538 305.528 201.844 305.528C203.773 305.528 205.291 305.936 206.398 306.751C207.512 307.567 208.161 308.677 208.347 310.082Z" fill="#1C0706"/>
<path d="M39.6889 79L29.0156 41.1818H36.3835L43.1974 68.973H43.5483L50.8239 41.1818H57.527L64.821 68.9915H65.1534L71.9673 41.1818H79.3352L68.6619 79H61.9034L54.3324 52.4645H54.0369L46.4474 79H39.6889ZM90.4748 62.3807V79H83.7901V41.1818H90.3271V55.456H90.6594C91.3242 53.8556 92.3522 52.5937 93.7433 51.6705C95.1467 50.7348 96.9317 50.267 99.0984 50.267C101.068 50.267 102.785 50.6795 104.25 51.5043C105.715 52.3291 106.848 53.5355 107.648 55.1236C108.461 56.7116 108.867 58.6506 108.867 60.9403V79H102.182V61.9744C102.182 60.0663 101.69 58.5829 100.705 57.5241C99.7324 56.4531 98.3659 55.9176 96.6055 55.9176C95.4237 55.9176 94.3649 56.1761 93.4293 56.6932C92.506 57.1979 91.7797 57.9304 91.2504 58.8906C90.7333 59.8509 90.4748 61.0142 90.4748 62.3807ZM123.843 79.5724C122.045 79.5724 120.426 79.2524 118.986 78.6122C117.558 77.9598 116.426 76.9995 115.588 75.7315C114.764 74.4635 114.351 72.9001 114.351 71.0412C114.351 69.4408 114.647 68.1174 115.238 67.071C115.828 66.0246 116.635 65.1875 117.657 64.5597C118.678 63.9318 119.829 63.4579 121.11 63.1378C122.402 62.8054 123.738 62.5653 125.117 62.4176C126.779 62.2453 128.127 62.0914 129.161 61.956C130.195 61.8082 130.946 61.5866 131.414 61.2912C131.894 60.9834 132.134 60.5095 132.134 59.8693V59.7585C132.134 58.3674 131.721 57.2902 130.897 56.527C130.072 55.7637 128.884 55.3821 127.333 55.3821C125.695 55.3821 124.397 55.7391 123.436 56.4531C122.489 57.1671 121.848 58.0104 121.516 58.983L115.275 58.0966C115.767 56.3731 116.579 54.9328 117.712 53.7756C118.845 52.6061 120.23 51.732 121.867 51.1534C123.504 50.5625 125.314 50.267 127.296 50.267C128.662 50.267 130.023 50.4271 131.377 50.7472C132.731 51.0672 133.968 51.5966 135.088 52.3352C136.209 53.0616 137.107 54.0526 137.784 55.3082C138.474 56.5639 138.819 58.1335 138.819 60.017V79H132.392V75.1037H132.171C131.765 75.8916 131.192 76.6302 130.453 77.3196C129.727 77.9967 128.81 78.5445 127.702 78.9631C126.606 79.3693 125.32 79.5724 123.843 79.5724ZM125.578 74.6605C126.92 74.6605 128.084 74.3958 129.069 73.8665C130.053 73.3248 130.81 72.6108 131.34 71.7244C131.882 70.8381 132.152 69.8717 132.152 68.8253V65.483C131.943 65.6553 131.586 65.8153 131.081 65.9631C130.589 66.1108 130.035 66.2401 129.419 66.3509C128.804 66.4616 128.194 66.5601 127.591 66.6463C126.988 66.7325 126.465 66.8063 126.022 66.8679C125.025 67.0033 124.132 67.2249 123.344 67.5327C122.556 67.8404 121.935 68.2713 121.479 68.8253C121.024 69.367 120.796 70.0687 120.796 70.9304C120.796 72.1615 121.245 73.0909 122.144 73.7188C123.042 74.3466 124.187 74.6605 125.578 74.6605ZM159.703 50.6364V55.8068H143.398V50.6364H159.703ZM147.424 43.8409H154.108V70.4688C154.108 71.3674 154.244 72.0568 154.515 72.5369C154.798 73.0047 155.167 73.3248 155.623 73.4972C156.078 73.6695 156.583 73.7557 157.137 73.7557C157.555 73.7557 157.937 73.7249 158.282 73.6634C158.639 73.6018 158.909 73.5464 159.094 73.4972L160.221 78.723C159.864 78.8461 159.353 78.9815 158.688 79.1293C158.035 79.277 157.235 79.3632 156.287 79.3878C154.613 79.437 153.105 79.1847 151.763 78.6307C150.421 78.0644 149.356 77.1903 148.569 76.0085C147.793 74.8267 147.411 73.3494 147.424 71.5767V43.8409ZM190.528 90.2273C188.127 90.2273 186.065 89.901 184.342 89.2486C182.618 88.6084 181.233 87.7467 180.187 86.6634C179.14 85.58 178.414 84.3797 178.008 83.0625L184.028 81.6037C184.299 82.1577 184.692 82.7055 185.21 83.2472C185.727 83.8011 186.422 84.2566 187.296 84.6136C188.183 84.983 189.297 85.1676 190.638 85.1676C192.534 85.1676 194.104 84.706 195.347 83.7827C196.591 82.8717 197.212 81.3698 197.212 79.277V73.9034H196.88C196.535 74.5928 196.031 75.3007 195.366 76.027C194.713 76.7533 193.845 77.3627 192.762 77.8551C191.691 78.3475 190.343 78.5938 188.718 78.5938C186.539 78.5938 184.563 78.0829 182.79 77.0611C181.03 76.027 179.627 74.4882 178.58 72.4446C177.546 70.3887 177.029 67.8158 177.029 64.7259C177.029 61.6113 177.546 58.983 178.58 56.8409C179.627 54.6866 181.036 53.0554 182.809 51.9474C184.582 50.8272 186.558 50.267 188.737 50.267C190.398 50.267 191.765 50.5502 192.836 51.1165C193.919 51.6705 194.781 52.3414 195.421 53.1293C196.061 53.9048 196.548 54.6373 196.88 55.3267H197.249V50.6364H203.842V79.4616C203.842 81.8868 203.263 83.8935 202.106 85.4815C200.949 87.0696 199.367 88.2576 197.36 89.0455C195.353 89.8333 193.076 90.2273 190.528 90.2273ZM190.583 73.3494C191.999 73.3494 193.205 73.0047 194.202 72.3153C195.2 71.6259 195.957 70.6349 196.474 69.3423C196.991 68.0497 197.249 66.4986 197.249 64.6889C197.249 62.9039 196.991 61.3404 196.474 59.9986C195.969 58.6567 195.218 57.6165 194.221 56.8778C193.236 56.1269 192.023 55.7514 190.583 55.7514C189.094 55.7514 187.85 56.1392 186.853 56.9148C185.856 57.6903 185.105 58.7552 184.6 60.1094C184.095 61.4512 183.843 62.9777 183.843 64.6889C183.843 66.4247 184.095 67.9451 184.6 69.25C185.117 70.5426 185.874 71.5521 186.871 72.2784C187.881 72.9924 189.118 73.3494 190.583 73.3494ZM223.249 79.554C220.406 79.554 217.95 78.9631 215.881 77.7812C213.826 76.5871 212.244 74.9006 211.136 72.7216C210.028 70.5303 209.474 67.9512 209.474 64.9844C209.474 62.0668 210.028 59.5062 211.136 57.3026C212.256 55.0866 213.819 53.3632 215.826 52.1321C217.833 50.8887 220.19 50.267 222.898 50.267C224.647 50.267 226.296 50.5502 227.847 51.1165C229.411 51.6705 230.79 52.5322 231.984 53.7017C233.19 54.8712 234.138 56.3608 234.827 58.1705C235.517 59.9678 235.862 62.1098 235.862 64.5966V66.6463H212.613V62.1406H229.454C229.442 60.8603 229.165 59.7216 228.623 58.7244C228.081 57.715 227.324 56.9209 226.352 56.3423C225.391 55.7637 224.271 55.4744 222.991 55.4744C221.624 55.4744 220.424 55.8068 219.39 56.4716C218.356 57.1241 217.549 57.9858 216.971 59.0568C216.405 60.1155 216.115 61.2789 216.103 62.5469V66.4801C216.103 68.1297 216.405 69.5455 217.008 70.7273C217.611 71.8968 218.454 72.7955 219.538 73.4233C220.621 74.0388 221.889 74.3466 223.342 74.3466C224.314 74.3466 225.194 74.2112 225.982 73.9403C226.77 73.6572 227.453 73.2448 228.032 72.7031C228.611 72.1615 229.048 71.4905 229.343 70.6903L235.585 71.392C235.191 73.0417 234.44 74.482 233.332 75.7131C232.236 76.9318 230.833 77.8797 229.121 78.5568C227.41 79.2216 225.453 79.554 223.249 79.554ZM248.201 62.3807V79H241.517V50.6364H247.906V55.456H248.238C248.891 53.8679 249.931 52.6061 251.359 51.6705C252.799 50.7348 254.578 50.267 256.696 50.267C258.653 50.267 260.358 50.6856 261.811 51.5227C263.276 52.3598 264.408 53.5724 265.208 55.1605C266.021 56.7486 266.421 58.6752 266.409 60.9403V79H259.724V61.9744C259.724 60.0786 259.232 58.5952 258.247 57.5241C257.274 56.4531 255.926 55.9176 254.203 55.9176C253.033 55.9176 251.993 56.1761 251.082 56.6932C250.183 57.1979 249.475 57.9304 248.958 58.8906C248.454 59.8509 248.201 61.0142 248.201 62.3807ZM285.761 79.554C282.917 79.554 280.461 78.9631 278.393 77.7812C276.337 76.5871 274.755 74.9006 273.647 72.7216C272.539 70.5303 271.985 67.9512 271.985 64.9844C271.985 62.0668 272.539 59.5062 273.647 57.3026C274.768 55.0866 276.331 53.3632 278.338 52.1321C280.344 50.8887 282.702 50.267 285.41 50.267C287.158 50.267 288.808 50.5502 290.359 51.1165C291.922 51.6705 293.301 52.5322 294.495 53.7017C295.702 54.8712 296.65 56.3608 297.339 58.1705C298.029 59.9678 298.373 62.1098 298.373 64.5966V66.6463H275.125V62.1406H291.966C291.953 60.8603 291.676 59.7216 291.135 58.7244C290.593 57.715 289.836 56.9209 288.863 56.3423C287.903 55.7637 286.783 55.4744 285.502 55.4744C284.136 55.4744 282.936 55.8068 281.902 56.4716C280.868 57.1241 280.061 57.9858 279.483 59.0568C278.916 60.1155 278.627 61.2789 278.615 62.5469V66.4801C278.615 68.1297 278.916 69.5455 279.52 70.7273C280.123 71.8968 280.966 72.7955 282.049 73.4233C283.133 74.0388 284.401 74.3466 285.853 74.3466C286.826 74.3466 287.706 74.2112 288.494 73.9403C289.282 73.6572 289.965 73.2448 290.544 72.7031C291.122 72.1615 291.559 71.4905 291.855 70.6903L298.096 71.392C297.702 73.0417 296.951 74.482 295.843 75.7131C294.748 76.9318 293.344 77.8797 291.633 78.5568C289.922 79.2216 287.965 79.554 285.761 79.554ZM304.028 79V50.6364H310.51V55.3636H310.805C311.322 53.7263 312.209 52.4645 313.464 51.5781C314.732 50.6795 316.179 50.2301 317.804 50.2301C318.173 50.2301 318.586 50.2486 319.041 50.2855C319.509 50.3101 319.897 50.3532 320.205 50.4148V56.5639C319.921 56.4654 319.472 56.3793 318.857 56.3054C318.253 56.2192 317.669 56.1761 317.102 56.1761C315.884 56.1761 314.788 56.4408 313.815 56.9702C312.855 57.4872 312.098 58.2074 311.544 59.1307C310.99 60.054 310.713 61.1188 310.713 62.3253V79H304.028ZM332.3 79.5724C330.502 79.5724 328.884 79.2524 327.443 78.6122C326.015 77.9598 324.883 76.9995 324.045 75.7315C323.221 74.4635 322.808 72.9001 322.808 71.0412C322.808 69.4408 323.104 68.1174 323.695 67.071C324.286 66.0246 325.092 65.1875 326.114 64.5597C327.135 63.9318 328.286 63.4579 329.567 63.1378C330.859 62.8054 332.195 62.5653 333.574 62.4176C335.236 62.2453 336.584 62.0914 337.618 61.956C338.652 61.8082 339.403 61.5866 339.871 61.2912C340.351 60.9834 340.591 60.5095 340.591 59.8693V59.7585C340.591 58.3674 340.179 57.2902 339.354 56.527C338.529 55.7637 337.341 55.3821 335.79 55.3821C334.152 55.3821 332.854 55.7391 331.893 56.4531C330.946 57.1671 330.305 58.0104 329.973 58.983L323.732 58.0966C324.224 56.3731 325.036 54.9328 326.169 53.7756C327.302 52.6061 328.687 51.732 330.324 51.1534C331.961 50.5625 333.771 50.267 335.753 50.267C337.119 50.267 338.48 50.4271 339.834 50.7472C341.188 51.0672 342.425 51.5966 343.545 52.3352C344.666 53.0616 345.564 54.0526 346.241 55.3082C346.931 56.5639 347.276 58.1335 347.276 60.017V79H340.849V75.1037H340.628C340.222 75.8916 339.649 76.6302 338.911 77.3196C338.184 77.9967 337.267 78.5445 336.159 78.9631C335.063 79.3693 333.777 79.5724 332.3 79.5724ZM334.036 74.6605C335.377 74.6605 336.541 74.3958 337.526 73.8665C338.51 73.3248 339.268 72.6108 339.797 71.7244C340.339 70.8381 340.609 69.8717 340.609 68.8253V65.483C340.4 65.6553 340.043 65.8153 339.538 65.9631C339.046 66.1108 338.492 66.2401 337.876 66.3509C337.261 66.4616 336.652 66.5601 336.048 66.6463C335.445 66.7325 334.922 66.8063 334.479 66.8679C333.482 67.0033 332.589 67.2249 331.801 67.5327C331.013 67.8404 330.392 68.2713 329.936 68.8253C329.481 69.367 329.253 70.0687 329.253 70.9304C329.253 72.1615 329.702 73.0909 330.601 73.7188C331.5 74.3466 332.644 74.6605 334.036 74.6605ZM368.161 50.6364V55.8068H351.855V50.6364H368.161ZM355.881 43.8409H362.565V70.4688C362.565 71.3674 362.701 72.0568 362.972 72.5369C363.255 73.0047 363.624 73.3248 364.08 73.4972C364.535 73.6695 365.04 73.7557 365.594 73.7557C366.012 73.7557 366.394 73.7249 366.739 73.6634C367.096 73.6018 367.366 73.5464 367.551 73.4972L368.678 78.723C368.321 78.8461 367.81 78.9815 367.145 79.1293C366.492 79.277 365.692 79.3632 364.744 79.3878C363.07 79.437 361.562 79.1847 360.22 78.6307C358.878 78.0644 357.813 77.1903 357.026 76.0085C356.25 74.8267 355.868 73.3494 355.881 71.5767V43.8409ZM373.751 79V50.6364H380.436V79H373.751ZM377.112 46.6108C376.053 46.6108 375.142 46.2599 374.379 45.5582C373.616 44.8442 373.234 43.9886 373.234 42.9915C373.234 41.982 373.616 41.1264 374.379 40.4247C375.142 39.7107 376.053 39.3537 377.112 39.3537C378.183 39.3537 379.094 39.7107 379.845 40.4247C380.608 41.1264 380.99 41.982 380.99 42.9915C380.99 43.9886 380.608 44.8442 379.845 45.5582C379.094 46.2599 378.183 46.6108 377.112 46.6108ZM399.682 79.554C396.912 79.554 394.511 78.9446 392.48 77.7259C390.449 76.5071 388.873 74.8021 387.753 72.6108C386.645 70.4195 386.091 67.8589 386.091 64.929C386.091 61.9991 386.645 59.4323 387.753 57.2287C388.873 55.0251 390.449 53.3139 392.48 52.0952C394.511 50.8764 396.912 50.267 399.682 50.267C402.452 50.267 404.852 50.8764 406.884 52.0952C408.915 53.3139 410.484 55.0251 411.592 57.2287C412.713 59.4323 413.273 61.9991 413.273 64.929C413.273 67.8589 412.713 70.4195 411.592 72.6108C410.484 74.8021 408.915 76.5071 406.884 77.7259C404.852 78.9446 402.452 79.554 399.682 79.554ZM399.719 74.1989C401.221 74.1989 402.476 73.7865 403.486 72.9616C404.495 72.1245 405.246 71.0043 405.739 69.6009C406.243 68.1974 406.496 66.634 406.496 64.9105C406.496 63.1747 406.243 61.6051 405.739 60.2017C405.246 58.786 404.495 57.6596 403.486 56.8224C402.476 55.9853 401.221 55.5668 399.719 55.5668C398.18 55.5668 396.9 55.9853 395.878 56.8224C394.868 57.6596 394.111 58.786 393.607 60.2017C393.114 61.6051 392.868 63.1747 392.868 64.9105C392.868 66.634 393.114 68.1974 393.607 69.6009C394.111 71.0043 394.868 72.1245 395.878 72.9616C396.9 73.7865 398.18 74.1989 399.719 74.1989ZM425.631 62.3807V79H418.946V50.6364H425.336V55.456H425.668C426.32 53.8679 427.361 52.6061 428.789 51.6705C430.229 50.7348 432.008 50.267 434.125 50.267C436.083 50.267 437.788 50.6856 439.24 51.5227C440.705 52.3598 441.838 53.5724 442.638 55.1605C443.451 56.7486 443.851 58.6752 443.838 60.9403V79H437.154V61.9744C437.154 60.0786 436.661 58.5952 435.676 57.5241C434.704 56.4531 433.356 55.9176 431.632 55.9176C430.463 55.9176 429.423 56.1761 428.512 56.6932C427.613 57.1979 426.905 57.9304 426.388 58.8906C425.883 59.8509 425.631 61.0142 425.631 62.3807ZM473.051 58.1335L466.958 58.7983C466.785 58.1828 466.484 57.6042 466.053 57.0625C465.634 56.5208 465.068 56.0838 464.354 55.7514C463.64 55.419 462.766 55.2528 461.732 55.2528C460.341 55.2528 459.171 55.5544 458.223 56.1577C457.288 56.7609 456.826 57.5426 456.838 58.5028C456.826 59.3277 457.128 59.9986 457.743 60.5156C458.371 61.0327 459.405 61.4574 460.846 61.7898L465.684 62.8239C468.367 63.4025 470.362 64.3196 471.667 65.5753C472.984 66.831 473.649 68.4744 473.661 70.5057C473.649 72.2907 473.125 73.8665 472.091 75.233C471.069 76.5871 469.648 77.6458 467.826 78.4091C466.004 79.1723 463.911 79.554 461.547 79.554C458.076 79.554 455.281 78.8277 453.164 77.375C451.046 75.91 449.784 73.8726 449.378 71.2628L455.897 70.6349C456.192 71.9152 456.82 72.8816 457.78 73.5341C458.74 74.1866 459.99 74.5128 461.529 74.5128C463.117 74.5128 464.391 74.1866 465.351 73.5341C466.324 72.8816 466.81 72.0753 466.81 71.1151C466.81 70.3026 466.496 69.6316 465.868 69.1023C465.253 68.5729 464.292 68.1667 462.988 67.8835L458.15 66.8679C455.429 66.3016 453.416 65.3475 452.111 64.0057C450.806 62.6515 450.16 60.9403 450.172 58.8722C450.16 57.1241 450.634 55.6098 451.594 54.3295C452.567 53.0369 453.915 52.0398 455.638 51.3381C457.374 50.6241 459.374 50.267 461.64 50.267C464.963 50.267 467.579 50.9749 469.488 52.3906C471.408 53.8063 472.596 55.7206 473.051 58.1335ZM39.5966 131.572C37.7992 131.572 36.1804 131.252 34.7401 130.612C33.312 129.96 32.1795 129 31.3423 127.732C30.5175 126.464 30.1051 124.9 30.1051 123.041C30.1051 121.441 30.4006 120.117 30.9915 119.071C31.5824 118.025 32.3887 117.188 33.4105 116.56C34.4323 115.932 35.5833 115.458 36.8636 115.138C38.1563 114.805 39.492 114.565 40.8707 114.418C42.5327 114.245 43.8807 114.091 44.9148 113.956C45.9489 113.808 46.6998 113.587 47.1676 113.291C47.6477 112.983 47.8878 112.509 47.8878 111.869V111.759C47.8878 110.367 47.4754 109.29 46.6506 108.527C45.8258 107.764 44.6378 107.382 43.0866 107.382C41.4493 107.382 40.1506 107.739 39.1903 108.453C38.2424 109.167 37.6023 110.01 37.2699 110.983L31.0284 110.097C31.5208 108.373 32.3333 106.933 33.4659 105.776C34.5985 104.606 35.9834 103.732 37.6207 103.153C39.258 102.562 41.0677 102.267 43.0497 102.267C44.4162 102.267 45.7765 102.427 47.1307 102.747C48.4848 103.067 49.7221 103.597 50.8423 104.335C51.9626 105.062 52.8613 106.053 53.5384 107.308C54.2277 108.564 54.5724 110.134 54.5724 112.017V131H48.1463V127.104H47.9247C47.5185 127.892 46.946 128.63 46.2074 129.32C45.4811 129.997 44.5639 130.545 43.456 130.963C42.3603 131.369 41.0739 131.572 39.5966 131.572ZM41.3324 126.661C42.6742 126.661 43.8376 126.396 44.8224 125.866C45.8073 125.325 46.5644 124.611 47.0938 123.724C47.6354 122.838 47.9062 121.872 47.9062 120.825V117.483C47.697 117.655 47.34 117.815 46.8352 117.963C46.3428 118.111 45.7888 118.24 45.1733 118.351C44.5578 118.462 43.9484 118.56 43.3452 118.646C42.742 118.732 42.2188 118.806 41.7756 118.868C40.7784 119.003 39.8859 119.225 39.098 119.533C38.3101 119.84 37.6884 120.271 37.233 120.825C36.7775 121.367 36.5497 122.069 36.5497 122.93C36.5497 124.161 36.9991 125.091 37.8977 125.719C38.7964 126.347 39.9413 126.661 41.3324 126.661ZM67.9787 93.1818V131H61.294V93.1818H67.9787ZM80.7063 131L72.6921 102.636H79.506L84.4918 122.58H84.7504L89.8469 102.636H96.587L101.684 122.469H101.961L106.873 102.636H113.705L105.672 131H98.7106L93.3924 111.832H93.0046L87.6864 131H80.7063ZM126.534 131.572C124.737 131.572 123.118 131.252 121.678 130.612C120.25 129.96 119.117 129 118.28 127.732C117.455 126.464 117.043 124.9 117.043 123.041C117.043 121.441 117.338 120.117 117.929 119.071C118.52 118.025 119.326 117.188 120.348 116.56C121.37 115.932 122.521 115.458 123.801 115.138C125.094 114.805 126.429 114.565 127.808 114.418C129.47 114.245 130.818 114.091 131.852 113.956C132.886 113.808 133.637 113.587 134.105 113.291C134.585 112.983 134.825 112.509 134.825 111.869V111.759C134.825 110.367 134.413 109.29 133.588 108.527C132.763 107.764 131.575 107.382 130.024 107.382C128.387 107.382 127.088 107.739 126.128 108.453C125.18 109.167 124.54 110.01 124.207 110.983L117.966 110.097C118.458 108.373 119.271 106.933 120.403 105.776C121.536 104.606 122.921 103.732 124.558 103.153C126.196 102.562 128.005 102.267 129.987 102.267C131.354 102.267 132.714 102.427 134.068 102.747C135.422 103.067 136.66 103.597 137.78 104.335C138.9 105.062 139.799 106.053 140.476 107.308C141.165 108.564 141.51 110.134 141.51 112.017V131H135.084V127.104H134.862C134.456 127.892 133.884 128.63 133.145 129.32C132.419 129.997 131.501 130.545 130.393 130.963C129.298 131.369 128.011 131.572 126.534 131.572ZM128.27 126.661C129.612 126.661 130.775 126.396 131.76 125.866C132.745 125.325 133.502 124.611 134.031 123.724C134.573 122.838 134.844 121.872 134.844 120.825V117.483C134.634 117.655 134.277 117.815 133.773 117.963C133.28 118.111 132.726 118.24 132.111 118.351C131.495 118.462 130.886 118.56 130.283 118.646C129.679 118.732 129.156 118.806 128.713 118.868C127.716 119.003 126.823 119.225 126.036 119.533C125.248 119.84 124.626 120.271 124.17 120.825C123.715 121.367 123.487 122.069 123.487 122.93C123.487 124.161 123.937 125.091 124.835 125.719C125.734 126.347 126.879 126.661 128.27 126.661ZM151.371 141.636C150.46 141.636 149.616 141.563 148.841 141.415C148.078 141.279 147.468 141.119 147.013 140.935L148.564 135.727C149.536 136.01 150.404 136.146 151.168 136.134C151.931 136.121 152.602 135.881 153.18 135.413C153.771 134.958 154.27 134.195 154.676 133.124L155.249 131.591L144.963 102.636H152.054L158.591 124.057H158.886L165.442 102.636H172.551L161.195 134.435C160.665 135.937 159.964 137.223 159.089 138.294C158.215 139.377 157.144 140.202 155.876 140.768C154.621 141.347 153.119 141.636 151.371 141.636ZM199.594 110.134L193.501 110.798C193.328 110.183 193.027 109.604 192.596 109.062C192.177 108.521 191.611 108.084 190.897 107.751C190.183 107.419 189.309 107.253 188.275 107.253C186.884 107.253 185.714 107.554 184.766 108.158C183.831 108.761 183.369 109.543 183.381 110.503C183.369 111.328 183.671 111.999 184.286 112.516C184.914 113.033 185.948 113.457 187.388 113.79L192.227 114.824C194.91 115.402 196.905 116.32 198.21 117.575C199.527 118.831 200.192 120.474 200.204 122.506C200.192 124.291 199.668 125.866 198.634 127.233C197.612 128.587 196.191 129.646 194.369 130.409C192.547 131.172 190.454 131.554 188.09 131.554C184.619 131.554 181.824 130.828 179.707 129.375C177.589 127.91 176.327 125.873 175.921 123.263L182.44 122.635C182.735 123.915 183.363 124.882 184.323 125.534C185.283 126.187 186.533 126.513 188.072 126.513C189.66 126.513 190.934 126.187 191.894 125.534C192.867 124.882 193.353 124.075 193.353 123.115C193.353 122.303 193.039 121.632 192.411 121.102C191.796 120.573 190.835 120.167 189.531 119.884L184.692 118.868C181.972 118.302 179.959 117.348 178.654 116.006C177.349 114.652 176.703 112.94 176.715 110.872C176.703 109.124 177.177 107.61 178.137 106.33C179.11 105.037 180.458 104.04 182.181 103.338C183.917 102.624 185.917 102.267 188.183 102.267C191.506 102.267 194.122 102.975 196.031 104.391C197.951 105.806 199.139 107.721 199.594 110.134ZM230.987 131.554C228.217 131.554 225.816 130.945 223.785 129.726C221.754 128.507 220.178 126.802 219.058 124.611C217.95 122.42 217.396 119.859 217.396 116.929C217.396 113.999 217.95 111.432 219.058 109.229C220.178 107.025 221.754 105.314 223.785 104.095C225.816 102.876 228.217 102.267 230.987 102.267C233.756 102.267 236.157 102.876 238.188 104.095C240.219 105.314 241.789 107.025 242.897 109.229C244.017 111.432 244.577 113.999 244.577 116.929C244.577 119.859 244.017 122.42 242.897 124.611C241.789 126.802 240.219 128.507 238.188 129.726C236.157 130.945 233.756 131.554 230.987 131.554ZM231.023 126.199C232.525 126.199 233.781 125.786 234.79 124.962C235.8 124.125 236.551 123.004 237.043 121.601C237.548 120.197 237.8 118.634 237.8 116.911C237.8 115.175 237.548 113.605 237.043 112.202C236.551 110.786 235.8 109.66 234.79 108.822C233.781 107.985 232.525 107.567 231.023 107.567C229.485 107.567 228.204 107.985 227.183 108.822C226.173 109.66 225.416 110.786 224.911 112.202C224.419 113.605 224.173 115.175 224.173 116.911C224.173 118.634 224.419 120.197 224.911 121.601C225.416 123.004 226.173 124.125 227.183 124.962C228.204 125.786 229.485 126.199 231.023 126.199ZM250.251 131V102.636H256.733V107.364H257.028C257.545 105.726 258.431 104.464 259.687 103.578C260.955 102.679 262.402 102.23 264.027 102.23C264.396 102.23 264.808 102.249 265.264 102.286C265.732 102.31 266.119 102.353 266.427 102.415V108.564C266.144 108.465 265.695 108.379 265.079 108.305C264.476 108.219 263.891 108.176 263.325 108.176C262.106 108.176 261.011 108.441 260.038 108.97C259.078 109.487 258.321 110.207 257.767 111.131C257.213 112.054 256.936 113.119 256.936 114.325V131H250.251ZM296.139 131.554C293.369 131.554 290.968 130.945 288.937 129.726C286.906 128.507 285.33 126.802 284.21 124.611C283.102 122.42 282.548 119.859 282.548 116.929C282.548 113.999 283.102 111.432 284.21 109.229C285.33 107.025 286.906 105.314 288.937 104.095C290.968 102.876 293.369 102.267 296.139 102.267C298.909 102.267 301.309 102.876 303.341 104.095C305.372 105.314 306.941 107.025 308.049 109.229C309.17 111.432 309.73 113.999 309.73 116.929C309.73 119.859 309.17 122.42 308.049 124.611C306.941 126.802 305.372 128.507 303.341 129.726C301.309 130.945 298.909 131.554 296.139 131.554ZM296.176 126.199C297.678 126.199 298.933 125.786 299.943 124.962C300.952 124.125 301.703 123.004 302.196 121.601C302.7 120.197 302.953 118.634 302.953 116.911C302.953 115.175 302.7 113.605 302.196 112.202C301.703 110.786 300.952 109.66 299.943 108.822C298.933 107.985 297.678 107.567 296.176 107.567C294.637 107.567 293.357 107.985 292.335 108.822C291.325 109.66 290.568 110.786 290.064 112.202C289.571 113.605 289.325 115.175 289.325 116.911C289.325 118.634 289.571 120.197 290.064 121.601C290.568 123.004 291.325 124.125 292.335 124.962C293.357 125.786 294.637 126.199 296.176 126.199ZM329.77 102.636V107.807H313.003V102.636H329.77ZM317.195 131V99.9588C317.195 98.0507 317.589 96.4626 318.376 95.1946C319.177 93.9266 320.248 92.9787 321.589 92.3509C322.931 91.723 324.421 91.4091 326.058 91.4091C327.215 91.4091 328.243 91.5014 329.142 91.6861C330.041 91.8707 330.705 92.0369 331.136 92.1847L329.807 97.3551C329.524 97.2689 329.167 97.1828 328.736 97.0966C328.305 96.9981 327.825 96.9489 327.295 96.9489C326.052 96.9489 325.172 97.2505 324.655 97.8537C324.15 98.4446 323.898 99.294 323.898 100.402V131H317.195ZM349.168 102.636V107.807H332.863V102.636H349.168ZM336.888 95.8409H343.573V122.469C343.573 123.367 343.709 124.057 343.979 124.537C344.263 125.005 344.632 125.325 345.087 125.497C345.543 125.67 346.048 125.756 346.602 125.756C347.02 125.756 347.402 125.725 347.746 125.663C348.103 125.602 348.374 125.546 348.559 125.497L349.685 130.723C349.328 130.846 348.817 130.982 348.153 131.129C347.5 131.277 346.7 131.363 345.752 131.388C344.078 131.437 342.57 131.185 341.228 130.631C339.886 130.064 338.821 129.19 338.033 128.009C337.258 126.827 336.876 125.349 336.888 123.577V95.8409ZM367.011 131.554C364.167 131.554 361.711 130.963 359.643 129.781C357.587 128.587 356.005 126.901 354.897 124.722C353.789 122.53 353.235 119.951 353.235 116.984C353.235 114.067 353.789 111.506 354.897 109.303C356.018 107.087 357.581 105.363 359.588 104.132C361.594 102.889 363.952 102.267 366.66 102.267C368.408 102.267 370.058 102.55 371.609 103.116C373.172 103.67 374.551 104.532 375.745 105.702C376.952 106.871 377.9 108.361 378.589 110.17C379.279 111.968 379.623 114.11 379.623 116.597V118.646H356.375V114.141H373.216C373.203 112.86 372.926 111.722 372.385 110.724C371.843 109.715 371.086 108.921 370.113 108.342C369.153 107.764 368.033 107.474 366.752 107.474C365.386 107.474 364.186 107.807 363.152 108.472C362.118 109.124 361.311 109.986 360.733 111.057C360.166 112.116 359.877 113.279 359.865 114.547V118.48C359.865 120.13 360.166 121.545 360.77 122.727C361.373 123.897 362.216 124.795 363.299 125.423C364.383 126.039 365.651 126.347 367.103 126.347C368.076 126.347 368.956 126.211 369.744 125.94C370.532 125.657 371.215 125.245 371.794 124.703C372.372 124.161 372.809 123.491 373.105 122.69L379.346 123.392C378.952 125.042 378.201 126.482 377.093 127.713C375.998 128.932 374.594 129.88 372.883 130.557C371.172 131.222 369.215 131.554 367.011 131.554ZM391.963 114.381V131H385.278V102.636H391.668V107.456H392C392.652 105.868 393.693 104.606 395.121 103.67C396.561 102.735 398.34 102.267 400.457 102.267C402.415 102.267 404.12 102.686 405.572 103.523C407.037 104.36 408.17 105.572 408.97 107.161C409.783 108.749 410.183 110.675 410.17 112.94V131H403.486V113.974C403.486 112.079 402.993 110.595 402.009 109.524C401.036 108.453 399.688 107.918 397.964 107.918C396.795 107.918 395.755 108.176 394.844 108.693C393.945 109.198 393.237 109.93 392.72 110.891C392.215 111.851 391.963 113.014 391.963 114.381ZM444.231 102.636V107.807H427.464V102.636H444.231ZM431.656 131V99.9588C431.656 98.0507 432.049 96.4626 432.837 95.1946C433.638 93.9266 434.709 92.9787 436.05 92.3509C437.392 91.723 438.882 91.4091 440.519 91.4091C441.676 91.4091 442.704 91.5014 443.603 91.6861C444.502 91.8707 445.166 92.0369 445.597 92.1847L444.268 97.3551C443.985 97.2689 443.628 97.1828 443.197 97.0966C442.766 96.9981 442.286 96.9489 441.756 96.9489C440.513 96.9489 439.633 97.2505 439.116 97.8537C438.611 98.4446 438.359 99.294 438.359 100.402V131H431.656ZM460.956 131.554C458.113 131.554 455.657 130.963 453.588 129.781C451.533 128.587 449.951 126.901 448.843 124.722C447.735 122.53 447.181 119.951 447.181 116.984C447.181 114.067 447.735 111.506 448.843 109.303C449.963 107.087 451.526 105.363 453.533 104.132C455.54 102.889 457.897 102.267 460.605 102.267C462.354 102.267 464.003 102.55 465.554 103.116C467.118 103.67 468.497 104.532 469.691 105.702C470.897 106.871 471.845 108.361 472.534 110.17C473.224 111.968 473.569 114.11 473.569 116.597V118.646H450.32V114.141H467.161C467.149 112.86 466.872 111.722 466.33 110.724C465.788 109.715 465.031 108.921 464.059 108.342C463.098 107.764 461.978 107.474 460.698 107.474C459.331 107.474 458.131 107.807 457.097 108.472C456.063 109.124 455.257 109.986 454.678 111.057C454.112 112.116 453.822 113.279 453.81 114.547V118.48C453.81 120.13 454.112 121.545 454.715 122.727C455.318 123.897 456.161 124.795 457.245 125.423C458.328 126.039 459.596 126.347 461.049 126.347C462.021 126.347 462.901 126.211 463.689 125.94C464.477 125.657 465.16 125.245 465.739 124.703C466.318 124.161 466.755 123.491 467.05 122.69L473.292 123.392C472.898 125.042 472.147 126.482 471.039 127.713C469.943 128.932 468.54 129.88 466.828 130.557C465.117 131.222 463.16 131.554 460.956 131.554ZM491.781 131.554C488.937 131.554 486.481 130.963 484.413 129.781C482.357 128.587 480.775 126.901 479.667 124.722C478.559 122.53 478.005 119.951 478.005 116.984C478.005 114.067 478.559 111.506 479.667 109.303C480.787 107.087 482.351 105.363 484.357 104.132C486.364 102.889 488.721 102.267 491.43 102.267C493.178 102.267 494.827 102.55 496.379 103.116C497.942 103.67 499.321 104.532 500.515 105.702C501.721 106.871 502.669 108.361 503.359 110.17C504.048 111.968 504.393 114.11 504.393 116.597V118.646H481.144V114.141H497.985C497.973 112.86 497.696 111.722 497.154 110.724C496.612 109.715 495.855 108.921 494.883 108.342C493.923 107.764 492.802 107.474 491.522 107.474C490.156 107.474 488.955 107.807 487.921 108.472C486.887 109.124 486.081 109.986 485.502 111.057C484.936 112.116 484.647 113.279 484.634 114.547V118.48C484.634 120.13 484.936 121.545 485.539 122.727C486.142 123.897 486.986 124.795 488.069 125.423C489.152 126.039 490.42 126.347 491.873 126.347C492.845 126.347 493.726 126.211 494.513 125.94C495.301 125.657 495.985 125.245 496.563 124.703C497.142 124.161 497.579 123.491 497.874 122.69L504.116 123.392C503.722 125.042 502.971 126.482 501.863 127.713C500.767 128.932 499.364 129.88 497.653 130.557C495.942 131.222 493.984 131.554 491.781 131.554ZM516.733 93.1818V131H510.048V93.1818H516.733ZM38.1193 145.182V183H31.4347V145.182H38.1193ZM57.3654 183.554C54.5955 183.554 52.195 182.945 50.1637 181.726C48.1325 180.507 46.5567 178.802 45.4364 176.611C44.3285 174.42 43.7745 171.859 43.7745 168.929C43.7745 165.999 44.3285 163.432 45.4364 161.229C46.5567 159.025 48.1325 157.314 50.1637 156.095C52.195 154.876 54.5955 154.267 57.3654 154.267C60.1353 154.267 62.5359 154.876 64.5671 156.095C66.5984 157.314 68.168 159.025 69.2759 161.229C70.3962 163.432 70.9563 165.999 70.9563 168.929C70.9563 171.859 70.3962 174.42 69.2759 176.611C68.168 178.802 66.5984 180.507 64.5671 181.726C62.5359 182.945 60.1353 183.554 57.3654 183.554ZM57.4023 178.199C58.9042 178.199 60.1599 177.786 61.1694 176.962C62.1789 176.125 62.9298 175.004 63.4222 173.601C63.927 172.197 64.1793 170.634 64.1793 168.911C64.1793 167.175 63.927 165.605 63.4222 164.202C62.9298 162.786 62.1789 161.66 61.1694 160.822C60.1599 159.985 58.9042 159.567 57.4023 159.567C55.8635 159.567 54.5832 159.985 53.5614 160.822C52.552 161.66 51.7949 162.786 51.2901 164.202C50.7977 165.605 50.5515 167.175 50.5515 168.911C50.5515 170.634 50.7977 172.197 51.2901 173.601C51.7949 175.004 52.552 176.125 53.5614 176.962C54.5832 177.786 55.8635 178.199 57.4023 178.199ZM83.3146 166.381V183H76.63V154.636H83.0192V159.456H83.3516C84.004 157.868 85.0443 156.606 86.4723 155.67C87.9126 154.735 89.6915 154.267 91.8089 154.267C93.7663 154.267 95.4714 154.686 96.924 155.523C98.389 156.36 99.5215 157.572 100.322 159.161C101.134 160.749 101.534 162.675 101.522 164.94V183H94.8374V165.974C94.8374 164.079 94.3449 162.595 93.3601 161.524C92.3875 160.453 91.0395 159.918 89.3161 159.918C88.1465 159.918 87.1063 160.176 86.1953 160.693C85.2966 161.198 84.5888 161.93 84.0717 162.891C83.567 163.851 83.3146 165.014 83.3146 166.381ZM120.874 183.554C118.031 183.554 115.575 182.963 113.506 181.781C111.451 180.587 109.869 178.901 108.761 176.722C107.653 174.53 107.099 171.951 107.099 168.984C107.099 166.067 107.653 163.506 108.761 161.303C109.881 159.087 111.444 157.363 113.451 156.132C115.458 154.889 117.815 154.267 120.523 154.267C122.272 154.267 123.921 154.55 125.472 155.116C127.036 155.67 128.415 156.532 129.609 157.702C130.815 158.871 131.763 160.361 132.452 162.17C133.142 163.968 133.487 166.11 133.487 168.597V170.646H110.238V166.141H127.079C127.067 164.86 126.79 163.722 126.248 162.724C125.706 161.715 124.949 160.921 123.977 160.342C123.016 159.764 121.896 159.474 120.616 159.474C119.249 159.474 118.049 159.807 117.015 160.472C115.981 161.124 115.174 161.986 114.596 163.057C114.03 164.116 113.74 165.279 113.728 166.547V170.48C113.728 172.13 114.03 173.545 114.633 174.727C115.236 175.897 116.079 176.795 117.163 177.423C118.246 178.039 119.514 178.347 120.967 178.347C121.939 178.347 122.819 178.211 123.607 177.94C124.395 177.657 125.078 177.245 125.657 176.703C126.236 176.161 126.673 175.491 126.968 174.69L133.21 175.392C132.816 177.042 132.065 178.482 130.957 179.713C129.861 180.932 128.458 181.88 126.746 182.557C125.035 183.222 123.078 183.554 120.874 183.554ZM145.826 145.182V183H139.142V145.182H145.826ZM156.855 193.636C155.944 193.636 155.101 193.563 154.325 193.415C153.562 193.279 152.953 193.119 152.497 192.935L154.048 187.727C155.021 188.01 155.889 188.146 156.652 188.134C157.415 188.121 158.086 187.881 158.665 187.413C159.256 186.958 159.754 186.195 160.161 185.124L160.733 183.591L150.447 154.636H157.538L164.075 176.057H164.371L170.926 154.636H178.036L166.679 186.435C166.15 187.937 165.448 189.223 164.574 190.294C163.7 191.377 162.629 192.202 161.361 192.768C160.105 193.347 158.603 193.636 156.855 193.636ZM189.05 171.884V171.403C189.063 169.175 189.272 167.402 189.678 166.085C190.097 164.768 190.688 163.709 191.451 162.909C192.214 162.097 193.144 161.352 194.239 160.675C194.99 160.207 195.661 159.696 196.252 159.142C196.855 158.576 197.329 157.948 197.674 157.259C198.019 156.557 198.191 155.775 198.191 154.913C198.191 153.941 197.963 153.098 197.508 152.384C197.052 151.67 196.437 151.116 195.661 150.722C194.898 150.328 194.042 150.131 193.094 150.131C192.22 150.131 191.389 150.321 190.602 150.703C189.826 151.072 189.18 151.639 188.663 152.402C188.158 153.153 187.875 154.107 187.813 155.264H181.239C181.301 152.925 181.867 150.968 182.938 149.392C184.022 147.816 185.45 146.634 187.222 145.847C189.007 145.059 190.977 144.665 193.131 144.665C195.483 144.665 197.551 145.077 199.336 145.902C201.133 146.727 202.531 147.902 203.528 149.429C204.537 150.943 205.042 152.741 205.042 154.821C205.042 156.224 204.814 157.48 204.359 158.588C203.915 159.696 203.281 160.681 202.457 161.543C201.632 162.404 200.653 163.174 199.521 163.851C198.523 164.466 197.705 165.107 197.065 165.771C196.437 166.436 195.969 167.218 195.661 168.116C195.366 169.003 195.212 170.098 195.2 171.403V171.884H189.05ZM192.263 183.406C191.156 183.406 190.201 183.012 189.401 182.224C188.601 181.437 188.201 180.476 188.201 179.344C188.201 178.236 188.601 177.288 189.401 176.5C190.201 175.712 191.156 175.318 192.263 175.318C193.359 175.318 194.307 175.712 195.107 176.5C195.92 177.288 196.326 178.236 196.326 179.344C196.326 180.095 196.135 180.778 195.754 181.393C195.384 182.009 194.892 182.501 194.276 182.871C193.673 183.228 193.002 183.406 192.263 183.406Z" fill="#1C0706"/>
<path d="M257.361 287V282.051L270.49 269.18C271.746 267.912 272.792 266.786 273.629 265.801C274.466 264.816 275.094 263.862 275.513 262.939C275.931 262.016 276.141 261.031 276.141 259.984C276.141 258.79 275.87 257.768 275.328 256.919C274.786 256.057 274.042 255.393 273.094 254.925C272.146 254.457 271.069 254.223 269.862 254.223C268.619 254.223 267.529 254.482 266.594 254.999C265.658 255.503 264.932 256.223 264.415 257.159C263.91 258.095 263.658 259.209 263.658 260.501H257.139C257.139 258.101 257.687 256.014 258.783 254.241C259.878 252.469 261.386 251.096 263.307 250.124C265.24 249.151 267.455 248.665 269.955 248.665C272.491 248.665 274.719 249.139 276.639 250.087C278.56 251.035 280.049 252.333 281.108 253.983C282.179 255.633 282.714 257.516 282.714 259.634C282.714 261.049 282.444 262.44 281.902 263.807C281.36 265.173 280.406 266.687 279.04 268.349C277.686 270.011 275.784 272.024 273.334 274.388L266.815 281.017V281.276H283.287V287H257.361ZM303.636 287.72C300.596 287.72 297.986 286.951 295.807 285.412C293.64 283.861 291.972 281.626 290.803 278.709C289.645 275.779 289.067 272.252 289.067 268.128C289.079 264.004 289.664 260.495 290.821 257.602C291.991 254.697 293.659 252.481 295.825 250.955C298.004 249.428 300.608 248.665 303.636 248.665C306.665 248.665 309.268 249.428 311.447 250.955C313.626 252.481 315.295 254.697 316.452 257.602C317.621 260.508 318.206 264.016 318.206 268.128C318.206 272.264 317.621 275.797 316.452 278.727C315.295 281.645 313.626 283.873 311.447 285.412C309.281 286.951 306.677 287.72 303.636 287.72ZM303.636 281.94C306 281.94 307.865 280.777 309.232 278.45C310.61 276.111 311.3 272.67 311.3 268.128C311.3 265.124 310.986 262.6 310.358 260.557C309.73 258.513 308.844 256.974 307.699 255.94C306.554 254.894 305.2 254.371 303.636 254.371C301.285 254.371 299.426 255.54 298.06 257.879C296.693 260.206 296.004 263.622 295.991 268.128C295.979 271.144 296.281 273.68 296.896 275.736C297.524 277.792 298.411 279.343 299.555 280.389C300.7 281.423 302.061 281.94 303.636 281.94ZM344.561 279.909V277.915C344.561 276.45 344.869 275.102 345.485 273.871C346.113 272.64 347.024 271.649 348.218 270.898C349.412 270.147 350.858 269.771 352.557 269.771C354.305 269.771 355.77 270.147 356.952 270.898C358.134 271.636 359.026 272.621 359.63 273.852C360.245 275.083 360.553 276.437 360.553 277.915V279.909C360.553 281.374 360.245 282.722 359.63 283.953C359.014 285.184 358.109 286.175 356.915 286.926C355.733 287.677 354.281 288.053 352.557 288.053C350.834 288.053 349.375 287.677 348.181 286.926C346.987 286.175 346.082 285.184 345.466 283.953C344.863 282.722 344.561 281.374 344.561 279.909ZM349.381 277.915V279.909C349.381 280.882 349.615 281.774 350.083 282.587C350.551 283.399 351.375 283.805 352.557 283.805C353.751 283.805 354.57 283.405 355.013 282.605C355.469 281.793 355.696 280.894 355.696 279.909V277.915C355.696 276.93 355.481 276.031 355.05 275.219C354.619 274.394 353.788 273.982 352.557 273.982C351.4 273.982 350.581 274.394 350.101 275.219C349.621 276.031 349.381 276.93 349.381 277.915ZM325.338 258.267V256.273C325.338 254.795 325.652 253.441 326.28 252.21C326.908 250.979 327.819 249.994 329.013 249.256C330.207 248.505 331.654 248.129 333.353 248.129C335.088 248.129 336.547 248.505 337.729 249.256C338.923 249.994 339.822 250.979 340.425 252.21C341.028 253.441 341.33 254.795 341.33 256.273V258.267C341.33 259.744 341.022 261.098 340.407 262.33C339.803 263.548 338.905 264.527 337.711 265.266C336.516 266.004 335.064 266.374 333.353 266.374C331.617 266.374 330.152 266.004 328.958 265.266C327.776 264.527 326.877 263.542 326.262 262.311C325.646 261.08 325.338 259.732 325.338 258.267ZM330.195 256.273V258.267C330.195 259.252 330.423 260.151 330.878 260.963C331.346 261.763 332.171 262.163 333.353 262.163C334.534 262.163 335.347 261.763 335.79 260.963C336.246 260.151 336.473 259.252 336.473 258.267V256.273C336.473 255.288 336.258 254.389 335.827 253.577C335.396 252.752 334.571 252.339 333.353 252.339C332.183 252.339 331.364 252.752 330.897 253.577C330.429 254.402 330.195 255.3 330.195 256.273ZM327.444 287L353.444 249.182H358.06L332.06 287H327.444ZM262.591 321.298C261.046 321.298 259.711 320.97 258.584 320.314C257.464 319.651 256.598 318.73 255.989 317.55C255.379 316.363 255.074 314.988 255.074 313.423C255.074 311.846 255.379 310.467 255.989 309.287C256.598 308.1 257.464 307.179 258.584 306.523C259.711 305.86 261.046 305.528 262.591 305.528C264.135 305.528 265.468 305.86 266.588 306.523C267.715 307.179 268.583 308.1 269.193 309.287C269.803 310.467 270.108 311.846 270.108 313.423C270.108 314.988 269.803 316.363 269.193 317.55C268.583 318.73 267.715 319.651 266.588 320.314C265.468 320.97 264.135 321.298 262.591 321.298ZM262.611 318.017C263.313 318.017 263.9 317.818 264.371 317.42C264.841 317.016 265.196 316.466 265.435 315.77C265.68 315.074 265.803 314.282 265.803 313.393C265.803 312.505 265.68 311.713 265.435 311.017C265.196 310.321 264.841 309.771 264.371 309.366C263.9 308.962 263.313 308.76 262.611 308.76C261.902 308.76 261.305 308.962 260.821 309.366C260.344 309.771 259.982 310.321 259.737 311.017C259.499 311.713 259.379 312.505 259.379 313.393C259.379 314.282 259.499 315.074 259.737 315.77C259.982 316.466 260.344 317.016 260.821 317.42C261.305 317.818 261.902 318.017 262.611 318.017ZM281.075 305.727V308.909H271.649V305.727H281.075ZM273.807 321V304.624C273.807 303.517 274.022 302.598 274.453 301.869C274.891 301.14 275.487 300.593 276.243 300.229C276.999 299.864 277.857 299.682 278.818 299.682C279.468 299.682 280.061 299.732 280.598 299.831C281.142 299.93 281.546 300.02 281.811 300.099L281.055 303.281C280.89 303.228 280.684 303.179 280.439 303.132C280.2 303.086 279.955 303.062 279.703 303.062C279.08 303.062 278.646 303.208 278.401 303.5C278.155 303.785 278.033 304.186 278.033 304.703V321H273.807ZM303.726 307.219C303.587 306.735 303.391 306.307 303.139 305.936C302.887 305.558 302.579 305.24 302.214 304.982C301.857 304.716 301.446 304.514 300.982 304.375C300.524 304.236 300.017 304.166 299.46 304.166C298.42 304.166 297.505 304.425 296.716 304.942C295.934 305.459 295.324 306.211 294.886 307.199C294.449 308.18 294.23 309.38 294.23 310.798C294.23 312.217 294.446 313.423 294.876 314.418C295.307 315.412 295.917 316.171 296.706 316.695C297.495 317.212 298.426 317.47 299.5 317.47C300.474 317.47 301.306 317.298 301.996 316.953C302.692 316.602 303.222 316.108 303.587 315.472C303.958 314.835 304.143 314.083 304.143 313.214L305.018 313.344H299.768V310.102H308.29V312.668C308.29 314.457 307.912 315.995 307.156 317.281C306.401 318.561 305.36 319.548 304.034 320.244C302.708 320.934 301.19 321.278 299.48 321.278C297.571 321.278 295.894 320.857 294.449 320.016C293.004 319.167 291.877 317.964 291.068 316.406C290.266 314.842 289.865 312.986 289.865 310.838C289.865 309.187 290.104 307.716 290.581 306.423C291.065 305.124 291.741 304.024 292.609 303.122C293.478 302.221 294.489 301.535 295.642 301.064C296.795 300.593 298.045 300.358 299.391 300.358C300.544 300.358 301.618 300.527 302.612 300.865C303.607 301.196 304.488 301.667 305.257 302.277C306.033 302.887 306.666 303.613 307.156 304.455C307.647 305.29 307.962 306.211 308.101 307.219H303.726ZM318.404 321.298C316.833 321.298 315.481 320.98 314.348 320.344C313.221 319.701 312.352 318.793 311.743 317.619C311.133 316.439 310.828 315.044 310.828 313.433C310.828 311.862 311.133 310.483 311.743 309.297C312.352 308.11 313.211 307.186 314.318 306.523C315.431 305.86 316.737 305.528 318.235 305.528C319.243 305.528 320.181 305.691 321.049 306.016C321.924 306.334 322.687 306.814 323.336 307.457C323.993 308.1 324.503 308.909 324.868 309.884C325.232 310.851 325.414 311.985 325.414 313.284V314.447H312.518V311.822H321.427C321.427 311.213 321.295 310.672 321.029 310.202C320.764 309.731 320.396 309.363 319.926 309.098C319.462 308.826 318.922 308.69 318.305 308.69C317.662 308.69 317.092 308.839 316.595 309.138C316.104 309.429 315.72 309.824 315.441 310.321C315.163 310.812 315.02 311.358 315.014 311.962V314.457C315.014 315.213 315.153 315.866 315.431 316.416C315.717 316.966 316.118 317.391 316.635 317.689C317.152 317.987 317.765 318.136 318.474 318.136C318.945 318.136 319.376 318.07 319.767 317.938C320.158 317.805 320.493 317.606 320.771 317.341C321.049 317.076 321.261 316.751 321.407 316.366L325.325 316.625C325.126 317.566 324.718 318.388 324.102 319.091C323.492 319.787 322.703 320.33 321.735 320.722C320.774 321.106 319.664 321.298 318.404 321.298ZM332.414 312.17V321H328.179V305.727H332.216V308.422H332.395C332.733 307.534 333.299 306.831 334.095 306.314C334.89 305.79 335.855 305.528 336.988 305.528C338.049 305.528 338.974 305.76 339.762 306.224C340.551 306.688 341.164 307.351 341.602 308.213C342.039 309.068 342.258 310.089 342.258 311.276V321H338.022V312.031C338.029 311.097 337.79 310.367 337.306 309.844C336.823 309.313 336.156 309.048 335.308 309.048C334.738 309.048 334.234 309.171 333.797 309.416C333.366 309.661 333.028 310.019 332.782 310.49C332.544 310.954 332.421 311.514 332.414 312.17ZM356.194 300.636L360.3 307.577H360.459L364.586 300.636H369.448L363.233 310.818L369.587 321H364.635L360.459 314.05H360.3L356.124 321H351.192L357.566 310.818L351.311 300.636H356.194Z" fill="#1C0706"/>
<path d="M420.743 246.182V284H413.892V252.848H413.67L404.825 258.499V252.22L414.224 246.182H420.743ZM443.493 284.517C441.031 284.517 438.827 284.055 436.882 283.132C434.937 282.196 433.392 280.916 432.247 279.291C431.115 277.666 430.511 275.807 430.438 273.714H437.085C437.208 275.266 437.879 276.534 439.098 277.518C440.317 278.491 441.782 278.977 443.493 278.977C444.835 278.977 446.029 278.67 447.075 278.054C448.122 277.438 448.946 276.583 449.55 275.487C450.153 274.392 450.448 273.142 450.436 271.739C450.448 270.311 450.147 269.043 449.531 267.935C448.916 266.827 448.072 265.959 447.001 265.331C445.93 264.691 444.699 264.371 443.308 264.371C442.176 264.358 441.062 264.568 439.966 264.999C438.87 265.429 438.002 265.996 437.362 266.697L431.176 265.682L433.152 246.182H455.089V251.906H438.821L437.732 261.933H437.953C438.655 261.108 439.646 260.425 440.926 259.884C442.206 259.33 443.61 259.053 445.136 259.053C447.426 259.053 449.47 259.594 451.267 260.678C453.064 261.749 454.48 263.226 455.514 265.109C456.548 266.993 457.065 269.147 457.065 271.572C457.065 274.071 456.487 276.3 455.33 278.257C454.185 280.202 452.59 281.735 450.547 282.855C448.516 283.963 446.164 284.517 443.493 284.517ZM483.472 276.909V274.915C483.472 273.45 483.779 272.102 484.395 270.871C485.023 269.64 485.934 268.649 487.128 267.898C488.322 267.147 489.768 266.771 491.467 266.771C493.215 266.771 494.68 267.147 495.862 267.898C497.044 268.636 497.937 269.621 498.54 270.852C499.155 272.083 499.463 273.437 499.463 274.915V276.909C499.463 278.374 499.155 279.722 498.54 280.953C497.924 282.184 497.019 283.175 495.825 283.926C494.643 284.677 493.191 285.053 491.467 285.053C489.744 285.053 488.285 284.677 487.091 283.926C485.897 283.175 484.992 282.184 484.376 280.953C483.773 279.722 483.472 278.374 483.472 276.909ZM488.291 274.915V276.909C488.291 277.882 488.525 278.774 488.993 279.587C489.461 280.399 490.286 280.805 491.467 280.805C492.661 280.805 493.48 280.405 493.923 279.605C494.379 278.793 494.607 277.894 494.607 276.909V274.915C494.607 273.93 494.391 273.031 493.96 272.219C493.529 271.394 492.698 270.982 491.467 270.982C490.31 270.982 489.491 271.394 489.011 272.219C488.531 273.031 488.291 273.93 488.291 274.915ZM464.249 255.267V253.273C464.249 251.795 464.563 250.441 465.19 249.21C465.818 247.979 466.729 246.994 467.923 246.256C469.117 245.505 470.564 245.129 472.263 245.129C473.999 245.129 475.457 245.505 476.639 246.256C477.833 246.994 478.732 247.979 479.335 249.21C479.938 250.441 480.24 251.795 480.24 253.273V255.267C480.24 256.744 479.932 258.098 479.317 259.33C478.714 260.548 477.815 261.527 476.621 262.266C475.427 263.004 473.974 263.374 472.263 263.374C470.527 263.374 469.062 263.004 467.868 262.266C466.686 261.527 465.787 260.542 465.172 259.311C464.556 258.08 464.249 256.732 464.249 255.267ZM469.105 253.273V255.267C469.105 256.252 469.333 257.151 469.788 257.963C470.256 258.763 471.081 259.163 472.263 259.163C473.445 259.163 474.257 258.763 474.7 257.963C475.156 257.151 475.384 256.252 475.384 255.267V253.273C475.384 252.288 475.168 251.389 474.737 250.577C474.306 249.752 473.482 249.339 472.263 249.339C471.093 249.339 470.275 249.752 469.807 250.577C469.339 251.402 469.105 252.3 469.105 253.273ZM466.354 284L492.354 246.182H496.97L470.97 284H466.354ZM410.591 318.298C409.046 318.298 407.711 317.97 406.584 317.314C405.464 316.651 404.598 315.73 403.989 314.55C403.379 313.363 403.074 311.988 403.074 310.423C403.074 308.846 403.379 307.467 403.989 306.287C404.598 305.1 405.464 304.179 406.584 303.523C407.711 302.86 409.046 302.528 410.591 302.528C412.135 302.528 413.468 302.86 414.588 303.523C415.715 304.179 416.583 305.1 417.193 306.287C417.803 307.467 418.108 308.846 418.108 310.423C418.108 311.988 417.803 313.363 417.193 314.55C416.583 315.73 415.715 316.651 414.588 317.314C413.468 317.97 412.135 318.298 410.591 318.298ZM410.611 315.017C411.313 315.017 411.9 314.818 412.371 314.42C412.841 314.016 413.196 313.466 413.435 312.77C413.68 312.074 413.803 311.282 413.803 310.393C413.803 309.505 413.68 308.713 413.435 308.017C413.196 307.321 412.841 306.771 412.371 306.366C411.9 305.962 411.313 305.76 410.611 305.76C409.902 305.76 409.305 305.962 408.821 306.366C408.344 306.771 407.982 307.321 407.737 308.017C407.499 308.713 407.379 309.505 407.379 310.393C407.379 311.282 407.499 312.074 407.737 312.77C407.982 313.466 408.344 314.016 408.821 314.42C409.305 314.818 409.902 315.017 410.611 315.017ZM429.075 302.727V305.909H419.649V302.727H429.075ZM421.807 318V301.624C421.807 300.517 422.022 299.598 422.453 298.869C422.891 298.14 423.487 297.593 424.243 297.229C424.999 296.864 425.857 296.682 426.818 296.682C427.468 296.682 428.061 296.732 428.598 296.831C429.142 296.93 429.546 297.02 429.811 297.099L429.055 300.281C428.89 300.228 428.684 300.179 428.439 300.132C428.2 300.086 427.955 300.062 427.703 300.062C427.08 300.062 426.646 300.208 426.401 300.5C426.155 300.785 426.033 301.186 426.033 301.703V318H421.807ZM438.223 318V297.636H446.376C447.875 297.636 449.124 297.858 450.125 298.303C451.126 298.747 451.878 299.363 452.382 300.152C452.886 300.934 453.138 301.836 453.138 302.857C453.138 303.652 452.979 304.351 452.661 304.955C452.342 305.551 451.905 306.042 451.348 306.426C450.798 306.804 450.168 307.072 449.459 307.232V307.43C450.234 307.464 450.96 307.682 451.636 308.087C452.319 308.491 452.873 309.058 453.297 309.787C453.721 310.509 453.933 311.371 453.933 312.372C453.933 313.453 453.665 314.417 453.128 315.266C452.598 316.107 451.812 316.774 450.771 317.264C449.731 317.755 448.448 318 446.923 318H438.223ZM442.528 314.48H446.038C447.238 314.48 448.113 314.251 448.663 313.794C449.214 313.33 449.489 312.714 449.489 311.945C449.489 311.381 449.353 310.884 449.081 310.453C448.809 310.022 448.421 309.684 447.918 309.439C447.42 309.194 446.827 309.071 446.138 309.071H442.528V314.48ZM442.528 306.158H445.72C446.31 306.158 446.834 306.055 447.291 305.849C447.755 305.637 448.12 305.339 448.385 304.955C448.657 304.57 448.793 304.109 448.793 303.572C448.793 302.837 448.531 302.243 448.007 301.793C447.49 301.342 446.754 301.116 445.8 301.116H442.528V306.158ZM461.01 318.288C460.036 318.288 459.167 318.119 458.405 317.781C457.643 317.437 457.04 316.929 456.596 316.26C456.158 315.584 455.939 314.742 455.939 313.734C455.939 312.886 456.095 312.173 456.407 311.597C456.718 311.02 457.142 310.556 457.679 310.205C458.216 309.853 458.826 309.588 459.509 309.409C460.198 309.23 460.921 309.104 461.676 309.031C462.565 308.938 463.281 308.852 463.824 308.773C464.368 308.687 464.762 308.561 465.007 308.395C465.253 308.229 465.375 307.984 465.375 307.659V307.599C465.375 306.97 465.176 306.482 464.779 306.138C464.388 305.793 463.831 305.621 463.108 305.621C462.346 305.621 461.739 305.79 461.289 306.128C460.838 306.459 460.54 306.877 460.394 307.381L456.476 307.062C456.675 306.134 457.066 305.332 457.65 304.656C458.233 303.973 458.985 303.45 459.907 303.085C460.835 302.714 461.908 302.528 463.128 302.528C463.977 302.528 464.789 302.628 465.564 302.827C466.346 303.026 467.039 303.334 467.642 303.751C468.252 304.169 468.733 304.706 469.084 305.362C469.435 306.012 469.611 306.791 469.611 307.699V318H465.594V315.882H465.475C465.23 316.359 464.901 316.78 464.49 317.145C464.079 317.503 463.586 317.785 463.009 317.99C462.432 318.189 461.766 318.288 461.01 318.288ZM462.223 315.365C462.846 315.365 463.397 315.242 463.874 314.997C464.351 314.745 464.726 314.407 464.998 313.983C465.269 313.559 465.405 313.078 465.405 312.541V310.92C465.273 311.007 465.09 311.086 464.858 311.159C464.633 311.225 464.378 311.288 464.093 311.348C463.808 311.401 463.523 311.451 463.238 311.497C462.953 311.537 462.694 311.573 462.462 311.607C461.965 311.679 461.531 311.795 461.159 311.955C460.788 312.114 460.5 312.329 460.294 312.601C460.089 312.866 459.986 313.197 459.986 313.595C459.986 314.172 460.195 314.613 460.613 314.918C461.037 315.216 461.574 315.365 462.223 315.365ZM472.977 318V297.636H477.213V305.293H477.342C477.528 304.882 477.796 304.464 478.147 304.04C478.505 303.609 478.969 303.251 479.539 302.966C480.116 302.674 480.832 302.528 481.687 302.528C482.801 302.528 483.828 302.82 484.77 303.403C485.711 303.98 486.463 304.852 487.027 306.018C487.59 307.179 487.872 308.634 487.872 310.384C487.872 312.087 487.597 313.526 487.047 314.699C486.503 315.866 485.761 316.75 484.819 317.354C483.885 317.95 482.837 318.249 481.677 318.249C480.855 318.249 480.156 318.113 479.579 317.841C479.009 317.569 478.542 317.228 478.177 316.817C477.813 316.399 477.534 315.978 477.342 315.554H477.153V318H472.977ZM477.123 310.364C477.123 311.272 477.249 312.064 477.501 312.74C477.753 313.416 478.118 313.943 478.595 314.321C479.072 314.692 479.652 314.878 480.335 314.878C481.024 314.878 481.608 314.689 482.085 314.311C482.562 313.927 482.923 313.396 483.169 312.72C483.421 312.037 483.547 311.252 483.547 310.364C483.547 309.482 483.424 308.706 483.179 308.037C482.933 307.367 482.572 306.844 482.095 306.466C481.618 306.088 481.031 305.899 480.335 305.899C479.645 305.899 479.062 306.081 478.585 306.446C478.114 306.811 477.753 307.328 477.501 307.997C477.249 308.667 477.123 309.455 477.123 310.364ZM492.821 323.727C492.284 323.727 491.78 323.684 491.31 323.598C490.846 323.518 490.461 323.416 490.156 323.29L491.111 320.128C491.608 320.28 492.055 320.363 492.453 320.376C492.857 320.39 493.205 320.297 493.497 320.098C493.795 319.899 494.037 319.561 494.223 319.084L494.472 318.438L488.993 302.727H493.447L496.609 313.943H496.768L499.96 302.727H504.445L498.509 319.651C498.223 320.473 497.836 321.188 497.345 321.798C496.861 322.415 496.248 322.889 495.506 323.22C494.763 323.558 493.868 323.727 492.821 323.727ZM513.172 318V297.636H521.326C522.824 297.636 524.073 297.858 525.074 298.303C526.075 298.747 526.828 299.363 527.331 300.152C527.835 300.934 528.087 301.836 528.087 302.857C528.087 303.652 527.928 304.351 527.61 304.955C527.292 305.551 526.854 306.042 526.297 306.426C525.747 306.804 525.117 307.072 524.408 307.232V307.43C525.184 307.464 525.909 307.682 526.586 308.087C527.268 308.491 527.822 309.058 528.246 309.787C528.67 310.509 528.882 311.371 528.882 312.372C528.882 313.453 528.614 314.417 528.077 315.266C527.547 316.107 526.761 316.774 525.721 317.264C524.68 317.755 523.397 318 521.873 318H513.172ZM517.478 314.48H520.988C522.187 314.48 523.062 314.251 523.613 313.794C524.163 313.33 524.438 312.714 524.438 311.945C524.438 311.381 524.302 310.884 524.03 310.453C523.758 310.022 523.371 309.684 522.867 309.439C522.37 309.194 521.776 309.071 521.087 309.071H517.478V314.48ZM517.478 306.158H520.669C521.259 306.158 521.783 306.055 522.24 305.849C522.704 305.637 523.069 305.339 523.334 304.955C523.606 304.57 523.742 304.109 523.742 303.572C523.742 302.837 523.48 302.243 522.956 301.793C522.439 301.342 521.703 301.116 520.749 301.116H517.478V306.158ZM538.505 318.298C536.96 318.298 535.625 317.97 534.498 317.314C533.378 316.651 532.513 315.73 531.903 314.55C531.293 313.363 530.988 311.988 530.988 310.423C530.988 308.846 531.293 307.467 531.903 306.287C532.513 305.1 533.378 304.179 534.498 303.523C535.625 302.86 536.96 302.528 538.505 302.528C540.049 302.528 541.382 302.86 542.502 303.523C543.629 304.179 544.497 305.1 545.107 306.287C545.717 307.467 546.022 308.846 546.022 310.423C546.022 311.988 545.717 313.363 545.107 314.55C544.497 315.73 543.629 316.651 542.502 317.314C541.382 317.97 540.049 318.298 538.505 318.298ZM538.525 315.017C539.228 315.017 539.814 314.818 540.285 314.42C540.755 314.016 541.11 313.466 541.349 312.77C541.594 312.074 541.717 311.282 541.717 310.393C541.717 309.505 541.594 308.713 541.349 308.017C541.11 307.321 540.755 306.771 540.285 306.366C539.814 305.962 539.228 305.76 538.525 305.76C537.816 305.76 537.219 305.962 536.735 306.366C536.258 306.771 535.897 307.321 535.651 308.017C535.413 308.713 535.293 309.505 535.293 310.393C535.293 311.282 535.413 312.074 535.651 312.77C535.897 313.466 536.258 314.016 536.735 314.42C537.219 314.818 537.816 315.017 538.525 315.017ZM555.677 318.298C554.132 318.298 552.797 317.97 551.67 317.314C550.549 316.651 549.684 315.73 549.075 314.55C548.465 313.363 548.16 311.988 548.16 310.423C548.16 308.846 548.465 307.467 549.075 306.287C549.684 305.1 550.549 304.179 551.67 303.523C552.797 302.86 554.132 302.528 555.677 302.528C557.221 302.528 558.554 302.86 559.674 303.523C560.801 304.179 561.669 305.1 562.279 306.287C562.889 307.467 563.194 308.846 563.194 310.423C563.194 311.988 562.889 313.363 562.279 314.55C561.669 315.73 560.801 316.651 559.674 317.314C558.554 317.97 557.221 318.298 555.677 318.298ZM555.697 315.017C556.399 315.017 556.986 314.818 557.457 314.42C557.927 314.016 558.282 313.466 558.521 312.77C558.766 312.074 558.888 311.282 558.888 310.393C558.888 309.505 558.766 308.713 558.521 308.017C558.282 307.321 557.927 306.771 557.457 306.366C556.986 305.962 556.399 305.76 555.697 305.76C554.987 305.76 554.391 305.962 553.907 306.366C553.43 306.771 553.068 307.321 552.823 308.017C552.585 308.713 552.465 309.505 552.465 310.393C552.465 311.282 552.585 312.074 552.823 312.77C553.068 313.466 553.43 314.016 553.907 314.42C554.391 314.818 554.987 315.017 555.697 315.017ZM565.948 318V302.727H569.985V305.422H570.164C570.482 304.527 571.013 303.821 571.755 303.304C572.497 302.787 573.386 302.528 574.42 302.528C575.467 302.528 576.359 302.79 577.094 303.314C577.83 303.831 578.321 304.534 578.566 305.422H578.725C579.037 304.547 579.6 303.848 580.415 303.324C581.237 302.794 582.209 302.528 583.329 302.528C584.754 302.528 585.911 302.982 586.799 303.891C587.694 304.792 588.141 306.071 588.141 307.729V318H583.915V308.564C583.915 307.715 583.69 307.079 583.239 306.655C582.789 306.231 582.225 306.018 581.549 306.018C580.78 306.018 580.18 306.264 579.749 306.754C579.318 307.238 579.103 307.878 579.103 308.673V318H574.996V308.474C574.996 307.725 574.781 307.129 574.35 306.685C573.926 306.241 573.366 306.018 572.67 306.018C572.199 306.018 571.775 306.138 571.397 306.376C571.026 306.608 570.731 306.937 570.512 307.361C570.293 307.778 570.184 308.269 570.184 308.832V318H565.948ZM598.447 318.298C596.876 318.298 595.524 317.98 594.391 317.344C593.264 316.701 592.395 315.793 591.786 314.619C591.176 313.439 590.871 312.044 590.871 310.433C590.871 308.862 591.176 307.483 591.786 306.297C592.395 305.11 593.254 304.186 594.361 303.523C595.474 302.86 596.78 302.528 598.278 302.528C599.286 302.528 600.224 302.691 601.092 303.016C601.967 303.334 602.73 303.814 603.379 304.457C604.036 305.1 604.546 305.909 604.911 306.884C605.275 307.851 605.457 308.985 605.457 310.284V311.447H592.561V308.822H601.47C601.47 308.213 601.338 307.672 601.072 307.202C600.807 306.731 600.439 306.363 599.969 306.098C599.505 305.826 598.964 305.69 598.348 305.69C597.705 305.69 597.135 305.839 596.638 306.138C596.147 306.429 595.763 306.824 595.484 307.321C595.206 307.812 595.063 308.358 595.057 308.962V311.457C595.057 312.213 595.196 312.866 595.474 313.416C595.759 313.966 596.161 314.391 596.678 314.689C597.195 314.987 597.808 315.136 598.517 315.136C598.988 315.136 599.419 315.07 599.81 314.938C600.201 314.805 600.536 314.606 600.814 314.341C601.092 314.076 601.304 313.751 601.45 313.366L605.368 313.625C605.169 314.566 604.761 315.388 604.145 316.091C603.535 316.787 602.746 317.33 601.778 317.722C600.817 318.106 599.707 318.298 598.447 318.298ZM608.222 318V302.727H612.328V305.392H612.487C612.766 304.444 613.233 303.728 613.889 303.244C614.545 302.754 615.301 302.509 616.156 302.509C616.368 302.509 616.597 302.522 616.842 302.548C617.088 302.575 617.303 302.611 617.489 302.658V306.416C617.29 306.357 617.015 306.304 616.663 306.257C616.312 306.211 615.991 306.188 615.699 306.188C615.076 306.188 614.519 306.323 614.028 306.595C613.545 306.86 613.16 307.232 612.875 307.709C612.597 308.186 612.457 308.736 612.457 309.359V318H608.222ZM632.386 307.082L628.508 307.321C628.442 306.99 628.299 306.691 628.081 306.426C627.862 306.154 627.574 305.939 627.216 305.78C626.864 305.614 626.443 305.531 625.953 305.531C625.297 305.531 624.743 305.67 624.292 305.949C623.842 306.221 623.616 306.585 623.616 307.043C623.616 307.407 623.762 307.715 624.054 307.967C624.345 308.219 624.846 308.421 625.555 308.574L628.319 309.131C629.804 309.436 630.911 309.926 631.64 310.602C632.369 311.278 632.734 312.167 632.734 313.267C632.734 314.268 632.439 315.146 631.849 315.902C631.266 316.658 630.464 317.248 629.443 317.672C628.429 318.089 627.259 318.298 625.933 318.298C623.911 318.298 622.3 317.877 621.1 317.036C619.907 316.187 619.208 315.034 619.002 313.575L623.169 313.357C623.295 313.973 623.6 314.444 624.083 314.768C624.567 315.087 625.187 315.246 625.943 315.246C626.685 315.246 627.282 315.103 627.733 314.818C628.19 314.527 628.422 314.152 628.429 313.695C628.422 313.31 628.26 312.995 627.941 312.75C627.623 312.498 627.133 312.306 626.47 312.173L623.825 311.646C622.333 311.348 621.223 310.831 620.494 310.095C619.771 309.359 619.41 308.421 619.41 307.281C619.41 306.3 619.675 305.455 620.206 304.746C620.743 304.036 621.495 303.49 622.463 303.105C623.437 302.721 624.577 302.528 625.883 302.528C627.812 302.528 629.33 302.936 630.437 303.751C631.551 304.567 632.2 305.677 632.386 307.082Z" fill="#1C0706"/>
<path d="M200.449 265.636L205.371 281.108H205.56L210.491 265.636H215.264L208.244 286H202.696L195.666 265.636H200.449ZM228.762 271.493C228.683 270.691 228.341 270.068 227.738 269.624C227.135 269.179 226.316 268.957 225.282 268.957C224.579 268.957 223.986 269.057 223.502 269.256C223.018 269.448 222.647 269.716 222.388 270.061C222.137 270.406 222.011 270.797 222.011 271.234C221.997 271.599 222.074 271.917 222.239 272.189C222.412 272.461 222.647 272.696 222.945 272.895C223.244 273.087 223.588 273.256 223.979 273.402C224.371 273.541 224.788 273.661 225.232 273.76L227.062 274.197C227.95 274.396 228.765 274.661 229.508 274.993C230.25 275.324 230.893 275.732 231.437 276.216C231.98 276.7 232.401 277.27 232.7 277.926C233.004 278.582 233.16 279.335 233.167 280.183C233.16 281.429 232.842 282.51 232.212 283.425C231.589 284.333 230.688 285.039 229.508 285.543C228.335 286.04 226.919 286.288 225.262 286.288C223.618 286.288 222.186 286.036 220.967 285.533C219.754 285.029 218.806 284.283 218.123 283.295C217.447 282.301 217.092 281.071 217.059 279.607H221.225C221.272 280.289 221.467 280.859 221.812 281.317C222.163 281.768 222.63 282.109 223.214 282.341C223.804 282.566 224.47 282.679 225.212 282.679C225.942 282.679 226.575 282.573 227.112 282.361C227.655 282.149 228.076 281.854 228.374 281.476C228.673 281.098 228.822 280.664 228.822 280.173C228.822 279.716 228.686 279.331 228.414 279.02C228.149 278.708 227.758 278.443 227.241 278.224C226.73 278.006 226.104 277.807 225.362 277.628L223.144 277.071C221.427 276.653 220.072 276 219.077 275.112C218.083 274.224 217.589 273.027 217.596 271.523C217.589 270.29 217.917 269.213 218.58 268.291C219.25 267.37 220.168 266.651 221.335 266.134C222.501 265.616 223.827 265.358 225.312 265.358C226.823 265.358 228.142 265.616 229.269 266.134C230.403 266.651 231.284 267.37 231.914 268.291C232.544 269.213 232.869 270.28 232.888 271.493H228.762Z" fill="#1C0706"/>
</svg>
