<svg width="653" height="364" viewBox="0 0 653 364" fill="none" xmlns="http://www.w3.org/2000/svg">
<rect x="0.5" y="0.5" width="652" height="363" rx="20.5" stroke="#1C0706"/>
<path d="M39.6889 86L29.0156 48.1818H36.3835L43.1974 75.973H43.5483L50.8239 48.1818H57.527L64.821 75.9915H65.1534L71.9673 48.1818H79.3352L68.6619 86H61.9034L54.3324 59.4645H54.0369L46.4474 86H39.6889ZM90.4748 69.3807V86H83.7901V48.1818H90.3271V62.456H90.6594C91.3242 60.8556 92.3522 59.5937 93.7433 58.6705C95.1467 57.7348 96.9317 57.267 99.0984 57.267C101.068 57.267 102.785 57.6795 104.25 58.5043C105.715 59.3291 106.848 60.5355 107.648 62.1236C108.461 63.7116 108.867 65.6506 108.867 67.9403V86H102.182V68.9744C102.182 67.0663 101.69 65.5829 100.705 64.5241C99.7324 63.4531 98.3659 62.9176 96.6055 62.9176C95.4237 62.9176 94.3649 63.1761 93.4293 63.6932C92.506 64.1979 91.7797 64.9304 91.2504 65.8906C90.7333 66.8509 90.4748 68.0142 90.4748 69.3807ZM123.843 86.5724C122.045 86.5724 120.426 86.2524 118.986 85.6122C117.558 84.9598 116.426 83.9995 115.588 82.7315C114.764 81.4635 114.351 79.9001 114.351 78.0412C114.351 76.4408 114.647 75.1174 115.238 74.071C115.828 73.0246 116.635 72.1875 117.657 71.5597C118.678 70.9318 119.829 70.4579 121.11 70.1378C122.402 69.8054 123.738 69.5653 125.117 69.4176C126.779 69.2453 128.127 69.0914 129.161 68.956C130.195 68.8082 130.946 68.5866 131.414 68.2912C131.894 67.9834 132.134 67.5095 132.134 66.8693V66.7585C132.134 65.3674 131.721 64.2902 130.897 63.527C130.072 62.7637 128.884 62.3821 127.333 62.3821C125.695 62.3821 124.397 62.7391 123.436 63.4531C122.489 64.1671 121.848 65.0104 121.516 65.983L115.275 65.0966C115.767 63.3731 116.579 61.9328 117.712 60.7756C118.845 59.6061 120.23 58.732 121.867 58.1534C123.504 57.5625 125.314 57.267 127.296 57.267C128.662 57.267 130.023 57.4271 131.377 57.7472C132.731 58.0672 133.968 58.5966 135.088 59.3352C136.209 60.0616 137.107 61.0526 137.784 62.3082C138.474 63.5639 138.819 65.1335 138.819 67.017V86H132.392V82.1037H132.171C131.765 82.8916 131.192 83.6302 130.453 84.3196C129.727 84.9967 128.81 85.5445 127.702 85.9631C126.606 86.3693 125.32 86.5724 123.843 86.5724ZM125.578 81.6605C126.92 81.6605 128.084 81.3958 129.069 80.8665C130.053 80.3248 130.81 79.6108 131.34 78.7244C131.882 77.8381 132.152 76.8717 132.152 75.8253V72.483C131.943 72.6553 131.586 72.8153 131.081 72.9631C130.589 73.1108 130.035 73.2401 129.419 73.3509C128.804 73.4616 128.194 73.5601 127.591 73.6463C126.988 73.7325 126.465 73.8063 126.022 73.8679C125.025 74.0033 124.132 74.2249 123.344 74.5327C122.556 74.8404 121.935 75.2713 121.479 75.8253C121.024 76.367 120.796 77.0687 120.796 77.9304C120.796 79.1615 121.245 80.0909 122.144 80.7188C123.042 81.3466 124.187 81.6605 125.578 81.6605ZM159.703 57.6364V62.8068H143.398V57.6364H159.703ZM147.424 50.8409H154.108V77.4688C154.108 78.3674 154.244 79.0568 154.515 79.5369C154.798 80.0047 155.167 80.3248 155.623 80.4972C156.078 80.6695 156.583 80.7557 157.137 80.7557C157.555 80.7557 157.937 80.7249 158.282 80.6634C158.639 80.6018 158.909 80.5464 159.094 80.4972L160.221 85.723C159.864 85.8461 159.353 85.9815 158.688 86.1293C158.035 86.277 157.235 86.3632 156.287 86.3878C154.613 86.437 153.105 86.1847 151.763 85.6307C150.421 85.0644 149.356 84.1903 148.569 83.0085C147.793 81.8267 147.411 80.3494 147.424 78.5767V50.8409ZM186.354 86.5724C184.557 86.5724 182.938 86.2524 181.498 85.6122C180.07 84.9598 178.937 83.9995 178.1 82.7315C177.275 81.4635 176.863 79.9001 176.863 78.0412C176.863 76.4408 177.158 75.1174 177.749 74.071C178.34 73.0246 179.147 72.1875 180.168 71.5597C181.19 70.9318 182.341 70.4579 183.621 70.1378C184.914 69.8054 186.25 69.5653 187.629 69.4176C189.29 69.2453 190.638 69.0914 191.673 68.956C192.707 68.8082 193.458 68.5866 193.925 68.2912C194.406 67.9834 194.646 67.5095 194.646 66.8693V66.7585C194.646 65.3674 194.233 64.2902 193.408 63.527C192.584 62.7637 191.396 62.3821 189.844 62.3821C188.207 62.3821 186.908 62.7391 185.948 63.4531C185 64.1671 184.36 65.0104 184.028 65.983L177.786 65.0966C178.279 63.3731 179.091 61.9328 180.224 60.7756C181.356 59.6061 182.741 58.732 184.379 58.1534C186.016 57.5625 187.826 57.267 189.808 57.267C191.174 57.267 192.534 57.4271 193.888 57.7472C195.243 58.0672 196.48 58.5966 197.6 59.3352C198.72 60.0616 199.619 61.0526 200.296 62.3082C200.986 63.5639 201.33 65.1335 201.33 67.017V86H194.904V82.1037H194.683C194.276 82.8916 193.704 83.6302 192.965 84.3196C192.239 84.9967 191.322 85.5445 190.214 85.9631C189.118 86.3693 187.832 86.5724 186.354 86.5724ZM188.09 81.6605C189.432 81.6605 190.595 81.3958 191.58 80.8665C192.565 80.3248 193.322 79.6108 193.852 78.7244C194.393 77.8381 194.664 76.8717 194.664 75.8253V72.483C194.455 72.6553 194.098 72.8153 193.593 72.9631C193.101 73.1108 192.547 73.2401 191.931 73.3509C191.316 73.4616 190.706 73.5601 190.103 73.6463C189.5 73.7325 188.977 73.8063 188.533 73.8679C187.536 74.0033 186.644 74.2249 185.856 74.5327C185.068 74.8404 184.446 75.2713 183.991 75.8253C183.535 76.367 183.308 77.0687 183.308 77.9304C183.308 79.1615 183.757 80.0909 184.656 80.7188C185.554 81.3466 186.699 81.6605 188.09 81.6605ZM208.347 86V48.1818H215.032V62.3267H215.309C215.654 61.6373 216.14 60.9048 216.768 60.1293C217.396 59.3414 218.245 58.6705 219.316 58.1165C220.387 57.5502 221.754 57.267 223.415 57.267C225.607 57.267 227.583 57.8272 229.343 58.9474C231.116 60.0554 232.519 61.6989 233.553 63.8778C234.6 66.0445 235.123 68.7036 235.123 71.8551C235.123 74.9697 234.612 77.6165 233.59 79.7955C232.568 81.9744 231.177 83.6364 229.417 84.7812C227.656 85.9261 225.662 86.4986 223.434 86.4986C221.809 86.4986 220.461 86.2277 219.39 85.6861C218.319 85.1444 217.457 84.492 216.805 83.7287C216.165 82.9531 215.666 82.2206 215.309 81.5312H214.921V86H208.347ZM214.903 71.8182C214.903 73.6525 215.161 75.259 215.678 76.6378C216.208 78.0166 216.965 79.0937 217.95 79.8693C218.947 80.6326 220.153 81.0142 221.569 81.0142C223.046 81.0142 224.283 80.6203 225.281 79.8324C226.278 79.0322 227.029 77.9427 227.533 76.5639C228.05 75.1728 228.309 73.5909 228.309 71.8182C228.309 70.0578 228.057 68.4943 227.552 67.1278C227.047 65.7614 226.296 64.6903 225.299 63.9148C224.302 63.1392 223.058 62.7514 221.569 62.7514C220.141 62.7514 218.928 63.1269 217.931 63.8778C216.934 64.6288 216.177 65.6813 215.66 67.0355C215.155 68.3897 214.903 69.9839 214.903 71.8182ZM253.178 86.554C250.408 86.554 248.007 85.9446 245.976 84.7259C243.945 83.5071 242.369 81.8021 241.249 79.6108C240.141 77.4195 239.587 74.8589 239.587 71.929C239.587 68.9991 240.141 66.4323 241.249 64.2287C242.369 62.0251 243.945 60.3139 245.976 59.0952C248.007 57.8764 250.408 57.267 253.178 57.267C255.948 57.267 258.348 57.8764 260.38 59.0952C262.411 60.3139 263.98 62.0251 265.088 64.2287C266.209 66.4323 266.769 68.9991 266.769 71.929C266.769 74.8589 266.209 77.4195 265.088 79.6108C263.98 81.8021 262.411 83.5071 260.38 84.7259C258.348 85.9446 255.948 86.554 253.178 86.554ZM253.215 81.1989C254.717 81.1989 255.972 80.7865 256.982 79.9616C257.991 79.1245 258.742 78.0043 259.235 76.6009C259.739 75.1974 259.992 73.634 259.992 71.9105C259.992 70.1747 259.739 68.6051 259.235 67.2017C258.742 65.786 257.991 64.6596 256.982 63.8224C255.972 62.9853 254.717 62.5668 253.215 62.5668C251.676 62.5668 250.396 62.9853 249.374 63.8224C248.364 64.6596 247.607 65.786 247.103 67.2017C246.61 68.6051 246.364 70.1747 246.364 71.9105C246.364 73.634 246.61 75.1974 247.103 76.6009C247.607 78.0043 248.364 79.1245 249.374 79.9616C250.396 80.7865 251.676 81.1989 253.215 81.1989ZM290.521 74.071V57.6364H297.205V86H290.724V80.9588H290.428C289.788 82.5469 288.736 83.8456 287.271 84.8551C285.818 85.8646 284.027 86.3693 281.897 86.3693C280.038 86.3693 278.395 85.9569 276.967 85.1321C275.551 84.295 274.443 83.0824 273.643 81.4943C272.843 79.8939 272.442 77.9612 272.442 75.696V57.6364H279.127V74.6619C279.127 76.4593 279.62 77.8873 280.604 78.946C281.589 80.0047 282.882 80.5341 284.482 80.5341C285.467 80.5341 286.421 80.294 287.344 79.8139C288.268 79.3338 289.025 78.6198 289.616 77.6719C290.219 76.7116 290.521 75.5114 290.521 74.071ZM318.243 57.6364V62.8068H301.937V57.6364H318.243ZM305.963 50.8409H312.647V77.4688C312.647 78.3674 312.783 79.0568 313.054 79.5369C313.337 80.0047 313.706 80.3248 314.162 80.4972C314.617 80.6695 315.122 80.7557 315.676 80.7557C316.094 80.7557 316.476 80.7249 316.821 80.6634C317.178 80.6018 317.449 80.5464 317.633 80.4972L318.76 85.723C318.403 85.8461 317.892 85.9815 317.227 86.1293C316.574 86.277 315.774 86.3632 314.826 86.3878C313.152 86.437 311.644 86.1847 310.302 85.6307C308.96 85.0644 307.895 84.1903 307.108 83.0085C306.332 81.8267 305.95 80.3494 305.963 78.5767V50.8409ZM337.027 86V48.1818H343.878V64.1918H361.402V48.1818H368.271V86H361.402V69.9347H343.878V86H337.027ZM387.799 86.554C385.029 86.554 382.629 85.9446 380.597 84.7259C378.566 83.5071 376.99 81.8021 375.87 79.6108C374.762 77.4195 374.208 74.8589 374.208 71.929C374.208 68.9991 374.762 66.4323 375.87 64.2287C376.99 62.0251 378.566 60.3139 380.597 59.0952C382.629 57.8764 385.029 57.267 387.799 57.267C390.569 57.267 392.969 57.8764 395.001 59.0952C397.032 60.3139 398.602 62.0251 399.71 64.2287C400.83 66.4323 401.39 68.9991 401.39 71.929C401.39 74.8589 400.83 77.4195 399.71 79.6108C398.602 81.8021 397.032 83.5071 395.001 84.7259C392.969 85.9446 390.569 86.554 387.799 86.554ZM387.836 81.1989C389.338 81.1989 390.594 80.7865 391.603 79.9616C392.612 79.1245 393.363 78.0043 393.856 76.6009C394.361 75.1974 394.613 73.634 394.613 71.9105C394.613 70.1747 394.361 68.6051 393.856 67.2017C393.363 65.786 392.612 64.6596 391.603 63.8224C390.594 62.9853 389.338 62.5668 387.836 62.5668C386.297 62.5668 385.017 62.9853 383.995 63.8224C382.986 64.6596 382.228 65.786 381.724 67.2017C381.231 68.6051 380.985 70.1747 380.985 71.9105C380.985 73.634 381.231 75.1974 381.724 76.6009C382.228 78.0043 382.986 79.1245 383.995 79.9616C385.017 80.7865 386.297 81.1989 387.836 81.1989ZM407.359 86V48.1818H414.044V62.3267H414.321C414.665 61.6373 415.152 60.9048 415.779 60.1293C416.407 59.3414 417.257 58.6705 418.328 58.1165C419.399 57.5502 420.765 57.267 422.427 57.267C424.618 57.267 426.594 57.8272 428.355 58.9474C430.127 60.0554 431.531 61.6989 432.565 63.8778C433.611 66.0445 434.135 68.7036 434.135 71.8551C434.135 74.9697 433.624 77.6165 432.602 79.7955C431.58 81.9744 430.189 83.6364 428.429 84.7812C426.668 85.9261 424.674 86.4986 422.446 86.4986C420.821 86.4986 419.473 86.2277 418.402 85.6861C417.331 85.1444 416.469 84.492 415.816 83.7287C415.176 82.9531 414.678 82.2206 414.321 81.5312H413.933V86H407.359ZM413.914 71.8182C413.914 73.6525 414.173 75.259 414.69 76.6378C415.219 78.0166 415.976 79.0937 416.961 79.8693C417.958 80.6326 419.165 81.0142 420.581 81.0142C422.058 81.0142 423.295 80.6203 424.292 79.8324C425.289 79.0322 426.04 77.9427 426.545 76.5639C427.062 75.1728 427.321 73.5909 427.321 71.8182C427.321 70.0578 427.068 68.4943 426.564 67.1278C426.059 65.7614 425.308 64.6903 424.311 63.9148C423.314 63.1392 422.07 62.7514 420.581 62.7514C419.153 62.7514 417.94 63.1269 416.943 63.8778C415.946 64.6288 415.189 65.6813 414.672 67.0355C414.167 68.3897 413.914 69.9839 413.914 71.8182ZM440.113 86V48.1818H446.798V62.3267H447.075C447.419 61.6373 447.906 60.9048 448.533 60.1293C449.161 59.3414 450.011 58.6705 451.082 58.1165C452.153 57.5502 453.519 57.267 455.181 57.267C457.372 57.267 459.348 57.8272 461.109 58.9474C462.881 60.0554 464.285 61.6989 465.319 63.8778C466.365 66.0445 466.888 68.7036 466.888 71.8551C466.888 74.9697 466.378 77.6165 465.356 79.7955C464.334 81.9744 462.943 83.6364 461.183 84.7812C459.422 85.9261 457.428 86.4986 455.2 86.4986C453.575 86.4986 452.227 86.2277 451.156 85.6861C450.085 85.1444 449.223 84.492 448.57 83.7287C447.93 82.9531 447.432 82.2206 447.075 81.5312H446.687V86H440.113ZM446.668 71.8182C446.668 73.6525 446.927 75.259 447.444 76.6378C447.973 78.0166 448.73 79.0937 449.715 79.8693C450.712 80.6326 451.919 81.0142 453.335 81.0142C454.812 81.0142 456.049 80.6203 457.046 79.8324C458.043 79.0322 458.794 77.9427 459.299 76.5639C459.816 75.1728 460.075 73.5909 460.075 71.8182C460.075 70.0578 459.822 68.4943 459.317 67.1278C458.813 65.7614 458.062 64.6903 457.065 63.9148C456.067 63.1392 454.824 62.7514 453.335 62.7514C451.906 62.7514 450.694 63.1269 449.697 63.8778C448.7 64.6288 447.942 65.6813 447.425 67.0355C446.921 68.3897 446.668 69.9839 446.668 71.8182ZM472.571 86V57.6364H479.256V86H472.571ZM475.932 53.6108C474.873 53.6108 473.962 53.2599 473.199 52.5582C472.436 51.8442 472.054 50.9886 472.054 49.9915C472.054 48.982 472.436 48.1264 473.199 47.4247C473.962 46.7107 474.873 46.3537 475.932 46.3537C477.003 46.3537 477.914 46.7107 478.665 47.4247C479.428 48.1264 479.81 48.982 479.81 49.9915C479.81 50.9886 479.428 51.8442 478.665 52.5582C477.914 53.2599 477.003 53.6108 475.932 53.6108ZM498.687 86.554C495.843 86.554 493.387 85.9631 491.319 84.7812C489.263 83.5871 487.681 81.9006 486.573 79.7216C485.465 77.5303 484.911 74.9512 484.911 71.9844C484.911 69.0668 485.465 66.5062 486.573 64.3026C487.693 62.0866 489.257 60.3632 491.263 59.1321C493.27 57.8887 495.628 57.267 498.336 57.267C500.084 57.267 501.734 57.5502 503.285 58.1165C504.848 58.6705 506.227 59.5322 507.421 60.7017C508.628 61.8712 509.576 63.3608 510.265 65.1705C510.954 66.9678 511.299 69.1098 511.299 71.5966V73.6463H488.05V69.1406H504.891C504.879 67.8603 504.602 66.7216 504.06 65.7244C503.519 64.715 502.762 63.9209 501.789 63.3423C500.829 62.7637 499.709 62.4744 498.428 62.4744C497.062 62.4744 495.862 62.8068 494.827 63.4716C493.793 64.1241 492.987 64.9858 492.408 66.0568C491.842 67.1155 491.553 68.2789 491.54 69.5469V73.4801C491.54 75.1297 491.842 76.5455 492.445 77.7273C493.049 78.8968 493.892 79.7955 494.975 80.4233C496.058 81.0388 497.326 81.3466 498.779 81.3466C499.752 81.3466 500.632 81.2112 501.42 80.9403C502.208 80.6572 502.891 80.2448 503.469 79.7031C504.048 79.1615 504.485 78.4905 504.781 77.6903L511.022 78.392C510.628 80.0417 509.877 81.482 508.769 82.7131C507.674 83.9318 506.27 84.8797 504.559 85.5568C502.848 86.2216 500.89 86.554 498.687 86.554ZM539.372 65.1335L533.278 65.7983C533.106 65.1828 532.804 64.6042 532.373 64.0625C531.955 63.5208 531.388 63.0838 530.674 62.7514C529.96 62.419 529.086 62.2528 528.052 62.2528C526.661 62.2528 525.492 62.5544 524.544 63.1577C523.608 63.7609 523.146 64.5426 523.159 65.5028C523.146 66.3277 523.448 66.9986 524.064 67.5156C524.691 68.0327 525.725 68.4574 527.166 68.7898L532.004 69.8239C534.688 70.4025 536.682 71.3196 537.987 72.5753C539.304 73.831 539.969 75.4744 539.981 77.5057C539.969 79.2907 539.446 80.8665 538.412 82.233C537.39 83.5871 535.968 84.6458 534.146 85.4091C532.324 86.1723 530.231 86.554 527.868 86.554C524.396 86.554 521.601 85.8277 519.484 84.375C517.367 82.91 516.105 80.8726 515.699 78.2628L522.217 77.6349C522.512 78.9152 523.14 79.8816 524.1 80.5341C525.061 81.1866 526.31 81.5128 527.849 81.5128C529.437 81.5128 530.711 81.1866 531.672 80.5341C532.644 79.8816 533.13 79.0753 533.13 78.1151C533.13 77.3026 532.816 76.6316 532.189 76.1023C531.573 75.5729 530.613 75.1667 529.308 74.8835L524.47 73.8679C521.749 73.3016 519.736 72.3475 518.431 71.0057C517.127 69.6515 516.48 67.9403 516.493 65.8722C516.48 64.1241 516.954 62.6098 517.914 61.3295C518.887 60.0369 520.235 59.0398 521.958 58.3381C523.694 57.6241 525.695 57.267 527.96 57.267C531.284 57.267 533.9 57.9749 535.808 59.3906C537.728 60.8063 538.916 62.7206 539.372 65.1335ZM551.882 74.8835V74.4034C551.895 72.1752 552.104 70.4025 552.51 69.0852C552.929 67.768 553.52 66.7093 554.283 65.9091C555.046 65.0966 555.976 64.3518 557.071 63.6747C557.822 63.2069 558.493 62.696 559.084 62.142C559.687 61.5758 560.161 60.9479 560.506 60.2585C560.851 59.5568 561.023 58.7751 561.023 57.9134C561.023 56.9408 560.795 56.0975 560.34 55.3835C559.884 54.6695 559.269 54.1155 558.493 53.7216C557.73 53.3277 556.874 53.1307 555.926 53.1307C555.052 53.1307 554.221 53.3215 553.434 53.7031C552.658 54.0724 552.012 54.6387 551.495 55.402C550.99 56.1529 550.707 57.107 550.645 58.2642H544.071C544.133 55.9252 544.699 53.9678 545.77 52.392C546.854 50.8163 548.282 49.6345 550.054 48.8466C551.839 48.0587 553.809 47.6648 555.963 47.6648C558.315 47.6648 560.383 48.0772 562.168 48.902C563.965 49.7268 565.363 50.9025 566.36 52.429C567.369 53.9432 567.874 55.7405 567.874 57.821C567.874 59.2244 567.646 60.4801 567.191 61.5881C566.748 62.696 566.114 63.6809 565.289 64.5426C564.464 65.4044 563.485 66.1738 562.353 66.8509C561.355 67.4664 560.537 68.1065 559.897 68.7713C559.269 69.4361 558.801 70.2178 558.493 71.1165C558.198 72.0028 558.044 73.0985 558.032 74.4034V74.8835H551.882ZM555.096 86.4062C553.988 86.4062 553.033 86.0123 552.233 85.2244C551.433 84.4366 551.033 83.4763 551.033 82.3438C551.033 81.2358 551.433 80.2879 552.233 79.5C553.033 78.7121 553.988 78.3182 555.096 78.3182C556.191 78.3182 557.139 78.7121 557.939 79.5C558.752 80.2879 559.158 81.2358 559.158 82.3438C559.158 83.0947 558.967 83.7779 558.586 84.3935C558.216 85.009 557.724 85.5014 557.108 85.8707C556.505 86.2277 555.834 86.4062 555.096 86.4062Z" fill="#1C0706"/>
<path d="M46.5085 257.517C44.0464 257.517 41.8428 257.055 39.8977 256.132C37.9527 255.196 36.4077 253.916 35.2628 252.291C34.1302 250.666 33.527 248.807 33.4531 246.714H40.1009C40.224 248.266 40.8949 249.534 42.1136 250.518C43.3324 251.491 44.7973 251.977 46.5085 251.977C47.8504 251.977 49.0445 251.67 50.0909 251.054C51.1373 250.438 51.9621 249.583 52.5653 248.487C53.1686 247.392 53.464 246.142 53.4517 244.739C53.464 243.311 53.1624 242.043 52.5469 240.935C51.9313 239.827 51.0881 238.959 50.017 238.331C48.946 237.691 47.715 237.371 46.3239 237.371C45.1913 237.358 44.0772 237.568 42.9815 237.999C41.8859 238.429 41.018 238.996 40.3778 239.697L34.1918 238.682L36.1676 219.182H58.1051V224.906H41.8366L40.7472 234.933H40.9688C41.6705 234.108 42.6615 233.425 43.9418 232.884C45.2221 232.33 46.6255 232.053 48.152 232.053C50.4418 232.053 52.4853 232.594 54.2827 233.678C56.08 234.749 57.4957 236.226 58.5298 238.109C59.5639 239.993 60.081 242.147 60.081 244.572C60.081 247.071 59.5024 249.3 58.3452 251.257C57.2003 253.202 55.6061 254.735 53.5625 255.855C51.5312 256.963 49.1799 257.517 46.5085 257.517ZM79.3963 218.665C81.206 218.677 82.9664 218.997 84.6776 219.625C86.401 220.241 87.9522 221.25 89.331 222.653C90.7098 224.045 91.8054 225.91 92.6179 228.249C93.4304 230.588 93.8366 233.481 93.8366 236.928C93.849 240.178 93.5043 243.083 92.8026 245.643C92.1132 248.192 91.1222 250.346 89.8295 252.107C88.5369 253.867 86.9796 255.209 85.1577 256.132C83.3357 257.055 81.286 257.517 79.0085 257.517C76.6203 257.517 74.5028 257.049 72.6562 256.114C70.822 255.178 69.3385 253.898 68.206 252.273C67.0734 250.648 66.3778 248.789 66.1193 246.696H72.8594C73.2041 248.198 73.9058 249.392 74.9645 250.278C76.0355 251.152 77.3835 251.589 79.0085 251.589C81.6307 251.589 83.6496 250.451 85.0653 248.173C86.4811 245.896 87.1889 242.732 87.1889 238.682H86.9304C86.3272 239.765 85.5455 240.701 84.5852 241.489C83.625 242.264 82.5355 242.861 81.3168 243.28C80.1103 243.698 78.83 243.908 77.4759 243.908C75.2599 243.908 73.2656 243.378 71.4929 242.32C69.7325 241.261 68.3352 239.808 67.3011 237.962C66.2794 236.115 65.7623 234.004 65.75 231.628C65.75 229.166 66.3163 226.956 67.4489 224.999C68.5938 223.029 70.188 221.478 72.2315 220.345C74.2751 219.2 76.6634 218.64 79.3963 218.665ZM79.4148 224.205C78.0852 224.205 76.8849 224.531 75.8139 225.183C74.7552 225.823 73.9181 226.697 73.3026 227.805C72.6993 228.901 72.3977 230.126 72.3977 231.48C72.41 232.822 72.7116 234.041 73.3026 235.136C73.9058 236.232 74.7244 237.1 75.7585 237.74C76.8049 238.38 77.9991 238.7 79.3409 238.7C80.3381 238.7 81.2675 238.509 82.1293 238.128C82.991 237.746 83.742 237.217 84.3821 236.54C85.0346 235.85 85.5393 235.069 85.8963 234.195C86.2656 233.321 86.4441 232.397 86.4318 231.425C86.4318 230.132 86.1241 228.938 85.5085 227.842C84.9053 226.747 84.0743 225.866 83.0156 225.202C81.9692 224.537 80.7689 224.205 79.4148 224.205ZM102.705 257.406C101.585 257.406 100.624 257.012 99.8242 256.224C99.024 255.437 98.6301 254.476 98.6424 253.344C98.6301 252.236 99.024 251.288 99.8242 250.5C100.624 249.712 101.585 249.318 102.705 249.318C103.788 249.318 104.73 249.712 105.53 250.5C106.343 251.288 106.755 252.236 106.767 253.344C106.755 254.095 106.558 254.778 106.176 255.393C105.807 256.009 105.315 256.501 104.699 256.871C104.096 257.228 103.431 257.406 102.705 257.406ZM125.898 257.517C123.239 257.517 120.875 257.062 118.807 256.151C116.751 255.24 115.126 253.972 113.932 252.347C112.738 250.722 112.104 248.844 112.03 246.714H118.973C119.035 247.736 119.373 248.629 119.989 249.392C120.605 250.143 121.423 250.728 122.445 251.146C123.467 251.565 124.612 251.774 125.88 251.774C127.234 251.774 128.434 251.54 129.48 251.072C130.527 250.592 131.346 249.928 131.936 249.078C132.527 248.229 132.817 247.25 132.804 246.142C132.817 244.997 132.521 243.988 131.918 243.114C131.315 242.24 130.441 241.556 129.296 241.064C128.163 240.571 126.797 240.325 125.196 240.325H121.854V235.044H125.196C126.514 235.044 127.665 234.816 128.65 234.361C129.647 233.905 130.428 233.265 130.995 232.44C131.561 231.603 131.838 230.637 131.826 229.541C131.838 228.47 131.598 227.541 131.105 226.753C130.625 225.953 129.942 225.331 129.056 224.888C128.182 224.445 127.154 224.223 125.972 224.223C124.815 224.223 123.744 224.432 122.759 224.851C121.774 225.269 120.98 225.866 120.377 226.642C119.774 227.405 119.453 228.316 119.417 229.375H112.824C112.873 227.258 113.483 225.399 114.652 223.798C115.834 222.186 117.41 220.93 119.38 220.031C121.349 219.12 123.559 218.665 126.009 218.665C128.533 218.665 130.724 219.139 132.583 220.087C134.454 221.022 135.9 222.284 136.922 223.872C137.944 225.46 138.455 227.214 138.455 229.135C138.467 231.265 137.839 233.05 136.571 234.49C135.316 235.93 133.666 236.872 131.623 237.315V237.611C134.282 237.98 136.319 238.965 137.735 240.565C139.163 242.153 139.871 244.129 139.858 246.493C139.858 248.61 139.255 250.506 138.049 252.18C136.855 253.842 135.205 255.147 133.1 256.095C131.007 257.043 128.606 257.517 125.898 257.517ZM166.417 249.909V247.915C166.417 246.45 166.725 245.102 167.34 243.871C167.968 242.64 168.879 241.649 170.073 240.898C171.267 240.147 172.714 239.771 174.413 239.771C176.161 239.771 177.626 240.147 178.808 240.898C179.989 241.636 180.882 242.621 181.485 243.852C182.101 245.083 182.408 246.437 182.408 247.915V249.909C182.408 251.374 182.101 252.722 181.485 253.953C180.87 255.184 179.965 256.175 178.771 256.926C177.589 257.677 176.136 258.053 174.413 258.053C172.689 258.053 171.23 257.677 170.036 256.926C168.842 256.175 167.937 255.184 167.322 253.953C166.719 252.722 166.417 251.374 166.417 249.909ZM171.237 247.915V249.909C171.237 250.882 171.47 251.774 171.938 252.587C172.406 253.399 173.231 253.805 174.413 253.805C175.607 253.805 176.425 253.405 176.869 252.605C177.324 251.793 177.552 250.894 177.552 249.909V247.915C177.552 246.93 177.336 246.031 176.906 245.219C176.475 244.394 175.644 243.982 174.413 243.982C173.255 243.982 172.437 244.394 171.957 245.219C171.477 246.031 171.237 246.93 171.237 247.915ZM147.194 228.267V226.273C147.194 224.795 147.508 223.441 148.136 222.21C148.763 220.979 149.674 219.994 150.869 219.256C152.063 218.505 153.509 218.129 155.208 218.129C156.944 218.129 158.403 218.505 159.585 219.256C160.779 219.994 161.677 220.979 162.281 222.21C162.884 223.441 163.185 224.795 163.185 226.273V228.267C163.185 229.744 162.878 231.098 162.262 232.33C161.659 233.548 160.76 234.527 159.566 235.266C158.372 236.004 156.919 236.374 155.208 236.374C153.472 236.374 152.007 236.004 150.813 235.266C149.631 234.527 148.733 233.542 148.117 232.311C147.502 231.08 147.194 229.732 147.194 228.267ZM152.05 226.273V228.267C152.05 229.252 152.278 230.151 152.734 230.963C153.201 231.763 154.026 232.163 155.208 232.163C156.39 232.163 157.202 231.763 157.646 230.963C158.101 230.151 158.329 229.252 158.329 228.267V226.273C158.329 225.288 158.113 224.389 157.683 223.577C157.252 222.752 156.427 222.339 155.208 222.339C154.039 222.339 153.22 222.752 152.752 223.577C152.284 224.402 152.05 225.3 152.05 226.273ZM149.299 257L175.299 219.182H179.915L153.915 257H149.299ZM38.5909 291.298C37.0464 291.298 35.7107 290.97 34.5838 290.314C33.4635 289.651 32.5985 288.73 31.9886 287.55C31.3788 286.363 31.0739 284.988 31.0739 283.423C31.0739 281.846 31.3788 280.467 31.9886 279.287C32.5985 278.1 33.4635 277.179 34.5838 276.523C35.7107 275.86 37.0464 275.528 38.5909 275.528C40.1354 275.528 41.4678 275.86 42.5881 276.523C43.715 277.179 44.5833 278.1 45.1932 279.287C45.803 280.467 46.108 281.846 46.108 283.423C46.108 284.988 45.803 286.363 45.1932 287.55C44.5833 288.73 43.715 289.651 42.5881 290.314C41.4678 290.97 40.1354 291.298 38.5909 291.298ZM38.6108 288.017C39.3134 288.017 39.9001 287.818 40.3707 287.42C40.8414 287.016 41.196 286.466 41.4347 285.77C41.6799 285.074 41.8026 284.282 41.8026 283.393C41.8026 282.505 41.6799 281.713 41.4347 281.017C41.196 280.321 40.8414 279.771 40.3707 279.366C39.9001 278.962 39.3134 278.76 38.6108 278.76C37.9015 278.76 37.3049 278.962 36.821 279.366C36.3438 279.771 35.9825 280.321 35.7372 281.017C35.4986 281.713 35.3793 282.505 35.3793 283.393C35.3793 284.282 35.4986 285.074 35.7372 285.77C35.9825 286.466 36.3438 287.016 36.821 287.42C37.3049 287.818 37.9015 288.017 38.6108 288.017ZM57.0753 275.727V278.909H47.6491V275.727H57.0753ZM49.8068 291V274.624C49.8068 273.517 50.0223 272.598 50.4531 271.869C50.8906 271.14 51.4872 270.593 52.2429 270.229C52.9986 269.864 53.857 269.682 54.8182 269.682C55.4678 269.682 56.0611 269.732 56.598 269.831C57.1416 269.93 57.5459 270.02 57.8111 270.099L57.0554 273.281C56.8897 273.228 56.6842 273.179 56.4389 273.132C56.2003 273.086 55.955 273.062 55.7031 273.062C55.08 273.062 54.6458 273.208 54.4006 273.5C54.1553 273.785 54.0327 274.186 54.0327 274.703V291H49.8068ZM66.1435 296.727V275.727H70.3196V278.293H70.5085C70.6941 277.882 70.9626 277.464 71.3139 277.04C71.6719 276.609 72.1359 276.251 72.706 275.966C73.2827 275.674 73.9986 275.528 74.8537 275.528C75.9673 275.528 76.9948 275.82 77.9361 276.403C78.8774 276.98 79.6297 277.852 80.1932 279.018C80.7566 280.179 81.0384 281.634 81.0384 283.384C81.0384 285.087 80.7633 286.526 80.2131 287.699C79.6695 288.866 78.9271 289.75 77.9858 290.354C77.0511 290.95 76.0038 291.249 74.8438 291.249C74.0218 291.249 73.3224 291.113 72.7457 290.841C72.1757 290.569 71.7083 290.228 71.3438 289.817C70.9792 289.399 70.7008 288.978 70.5085 288.554H70.3793V296.727H66.1435ZM70.2898 283.364C70.2898 284.272 70.4157 285.064 70.6676 285.74C70.9195 286.416 71.2841 286.943 71.7614 287.321C72.2386 287.692 72.8187 287.878 73.5014 287.878C74.1908 287.878 74.7741 287.689 75.2514 287.311C75.7287 286.927 76.09 286.396 76.3352 285.72C76.5871 285.037 76.7131 284.252 76.7131 283.364C76.7131 282.482 76.5904 281.706 76.3452 281.037C76.0999 280.367 75.7386 279.844 75.2614 279.466C74.7841 279.088 74.1974 278.899 73.5014 278.899C72.812 278.899 72.2287 279.081 71.7514 279.446C71.2808 279.811 70.9195 280.328 70.6676 280.997C70.4157 281.667 70.2898 282.455 70.2898 283.364ZM90.8224 291.298C89.2514 291.298 87.8991 290.98 86.7656 290.344C85.6387 289.701 84.7704 288.793 84.1605 287.619C83.5507 286.439 83.2457 285.044 83.2457 283.433C83.2457 281.862 83.5507 280.483 84.1605 279.297C84.7704 278.11 85.6288 277.186 86.7358 276.523C87.8494 275.86 89.1553 275.528 90.6534 275.528C91.661 275.528 92.599 275.691 93.4673 276.016C94.3423 276.334 95.1046 276.814 95.7543 277.457C96.4105 278.1 96.9209 278.909 97.2855 279.884C97.6501 280.851 97.8324 281.985 97.8324 283.284V284.447H84.9361V281.822H93.8452C93.8452 281.213 93.7126 280.672 93.4474 280.202C93.1823 279.731 92.8144 279.363 92.3438 279.098C91.8797 278.826 91.3395 278.69 90.723 278.69C90.08 278.69 89.5099 278.839 89.0128 279.138C88.5223 279.429 88.1378 279.824 87.8594 280.321C87.581 280.812 87.4384 281.358 87.4318 281.962V284.457C87.4318 285.213 87.571 285.866 87.8494 286.416C88.1345 286.966 88.5355 287.391 89.0526 287.689C89.5696 287.987 90.1828 288.136 90.892 288.136C91.3627 288.136 91.7936 288.07 92.1847 287.938C92.5758 287.805 92.9105 287.606 93.1889 287.341C93.4673 287.076 93.6795 286.751 93.8253 286.366L97.7429 286.625C97.544 287.566 97.1364 288.388 96.5199 289.091C95.91 289.787 95.1212 290.33 94.1534 290.722C93.1922 291.106 92.0819 291.298 90.8224 291.298ZM107.497 291.298C105.953 291.298 104.617 290.97 103.49 290.314C102.37 289.651 101.505 288.73 100.895 287.55C100.285 286.363 99.9801 284.988 99.9801 283.423C99.9801 281.846 100.285 280.467 100.895 279.287C101.505 278.1 102.37 277.179 103.49 276.523C104.617 275.86 105.953 275.528 107.497 275.528C109.042 275.528 110.374 275.86 111.494 276.523C112.621 277.179 113.49 278.1 114.099 279.287C114.709 280.467 115.014 281.846 115.014 283.423C115.014 284.988 114.709 286.363 114.099 287.55C113.49 288.73 112.621 289.651 111.494 290.314C110.374 290.97 109.042 291.298 107.497 291.298ZM107.517 288.017C108.22 288.017 108.806 287.818 109.277 287.42C109.748 287.016 110.102 286.466 110.341 285.77C110.586 285.074 110.709 284.282 110.709 283.393C110.709 282.505 110.586 281.713 110.341 281.017C110.102 280.321 109.748 279.771 109.277 279.366C108.806 278.962 108.22 278.76 107.517 278.76C106.808 278.76 106.211 278.962 105.727 279.366C105.25 279.771 104.889 280.321 104.643 281.017C104.405 281.713 104.286 282.505 104.286 283.393C104.286 284.282 104.405 285.074 104.643 285.77C104.889 286.466 105.25 287.016 105.727 287.42C106.211 287.818 106.808 288.017 107.517 288.017ZM117.768 296.727V275.727H121.945V278.293H122.134C122.319 277.882 122.588 277.464 122.939 277.04C123.297 276.609 123.761 276.251 124.331 275.966C124.908 275.674 125.624 275.528 126.479 275.528C127.592 275.528 128.62 275.82 129.561 276.403C130.502 276.98 131.255 277.852 131.818 279.018C132.382 280.179 132.663 281.634 132.663 283.384C132.663 285.087 132.388 286.526 131.838 287.699C131.295 288.866 130.552 289.75 129.611 290.354C128.676 290.95 127.629 291.249 126.469 291.249C125.647 291.249 124.947 291.113 124.371 290.841C123.801 290.569 123.333 290.228 122.969 289.817C122.604 289.399 122.326 288.978 122.134 288.554H122.004V296.727H117.768ZM121.915 283.364C121.915 284.272 122.041 285.064 122.293 285.74C122.545 286.416 122.909 286.943 123.386 287.321C123.864 287.692 124.444 287.878 125.126 287.878C125.816 287.878 126.399 287.689 126.876 287.311C127.354 286.927 127.715 286.396 127.96 285.72C128.212 285.037 128.338 284.252 128.338 283.364C128.338 282.482 128.215 281.706 127.97 281.037C127.725 280.367 127.364 279.844 126.886 279.466C126.409 279.088 125.822 278.899 125.126 278.899C124.437 278.899 123.854 279.081 123.376 279.446C122.906 279.811 122.545 280.328 122.293 280.997C122.041 281.667 121.915 282.455 121.915 283.364ZM139.723 270.636V291H135.487V270.636H139.723ZM150.076 291.298C148.505 291.298 147.153 290.98 146.02 290.344C144.893 289.701 144.024 288.793 143.414 287.619C142.805 286.439 142.5 285.044 142.5 283.433C142.5 281.862 142.805 280.483 143.414 279.297C144.024 278.11 144.883 277.186 145.99 276.523C147.103 275.86 148.409 275.528 149.907 275.528C150.915 275.528 151.853 275.691 152.721 276.016C153.596 276.334 154.359 276.814 155.008 277.457C155.664 278.1 156.175 278.909 156.539 279.884C156.904 280.851 157.086 281.985 157.086 283.284V284.447H144.19V281.822H153.099C153.099 281.213 152.967 280.672 152.701 280.202C152.436 279.731 152.068 279.363 151.598 279.098C151.134 278.826 150.593 278.69 149.977 278.69C149.334 278.69 148.764 278.839 148.267 279.138C147.776 279.429 147.392 279.824 147.113 280.321C146.835 280.812 146.692 281.358 146.686 281.962V284.457C146.686 285.213 146.825 285.866 147.103 286.416C147.388 286.966 147.789 287.391 148.306 287.689C148.824 287.987 149.437 288.136 150.146 288.136C150.617 288.136 151.047 288.07 151.439 287.938C151.83 287.805 152.164 287.606 152.443 287.341C152.721 287.076 152.933 286.751 153.079 286.366L156.997 286.625C156.798 287.566 156.39 288.388 155.774 289.091C155.164 289.787 154.375 290.33 153.407 290.722C152.446 291.106 151.336 291.298 150.076 291.298ZM179.038 280.082L175.161 280.321C175.094 279.99 174.952 279.691 174.733 279.426C174.514 279.154 174.226 278.939 173.868 278.78C173.517 278.614 173.096 278.531 172.605 278.531C171.949 278.531 171.395 278.67 170.945 278.949C170.494 279.221 170.268 279.585 170.268 280.043C170.268 280.407 170.414 280.715 170.706 280.967C170.998 281.219 171.498 281.421 172.207 281.574L174.972 282.131C176.456 282.436 177.563 282.926 178.293 283.602C179.022 284.278 179.386 285.167 179.386 286.267C179.386 287.268 179.091 288.146 178.501 288.902C177.918 289.658 177.116 290.248 176.095 290.672C175.081 291.089 173.911 291.298 172.585 291.298C170.563 291.298 168.953 290.877 167.753 290.036C166.56 289.187 165.86 288.034 165.655 286.575L169.821 286.357C169.947 286.973 170.252 287.444 170.736 287.768C171.22 288.087 171.839 288.246 172.595 288.246C173.338 288.246 173.934 288.103 174.385 287.818C174.842 287.527 175.074 287.152 175.081 286.695C175.074 286.31 174.912 285.995 174.594 285.75C174.276 285.498 173.785 285.306 173.122 285.173L170.477 284.646C168.986 284.348 167.875 283.831 167.146 283.095C166.424 282.359 166.062 281.421 166.062 280.281C166.062 279.3 166.328 278.455 166.858 277.746C167.395 277.036 168.147 276.49 169.115 276.105C170.089 275.721 171.23 275.528 172.536 275.528C174.464 275.528 175.982 275.936 177.089 276.751C178.203 277.567 178.853 278.677 179.038 280.082ZM186.409 291.288C185.434 291.288 184.566 291.119 183.804 290.781C183.041 290.437 182.438 289.929 181.994 289.26C181.556 288.584 181.338 287.742 181.338 286.734C181.338 285.886 181.493 285.173 181.805 284.597C182.117 284.02 182.541 283.556 183.078 283.205C183.615 282.853 184.225 282.588 184.907 282.409C185.597 282.23 186.319 282.104 187.075 282.031C187.963 281.938 188.679 281.852 189.223 281.773C189.766 281.687 190.161 281.561 190.406 281.395C190.651 281.229 190.774 280.984 190.774 280.659V280.599C190.774 279.97 190.575 279.482 190.177 279.138C189.786 278.793 189.229 278.621 188.507 278.621C187.744 278.621 187.138 278.79 186.687 279.128C186.236 279.459 185.938 279.877 185.792 280.381L181.875 280.062C182.074 279.134 182.465 278.332 183.048 277.656C183.631 276.973 184.384 276.45 185.305 276.085C186.233 275.714 187.307 275.528 188.527 275.528C189.375 275.528 190.187 275.628 190.963 275.827C191.745 276.026 192.438 276.334 193.041 276.751C193.651 277.169 194.131 277.706 194.483 278.362C194.834 279.012 195.01 279.791 195.01 280.699V291H190.993V288.882H190.873C190.628 289.359 190.3 289.78 189.889 290.145C189.478 290.503 188.984 290.785 188.407 290.99C187.831 291.189 187.164 291.288 186.409 291.288ZM187.622 288.365C188.245 288.365 188.795 288.242 189.272 287.997C189.75 287.745 190.124 287.407 190.396 286.983C190.668 286.559 190.804 286.078 190.804 285.541V283.92C190.671 284.007 190.489 284.086 190.257 284.159C190.031 284.225 189.776 284.288 189.491 284.348C189.206 284.401 188.921 284.451 188.636 284.497C188.351 284.537 188.092 284.573 187.86 284.607C187.363 284.679 186.929 284.795 186.558 284.955C186.187 285.114 185.898 285.329 185.693 285.601C185.487 285.866 185.385 286.197 185.385 286.595C185.385 287.172 185.593 287.613 186.011 287.918C186.435 288.216 186.972 288.365 187.622 288.365ZM198.296 291V275.727H202.532V291H198.296ZM200.424 273.759C199.794 273.759 199.254 273.55 198.803 273.132C198.359 272.708 198.137 272.201 198.137 271.611C198.137 271.027 198.359 270.527 198.803 270.109C199.254 269.685 199.794 269.473 200.424 269.473C201.053 269.473 201.59 269.685 202.034 270.109C202.485 270.527 202.711 271.027 202.711 271.611C202.711 272.201 202.485 272.708 202.034 273.132C201.59 273.55 201.053 273.759 200.424 273.759ZM211.553 291.249C210.393 291.249 209.342 290.95 208.401 290.354C207.466 289.75 206.723 288.866 206.173 287.699C205.63 286.526 205.358 285.087 205.358 283.384C205.358 281.634 205.64 280.179 206.203 279.018C206.767 277.852 207.516 276.98 208.45 276.403C209.392 275.82 210.422 275.528 211.543 275.528C212.398 275.528 213.11 275.674 213.68 275.966C214.257 276.251 214.721 276.609 215.072 277.04C215.43 277.464 215.702 277.882 215.888 278.293H216.017V270.636H220.243V291H216.067V288.554H215.888C215.689 288.978 215.407 289.399 215.043 289.817C214.685 290.228 214.217 290.569 213.641 290.841C213.071 291.113 212.375 291.249 211.553 291.249ZM212.895 287.878C213.578 287.878 214.154 287.692 214.625 287.321C215.102 286.943 215.467 286.416 215.719 285.74C215.977 285.064 216.107 284.272 216.107 283.364C216.107 282.455 215.981 281.667 215.729 280.997C215.477 280.328 215.112 279.811 214.635 279.446C214.158 279.081 213.578 278.899 212.895 278.899C212.199 278.899 211.612 279.088 211.135 279.466C210.658 279.844 210.296 280.367 210.051 281.037C209.806 281.706 209.683 282.482 209.683 283.364C209.683 284.252 209.806 285.037 210.051 285.72C210.303 286.396 210.664 286.927 211.135 287.311C211.612 287.689 212.199 287.878 212.895 287.878ZM238.33 275.727V278.909H229.132V275.727H238.33ZM231.22 272.068H235.456V286.307C235.456 286.698 235.516 287.003 235.635 287.222C235.754 287.434 235.92 287.583 236.132 287.669C236.351 287.755 236.603 287.798 236.888 287.798C237.087 287.798 237.286 287.782 237.484 287.749C237.683 287.709 237.836 287.679 237.942 287.659L238.608 290.811C238.396 290.877 238.098 290.954 237.713 291.04C237.329 291.133 236.861 291.189 236.311 291.209C235.29 291.249 234.395 291.113 233.626 290.801C232.864 290.49 232.271 290.006 231.847 289.349C231.422 288.693 231.214 287.865 231.22 286.864V272.068ZM245.653 282.17V291H241.417V270.636H245.533V278.422H245.712C246.057 277.52 246.614 276.814 247.383 276.304C248.152 275.787 249.116 275.528 250.276 275.528C251.337 275.528 252.262 275.76 253.05 276.224C253.846 276.682 254.462 277.341 254.9 278.203C255.344 279.058 255.563 280.082 255.556 281.276V291H251.32V282.031C251.327 281.09 251.088 280.357 250.604 279.834C250.127 279.31 249.458 279.048 248.596 279.048C248.019 279.048 247.509 279.171 247.065 279.416C246.627 279.661 246.282 280.019 246.031 280.49C245.785 280.954 245.659 281.514 245.653 282.17ZM265.85 291.298C264.279 291.298 262.926 290.98 261.793 290.344C260.666 289.701 259.798 288.793 259.188 287.619C258.578 286.439 258.273 285.044 258.273 283.433C258.273 281.862 258.578 280.483 259.188 279.297C259.798 278.11 260.656 277.186 261.763 276.523C262.877 275.86 264.183 275.528 265.681 275.528C266.688 275.528 267.626 275.691 268.495 276.016C269.37 276.334 270.132 276.814 270.782 277.457C271.438 278.1 271.948 278.909 272.313 279.884C272.677 280.851 272.86 281.985 272.86 283.284V284.447H259.963V281.822H268.873C268.873 281.213 268.74 280.672 268.475 280.202C268.21 279.731 267.842 279.363 267.371 279.098C266.907 278.826 266.367 278.69 265.75 278.69C265.107 278.69 264.537 278.839 264.04 279.138C263.55 279.429 263.165 279.824 262.887 280.321C262.608 280.812 262.466 281.358 262.459 281.962V284.457C262.459 285.213 262.598 285.866 262.877 286.416C263.162 286.966 263.563 287.391 264.08 287.689C264.597 287.987 265.21 288.136 265.919 288.136C266.39 288.136 266.821 288.07 267.212 287.938C267.603 287.805 267.938 287.606 268.216 287.341C268.495 287.076 268.707 286.751 268.853 286.366L272.77 286.625C272.571 287.566 272.164 288.388 271.547 289.091C270.937 289.787 270.149 290.33 269.181 290.722C268.22 291.106 267.109 291.298 265.85 291.298ZM277.829 296.727C277.292 296.727 276.788 296.684 276.317 296.598C275.853 296.518 275.469 296.416 275.164 296.29L276.119 293.128C276.616 293.28 277.063 293.363 277.461 293.376C277.865 293.39 278.213 293.297 278.505 293.098C278.803 292.899 279.045 292.561 279.231 292.084L279.479 291.438L274.001 275.727H278.455L281.617 286.943H281.776L284.968 275.727H289.452L283.516 292.651C283.231 293.473 282.844 294.188 282.353 294.798C281.869 295.415 281.256 295.889 280.513 296.22C279.771 296.558 278.876 296.727 277.829 296.727ZM306.314 275.727V278.909H296.887V275.727H306.314ZM299.045 291V274.624C299.045 273.517 299.261 272.598 299.691 271.869C300.129 271.14 300.725 270.593 301.481 270.229C302.237 269.864 303.095 269.682 304.056 269.682C304.706 269.682 305.299 269.732 305.836 269.831C306.38 269.93 306.784 270.02 307.049 270.099L306.294 273.281C306.128 273.228 305.922 273.179 305.677 273.132C305.439 273.086 305.193 273.062 304.941 273.062C304.318 273.062 303.884 273.208 303.639 273.5C303.394 273.785 303.271 274.186 303.271 274.703V291H299.045ZM308.901 291V275.727H313.137V291H308.901ZM311.029 273.759C310.399 273.759 309.859 273.55 309.408 273.132C308.964 272.708 308.742 272.201 308.742 271.611C308.742 271.027 308.964 270.527 309.408 270.109C309.859 269.685 310.399 269.473 311.029 269.473C311.659 269.473 312.196 269.685 312.64 270.109C313.091 270.527 313.316 271.027 313.316 271.611C313.316 272.201 313.091 272.708 312.64 273.132C312.196 273.55 311.659 273.759 311.029 273.759ZM320.766 282.17V291H316.53V275.727H320.567V278.422H320.746C321.084 277.534 321.651 276.831 322.446 276.314C323.242 275.79 324.206 275.528 325.34 275.528C326.4 275.528 327.325 275.76 328.114 276.224C328.903 276.688 329.516 277.351 329.953 278.213C330.391 279.068 330.61 280.089 330.61 281.276V291H326.374V282.031C326.381 281.097 326.142 280.367 325.658 279.844C325.174 279.313 324.508 279.048 323.659 279.048C323.089 279.048 322.586 279.171 322.148 279.416C321.717 279.661 321.379 280.019 321.134 280.49C320.895 280.954 320.773 281.514 320.766 282.17ZM339.576 291.249C338.416 291.249 337.365 290.95 336.424 290.354C335.489 289.75 334.747 288.866 334.197 287.699C333.653 286.526 333.381 285.087 333.381 283.384C333.381 281.634 333.663 280.179 334.227 279.018C334.79 277.852 335.539 276.98 336.474 276.403C337.415 275.82 338.446 275.528 339.566 275.528C340.421 275.528 341.134 275.674 341.704 275.966C342.281 276.251 342.745 276.609 343.096 277.04C343.454 277.464 343.726 277.882 343.911 278.293H344.04V270.636H348.266V291H344.09V288.554H343.911C343.712 288.978 343.431 289.399 343.066 289.817C342.708 290.228 342.241 290.569 341.664 290.841C341.094 291.113 340.398 291.249 339.576 291.249ZM340.918 287.878C341.601 287.878 342.178 287.692 342.648 287.321C343.126 286.943 343.49 286.416 343.742 285.74C344.001 285.064 344.13 284.272 344.13 283.364C344.13 282.455 344.004 281.667 343.752 280.997C343.5 280.328 343.136 279.811 342.658 279.446C342.181 279.081 341.601 278.899 340.918 278.899C340.222 278.899 339.636 279.088 339.158 279.466C338.681 279.844 338.32 280.367 338.075 281.037C337.829 281.706 337.707 282.482 337.707 283.364C337.707 284.252 337.829 285.037 338.075 285.72C338.326 286.396 338.688 286.927 339.158 287.311C339.636 287.689 340.222 287.878 340.918 287.878ZM358.229 291V275.727H362.465V291H358.229ZM360.357 273.759C359.728 273.759 359.187 273.55 358.737 273.132C358.292 272.708 358.07 272.201 358.07 271.611C358.07 271.027 358.292 270.527 358.737 270.109C359.187 269.685 359.728 269.473 360.357 269.473C360.987 269.473 361.524 269.685 361.968 270.109C362.419 270.527 362.644 271.027 362.644 271.611C362.644 272.201 362.419 272.708 361.968 273.132C361.524 273.55 360.987 273.759 360.357 273.759ZM373.982 275.727V278.909H364.784V275.727H373.982ZM366.873 272.068H371.108V286.307C371.108 286.698 371.168 287.003 371.287 287.222C371.407 287.434 371.572 287.583 371.784 287.669C372.003 287.755 372.255 287.798 372.54 287.798C372.739 287.798 372.938 287.782 373.137 287.749C373.336 287.709 373.488 287.679 373.594 287.659L374.26 290.811C374.048 290.877 373.75 290.954 373.365 291.04C372.981 291.133 372.514 291.189 371.963 291.209C370.943 291.249 370.048 291.113 369.279 290.801C368.516 290.49 367.923 290.006 367.499 289.349C367.075 288.693 366.866 287.865 366.873 286.864V272.068ZM388.849 291.249C387.689 291.249 386.639 290.95 385.697 290.354C384.763 289.75 384.02 288.866 383.47 287.699C382.927 286.526 382.655 285.087 382.655 283.384C382.655 281.634 382.937 280.179 383.5 279.018C384.063 277.852 384.813 276.98 385.747 276.403C386.688 275.82 387.719 275.528 388.839 275.528C389.695 275.528 390.407 275.674 390.977 275.966C391.554 276.251 392.018 276.609 392.369 277.04C392.727 277.464 392.999 277.882 393.185 278.293H393.314V270.636H397.54V291H393.364V288.554H393.185C392.986 288.978 392.704 289.399 392.339 289.817C391.982 290.228 391.514 290.569 390.938 290.841C390.367 291.113 389.671 291.249 388.849 291.249ZM390.192 287.878C390.875 287.878 391.451 287.692 391.922 287.321C392.399 286.943 392.764 286.416 393.016 285.74C393.274 285.064 393.403 284.272 393.403 283.364C393.403 282.455 393.277 281.667 393.026 280.997C392.774 280.328 392.409 279.811 391.932 279.446C391.455 279.081 390.875 278.899 390.192 278.899C389.496 278.899 388.909 279.088 388.432 279.466C387.955 279.844 387.593 280.367 387.348 281.037C387.103 281.706 386.98 282.482 386.98 283.364C386.98 284.252 387.103 285.037 387.348 285.72C387.6 286.396 387.961 286.927 388.432 287.311C388.909 287.689 389.496 287.878 390.192 287.878ZM401.022 291V275.727H405.258V291H401.022ZM403.15 273.759C402.52 273.759 401.98 273.55 401.529 273.132C401.085 272.708 400.863 272.201 400.863 271.611C400.863 271.027 401.085 270.527 401.529 270.109C401.98 269.685 402.52 269.473 403.15 269.473C403.78 269.473 404.317 269.685 404.761 270.109C405.212 270.527 405.437 271.027 405.437 271.611C405.437 272.201 405.212 272.708 404.761 273.132C404.317 273.55 403.78 273.759 403.15 273.759ZM416.864 275.727V278.909H407.438V275.727H416.864ZM409.596 291V274.624C409.596 273.517 409.811 272.598 410.242 271.869C410.68 271.14 411.276 270.593 412.032 270.229C412.788 269.864 413.646 269.682 414.607 269.682C415.257 269.682 415.85 269.732 416.387 269.831C416.931 269.93 417.335 270.02 417.6 270.099L416.844 273.281C416.679 273.228 416.473 273.179 416.228 273.132C415.989 273.086 415.744 273.062 415.492 273.062C414.869 273.062 414.435 273.208 414.19 273.5C413.944 273.785 413.822 274.186 413.822 274.703V291H409.596ZM427.665 275.727V278.909H418.239V275.727H427.665ZM420.397 291V274.624C420.397 273.517 420.612 272.598 421.043 271.869C421.48 271.14 422.077 270.593 422.833 270.229C423.588 269.864 424.447 269.682 425.408 269.682C426.058 269.682 426.651 269.732 427.188 269.831C427.731 269.93 428.136 270.02 428.401 270.099L427.645 273.281C427.48 273.228 427.274 273.179 427.029 273.132C426.79 273.086 426.545 273.062 426.293 273.062C425.67 273.062 425.236 273.208 424.99 273.5C424.745 273.785 424.623 274.186 424.623 274.703V291H420.397ZM430.253 291V275.727H434.489V291H430.253ZM432.381 273.759C431.751 273.759 431.211 273.55 430.76 273.132C430.316 272.708 430.094 272.201 430.094 271.611C430.094 271.027 430.316 270.527 430.76 270.109C431.211 269.685 431.751 269.473 432.381 269.473C433.01 269.473 433.547 269.685 433.991 270.109C434.442 270.527 434.668 271.027 434.668 271.611C434.668 272.201 434.442 272.708 433.991 273.132C433.547 273.55 433.01 273.759 432.381 273.759ZM444.782 291.298C443.218 291.298 441.872 290.967 440.745 290.304C439.625 289.634 438.763 288.706 438.16 287.52C437.564 286.333 437.265 284.968 437.265 283.423C437.265 281.859 437.567 280.487 438.17 279.307C438.78 278.12 439.645 277.196 440.765 276.533C441.886 275.863 443.218 275.528 444.762 275.528C446.095 275.528 447.261 275.77 448.262 276.254C449.263 276.738 450.056 277.418 450.639 278.293C451.222 279.168 451.544 280.195 451.603 281.375H447.606C447.493 280.613 447.195 280 446.711 279.536C446.234 279.065 445.608 278.83 444.832 278.83C444.176 278.83 443.602 279.009 443.112 279.366C442.628 279.718 442.25 280.232 441.978 280.908C441.707 281.584 441.571 282.402 441.571 283.364C441.571 284.338 441.703 285.167 441.968 285.849C442.24 286.532 442.621 287.053 443.112 287.411C443.602 287.768 444.176 287.947 444.832 287.947C445.316 287.947 445.75 287.848 446.135 287.649C446.526 287.45 446.847 287.162 447.099 286.784C447.358 286.4 447.527 285.939 447.606 285.402H451.603C451.537 286.569 451.219 287.596 450.649 288.484C450.085 289.366 449.306 290.055 448.312 290.553C447.318 291.05 446.141 291.298 444.782 291.298ZM464.109 284.497V275.727H468.345V291H464.278V288.226H464.119C463.775 289.121 463.201 289.84 462.399 290.384C461.604 290.927 460.633 291.199 459.486 291.199C458.465 291.199 457.567 290.967 456.791 290.503C456.016 290.039 455.409 289.379 454.972 288.524C454.541 287.669 454.322 286.645 454.315 285.452V275.727H458.551V284.696C458.558 285.598 458.8 286.31 459.277 286.834C459.754 287.357 460.394 287.619 461.196 287.619C461.706 287.619 462.184 287.503 462.628 287.271C463.072 287.033 463.43 286.681 463.702 286.217C463.98 285.753 464.116 285.18 464.109 284.497ZM475.969 270.636V291H471.733V270.636H475.969ZM487.486 275.727V278.909H478.288V275.727H487.486ZM480.376 272.068H484.612V286.307C484.612 286.698 484.672 287.003 484.791 287.222C484.911 287.434 485.076 287.583 485.288 287.669C485.507 287.755 485.759 287.798 486.044 287.798C486.243 287.798 486.442 287.782 486.641 287.749C486.839 287.709 486.992 287.679 487.098 287.659L487.764 290.811C487.552 290.877 487.254 290.954 486.869 291.04C486.485 291.133 486.018 291.189 485.467 291.209C484.446 291.249 483.552 291.113 482.783 290.801C482.02 290.49 481.427 290.006 481.003 289.349C480.579 288.693 480.37 287.865 480.376 286.864V272.068ZM504.849 275.727V278.909H495.652V275.727H504.849ZM497.74 272.068H501.975V286.307C501.975 286.698 502.035 287.003 502.154 287.222C502.274 287.434 502.44 287.583 502.652 287.669C502.87 287.755 503.122 287.798 503.407 287.798C503.606 287.798 503.805 287.782 504.004 287.749C504.203 287.709 504.355 287.679 504.461 287.659L505.127 290.811C504.915 290.877 504.617 290.954 504.233 291.04C503.848 291.133 503.381 291.189 502.831 291.209C501.81 291.249 500.915 291.113 500.146 290.801C499.384 290.49 498.79 290.006 498.366 289.349C497.942 288.693 497.733 287.865 497.74 286.864V272.068ZM514.345 291.298C512.8 291.298 511.465 290.97 510.338 290.314C509.217 289.651 508.352 288.73 507.743 287.55C507.133 286.363 506.828 284.988 506.828 283.423C506.828 281.846 507.133 280.467 507.743 279.287C508.352 278.1 509.217 277.179 510.338 276.523C511.465 275.86 512.8 275.528 514.345 275.528C515.889 275.528 517.222 275.86 518.342 276.523C519.469 277.179 520.337 278.1 520.947 279.287C521.557 280.467 521.862 281.846 521.862 283.423C521.862 284.988 521.557 286.363 520.947 287.55C520.337 288.73 519.469 289.651 518.342 290.314C517.222 290.97 515.889 291.298 514.345 291.298ZM514.365 288.017C515.067 288.017 515.654 287.818 516.125 287.42C516.595 287.016 516.95 286.466 517.189 285.77C517.434 285.074 517.556 284.282 517.556 283.393C517.556 282.505 517.434 281.713 517.189 281.017C516.95 280.321 516.595 279.771 516.125 279.366C515.654 278.962 515.067 278.76 514.365 278.76C513.655 278.76 513.059 278.962 512.575 279.366C512.098 279.771 511.736 280.321 511.491 281.017C511.252 281.713 511.133 282.505 511.133 283.393C511.133 284.282 511.252 285.074 511.491 285.77C511.736 286.466 512.098 287.016 512.575 287.42C513.059 287.818 513.655 288.017 514.365 288.017ZM36.0455 325.288C35.071 325.288 34.2027 325.119 33.4403 324.781C32.678 324.437 32.0748 323.929 31.6307 323.26C31.1932 322.584 30.9744 321.742 30.9744 320.734C30.9744 319.886 31.1302 319.173 31.4418 318.597C31.7533 318.02 32.1776 317.556 32.7145 317.205C33.2514 316.853 33.8613 316.588 34.544 316.409C35.2334 316.23 35.956 316.104 36.7116 316.031C37.5999 315.938 38.3158 315.852 38.8594 315.773C39.4029 315.687 39.7973 315.561 40.0426 315.395C40.2879 315.229 40.4105 314.984 40.4105 314.659V314.599C40.4105 313.97 40.2116 313.482 39.8139 313.138C39.4228 312.793 38.866 312.621 38.1435 312.621C37.3812 312.621 36.7746 312.79 36.3239 313.128C35.8731 313.459 35.5748 313.877 35.429 314.381L31.5114 314.062C31.7102 313.134 32.1013 312.332 32.6847 311.656C33.268 310.973 34.0204 310.45 34.9418 310.085C35.8698 309.714 36.9437 309.528 38.1634 309.528C39.0118 309.528 39.8239 309.628 40.5994 309.827C41.3816 310.026 42.0743 310.334 42.6776 310.751C43.2874 311.169 43.768 311.706 44.1193 312.362C44.4706 313.012 44.6463 313.791 44.6463 314.699V325H40.6293V322.882H40.5099C40.2647 323.359 39.9366 323.78 39.5256 324.145C39.1146 324.503 38.6207 324.785 38.044 324.99C37.4673 325.189 36.8011 325.288 36.0455 325.288ZM37.2585 322.365C37.8816 322.365 38.4318 322.242 38.9091 321.997C39.3864 321.745 39.7609 321.407 40.0327 320.983C40.3045 320.559 40.4403 320.078 40.4403 319.541V317.92C40.3078 318.007 40.1255 318.086 39.8935 318.159C39.6681 318.225 39.4129 318.288 39.1278 318.348C38.8428 318.401 38.5578 318.451 38.2727 318.497C37.9877 318.537 37.7292 318.573 37.4972 318.607C37 318.679 36.5658 318.795 36.1946 318.955C35.8234 319.114 35.535 319.329 35.3295 319.601C35.1241 319.866 35.0213 320.197 35.0213 320.595C35.0213 321.172 35.2301 321.613 35.6477 321.918C36.072 322.216 36.6089 322.365 37.2585 322.365ZM56.1456 309.727V312.909H46.7195V309.727H56.1456ZM48.8771 325V308.624C48.8771 307.517 49.0926 306.598 49.5234 305.869C49.9609 305.14 50.5575 304.593 51.3132 304.229C52.0689 303.864 52.9273 303.682 53.8885 303.682C54.5381 303.682 55.1314 303.732 55.6683 303.831C56.2119 303.93 56.6162 304.02 56.8814 304.099L56.1257 307.281C55.96 307.228 55.7545 307.179 55.5092 307.132C55.2706 307.086 55.0253 307.062 54.7734 307.062C54.1503 307.062 53.7161 307.208 53.4709 307.5C53.2256 307.785 53.103 308.186 53.103 308.703V325H48.8771ZM66.9464 309.727V312.909H57.5202V309.727H66.9464ZM59.6779 325V308.624C59.6779 307.517 59.8933 306.598 60.3242 305.869C60.7617 305.14 61.3583 304.593 62.114 304.229C62.8697 303.864 63.7281 303.682 64.6893 303.682C65.3389 303.682 65.9322 303.732 66.4691 303.831C67.0127 303.93 67.417 304.02 67.6822 304.099L66.9265 307.281C66.7608 307.228 66.5553 307.179 66.31 307.132C66.0714 307.086 65.8261 307.062 65.5742 307.062C64.9511 307.062 64.5169 307.208 64.2717 307.5C64.0264 307.785 63.9038 308.186 63.9038 308.703V325H59.6779ZM75.8878 325.298C74.3433 325.298 73.0076 324.97 71.8807 324.314C70.7604 323.651 69.8954 322.73 69.2855 321.55C68.6757 320.363 68.3707 318.988 68.3707 317.423C68.3707 315.846 68.6757 314.467 69.2855 313.287C69.8954 312.1 70.7604 311.179 71.8807 310.523C73.0076 309.86 74.3433 309.528 75.8878 309.528C77.4323 309.528 78.7647 309.86 79.8849 310.523C81.0118 311.179 81.8802 312.1 82.4901 313.287C83.0999 314.467 83.4048 315.846 83.4048 317.423C83.4048 318.988 83.0999 320.363 82.4901 321.55C81.8802 322.73 81.0118 323.651 79.8849 324.314C78.7647 324.97 77.4323 325.298 75.8878 325.298ZM75.9077 322.017C76.6103 322.017 77.197 321.818 77.6676 321.42C78.1383 321.016 78.4929 320.466 78.7315 319.77C78.9768 319.074 79.0994 318.282 79.0994 317.393C79.0994 316.505 78.9768 315.713 78.7315 315.017C78.4929 314.321 78.1383 313.771 77.6676 313.366C77.197 312.962 76.6103 312.76 75.9077 312.76C75.1984 312.76 74.6018 312.962 74.1179 313.366C73.6406 313.771 73.2794 314.321 73.0341 315.017C72.7955 315.713 72.6761 316.505 72.6761 317.393C72.6761 318.282 72.7955 319.074 73.0341 319.77C73.2794 320.466 73.6406 321.016 74.1179 321.42C74.6018 321.818 75.1984 322.017 75.9077 322.017ZM86.1591 325V309.727H90.2656V312.392H90.4247C90.7031 311.444 91.1705 310.728 91.8267 310.244C92.483 309.754 93.2386 309.509 94.0938 309.509C94.3059 309.509 94.5346 309.522 94.7798 309.548C95.0251 309.575 95.2405 309.611 95.4261 309.658V313.416C95.2273 313.357 94.9522 313.304 94.6009 313.257C94.2495 313.211 93.928 313.188 93.6364 313.188C93.0133 313.188 92.4564 313.323 91.9659 313.595C91.482 313.86 91.0975 314.232 90.8125 314.709C90.5341 315.186 90.3949 315.736 90.3949 316.359V325H86.1591ZM102.533 325.249C101.373 325.249 100.322 324.95 99.381 324.354C98.4464 323.75 97.704 322.866 97.1538 321.699C96.6102 320.526 96.3384 319.087 96.3384 317.384C96.3384 315.634 96.6201 314.179 97.1836 313.018C97.747 311.852 98.4961 310.98 99.4308 310.403C100.372 309.82 101.403 309.528 102.523 309.528C103.378 309.528 104.091 309.674 104.661 309.966C105.238 310.251 105.702 310.609 106.053 311.04C106.411 311.464 106.683 311.882 106.868 312.293H106.998V304.636H111.223V325H107.047V322.554H106.868C106.669 322.978 106.388 323.399 106.023 323.817C105.665 324.228 105.198 324.569 104.621 324.841C104.051 325.113 103.355 325.249 102.533 325.249ZM103.875 321.878C104.558 321.878 105.135 321.692 105.605 321.321C106.083 320.943 106.447 320.416 106.699 319.74C106.958 319.064 107.087 318.272 107.087 317.364C107.087 316.455 106.961 315.667 106.709 314.997C106.457 314.328 106.093 313.811 105.615 313.446C105.138 313.081 104.558 312.899 103.875 312.899C103.179 312.899 102.593 313.088 102.115 313.466C101.638 313.844 101.277 314.367 101.032 315.037C100.786 315.706 100.664 316.482 100.664 317.364C100.664 318.252 100.786 319.037 101.032 319.72C101.283 320.396 101.645 320.927 102.115 321.311C102.593 321.689 103.179 321.878 103.875 321.878ZM129.31 309.727V312.909H120.113V309.727H129.31ZM122.201 306.068H126.436V320.307C126.436 320.698 126.496 321.003 126.615 321.222C126.735 321.434 126.9 321.583 127.113 321.669C127.331 321.755 127.583 321.798 127.868 321.798C128.067 321.798 128.266 321.782 128.465 321.749C128.664 321.709 128.816 321.679 128.922 321.659L129.588 324.811C129.376 324.877 129.078 324.954 128.694 325.04C128.309 325.133 127.842 325.189 127.292 325.209C126.271 325.249 125.376 325.113 124.607 324.801C123.845 324.49 123.251 324.006 122.827 323.349C122.403 322.693 122.194 321.865 122.201 320.864V306.068ZM136.633 316.17V325H132.397V304.636H136.514V312.422H136.693C137.038 311.52 137.594 310.814 138.363 310.304C139.132 309.787 140.097 309.528 141.257 309.528C142.317 309.528 143.242 309.76 144.031 310.224C144.826 310.682 145.443 311.341 145.88 312.203C146.324 313.058 146.543 314.082 146.537 315.276V325H142.301V316.031C142.307 315.09 142.069 314.357 141.585 313.834C141.108 313.31 140.438 313.048 139.576 313.048C139 313.048 138.489 313.171 138.045 313.416C137.608 313.661 137.263 314.019 137.011 314.49C136.766 314.954 136.64 315.514 136.633 316.17ZM156.83 325.298C155.259 325.298 153.907 324.98 152.773 324.344C151.647 323.701 150.778 322.793 150.168 321.619C149.558 320.439 149.254 319.044 149.254 317.433C149.254 315.862 149.558 314.483 150.168 313.297C150.778 312.11 151.637 311.186 152.744 310.523C153.857 309.86 155.163 309.528 156.661 309.528C157.669 309.528 158.607 309.691 159.475 310.016C160.35 310.334 161.112 310.814 161.762 311.457C162.418 312.1 162.929 312.909 163.293 313.884C163.658 314.851 163.84 315.985 163.84 317.284V318.447H150.944V315.822H159.853C159.853 315.213 159.72 314.672 159.455 314.202C159.19 313.731 158.822 313.363 158.352 313.098C157.888 312.826 157.347 312.69 156.731 312.69C156.088 312.69 155.518 312.839 155.021 313.138C154.53 313.429 154.146 313.824 153.867 314.321C153.589 314.812 153.446 315.358 153.44 315.962V318.457C153.44 319.213 153.579 319.866 153.857 320.416C154.142 320.966 154.543 321.391 155.06 321.689C155.577 321.987 156.191 322.136 156.9 322.136C157.371 322.136 157.801 322.07 158.192 321.938C158.584 321.805 158.918 321.606 159.197 321.341C159.475 321.076 159.687 320.751 159.833 320.366L163.751 320.625C163.552 321.566 163.144 322.388 162.528 323.091C161.918 323.787 161.129 324.33 160.161 324.722C159.2 325.106 158.09 325.298 156.83 325.298ZM166.604 325V309.727H170.84V325H166.604ZM168.732 307.759C168.103 307.759 167.562 307.55 167.112 307.132C166.667 306.708 166.445 306.201 166.445 305.611C166.445 305.027 166.667 304.527 167.112 304.109C167.562 303.685 168.103 303.473 168.732 303.473C169.362 303.473 169.899 303.685 170.343 304.109C170.794 304.527 171.019 305.027 171.019 305.611C171.019 306.201 170.794 306.708 170.343 307.132C169.899 307.55 169.362 307.759 168.732 307.759ZM174.233 325V309.727H178.34V312.392H178.499C178.777 311.444 179.245 310.728 179.901 310.244C180.557 309.754 181.313 309.509 182.168 309.509C182.38 309.509 182.609 309.522 182.854 309.548C183.099 309.575 183.315 309.611 183.5 309.658V313.416C183.301 313.357 183.026 313.304 182.675 313.257C182.324 313.211 182.002 313.188 181.711 313.188C181.087 313.188 180.531 313.323 180.04 313.595C179.556 313.86 179.172 314.232 178.887 314.709C178.608 315.186 178.469 315.736 178.469 316.359V325H174.233ZM200.384 309.727V312.909H190.958V309.727H200.384ZM193.115 325V308.624C193.115 307.517 193.331 306.598 193.762 305.869C194.199 305.14 194.796 304.593 195.551 304.229C196.307 303.864 197.166 303.682 198.127 303.682C198.776 303.682 199.37 303.732 199.907 303.831C200.45 303.93 200.855 304.02 201.12 304.099L200.364 307.281C200.198 307.228 199.993 307.179 199.748 307.132C199.509 307.086 199.264 307.062 199.012 307.062C198.389 307.062 197.954 307.208 197.709 307.5C197.464 307.785 197.341 308.186 197.341 308.703V325H193.115ZM206.78 325.288C205.805 325.288 204.937 325.119 204.175 324.781C203.412 324.437 202.809 323.929 202.365 323.26C201.928 322.584 201.709 321.742 201.709 320.734C201.709 319.886 201.865 319.173 202.176 318.597C202.488 318.02 202.912 317.556 203.449 317.205C203.986 316.853 204.596 316.588 205.278 316.409C205.968 316.23 206.69 316.104 207.446 316.031C208.334 315.938 209.05 315.852 209.594 315.773C210.137 315.687 210.532 315.561 210.777 315.395C211.022 315.229 211.145 314.984 211.145 314.659V314.599C211.145 313.97 210.946 313.482 210.548 313.138C210.157 312.793 209.6 312.621 208.878 312.621C208.116 312.621 207.509 312.79 207.058 313.128C206.607 313.459 206.309 313.877 206.163 314.381L202.246 314.062C202.445 313.134 202.836 312.332 203.419 311.656C204.002 310.973 204.755 310.45 205.676 310.085C206.604 309.714 207.678 309.528 208.898 309.528C209.746 309.528 210.558 309.628 211.334 309.827C212.116 310.026 212.809 310.334 213.412 310.751C214.022 311.169 214.502 311.706 214.854 312.362C215.205 313.012 215.381 313.791 215.381 314.699V325H211.364V322.882H211.244C210.999 323.359 210.671 323.78 210.26 324.145C209.849 324.503 209.355 324.785 208.778 324.99C208.202 325.189 207.536 325.288 206.78 325.288ZM207.993 322.365C208.616 322.365 209.166 322.242 209.643 321.997C210.121 321.745 210.495 321.407 210.767 320.983C211.039 320.559 211.175 320.078 211.175 319.541V317.92C211.042 318.007 210.86 318.086 210.628 318.159C210.402 318.225 210.147 318.288 209.862 318.348C209.577 318.401 209.292 318.451 209.007 318.497C208.722 318.537 208.464 318.573 208.232 318.607C207.734 318.679 207.3 318.795 206.929 318.955C206.558 319.114 206.269 319.329 206.064 319.601C205.858 319.866 205.756 320.197 205.756 320.595C205.756 321.172 205.964 321.613 206.382 321.918C206.806 322.216 207.343 322.365 207.993 322.365ZM232.359 309.727L227.019 325H222.246L216.907 309.727H221.381L224.553 320.655H224.712L227.874 309.727H232.359ZM240.935 325.298C239.39 325.298 238.054 324.97 236.928 324.314C235.807 323.651 234.942 322.73 234.332 321.55C233.723 320.363 233.418 318.988 233.418 317.423C233.418 315.846 233.723 314.467 234.332 313.287C234.942 312.1 235.807 311.179 236.928 310.523C238.054 309.86 239.39 309.528 240.935 309.528C242.479 309.528 243.812 309.86 244.932 310.523C246.059 311.179 246.927 312.1 247.537 313.287C248.147 314.467 248.452 315.846 248.452 317.423C248.452 318.988 248.147 320.363 247.537 321.55C246.927 322.73 246.059 323.651 244.932 324.314C243.812 324.97 242.479 325.298 240.935 325.298ZM240.955 322.017C241.657 322.017 242.244 321.818 242.714 321.42C243.185 321.016 243.54 320.466 243.778 319.77C244.024 319.074 244.146 318.282 244.146 317.393C244.146 316.505 244.024 315.713 243.778 315.017C243.54 314.321 243.185 313.771 242.714 313.366C242.244 312.962 241.657 312.76 240.955 312.76C240.245 312.76 239.649 312.962 239.165 313.366C238.688 313.771 238.326 314.321 238.081 315.017C237.842 315.713 237.723 316.505 237.723 317.393C237.723 318.282 237.842 319.074 238.081 319.77C238.326 320.466 238.688 321.016 239.165 321.42C239.649 321.818 240.245 322.017 240.955 322.017ZM251.206 325V309.727H255.312V312.392H255.472C255.75 311.444 256.217 310.728 256.874 310.244C257.53 309.754 258.286 309.509 259.141 309.509C259.353 309.509 259.581 309.522 259.827 309.548C260.072 309.575 260.287 309.611 260.473 309.658V313.416C260.274 313.357 259.999 313.304 259.648 313.257C259.296 313.211 258.975 313.188 258.683 313.188C258.06 313.188 257.503 313.323 257.013 313.595C256.529 313.86 256.144 314.232 255.859 314.709C255.581 315.186 255.442 315.736 255.442 316.359V325H251.206ZM262.663 325V309.727H266.899V325H262.663ZM264.791 307.759C264.161 307.759 263.621 307.55 263.17 307.132C262.726 306.708 262.504 306.201 262.504 305.611C262.504 305.027 262.726 304.527 263.17 304.109C263.621 303.685 264.161 303.473 264.791 303.473C265.421 303.473 265.958 303.685 266.402 304.109C266.852 304.527 267.078 305.027 267.078 305.611C267.078 306.201 266.852 306.708 266.402 307.132C265.958 307.55 265.421 307.759 264.791 307.759ZM278.415 309.727V312.909H269.218V309.727H278.415ZM271.306 306.068H275.542V320.307C275.542 320.698 275.602 321.003 275.721 321.222C275.84 321.434 276.006 321.583 276.218 321.669C276.437 321.755 276.689 321.798 276.974 321.798C277.173 321.798 277.371 321.782 277.57 321.749C277.769 321.709 277.922 321.679 278.028 321.659L278.694 324.811C278.482 324.877 278.183 324.954 277.799 325.04C277.415 325.133 276.947 325.189 276.397 325.209C275.376 325.249 274.481 325.113 273.712 324.801C272.95 324.49 272.357 324.006 271.933 323.349C271.508 322.693 271.299 321.865 271.306 320.864V306.068ZM287.971 325.298C286.4 325.298 285.048 324.98 283.914 324.344C282.787 323.701 281.919 322.793 281.309 321.619C280.699 320.439 280.394 319.044 280.394 317.433C280.394 315.862 280.699 314.483 281.309 313.297C281.919 312.11 282.777 311.186 283.884 310.523C284.998 309.86 286.304 309.528 287.802 309.528C288.809 309.528 289.747 309.691 290.616 310.016C291.491 310.334 292.253 310.814 292.903 311.457C293.559 312.1 294.069 312.909 294.434 313.884C294.799 314.851 294.981 315.985 294.981 317.284V318.447H282.085V315.822H290.994C290.994 315.213 290.861 314.672 290.596 314.202C290.331 313.731 289.963 313.363 289.492 313.098C289.028 312.826 288.488 312.69 287.871 312.69C287.228 312.69 286.658 312.839 286.161 313.138C285.671 313.429 285.286 313.824 285.008 314.321C284.729 314.812 284.587 315.358 284.58 315.962V318.457C284.58 319.213 284.719 319.866 284.998 320.416C285.283 320.966 285.684 321.391 286.201 321.689C286.718 321.987 287.331 322.136 288.04 322.136C288.511 322.136 288.942 322.07 289.333 321.938C289.724 321.805 290.059 321.606 290.337 321.341C290.616 321.076 290.828 320.751 290.974 320.366L294.891 320.625C294.692 321.566 294.285 322.388 293.668 323.091C293.058 323.787 292.27 324.33 291.302 324.722C290.341 325.106 289.23 325.298 287.971 325.298ZM308.461 316.17V325H304.225V304.636H308.342V312.422H308.521C308.866 311.52 309.422 310.814 310.191 310.304C310.96 309.787 311.925 309.528 313.085 309.528C314.145 309.528 315.07 309.76 315.859 310.224C316.654 310.682 317.271 311.341 317.708 312.203C318.153 313.058 318.371 314.082 318.365 315.276V325H314.129V316.031C314.136 315.09 313.897 314.357 313.413 313.834C312.936 313.31 312.266 313.048 311.404 313.048C310.828 313.048 310.317 313.171 309.873 313.416C309.436 313.661 309.091 314.019 308.839 314.49C308.594 314.954 308.468 315.514 308.461 316.17ZM328.599 325.298C327.054 325.298 325.719 324.97 324.592 324.314C323.471 323.651 322.606 322.73 321.996 321.55C321.387 320.363 321.082 318.988 321.082 317.423C321.082 315.846 321.387 314.467 321.996 313.287C322.606 312.1 323.471 311.179 324.592 310.523C325.719 309.86 327.054 309.528 328.599 309.528C330.143 309.528 331.476 309.86 332.596 310.523C333.723 311.179 334.591 312.1 335.201 313.287C335.811 314.467 336.116 315.846 336.116 317.423C336.116 318.988 335.811 320.363 335.201 321.55C334.591 322.73 333.723 323.651 332.596 324.314C331.476 324.97 330.143 325.298 328.599 325.298ZM328.619 322.017C329.321 322.017 329.908 321.818 330.379 321.42C330.849 321.016 331.204 320.466 331.442 319.77C331.688 319.074 331.81 318.282 331.81 317.393C331.81 316.505 331.688 315.713 331.442 315.017C331.204 314.321 330.849 313.771 330.379 313.366C329.908 312.962 329.321 312.76 328.619 312.76C327.909 312.76 327.313 312.962 326.829 313.366C326.352 313.771 325.99 314.321 325.745 315.017C325.506 315.713 325.387 316.505 325.387 317.393C325.387 318.282 325.506 319.074 325.745 319.77C325.99 320.466 326.352 321.016 326.829 321.42C327.313 321.818 327.909 322.017 328.619 322.017ZM338.95 325V304.636H343.185V312.293H343.315C343.5 311.882 343.769 311.464 344.12 311.04C344.478 310.609 344.942 310.251 345.512 309.966C346.089 309.674 346.805 309.528 347.66 309.528C348.773 309.528 349.801 309.82 350.742 310.403C351.683 310.98 352.436 311.852 352.999 313.018C353.563 314.179 353.844 315.634 353.844 317.384C353.844 319.087 353.569 320.526 353.019 321.699C352.476 322.866 351.733 323.75 350.792 324.354C349.857 324.95 348.81 325.249 347.65 325.249C346.828 325.249 346.129 325.113 345.552 324.841C344.982 324.569 344.514 324.228 344.15 323.817C343.785 323.399 343.507 322.978 343.315 322.554H343.126V325H338.95ZM343.096 317.364C343.096 318.272 343.222 319.064 343.474 319.74C343.726 320.416 344.09 320.943 344.567 321.321C345.045 321.692 345.625 321.878 346.308 321.878C346.997 321.878 347.58 321.689 348.058 321.311C348.535 320.927 348.896 320.396 349.141 319.72C349.393 319.037 349.519 318.252 349.519 317.364C349.519 316.482 349.397 315.706 349.151 315.037C348.906 314.367 348.545 313.844 348.067 313.466C347.59 313.088 347.004 312.899 346.308 312.899C345.618 312.899 345.035 313.081 344.558 313.446C344.087 313.811 343.726 314.328 343.474 314.997C343.222 315.667 343.096 316.455 343.096 317.364ZM356.75 325V304.636H360.986V312.293H361.115C361.301 311.882 361.569 311.464 361.921 311.04C362.279 310.609 362.743 310.251 363.313 309.966C363.89 309.674 364.605 309.528 365.461 309.528C366.574 309.528 367.602 309.82 368.543 310.403C369.484 310.98 370.237 311.852 370.8 313.018C371.364 314.179 371.645 315.634 371.645 317.384C371.645 319.087 371.37 320.526 370.82 321.699C370.276 322.866 369.534 323.75 368.593 324.354C367.658 324.95 366.611 325.249 365.451 325.249C364.629 325.249 363.929 325.113 363.353 324.841C362.783 324.569 362.315 324.228 361.951 323.817C361.586 323.399 361.308 322.978 361.115 322.554H360.926V325H356.75ZM360.897 317.364C360.897 318.272 361.023 319.064 361.275 319.74C361.526 320.416 361.891 320.943 362.368 321.321C362.846 321.692 363.426 321.878 364.108 321.878C364.798 321.878 365.381 321.689 365.858 321.311C366.336 320.927 366.697 320.396 366.942 319.72C367.194 319.037 367.32 318.252 367.32 317.364C367.32 316.482 367.197 315.706 366.952 315.037C366.707 314.367 366.346 313.844 365.868 313.466C365.391 313.088 364.804 312.899 364.108 312.899C363.419 312.899 362.836 313.081 362.358 313.446C361.888 313.811 361.526 314.328 361.275 314.997C361.023 315.667 360.897 316.455 360.897 317.364ZM376.594 330.727C376.058 330.727 375.554 330.684 375.083 330.598C374.619 330.518 374.235 330.416 373.93 330.29L374.884 327.128C375.381 327.28 375.829 327.363 376.227 327.376C376.631 327.39 376.979 327.297 377.271 327.098C377.569 326.899 377.811 326.561 377.996 326.084L378.245 325.438L372.766 309.727H377.221L380.383 320.943H380.542L383.734 309.727H388.218L382.282 326.651C381.997 327.473 381.609 328.188 381.119 328.798C380.635 329.415 380.022 329.889 379.279 330.22C378.537 330.558 377.642 330.727 376.594 330.727ZM391.904 325.259C391.248 325.259 390.685 325.027 390.214 324.562C389.75 324.092 389.518 323.528 389.518 322.872C389.518 322.223 389.75 321.666 390.214 321.202C390.685 320.738 391.248 320.506 391.904 320.506C392.541 320.506 393.098 320.738 393.575 321.202C394.052 321.666 394.291 322.223 394.291 322.872C394.291 323.31 394.178 323.711 393.953 324.075C393.734 324.433 393.446 324.722 393.088 324.94C392.73 325.152 392.335 325.259 391.904 325.259Z" fill="#1C0706"/>
</svg>
