<svg width="653" height="364" viewBox="0 0 653 364" fill="none" xmlns="http://www.w3.org/2000/svg">
<rect x="0.5" y="0.5" width="652" height="363" rx="20.5" stroke="#FAECDC"/>
<path d="M43.392 76.432L49.788 49.08H57.484L63.724 76.276L69.548 48.872H78.076L68.248 86H59.668L53.428 59.22L47.292 86H38.764L28.832 48.872H37.62L43.392 76.432ZM81.9508 48.872H89.6468V62.132C90.9988 60.572 92.3508 59.4973 93.7028 58.908C95.0895 58.3187 96.5455 58.024 98.0708 58.024C101.052 58.024 103.305 58.8733 104.831 60.572C106.356 62.236 107.119 64.6453 107.119 67.8V86H99.3708V69.256C99.3708 67.5227 99.0415 66.292 98.3828 65.564C97.7588 64.8013 96.7881 64.42 95.4708 64.42C94.7081 64.42 93.9455 64.5587 93.1828 64.836C92.4548 65.1133 91.8135 65.5467 91.2588 66.136C90.7388 66.656 90.3401 67.2107 90.0628 67.8C89.7855 68.3893 89.6468 69.152 89.6468 70.088V86H81.9508V48.872ZM111.47 78.512C111.47 76.12 112.094 74.2827 113.342 73C114.625 71.6827 116.306 70.7467 118.386 70.192C120.466 69.6373 122.719 69.3253 125.146 69.256L129.046 69.1V68.112C129.046 66.448 128.699 65.252 128.006 64.524C127.313 63.796 126.203 63.432 124.678 63.432C123.187 63.432 122.061 63.7093 121.298 64.264C120.57 64.784 120.085 65.564 119.842 66.604L112.926 65.98C113.411 63.276 114.659 61.2827 116.67 60C118.681 58.6827 121.419 58.024 124.886 58.024C128.977 58.024 131.923 58.9427 133.726 60.78C135.529 62.6173 136.43 65.3213 136.43 68.892V86H129.306V82.828C128.231 84.0067 127.001 84.9427 125.614 85.636C124.262 86.3293 122.615 86.676 120.674 86.676C117.935 86.676 115.717 85.9653 114.018 84.544C112.319 83.1227 111.47 81.112 111.47 78.512ZM118.802 78.044C118.802 79.0493 119.097 79.8467 119.686 80.436C120.31 80.9907 121.298 81.268 122.65 81.268C124.591 81.268 126.134 80.7653 127.278 79.76C128.457 78.7547 129.046 77.3507 129.046 75.548V73.676L125.458 73.832C122.962 73.936 121.229 74.3347 120.258 75.028C119.287 75.7213 118.802 76.7267 118.802 78.044ZM144.461 76.328V64.888H140.145V58.856H144.461V51.628H152.209V58.856H158.605V64.888H152.209V76.64C152.209 77.784 152.469 78.6853 152.989 79.344C153.509 79.968 154.323 80.28 155.433 80.28C156.022 80.28 156.559 80.2453 157.045 80.176C157.565 80.072 158.05 79.9507 158.501 79.812L159.541 85.532C158.57 85.844 157.599 86.0867 156.629 86.26C155.658 86.4333 154.566 86.52 153.353 86.52C149.99 86.52 147.667 85.6533 146.385 83.92C145.102 82.1867 144.461 79.656 144.461 76.328ZM173.017 78.512C173.017 76.12 173.641 74.2827 174.889 73C176.172 71.6827 177.853 70.7467 179.933 70.192C182.013 69.6373 184.266 69.3253 186.693 69.256L190.593 69.1V68.112C190.593 66.448 190.246 65.252 189.553 64.524C188.86 63.796 187.75 63.432 186.225 63.432C184.734 63.432 183.608 63.7093 182.845 64.264C182.117 64.784 181.632 65.564 181.389 66.604L174.473 65.98C174.958 63.276 176.206 61.2827 178.217 60C180.228 58.6827 182.966 58.024 186.433 58.024C190.524 58.024 193.47 58.9427 195.273 60.78C197.076 62.6173 197.977 65.3213 197.977 68.892V86H190.853V82.828C189.778 84.0067 188.548 84.9427 187.161 85.636C185.809 86.3293 184.162 86.676 182.221 86.676C179.482 86.676 177.264 85.9653 175.565 84.544C173.866 83.1227 173.017 81.112 173.017 78.512ZM180.349 78.044C180.349 79.0493 180.644 79.8467 181.233 80.436C181.857 80.9907 182.845 81.268 184.197 81.268C186.138 81.268 187.681 80.7653 188.825 79.76C190.004 78.7547 190.593 77.3507 190.593 75.548V73.676L187.005 73.832C184.509 73.936 182.776 74.3347 181.805 75.028C180.834 75.7213 180.349 76.7267 180.349 78.044ZM211.415 86H203.927V48.872H211.623V61.82C213.634 59.2893 216.321 58.024 219.683 58.024C223.358 58.024 226.131 59.2893 228.003 61.82C229.875 64.3507 230.811 67.7827 230.811 72.116C230.811 76.6573 229.771 80.2453 227.691 82.88C225.646 85.5147 222.821 86.832 219.215 86.832C217.655 86.832 216.199 86.52 214.847 85.896C213.53 85.2373 212.386 84.2147 211.415 82.828V86ZM211.623 71.7V73C211.623 75.5653 212.109 77.472 213.079 78.72C214.085 79.968 215.489 80.592 217.291 80.592C219.025 80.592 220.394 79.968 221.399 78.72C222.439 77.4373 222.959 75.3227 222.959 72.376C222.959 69.3947 222.422 67.2973 221.347 66.084C220.273 64.8707 218.973 64.264 217.447 64.264C215.645 64.264 214.223 64.9227 213.183 66.24C212.143 67.5573 211.623 69.3773 211.623 71.7ZM235.291 72.532C235.291 67.9907 236.521 64.4373 238.983 61.872C241.444 59.3067 244.824 58.024 249.123 58.024C253.456 58.024 256.801 59.272 259.159 61.768C261.551 64.264 262.747 67.7827 262.747 72.324C262.747 76.8307 261.516 80.384 259.055 82.984C256.628 85.5493 253.248 86.832 248.915 86.832C244.581 86.832 241.219 85.584 238.827 83.088C236.469 80.5573 235.291 77.0387 235.291 72.532ZM243.143 72.428C243.143 74.9587 243.611 76.952 244.547 78.408C245.483 79.864 246.956 80.592 248.967 80.592C251.012 80.592 252.503 79.864 253.439 78.408C254.409 76.9173 254.895 74.9067 254.895 72.376C254.895 69.8453 254.409 67.8693 253.439 66.448C252.503 64.992 251.012 64.264 248.967 64.264C246.956 64.264 245.483 64.992 244.547 66.448C243.611 67.8693 243.143 69.8627 243.143 72.428ZM267.856 77.004V58.856H275.552V75.652C275.552 77.3507 275.847 78.564 276.436 79.292C277.025 80.02 277.961 80.384 279.244 80.384C280.839 80.384 282.191 79.8293 283.3 78.72C283.82 78.2 284.219 77.6453 284.496 77.056C284.773 76.4667 284.912 75.7387 284.912 74.872V58.856H292.608V86H285.068V82.516C282.815 85.3933 279.989 86.832 276.592 86.832C273.68 86.832 271.496 85.9827 270.04 84.284C268.584 82.5853 267.856 80.1587 267.856 77.004ZM300.816 76.328V64.888H296.5V58.856H300.816V51.628H308.564V58.856H314.96V64.888H308.564V76.64C308.564 77.784 308.824 78.6853 309.344 79.344C309.864 79.968 310.679 80.28 311.788 80.28C312.377 80.28 312.915 80.2453 313.4 80.176C313.92 80.072 314.405 79.9507 314.856 79.812L315.896 85.532C314.925 85.844 313.955 86.0867 312.984 86.26C312.013 86.4333 310.921 86.52 309.708 86.52C306.345 86.52 304.023 85.6533 302.74 83.92C301.457 82.1867 300.816 79.656 300.816 76.328ZM354.072 70.504H339.617V86H331.453V48.872H339.617V63.172H354.072V48.872H362.289V86H354.072V70.504ZM368.185 72.532C368.185 67.9907 369.416 64.4373 371.877 61.872C374.339 59.3067 377.719 58.024 382.017 58.024C386.351 58.024 389.696 59.272 392.053 61.768C394.445 64.264 395.641 67.7827 395.641 72.324C395.641 76.8307 394.411 80.384 391.949 82.984C389.523 85.5493 386.143 86.832 381.809 86.832C377.476 86.832 374.113 85.584 371.721 83.088C369.364 80.5573 368.185 77.0387 368.185 72.532ZM376.037 72.428C376.037 74.9587 376.505 76.952 377.441 78.408C378.377 79.864 379.851 80.592 381.861 80.592C383.907 80.592 385.397 79.864 386.333 78.408C387.304 76.9173 387.789 74.9067 387.789 72.376C387.789 69.8453 387.304 67.8693 386.333 66.448C385.397 64.992 383.907 64.264 381.861 64.264C379.851 64.264 378.377 64.992 377.441 66.448C376.505 67.8693 376.037 69.8627 376.037 72.428ZM408.447 86H400.959V48.872H408.655V61.82C410.665 59.2893 413.352 58.024 416.715 58.024C420.389 58.024 423.163 59.2893 425.035 61.82C426.907 64.3507 427.843 67.7827 427.843 72.116C427.843 76.6573 426.803 80.2453 424.723 82.88C422.677 85.5147 419.852 86.832 416.247 86.832C414.687 86.832 413.231 86.52 411.879 85.896C410.561 85.2373 409.417 84.2147 408.447 82.828V86ZM408.655 71.7V73C408.655 75.5653 409.14 77.472 410.111 78.72C411.116 79.968 412.52 80.592 414.323 80.592C416.056 80.592 417.425 79.968 418.431 78.72C419.471 77.4373 419.991 75.3227 419.991 72.376C419.991 69.3947 419.453 67.2973 418.379 66.084C417.304 64.8707 416.004 64.264 414.479 64.264C412.676 64.264 411.255 64.9227 410.215 66.24C409.175 67.5573 408.655 69.3773 408.655 71.7ZM440.642 86H433.154V48.872H440.85V61.82C442.861 59.2893 445.547 58.024 448.91 58.024C452.585 58.024 455.358 59.2893 457.23 61.82C459.102 64.3507 460.038 67.7827 460.038 72.116C460.038 76.6573 458.998 80.2453 456.918 82.88C454.873 85.5147 452.047 86.832 448.442 86.832C446.882 86.832 445.426 86.52 444.074 85.896C442.757 85.2373 441.613 84.2147 440.642 82.828V86ZM440.85 71.7V73C440.85 75.5653 441.335 77.472 442.306 78.72C443.311 79.968 444.715 80.592 446.518 80.592C448.251 80.592 449.621 79.968 450.626 78.72C451.666 77.4373 452.186 75.3227 452.186 72.376C452.186 69.3947 451.649 67.2973 450.574 66.084C449.499 64.8707 448.199 64.264 446.674 64.264C444.871 64.264 443.45 64.9227 442.41 66.24C441.37 67.5573 440.85 69.3773 440.85 71.7ZM465.401 58.856H473.097V86H465.401V58.856ZM465.349 48.768H473.149V54.956H465.349V48.768ZM478.431 72.688C478.431 69.568 478.986 66.916 480.095 64.732C481.205 62.548 482.765 60.884 484.775 59.74C486.786 58.596 489.143 58.024 491.847 58.024C496.042 58.024 499.197 59.2547 501.311 61.716C503.461 64.1773 504.535 67.4707 504.535 71.596V74.144H485.919C486.231 78.8933 488.19 81.268 491.795 81.268C493.425 81.268 494.638 80.956 495.435 80.332C496.233 79.708 496.77 78.8413 497.047 77.732H504.275C503.755 80.644 502.473 82.8973 500.427 84.492C498.382 86.052 495.539 86.832 491.899 86.832C487.566 86.832 484.238 85.6013 481.915 83.14C479.593 80.6787 478.431 77.1947 478.431 72.688ZM497.255 69.724C497.151 67.6787 496.718 66.136 495.955 65.096C495.227 64.0213 493.858 63.484 491.847 63.484C489.871 63.484 488.45 64.0387 487.583 65.148C486.717 66.2227 486.179 67.748 485.971 69.724H497.255ZM525.331 78.356C525.331 77.5587 525.088 76.9 524.603 76.38C524.152 75.86 523.216 75.4787 521.795 75.236L518.727 74.716C515.33 74.1267 512.816 73.208 511.187 71.96C509.558 70.712 508.743 68.84 508.743 66.344C508.743 63.7093 509.8 61.664 511.915 60.208C514.064 58.752 516.907 58.024 520.443 58.024C524.291 58.024 527.134 58.7347 528.971 60.156C530.808 61.5773 531.97 63.484 532.455 65.876L525.279 66.656C524.967 65.5467 524.464 64.7147 523.771 64.16C523.078 63.5707 521.968 63.276 520.443 63.276C518.814 63.276 517.67 63.5533 517.011 64.108C516.352 64.6627 516.023 65.3213 516.023 66.084C516.023 66.8813 516.283 67.5227 516.803 68.008C517.323 68.4587 518.328 68.8227 519.819 69.1L523.199 69.672C526.77 70.3307 529.266 71.3013 530.687 72.584C532.143 73.8667 532.871 75.7733 532.871 78.304C532.871 80.9387 531.866 83.0187 529.855 84.544C527.879 86.0693 524.932 86.832 521.015 86.832C517.236 86.832 514.203 86.104 511.915 84.648C509.627 83.192 508.362 80.8693 508.119 77.68H515.503C515.746 78.9973 516.3 79.9333 517.167 80.488C518.068 81.0427 519.316 81.32 520.911 81.32C522.54 81.32 523.684 81.06 524.343 80.54C525.002 79.9853 525.331 79.2573 525.331 78.356ZM544.527 73.78C544.527 72.5667 544.648 71.5267 544.891 70.66C545.168 69.7587 545.671 68.84 546.399 67.904C547.127 66.9333 548.167 65.7893 549.519 64.472C550.455 63.536 551.183 62.6867 551.703 61.924C552.258 61.1267 552.535 60.1733 552.535 59.064C552.535 57.6427 552.154 56.568 551.391 55.84C550.663 55.0773 549.588 54.696 548.167 54.696C546.538 54.696 545.29 55.0947 544.423 55.892C543.591 56.6893 542.984 57.9547 542.603 59.688L535.479 58.908C535.895 55.788 537.16 53.24 539.275 51.264C541.39 49.2533 544.475 48.248 548.531 48.248C552.344 48.248 555.274 49.132 557.319 50.9C559.364 52.668 560.387 55.008 560.387 57.92C560.387 59.8267 559.971 61.4907 559.139 62.912C558.342 64.3333 557.215 65.7027 555.759 67.02C554.615 68.06 553.731 68.9613 553.107 69.724C552.518 70.452 552.102 71.1627 551.859 71.856C551.651 72.5147 551.547 73.26 551.547 74.092V74.664H544.527V73.78ZM544.267 78.252H551.755V86H544.267V78.252Z" fill="#FAECDC"/>
<path d="M50.644 247.352C50.644 245.515 50.2453 244.093 49.448 243.088C48.6507 242.083 47.3333 241.58 45.496 241.58C44.3173 241.58 43.312 241.753 42.48 242.1C41.6827 242.447 40.9373 243.019 40.244 243.816H33.484L35.304 223.068H56.156V229.62H41.44L40.764 237.368C42.532 236.155 44.7333 235.548 47.368 235.548C49.7947 235.548 51.8053 236.068 53.4 237.108C55.0293 238.113 56.2427 239.5 57.04 241.268C57.872 243.036 58.288 245.081 58.288 247.404C58.288 251.46 57.1787 254.563 54.96 256.712C52.7413 258.861 49.6387 259.936 45.652 259.936C41.7347 259.936 38.6667 259 36.448 257.128C34.2293 255.256 32.9813 252.535 32.704 248.964H40.244C40.5213 250.524 41.0587 251.668 41.856 252.396C42.6533 253.124 43.8667 253.488 45.496 253.488C47.16 253.488 48.4253 253.003 49.292 252.032C50.1933 251.027 50.644 249.467 50.644 247.352ZM81.4174 242.984C79.4761 245.099 76.8761 246.156 73.6174 246.156C70.0121 246.156 67.2734 245.081 65.4014 242.932C63.5641 240.748 62.6454 237.94 62.6454 234.508C62.6454 232.012 63.1654 229.828 64.2054 227.956C65.2801 226.084 66.7881 224.645 68.7294 223.64C70.6708 222.6 72.9588 222.08 75.5934 222.08C78.8174 222.08 81.4001 222.86 83.3414 224.42C85.3174 225.945 86.7388 228.043 87.6054 230.712C88.4721 233.347 88.9054 236.363 88.9054 239.76C88.9054 243.677 88.4894 247.161 87.6574 250.212C86.8254 253.228 85.4214 255.603 83.4454 257.336C81.4694 259.069 78.7654 259.936 75.3334 259.936C71.7974 259.936 68.9721 259.087 66.8574 257.388C64.7774 255.655 63.5814 253.159 63.2694 249.9H70.6014C71.0521 252.361 72.6641 253.592 75.4374 253.592C77.4481 253.592 78.9388 252.795 79.9094 251.2C80.9148 249.605 81.4174 246.867 81.4174 242.984ZM81.0534 234.508C81.0534 232.809 80.6028 231.336 79.7014 230.088C78.8348 228.84 77.5001 228.216 75.6974 228.216C73.9641 228.216 72.5948 228.771 71.5894 229.88C70.5841 230.955 70.0814 232.463 70.0814 234.404C70.0814 236.137 70.4801 237.576 71.2774 238.72C72.1094 239.829 73.4788 240.384 75.3854 240.384C76.9801 240.384 78.3148 239.916 79.3894 238.98C80.4988 238.009 81.0534 236.519 81.0534 234.508ZM94.3029 250.42H101.999V259H94.3029V250.42ZM106.881 247.716H114.265C114.438 249.623 114.975 251.061 115.877 252.032C116.778 252.968 118.199 253.436 120.141 253.436C121.874 253.436 123.209 253.003 124.145 252.136C125.081 251.235 125.549 249.969 125.549 248.34C125.549 246.641 125.063 245.411 124.093 244.648C123.157 243.885 121.839 243.504 120.141 243.504H116.865V237.42H120.245C121.735 237.42 122.879 237.039 123.677 236.276C124.474 235.513 124.873 234.387 124.873 232.896C124.873 230.088 123.261 228.684 120.037 228.684C118.407 228.684 117.159 229.065 116.293 229.828C115.461 230.591 114.854 231.821 114.473 233.52L107.245 232.688C107.522 230.643 108.163 228.823 109.169 227.228C110.209 225.633 111.665 224.385 113.537 223.484C115.409 222.548 117.731 222.08 120.505 222.08C124.387 222.08 127.351 222.999 129.397 224.836C131.477 226.639 132.517 228.944 132.517 231.752C132.517 235.635 130.887 238.339 127.629 239.864C129.535 240.696 130.957 241.857 131.893 243.348C132.863 244.839 133.349 246.624 133.349 248.704C133.349 252.067 132.239 254.788 130.021 256.868C127.802 258.913 124.578 259.936 120.349 259.936C117.159 259.936 114.577 259.399 112.601 258.324C110.625 257.215 109.169 255.741 108.233 253.904C107.331 252.032 106.881 249.969 106.881 247.716ZM165.682 223.068H172.91L155.802 259H148.626L165.682 223.068ZM165.266 248.548C165.266 244.839 166.133 242.048 167.866 240.176C169.634 238.304 171.94 237.368 174.782 237.368C177.66 237.368 179.965 238.304 181.698 240.176C183.432 242.048 184.298 244.839 184.298 248.548C184.298 252.223 183.449 254.996 181.75 256.868C180.052 258.74 177.729 259.676 174.782 259.676C171.905 259.676 169.6 258.74 167.866 256.868C166.133 254.996 165.266 252.223 165.266 248.548ZM171.506 248.548C171.506 250.628 171.784 252.119 172.338 253.02C172.893 253.921 173.708 254.372 174.782 254.372C175.892 254.372 176.706 253.921 177.226 253.02C177.781 252.119 178.058 250.628 178.058 248.548C178.058 246.503 177.781 245.029 177.226 244.128C176.706 243.192 175.892 242.724 174.782 242.724C173.708 242.724 172.893 243.175 172.338 244.076C171.784 244.977 171.506 246.468 171.506 248.548ZM137.238 233.572C137.238 229.863 138.105 227.072 139.838 225.2C141.606 223.328 143.912 222.392 146.754 222.392C149.632 222.392 151.937 223.328 153.67 225.2C155.404 227.072 156.27 229.863 156.27 233.572C156.27 237.247 155.421 240.02 153.722 241.892C152.024 243.764 149.701 244.7 146.754 244.7C143.877 244.7 141.572 243.764 139.838 241.892C138.105 240.02 137.238 237.247 137.238 233.572ZM143.478 233.572C143.478 235.652 143.756 237.143 144.31 238.044C144.865 238.945 145.68 239.396 146.754 239.396C147.864 239.396 148.678 238.945 149.198 238.044C149.753 237.143 150.03 235.652 150.03 233.572C150.03 231.527 149.753 230.053 149.198 229.152C148.678 228.216 147.864 227.748 146.754 227.748C145.68 227.748 144.865 228.199 144.31 229.1C143.756 230.001 143.478 231.492 143.478 233.572ZM31.26 287.748C31.26 286.143 31.5587 284.761 32.156 283.604C32.7533 282.447 33.5933 281.56 34.676 280.944C35.7773 280.309 37.0747 279.992 38.568 279.992C40.8453 279.992 42.6187 280.673 43.888 282.036C45.1573 283.38 45.792 285.247 45.792 287.636C45.792 290.063 45.1387 291.976 43.832 293.376C42.544 294.757 40.7613 295.448 38.484 295.448C36.188 295.448 34.4053 294.776 33.136 293.432C31.8853 292.069 31.26 290.175 31.26 287.748ZM34.9 287.692C34.9 289.167 35.18 290.352 35.74 291.248C36.3187 292.144 37.2427 292.592 38.512 292.592C39.7813 292.592 40.7053 292.144 41.284 291.248C41.8627 290.352 42.152 289.167 42.152 287.692C42.152 286.217 41.8627 285.041 41.284 284.164C40.7053 283.287 39.7813 282.848 38.512 282.848C37.2613 282.848 36.3467 283.287 35.768 284.164C35.1893 285.041 34.9 286.217 34.9 287.692ZM49.8345 283.464H47.5105V280.692H49.8345V279.74C49.8345 278.079 50.2918 276.837 51.2065 276.016C52.1398 275.195 53.3158 274.784 54.7345 274.784C55.6865 274.784 56.6665 274.924 57.6745 275.204L57.1705 277.78C56.8718 277.687 56.5825 277.631 56.3025 277.612C56.0412 277.575 55.7798 277.556 55.5185 277.556C54.8838 277.556 54.3612 277.715 53.9505 278.032C53.5585 278.349 53.3625 278.9 53.3625 279.684V280.692H56.8345V283.464H53.3625V295H49.8345V283.464ZM65.1774 280.44H68.6214V282.288C69.7601 280.757 71.2907 279.992 73.2134 279.992C75.2294 279.992 76.7414 280.683 77.7494 282.064C78.7574 283.445 79.2614 285.284 79.2614 287.58C79.2614 289.185 79.0001 290.585 78.4774 291.78C77.9734 292.956 77.2547 293.861 76.3214 294.496C75.3881 295.131 74.2681 295.448 72.9614 295.448C72.1587 295.448 71.3841 295.289 70.6374 294.972C69.9094 294.655 69.2654 294.132 68.7054 293.404V300.432H65.1774V280.44ZM75.6494 287.664C75.6494 286.469 75.4907 285.527 75.1734 284.836C74.8747 284.127 74.4734 283.623 73.9694 283.324C73.4654 283.007 72.9147 282.848 72.3174 282.848C71.1041 282.848 70.1894 283.259 69.5734 284.08C68.9761 284.901 68.6774 285.956 68.6774 287.244V288.056C68.6774 289.456 68.9574 290.567 69.5174 291.388C70.0961 292.191 70.9827 292.592 72.1774 292.592C73.2041 292.592 74.0347 292.219 74.6694 291.472C75.3227 290.707 75.6494 289.437 75.6494 287.664ZM81.8186 287.832C81.8186 286.152 82.1173 284.733 82.7146 283.576C83.3119 282.4 84.1426 281.513 85.2066 280.916C86.2706 280.3 87.5026 279.992 88.9026 279.992C90.4146 279.992 91.6653 280.3 92.6546 280.916C93.6439 281.513 94.3813 282.353 94.8666 283.436C95.3519 284.519 95.5946 285.779 95.5946 287.216V288.532H85.2906C85.3653 289.932 85.7013 290.996 86.2986 291.724C86.8959 292.452 87.7639 292.816 88.9026 292.816C89.8919 292.816 90.6293 292.629 91.1146 292.256C91.5999 291.883 91.9266 291.36 92.0946 290.688H95.3986C95.1559 292.181 94.5026 293.348 93.4386 294.188C92.3746 295.028 90.8719 295.448 88.9306 295.448C86.6533 295.448 84.8986 294.785 83.6666 293.46C82.4346 292.116 81.8186 290.24 81.8186 287.832ZM92.2066 286.348C92.1506 285.116 91.8893 284.173 91.4226 283.52C90.9559 282.867 90.1159 282.54 88.9026 282.54C87.6893 282.54 86.8213 282.895 86.2986 283.604C85.7759 284.295 85.4493 285.209 85.3186 286.348H92.2066ZM98.0881 287.748C98.0881 286.143 98.3868 284.761 98.9841 283.604C99.5815 282.447 100.421 281.56 101.504 280.944C102.605 280.309 103.903 279.992 105.396 279.992C107.673 279.992 109.447 280.673 110.716 282.036C111.985 283.38 112.62 285.247 112.62 287.636C112.62 290.063 111.967 291.976 110.66 293.376C109.372 294.757 107.589 295.448 105.312 295.448C103.016 295.448 101.233 294.776 99.9641 293.432C98.7135 292.069 98.0881 290.175 98.0881 287.748ZM101.728 287.692C101.728 289.167 102.008 290.352 102.568 291.248C103.147 292.144 104.071 292.592 105.34 292.592C106.609 292.592 107.533 292.144 108.112 291.248C108.691 290.352 108.98 289.167 108.98 287.692C108.98 286.217 108.691 285.041 108.112 284.164C107.533 283.287 106.609 282.848 105.34 282.848C104.089 282.848 103.175 283.287 102.596 284.164C102.017 285.041 101.728 286.217 101.728 287.692ZM115.627 280.44H119.071V282.288C120.209 280.757 121.74 279.992 123.663 279.992C125.679 279.992 127.191 280.683 128.199 282.064C129.207 283.445 129.711 285.284 129.711 287.58C129.711 289.185 129.449 290.585 128.927 291.78C128.423 292.956 127.704 293.861 126.771 294.496C125.837 295.131 124.717 295.448 123.411 295.448C122.608 295.448 121.833 295.289 121.087 294.972C120.359 294.655 119.715 294.132 119.155 293.404V300.432H115.627V280.44ZM126.099 287.664C126.099 286.469 125.94 285.527 125.623 284.836C125.324 284.127 124.923 283.623 124.419 283.324C123.915 283.007 123.364 282.848 122.767 282.848C121.553 282.848 120.639 283.259 120.023 284.08C119.425 284.901 119.127 285.956 119.127 287.244V288.056C119.127 289.456 119.407 290.567 119.967 291.388C120.545 292.191 121.432 292.592 122.627 292.592C123.653 292.592 124.484 292.219 125.119 291.472C125.772 290.707 126.099 289.437 126.099 287.664ZM132.772 275.008H136.3V295H132.772V275.008ZM139.323 287.832C139.323 286.152 139.621 284.733 140.219 283.576C140.816 282.4 141.647 281.513 142.711 280.916C143.775 280.3 145.007 279.992 146.407 279.992C147.919 279.992 149.169 280.3 150.159 280.916C151.148 281.513 151.885 282.353 152.371 283.436C152.856 284.519 153.099 285.779 153.099 287.216V288.532H142.795C142.869 289.932 143.205 290.996 143.803 291.724C144.4 292.452 145.268 292.816 146.407 292.816C147.396 292.816 148.133 292.629 148.619 292.256C149.104 291.883 149.431 291.36 149.599 290.688H152.903C152.66 292.181 152.007 293.348 150.943 294.188C149.879 295.028 148.376 295.448 146.435 295.448C144.157 295.448 142.403 294.785 141.171 293.46C139.939 292.116 139.323 290.24 139.323 287.832ZM149.711 286.348C149.655 285.116 149.393 284.173 148.927 283.52C148.46 282.867 147.62 282.54 146.407 282.54C145.193 282.54 144.325 282.895 143.803 283.604C143.28 284.295 142.953 285.209 142.823 286.348H149.711ZM170.817 290.996C170.817 290.511 170.677 290.1 170.397 289.764C170.117 289.428 169.538 289.195 168.661 289.064L166.925 288.784C165.17 288.504 163.854 288.037 162.977 287.384C162.118 286.731 161.689 285.732 161.689 284.388C161.689 283.007 162.249 281.933 163.369 281.168C164.508 280.384 165.982 279.992 167.793 279.992C169.174 279.992 170.285 280.169 171.125 280.524C171.984 280.86 172.637 281.336 173.085 281.952C173.552 282.568 173.869 283.287 174.037 284.108L170.789 284.528C170.584 283.856 170.276 283.352 169.865 283.016C169.454 282.661 168.773 282.484 167.821 282.484C166.776 282.484 166.048 282.661 165.637 283.016C165.226 283.371 165.021 283.781 165.021 284.248C165.021 284.733 165.17 285.125 165.469 285.424C165.786 285.704 166.402 285.919 167.317 286.068L169.249 286.404C171.078 286.74 172.376 287.253 173.141 287.944C173.906 288.616 174.289 289.624 174.289 290.968C174.289 292.312 173.766 293.395 172.721 294.216C171.694 295.037 170.154 295.448 168.101 295.448C166.178 295.448 164.601 295.075 163.369 294.328C162.137 293.563 161.465 292.321 161.353 290.604H164.713C164.862 291.425 165.208 292.004 165.749 292.34C166.309 292.676 167.074 292.844 168.045 292.844C169.034 292.844 169.744 292.676 170.173 292.34C170.602 292.004 170.817 291.556 170.817 290.996ZM176.364 290.968C176.364 290.016 176.56 289.223 176.952 288.588C177.363 287.953 177.913 287.459 178.604 287.104C179.295 286.731 180.079 286.469 180.956 286.32C181.852 286.152 182.785 286.049 183.756 286.012L185.996 285.928V285.396C185.996 284.388 185.781 283.66 185.352 283.212C184.923 282.745 184.232 282.512 183.28 282.512C182.347 282.512 181.656 282.68 181.208 283.016C180.76 283.333 180.461 283.791 180.312 284.388L177.148 284.108C177.409 282.689 178.063 281.653 179.108 281C180.153 280.328 181.581 279.992 183.392 279.992C185.557 279.992 187.097 280.487 188.012 281.476C188.927 282.447 189.384 283.856 189.384 285.704V295H186.108V293.208C185.548 293.843 184.885 294.365 184.12 294.776C183.355 295.168 182.431 295.364 181.348 295.364C179.873 295.364 178.669 294.991 177.736 294.244C176.821 293.479 176.364 292.387 176.364 290.968ZM179.78 290.8C179.78 291.397 179.967 291.883 180.34 292.256C180.713 292.611 181.32 292.788 182.16 292.788C183.317 292.788 184.241 292.489 184.932 291.892C185.641 291.295 185.996 290.455 185.996 289.372V288.14L183.924 288.224C182.337 288.28 181.245 288.523 180.648 288.952C180.069 289.381 179.78 289.997 179.78 290.8ZM192.791 280.44H196.319V295H192.791V280.44ZM192.763 274.952H196.319V278.116H192.763V274.952ZM199.342 287.832C199.342 285.405 199.902 283.492 201.022 282.092C202.161 280.692 203.71 279.992 205.67 279.992C206.435 279.992 207.182 280.151 207.91 280.468C208.657 280.767 209.319 281.289 209.898 282.036V275.008H213.426V295H210.01V293.096C209.431 293.861 208.769 294.449 208.022 294.86C207.275 295.252 206.398 295.448 205.39 295.448C204.046 295.448 202.926 295.121 202.03 294.468C201.134 293.815 200.462 292.919 200.014 291.78C199.566 290.623 199.342 289.307 199.342 287.832ZM202.954 287.72C202.954 288.915 203.113 289.867 203.43 290.576C203.747 291.285 204.158 291.799 204.662 292.116C205.185 292.415 205.735 292.564 206.314 292.564C207.453 292.564 208.339 292.181 208.974 291.416C209.609 290.632 209.926 289.54 209.926 288.14V287.356C209.926 285.807 209.609 284.668 208.974 283.94C208.358 283.193 207.518 282.82 206.454 282.82C205.427 282.82 204.587 283.203 203.934 283.968C203.281 284.715 202.954 285.965 202.954 287.72ZM224.041 289.96V283.212H221.745V280.44H224.041V276.52H227.569V280.44H231.181V283.212H227.569V290.324C227.569 290.977 227.718 291.491 228.017 291.864C228.316 292.237 228.773 292.424 229.389 292.424C229.744 292.424 230.061 292.396 230.341 292.34C230.621 292.284 230.882 292.219 231.125 292.144L231.657 294.776C231.19 294.925 230.705 295.047 230.201 295.14C229.716 295.233 229.156 295.28 228.521 295.28C227.364 295.28 226.458 295.075 225.805 294.664C225.152 294.235 224.694 293.628 224.433 292.844C224.172 292.041 224.041 291.08 224.041 289.96ZM233.697 275.008H237.225V282.316C237.953 281.457 238.709 280.86 239.493 280.524C240.277 280.169 241.089 279.992 241.929 279.992C243.534 279.992 244.748 280.449 245.569 281.364C246.39 282.26 246.801 283.557 246.801 285.256V295H243.273V285.928C243.273 284.845 243.068 284.08 242.657 283.632C242.265 283.165 241.658 282.932 240.837 282.932C240.37 282.932 239.913 283.016 239.465 283.184C239.036 283.352 238.644 283.613 238.289 283.968C237.934 284.285 237.664 284.631 237.477 285.004C237.309 285.359 237.225 285.835 237.225 286.432V295H233.697V275.008ZM249.655 287.832C249.655 286.152 249.953 284.733 250.551 283.576C251.148 282.4 251.979 281.513 253.043 280.916C254.107 280.3 255.339 279.992 256.739 279.992C258.251 279.992 259.501 280.3 260.491 280.916C261.48 281.513 262.217 282.353 262.703 283.436C263.188 284.519 263.431 285.779 263.431 287.216V288.532H253.127C253.201 289.932 253.537 290.996 254.135 291.724C254.732 292.452 255.6 292.816 256.739 292.816C257.728 292.816 258.465 292.629 258.951 292.256C259.436 291.883 259.763 291.36 259.931 290.688H263.235C262.992 292.181 262.339 293.348 261.275 294.188C260.211 295.028 258.708 295.448 256.767 295.448C254.489 295.448 252.735 294.785 251.503 293.46C250.271 292.116 249.655 290.24 249.655 287.832ZM260.043 286.348C259.987 285.116 259.725 284.173 259.259 283.52C258.792 282.867 257.952 282.54 256.739 282.54C255.525 282.54 254.657 282.895 254.135 283.604C253.612 284.295 253.285 285.209 253.155 286.348H260.043ZM266.131 297.604C266.747 297.791 267.289 297.884 267.755 297.884C268.315 297.884 268.754 297.707 269.071 297.352C269.389 297.016 269.706 296.419 270.023 295.56L270.499 294.244L264.423 280.44H268.315L272.179 290.576L275.679 280.44H279.431L273.243 295.868C272.795 296.988 272.357 297.903 271.927 298.612C271.517 299.34 271.031 299.872 270.471 300.208C269.911 300.563 269.193 300.74 268.315 300.74C267.363 300.74 266.439 300.591 265.543 300.292L266.131 297.604ZM288.545 283.464H286.221V280.692H288.545V279.74C288.545 278.079 289.003 276.837 289.917 276.016C290.851 275.195 292.027 274.784 293.445 274.784C294.397 274.784 295.377 274.924 296.385 275.204L295.881 277.78C295.583 277.687 295.293 277.631 295.013 277.612C294.752 277.575 294.491 277.556 294.229 277.556C293.595 277.556 293.072 277.715 292.661 278.032C292.269 278.349 292.073 278.9 292.073 279.684V280.692H295.545V283.464H292.073V295H288.545V283.464ZM297.925 280.44H301.453V295H297.925V280.44ZM297.897 274.952H301.453V278.116H297.897V274.952ZM304.955 280.44H308.399V282.456C309.127 281.541 309.892 280.907 310.695 280.552C311.497 280.179 312.328 279.992 313.187 279.992C314.792 279.992 316.005 280.449 316.827 281.364C317.648 282.26 318.059 283.557 318.059 285.256V295H314.531V285.928C314.531 284.845 314.325 284.08 313.915 283.632C313.523 283.165 312.916 282.932 312.095 282.932C311.628 282.932 311.171 283.016 310.723 283.184C310.293 283.352 309.901 283.613 309.547 283.968C309.192 284.285 308.921 284.631 308.735 285.004C308.567 285.359 308.483 285.835 308.483 286.432V295H304.955V280.44ZM320.912 287.832C320.912 285.405 321.472 283.492 322.592 282.092C323.731 280.692 325.28 279.992 327.24 279.992C328.006 279.992 328.752 280.151 329.48 280.468C330.227 280.767 330.89 281.289 331.468 282.036V275.008H334.996V295H331.58V293.096C331.002 293.861 330.339 294.449 329.592 294.86C328.846 295.252 327.968 295.448 326.96 295.448C325.616 295.448 324.496 295.121 323.6 294.468C322.704 293.815 322.032 292.919 321.584 291.78C321.136 290.623 320.912 289.307 320.912 287.832ZM324.524 287.72C324.524 288.915 324.683 289.867 325 290.576C325.318 291.285 325.728 291.799 326.232 292.116C326.755 292.415 327.306 292.564 327.884 292.564C329.023 292.564 329.91 292.181 330.544 291.416C331.179 290.632 331.496 289.54 331.496 288.14V287.356C331.496 285.807 331.179 284.668 330.544 283.94C329.928 283.193 329.088 282.82 328.024 282.82C326.998 282.82 326.158 283.203 325.504 283.968C324.851 284.715 324.524 285.965 324.524 287.72ZM344.631 280.44H348.159V295H344.631V280.44ZM344.603 274.952H348.159V278.116H344.603V274.952ZM352.666 289.96V283.212H350.37V280.44H352.666V276.52H356.194V280.44H359.806V283.212H356.194V290.324C356.194 290.977 356.343 291.491 356.642 291.864C356.941 292.237 357.398 292.424 358.014 292.424C358.369 292.424 358.686 292.396 358.966 292.34C359.246 292.284 359.507 292.219 359.75 292.144L360.282 294.776C359.815 294.925 359.33 295.047 358.826 295.14C358.341 295.233 357.781 295.28 357.146 295.28C355.989 295.28 355.083 295.075 354.43 294.664C353.777 294.235 353.319 293.628 353.058 292.844C352.797 292.041 352.666 291.08 352.666 289.96ZM367.971 287.832C367.971 285.405 368.531 283.492 369.651 282.092C370.79 280.692 372.339 279.992 374.299 279.992C375.064 279.992 375.811 280.151 376.539 280.468C377.286 280.767 377.948 281.289 378.527 282.036V275.008H382.055V295H378.639V293.096C378.06 293.861 377.398 294.449 376.651 294.86C375.904 295.252 375.027 295.448 374.019 295.448C372.675 295.448 371.555 295.121 370.659 294.468C369.763 293.815 369.091 292.919 368.643 291.78C368.195 290.623 367.971 289.307 367.971 287.832ZM371.583 287.72C371.583 288.915 371.742 289.867 372.059 290.576C372.376 291.285 372.787 291.799 373.291 292.116C373.814 292.415 374.364 292.564 374.943 292.564C376.082 292.564 376.968 292.181 377.603 291.416C378.238 290.632 378.555 289.54 378.555 288.14V287.356C378.555 285.807 378.238 284.668 377.603 283.94C376.987 283.193 376.147 282.82 375.083 282.82C374.056 282.82 373.216 283.203 372.563 283.968C371.91 284.715 371.583 285.965 371.583 287.72ZM385.565 280.44H389.093V295H385.565V280.44ZM385.537 274.952H389.093V278.116H385.537V274.952ZM393.627 283.464H391.303V280.692H393.627V279.74C393.627 278.079 394.085 276.837 394.999 276.016C395.933 275.195 397.109 274.784 398.527 274.784C399.479 274.784 400.459 274.924 401.467 275.204L400.963 277.78C400.665 277.687 400.375 277.631 400.095 277.612C399.834 277.575 399.573 277.556 399.311 277.556C398.677 277.556 398.154 277.715 397.743 278.032C397.351 278.349 397.155 278.9 397.155 279.684V280.692H400.627V283.464H397.155V295H393.627V283.464ZM404.099 283.464H401.775V280.692H404.099V279.74C404.099 278.079 404.557 276.837 405.471 276.016C406.405 275.195 407.581 274.784 408.999 274.784C409.951 274.784 410.931 274.924 411.939 275.204L411.435 277.78C411.137 277.687 410.847 277.631 410.567 277.612C410.306 277.575 410.045 277.556 409.783 277.556C409.149 277.556 408.626 277.715 408.215 278.032C407.823 278.349 407.627 278.9 407.627 279.684V280.692H411.099V283.464H407.627V295H404.099V283.464ZM413.451 280.44H416.979V295H413.451V280.44ZM413.423 274.952H416.979V278.116H413.423V274.952ZM420.006 287.776C420.006 286.189 420.295 284.817 420.874 283.66C421.453 282.484 422.274 281.579 423.338 280.944C424.402 280.309 425.671 279.992 427.146 279.992C428.975 279.992 430.403 280.44 431.43 281.336C432.475 282.232 433.119 283.483 433.362 285.088L429.974 285.536C429.825 284.715 429.535 284.061 429.106 283.576C428.695 283.091 428.033 282.848 427.118 282.848C425.867 282.848 424.971 283.305 424.43 284.22C423.907 285.116 423.646 286.273 423.646 287.692C423.646 289.111 423.907 290.287 424.43 291.22C424.953 292.135 425.849 292.592 427.118 292.592C428.051 292.592 428.751 292.34 429.218 291.836C429.703 291.332 430.011 290.651 430.142 289.792H433.558C433.334 291.565 432.671 292.956 431.57 293.964C430.487 294.953 428.975 295.448 427.034 295.448C424.775 295.448 423.039 294.767 421.826 293.404C420.613 292.023 420.006 290.147 420.006 287.776ZM436.229 290.156V280.44H439.757V289.512C439.757 290.576 439.935 291.341 440.289 291.808C440.663 292.256 441.251 292.48 442.053 292.48C443.005 292.48 443.827 292.144 444.517 291.472C444.853 291.155 445.115 290.809 445.301 290.436C445.488 290.063 445.581 289.596 445.581 289.036V280.44H449.109V295H445.637V292.984C444.984 293.824 444.265 294.449 443.481 294.86C442.697 295.252 441.848 295.448 440.933 295.448C439.347 295.448 438.161 295 437.377 294.104C436.612 293.189 436.229 291.873 436.229 290.156ZM452.584 275.008H456.112V295H452.584V275.008ZM460.619 289.96V283.212H458.323V280.44H460.619V276.52H464.147V280.44H467.759V283.212H464.147V290.324C464.147 290.977 464.296 291.491 464.595 291.864C464.894 292.237 465.351 292.424 465.967 292.424C466.322 292.424 466.639 292.396 466.919 292.34C467.199 292.284 467.46 292.219 467.703 292.144L468.235 294.776C467.768 294.925 467.283 295.047 466.779 295.14C466.294 295.233 465.734 295.28 465.099 295.28C463.942 295.28 463.036 295.075 462.383 294.664C461.73 294.235 461.272 293.628 461.011 292.844C460.75 292.041 460.619 291.08 460.619 289.96ZM477.408 289.96V283.212H475.112V280.44H477.408V276.52H480.936V280.44H484.548V283.212H480.936V290.324C480.936 290.977 481.085 291.491 481.384 291.864C481.683 292.237 482.14 292.424 482.756 292.424C483.111 292.424 483.428 292.396 483.708 292.34C483.988 292.284 484.249 292.219 484.492 292.144L485.024 294.776C484.557 294.925 484.072 295.047 483.568 295.14C483.083 295.233 482.523 295.28 481.888 295.28C480.731 295.28 479.825 295.075 479.172 294.664C478.519 294.235 478.061 293.628 477.8 292.844C477.539 292.041 477.408 291.08 477.408 289.96ZM486.588 287.748C486.588 286.143 486.887 284.761 487.484 283.604C488.081 282.447 488.921 281.56 490.004 280.944C491.105 280.309 492.403 279.992 493.896 279.992C496.173 279.992 497.947 280.673 499.216 282.036C500.485 283.38 501.12 285.247 501.12 287.636C501.12 290.063 500.467 291.976 499.16 293.376C497.872 294.757 496.089 295.448 493.812 295.448C491.516 295.448 489.733 294.776 488.464 293.432C487.213 292.069 486.588 290.175 486.588 287.748ZM490.228 287.692C490.228 289.167 490.508 290.352 491.068 291.248C491.647 292.144 492.571 292.592 493.84 292.592C495.109 292.592 496.033 292.144 496.612 291.248C497.191 290.352 497.48 289.167 497.48 287.692C497.48 286.217 497.191 285.041 496.612 284.164C496.033 283.287 495.109 282.848 493.84 282.848C492.589 282.848 491.675 283.287 491.096 284.164C490.517 285.041 490.228 286.217 490.228 287.692ZM509.384 290.968C509.384 290.016 509.58 289.223 509.972 288.588C510.382 287.953 510.933 287.459 511.624 287.104C512.314 286.731 513.098 286.469 513.976 286.32C514.872 286.152 515.805 286.049 516.776 286.012L519.016 285.928V285.396C519.016 284.388 518.801 283.66 518.372 283.212C517.942 282.745 517.252 282.512 516.3 282.512C515.366 282.512 514.676 282.68 514.228 283.016C513.78 283.333 513.481 283.791 513.332 284.388L510.168 284.108C510.429 282.689 511.082 281.653 512.128 281C513.173 280.328 514.601 279.992 516.412 279.992C518.577 279.992 520.117 280.487 521.032 281.476C521.946 282.447 522.404 283.856 522.404 285.704V295H519.128V293.208C518.568 293.843 517.905 294.365 517.14 294.776C516.374 295.168 515.45 295.364 514.368 295.364C512.893 295.364 511.689 294.991 510.756 294.244C509.841 293.479 509.384 292.387 509.384 290.968ZM512.8 290.8C512.8 291.397 512.986 291.883 513.36 292.256C513.733 292.611 514.34 292.788 515.18 292.788C516.337 292.788 517.261 292.489 517.952 291.892C518.661 291.295 519.016 290.455 519.016 289.372V288.14L516.944 288.224C515.357 288.28 514.265 288.523 513.668 288.952C513.089 289.381 512.8 289.997 512.8 290.8ZM526.819 283.464H524.495V280.692H526.819V279.74C526.819 278.079 527.276 276.837 528.191 276.016C529.124 275.195 530.3 274.784 531.719 274.784C532.671 274.784 533.651 274.924 534.659 275.204L534.155 277.78C533.856 277.687 533.567 277.631 533.287 277.612C533.026 277.575 532.764 277.556 532.503 277.556C531.868 277.556 531.346 277.715 530.935 278.032C530.543 278.349 530.347 278.9 530.347 279.684V280.692H533.819V283.464H530.347V295H526.819V283.464ZM537.291 283.464H534.967V280.692H537.291V279.74C537.291 278.079 537.748 276.837 538.663 276.016C539.596 275.195 540.772 274.784 542.191 274.784C543.143 274.784 544.123 274.924 545.131 275.204L544.627 277.78C544.328 277.687 544.039 277.631 543.759 277.612C543.498 277.575 543.236 277.556 542.975 277.556C542.34 277.556 541.818 277.715 541.407 278.032C541.015 278.349 540.819 278.9 540.819 279.684V280.692H544.291V283.464H540.819V295H537.291V283.464ZM546.033 287.748C546.033 286.143 546.332 284.761 546.929 283.604C547.527 282.447 548.367 281.56 549.449 280.944C550.551 280.309 551.848 279.992 553.341 279.992C555.619 279.992 557.392 280.673 558.661 282.036C559.931 283.38 560.565 285.247 560.565 287.636C560.565 290.063 559.912 291.976 558.605 293.376C557.317 294.757 555.535 295.448 553.257 295.448C550.961 295.448 549.179 294.776 547.909 293.432C546.659 292.069 546.033 290.175 546.033 287.748ZM549.673 287.692C549.673 289.167 549.953 290.352 550.513 291.248C551.092 292.144 552.016 292.592 553.285 292.592C554.555 292.592 555.479 292.144 556.057 291.248C556.636 290.352 556.925 289.167 556.925 287.692C556.925 286.217 556.636 285.041 556.057 284.164C555.479 283.287 554.555 282.848 553.285 282.848C552.035 282.848 551.12 283.287 550.541 284.164C549.963 285.041 549.673 286.217 549.673 287.692ZM563.572 280.44H567.016V282.484C568.099 280.953 569.489 280.188 571.188 280.188C571.449 280.188 571.692 280.197 571.916 280.216C572.159 280.235 572.373 280.263 572.56 280.3L572.14 283.408C571.729 283.296 571.291 283.24 570.824 283.24C570.357 283.24 569.909 283.315 569.48 283.464C569.069 283.595 568.677 283.819 568.304 284.136C567.931 284.435 567.632 284.799 567.408 285.228C567.203 285.657 567.1 286.171 567.1 286.768V295H563.572V280.44ZM573.623 287.832C573.623 285.405 574.183 283.492 575.303 282.092C576.442 280.692 577.991 279.992 579.951 279.992C580.717 279.992 581.463 280.151 582.191 280.468C582.938 280.767 583.601 281.289 584.179 282.036V275.008H587.707V295H584.291V293.096C583.713 293.861 583.05 294.449 582.303 294.86C581.557 295.252 580.679 295.448 579.671 295.448C578.327 295.448 577.207 295.121 576.311 294.468C575.415 293.815 574.743 292.919 574.295 291.78C573.847 290.623 573.623 289.307 573.623 287.832ZM577.235 287.72C577.235 288.915 577.394 289.867 577.711 290.576C578.029 291.285 578.439 291.799 578.943 292.116C579.466 292.415 580.017 292.564 580.595 292.564C581.734 292.564 582.621 292.181 583.255 291.416C583.89 290.632 584.207 289.54 584.207 288.14V287.356C584.207 285.807 583.89 284.668 583.255 283.94C582.639 283.193 581.799 282.82 580.735 282.82C579.709 282.82 578.869 283.203 578.215 283.968C577.562 284.715 577.235 285.965 577.235 287.72ZM32.744 325.96V319.212H30.448V316.44H32.744V312.52H36.272V316.44H39.884V319.212H36.272V326.324C36.272 326.977 36.4213 327.491 36.72 327.864C37.0187 328.237 37.476 328.424 38.092 328.424C38.4467 328.424 38.764 328.396 39.044 328.34C39.324 328.284 39.5853 328.219 39.828 328.144L40.36 330.776C39.8933 330.925 39.408 331.047 38.904 331.14C38.4187 331.233 37.8587 331.28 37.224 331.28C36.0667 331.28 35.1613 331.075 34.508 330.664C33.8547 330.235 33.3973 329.628 33.136 328.844C32.8747 328.041 32.744 327.08 32.744 325.96ZM42.4001 311.008H45.9281V318.316C46.6561 317.457 47.4121 316.86 48.1961 316.524C48.9801 316.169 49.7921 315.992 50.6321 315.992C52.2374 315.992 53.4507 316.449 54.2721 317.364C55.0934 318.26 55.5041 319.557 55.5041 321.256V331H51.9761V321.928C51.9761 320.845 51.7707 320.08 51.3601 319.632C50.9681 319.165 50.3614 318.932 49.5401 318.932C49.0734 318.932 48.6161 319.016 48.1681 319.184C47.7387 319.352 47.3467 319.613 46.9921 319.968C46.6374 320.285 46.3667 320.631 46.1801 321.004C46.0121 321.359 45.9281 321.835 45.9281 322.432V331H42.4001V311.008ZM58.3577 323.832C58.3577 322.152 58.6563 320.733 59.2537 319.576C59.851 318.4 60.6817 317.513 61.7457 316.916C62.8097 316.3 64.0417 315.992 65.4417 315.992C66.9537 315.992 68.2043 316.3 69.1937 316.916C70.183 317.513 70.9203 318.353 71.4057 319.436C71.891 320.519 72.1337 321.779 72.1337 323.216V324.532H61.8297C61.9043 325.932 62.2403 326.996 62.8377 327.724C63.435 328.452 64.303 328.816 65.4417 328.816C66.431 328.816 67.1683 328.629 67.6537 328.256C68.139 327.883 68.4657 327.36 68.6337 326.688H71.9377C71.695 328.181 71.0417 329.348 69.9777 330.188C68.9137 331.028 67.411 331.448 65.4697 331.448C63.1923 331.448 61.4377 330.785 60.2057 329.46C58.9737 328.116 58.3577 326.24 58.3577 323.832ZM68.7457 322.348C68.6897 321.116 68.4283 320.173 67.9617 319.52C67.495 318.867 66.655 318.54 65.4417 318.54C64.2283 318.54 63.3603 318.895 62.8377 319.604C62.315 320.295 61.9883 321.209 61.8577 322.348H68.7457ZM75.1312 316.44H78.6592V331H75.1312V316.44ZM75.1032 310.952H78.6592V314.116H75.1032V310.952ZM82.1579 316.44H85.6019V318.484C86.6845 316.953 88.0752 316.188 89.7739 316.188C90.0352 316.188 90.2779 316.197 90.5019 316.216C90.7445 316.235 90.9592 316.263 91.1459 316.3L90.7259 319.408C90.3152 319.296 89.8765 319.24 89.4099 319.24C88.9432 319.24 88.4952 319.315 88.0659 319.464C87.6552 319.595 87.2632 319.819 86.8899 320.136C86.5165 320.435 86.2179 320.799 85.9939 321.228C85.7885 321.657 85.6859 322.171 85.6859 322.768V331H82.1579V316.44ZM100.366 319.464H98.0418V316.692H100.366V315.74C100.366 314.079 100.823 312.837 101.738 312.016C102.671 311.195 103.847 310.784 105.266 310.784C106.218 310.784 107.198 310.924 108.206 311.204L107.702 313.78C107.403 313.687 107.114 313.631 106.834 313.612C106.572 313.575 106.311 313.556 106.05 313.556C105.415 313.556 104.892 313.715 104.482 314.032C104.09 314.349 103.894 314.9 103.894 315.684V316.692H107.366V319.464H103.894V331H100.366V319.464ZM108.716 326.968C108.716 326.016 108.912 325.223 109.304 324.588C109.714 323.953 110.265 323.459 110.956 323.104C111.646 322.731 112.43 322.469 113.308 322.32C114.204 322.152 115.137 322.049 116.108 322.012L118.348 321.928V321.396C118.348 320.388 118.133 319.66 117.704 319.212C117.274 318.745 116.584 318.512 115.632 318.512C114.698 318.512 114.008 318.68 113.56 319.016C113.112 319.333 112.813 319.791 112.664 320.388L109.5 320.108C109.761 318.689 110.414 317.653 111.46 317C112.505 316.328 113.933 315.992 115.744 315.992C117.909 315.992 119.449 316.487 120.364 317.476C121.278 318.447 121.736 319.856 121.736 321.704V331H118.46V329.208C117.9 329.843 117.237 330.365 116.472 330.776C115.706 331.168 114.782 331.364 113.7 331.364C112.225 331.364 111.021 330.991 110.088 330.244C109.173 329.479 108.716 328.387 108.716 326.968ZM112.132 326.8C112.132 327.397 112.318 327.883 112.692 328.256C113.065 328.611 113.672 328.788 114.512 328.788C115.669 328.788 116.593 328.489 117.284 327.892C117.993 327.295 118.348 326.455 118.348 325.372V324.14L116.276 324.224C114.689 324.28 113.597 324.523 113 324.952C112.421 325.381 112.132 325.997 112.132 326.8ZM130.888 327.416L134.556 316.44H138.28L132.708 331H128.956L123.412 316.44H127.303L130.888 327.416ZM139.268 323.748C139.268 322.143 139.566 320.761 140.164 319.604C140.761 318.447 141.601 317.56 142.684 316.944C143.785 316.309 145.082 315.992 146.576 315.992C148.853 315.992 150.626 316.673 151.896 318.036C153.165 319.38 153.8 321.247 153.8 323.636C153.8 326.063 153.146 327.976 151.84 329.376C150.552 330.757 148.769 331.448 146.492 331.448C144.196 331.448 142.413 330.776 141.144 329.432C139.893 328.069 139.268 326.175 139.268 323.748ZM142.908 323.692C142.908 325.167 143.188 326.352 143.748 327.248C144.326 328.144 145.25 328.592 146.52 328.592C147.789 328.592 148.713 328.144 149.292 327.248C149.87 326.352 150.16 325.167 150.16 323.692C150.16 322.217 149.87 321.041 149.292 320.164C148.713 319.287 147.789 318.848 146.52 318.848C145.269 318.848 144.354 319.287 143.776 320.164C143.197 321.041 142.908 322.217 142.908 323.692ZM156.806 316.44H160.25V318.484C161.333 316.953 162.724 316.188 164.422 316.188C164.684 316.188 164.926 316.197 165.15 316.216C165.393 316.235 165.608 316.263 165.794 316.3L165.374 319.408C164.964 319.296 164.525 319.24 164.058 319.24C163.592 319.24 163.144 319.315 162.714 319.464C162.304 319.595 161.912 319.819 161.538 320.136C161.165 320.435 160.866 320.799 160.642 321.228C160.437 321.657 160.334 322.171 160.334 322.768V331H156.806V316.44ZM167.881 316.44H171.409V331H167.881V316.44ZM167.853 310.952H171.409V314.116H167.853V310.952ZM175.916 325.96V319.212H173.62V316.44H175.916V312.52H179.444V316.44H183.056V319.212H179.444V326.324C179.444 326.977 179.593 327.491 179.892 327.864C180.191 328.237 180.648 328.424 181.264 328.424C181.619 328.424 181.936 328.396 182.216 328.34C182.496 328.284 182.757 328.219 183 328.144L183.532 330.776C183.065 330.925 182.58 331.047 182.076 331.14C181.591 331.233 181.031 331.28 180.396 331.28C179.239 331.28 178.333 331.075 177.68 330.664C177.027 330.235 176.569 329.628 176.308 328.844C176.047 328.041 175.916 327.08 175.916 325.96ZM185.096 323.832C185.096 322.152 185.395 320.733 185.992 319.576C186.589 318.4 187.42 317.513 188.484 316.916C189.548 316.3 190.78 315.992 192.18 315.992C193.692 315.992 194.943 316.3 195.932 316.916C196.921 317.513 197.659 318.353 198.144 319.436C198.629 320.519 198.872 321.779 198.872 323.216V324.532H188.568C188.643 325.932 188.979 326.996 189.576 327.724C190.173 328.452 191.041 328.816 192.18 328.816C193.169 328.816 193.907 328.629 194.392 328.256C194.877 327.883 195.204 327.36 195.372 326.688H198.676C198.433 328.181 197.78 329.348 196.716 330.188C195.652 331.028 194.149 331.448 192.208 331.448C189.931 331.448 188.176 330.785 186.944 329.46C185.712 328.116 185.096 326.24 185.096 323.832ZM195.484 322.348C195.428 321.116 195.167 320.173 194.7 319.52C194.233 318.867 193.393 318.54 192.18 318.54C190.967 318.54 190.099 318.895 189.576 319.604C189.053 320.295 188.727 321.209 188.596 322.348H195.484ZM207.966 311.008H211.494V318.316C212.222 317.457 212.978 316.86 213.762 316.524C214.546 316.169 215.358 315.992 216.198 315.992C217.804 315.992 219.017 316.449 219.838 317.364C220.66 318.26 221.07 319.557 221.07 321.256V331H217.542V321.928C217.542 320.845 217.337 320.08 216.926 319.632C216.534 319.165 215.928 318.932 215.106 318.932C214.64 318.932 214.182 319.016 213.734 319.184C213.305 319.352 212.913 319.613 212.558 319.968C212.204 320.285 211.933 320.631 211.746 321.004C211.578 321.359 211.494 321.835 211.494 322.432V331H207.966V311.008ZM223.924 323.748C223.924 322.143 224.223 320.761 224.82 319.604C225.417 318.447 226.257 317.56 227.34 316.944C228.441 316.309 229.739 315.992 231.232 315.992C233.509 315.992 235.283 316.673 236.552 318.036C237.821 319.38 238.456 321.247 238.456 323.636C238.456 326.063 237.803 327.976 236.496 329.376C235.208 330.757 233.425 331.448 231.148 331.448C228.852 331.448 227.069 330.776 225.8 329.432C224.549 328.069 223.924 326.175 223.924 323.748ZM227.564 323.692C227.564 325.167 227.844 326.352 228.404 327.248C228.983 328.144 229.907 328.592 231.176 328.592C232.445 328.592 233.369 328.144 233.948 327.248C234.527 326.352 234.816 325.167 234.816 323.692C234.816 322.217 234.527 321.041 233.948 320.164C233.369 319.287 232.445 318.848 231.176 318.848C229.925 318.848 229.011 319.287 228.432 320.164C227.853 321.041 227.564 322.217 227.564 323.692ZM244.907 331H241.463V311.008H244.991V318.148C245.551 317.457 246.204 316.925 246.951 316.552C247.697 316.179 248.547 315.992 249.499 315.992C251.515 315.992 253.027 316.683 254.035 318.064C255.043 319.445 255.547 321.284 255.547 323.58C255.547 325.185 255.285 326.585 254.763 327.78C254.259 328.956 253.54 329.861 252.607 330.496C251.673 331.131 250.553 331.448 249.247 331.448C248.425 331.448 247.632 331.28 246.867 330.944C246.12 330.608 245.467 330.057 244.907 329.292V331ZM244.963 323.244V324.056C244.963 325.624 245.28 326.772 245.915 327.5C246.549 328.228 247.399 328.592 248.463 328.592C249.489 328.592 250.32 328.219 250.955 327.472C251.608 326.707 251.935 325.437 251.935 323.664C251.935 322.469 251.776 321.527 251.459 320.836C251.16 320.127 250.759 319.623 250.255 319.324C249.751 319.007 249.2 318.848 248.603 318.848C247.52 318.848 246.643 319.231 245.971 319.996C245.299 320.761 244.963 321.844 244.963 323.244ZM262.024 331H258.58V311.008H262.108V318.148C262.668 317.457 263.321 316.925 264.068 316.552C264.814 316.179 265.664 315.992 266.616 315.992C268.632 315.992 270.144 316.683 271.152 318.064C272.16 319.445 272.664 321.284 272.664 323.58C272.664 325.185 272.402 326.585 271.88 327.78C271.376 328.956 270.657 329.861 269.724 330.496C268.79 331.131 267.67 331.448 266.364 331.448C265.542 331.448 264.749 331.28 263.984 330.944C263.237 330.608 262.584 330.057 262.024 329.292V331ZM262.08 323.244V324.056C262.08 325.624 262.397 326.772 263.032 327.5C263.666 328.228 264.516 328.592 265.58 328.592C266.606 328.592 267.437 328.219 268.072 327.472C268.725 326.707 269.052 325.437 269.052 323.664C269.052 322.469 268.893 321.527 268.576 320.836C268.277 320.127 267.876 319.623 267.372 319.324C266.868 319.007 266.317 318.848 265.72 318.848C264.637 318.848 263.76 319.231 263.088 319.996C262.416 320.761 262.08 321.844 262.08 323.244ZM275.428 333.604C276.044 333.791 276.585 333.884 277.052 333.884C277.612 333.884 278.051 333.707 278.368 333.352C278.685 333.016 279.003 332.419 279.32 331.56L279.796 330.244L273.72 316.44H277.612L281.476 326.576L284.976 316.44H288.728L282.54 331.868C282.092 332.988 281.653 333.903 281.224 334.612C280.813 335.34 280.328 335.872 279.768 336.208C279.208 336.563 278.489 336.74 277.612 336.74C276.66 336.74 275.736 336.591 274.84 336.292L275.428 333.604ZM288.463 326.884H292.131V331H288.463V326.884Z" fill="#FAECDC"/>
</svg>
