<svg width="655" height="364" viewBox="0 0 655 364" fill="none" xmlns="http://www.w3.org/2000/svg">
<rect x="0.5" y="0.5" width="654" height="363" rx="20.5" stroke="#FAECDC"/>
<path d="M30.08 275.716H37.464C37.6373 277.623 38.1747 279.061 39.076 280.032C39.9773 280.968 41.3987 281.436 43.34 281.436C45.0733 281.436 46.408 281.003 47.344 280.136C48.28 279.235 48.748 277.969 48.748 276.34C48.748 274.641 48.2627 273.411 47.292 272.648C46.356 271.885 45.0387 271.504 43.34 271.504H40.064V265.42H43.444C44.9347 265.42 46.0787 265.039 46.876 264.276C47.6733 263.513 48.072 262.387 48.072 260.896C48.072 258.088 46.46 256.684 43.236 256.684C41.6067 256.684 40.3587 257.065 39.492 257.828C38.66 258.591 38.0533 259.821 37.672 261.52L30.444 260.688C30.7213 258.643 31.3627 256.823 32.368 255.228C33.408 253.633 34.864 252.385 36.736 251.484C38.608 250.548 40.9307 250.08 43.704 250.08C47.5867 250.08 50.5507 250.999 52.596 252.836C54.676 254.639 55.716 256.944 55.716 259.752C55.716 263.635 54.0867 266.339 50.828 267.864C52.7347 268.696 54.156 269.857 55.092 271.348C56.0627 272.839 56.548 274.624 56.548 276.704C56.548 280.067 55.4387 282.788 53.22 284.868C51.0013 286.913 47.7773 287.936 43.548 287.936C40.3587 287.936 37.776 287.399 35.8 286.324C33.824 285.215 32.368 283.741 31.432 281.904C30.5307 280.032 30.08 277.969 30.08 275.716ZM60.6454 269.112C60.6454 262.595 61.8068 257.793 64.1294 254.708C66.4868 251.623 69.8668 250.08 74.2694 250.08C78.7068 250.08 82.0521 251.605 84.3054 254.656C86.5588 257.707 87.6854 262.473 87.6854 268.956C87.6854 275.473 86.5241 280.275 84.2014 283.36C81.9134 286.411 78.5334 287.936 74.0614 287.936C69.6588 287.936 66.3134 286.428 64.0254 283.412C61.7721 280.361 60.6454 275.595 60.6454 269.112ZM68.6534 269.06C68.6534 273.255 69.0521 276.323 69.8494 278.264C70.6468 280.205 72.0854 281.176 74.1654 281.176C76.2108 281.176 77.6321 280.205 78.4294 278.264C79.2614 276.288 79.6774 273.22 79.6774 269.06C79.6774 264.865 79.2614 261.78 78.4294 259.804C77.6321 257.828 76.2108 256.84 74.1654 256.84C72.0854 256.84 70.6468 257.828 69.8494 259.804C69.0521 261.745 68.6534 264.831 68.6534 269.06ZM119.655 251.068H126.883L109.775 287H102.599L119.655 251.068ZM119.239 276.548C119.239 272.839 120.106 270.048 121.839 268.176C123.607 266.304 125.912 265.368 128.755 265.368C131.632 265.368 133.938 266.304 135.671 268.176C137.404 270.048 138.271 272.839 138.271 276.548C138.271 280.223 137.422 282.996 135.723 284.868C134.024 286.74 131.702 287.676 128.755 287.676C125.878 287.676 123.572 286.74 121.839 284.868C120.106 282.996 119.239 280.223 119.239 276.548ZM125.479 276.548C125.479 278.628 125.756 280.119 126.311 281.02C126.866 281.921 127.68 282.372 128.755 282.372C129.864 282.372 130.679 281.921 131.199 281.02C131.754 280.119 132.031 278.628 132.031 276.548C132.031 274.503 131.754 273.029 131.199 272.128C130.679 271.192 129.864 270.724 128.755 270.724C127.68 270.724 126.866 271.175 126.311 272.076C125.756 272.977 125.479 274.468 125.479 276.548ZM91.2109 261.572C91.2109 257.863 92.0775 255.072 93.8109 253.2C95.5789 251.328 97.8842 250.392 100.727 250.392C103.604 250.392 105.91 251.328 107.643 253.2C109.376 255.072 110.243 257.863 110.243 261.572C110.243 265.247 109.394 268.02 107.695 269.892C105.996 271.764 103.674 272.7 100.727 272.7C97.8495 272.7 95.5442 271.764 93.8109 269.892C92.0775 268.02 91.2109 265.247 91.2109 261.572ZM97.4509 261.572C97.4509 263.652 97.7282 265.143 98.2829 266.044C98.8375 266.945 99.6522 267.396 100.727 267.396C101.836 267.396 102.651 266.945 103.171 266.044C103.726 265.143 104.003 263.652 104.003 261.572C104.003 259.527 103.726 258.053 103.171 257.152C102.651 256.216 101.836 255.748 100.727 255.748C99.6522 255.748 98.8375 256.199 98.2829 257.1C97.7282 258.001 97.4509 259.492 97.4509 261.572ZM29.26 315.748C29.26 314.143 29.5587 312.761 30.156 311.604C30.7533 310.447 31.5933 309.56 32.676 308.944C33.7773 308.309 35.0747 307.992 36.568 307.992C38.8453 307.992 40.6187 308.673 41.888 310.036C43.1573 311.38 43.792 313.247 43.792 315.636C43.792 318.063 43.1387 319.976 41.832 321.376C40.544 322.757 38.7613 323.448 36.484 323.448C34.188 323.448 32.4053 322.776 31.136 321.432C29.8853 320.069 29.26 318.175 29.26 315.748ZM32.9 315.692C32.9 317.167 33.18 318.352 33.74 319.248C34.3187 320.144 35.2427 320.592 36.512 320.592C37.7813 320.592 38.7053 320.144 39.284 319.248C39.8627 318.352 40.152 317.167 40.152 315.692C40.152 314.217 39.8627 313.041 39.284 312.164C38.7053 311.287 37.7813 310.848 36.512 310.848C35.2613 310.848 34.3467 311.287 33.768 312.164C33.1893 313.041 32.9 314.217 32.9 315.692ZM47.8345 311.464H45.5105V308.692H47.8345V307.74C47.8345 306.079 48.2918 304.837 49.2065 304.016C50.1398 303.195 51.3158 302.784 52.7345 302.784C53.6865 302.784 54.6665 302.924 55.6745 303.204L55.1705 305.78C54.8718 305.687 54.5825 305.631 54.3025 305.612C54.0412 305.575 53.7798 305.556 53.5185 305.556C52.8838 305.556 52.3612 305.715 51.9505 306.032C51.5585 306.349 51.3625 306.9 51.3625 307.684V308.692H54.8345V311.464H51.3625V323H47.8345V311.464ZM63.1774 308.44H66.6214V310.428C67.2374 309.607 67.9187 309 68.6654 308.608C69.4121 308.197 70.1867 307.992 70.9894 307.992C71.9974 307.992 72.8374 308.216 73.5094 308.664C74.1814 309.093 74.6854 309.709 75.0214 310.512C76.2721 308.832 77.8587 307.992 79.7814 307.992C81.2187 307.992 82.3294 308.403 83.1134 309.224C83.8974 310.027 84.2894 311.287 84.2894 313.004V323H80.7614V313.62C80.7614 312.593 80.5841 311.893 80.2294 311.52C79.8747 311.128 79.3614 310.932 78.6894 310.932C78.3347 310.932 77.9614 310.997 77.5694 311.128C77.1774 311.259 76.8041 311.483 76.4494 311.8C76.1694 312.061 75.9361 312.369 75.7494 312.724C75.5814 313.079 75.4974 313.48 75.4974 313.928V323H71.9694V313.648C71.9694 312.659 71.7921 311.959 71.4374 311.548C71.0827 311.137 70.5787 310.932 69.9254 310.932C69.1227 310.932 68.3761 311.259 67.6854 311.912C67.4427 312.155 67.2187 312.463 67.0134 312.836C66.8081 313.209 66.7054 313.695 66.7054 314.292V323H63.1774V308.44ZM87.6781 308.44H91.2061V323H87.6781V308.44ZM87.6501 302.952H91.2061V306.116H87.6501V302.952ZM94.7328 303.008H98.2608V323H94.7328V303.008ZM101.787 303.008H105.315V323H101.787V303.008ZM108.338 315.832C108.338 314.152 108.637 312.733 109.234 311.576C109.831 310.4 110.662 309.513 111.726 308.916C112.79 308.3 114.022 307.992 115.422 307.992C116.934 307.992 118.185 308.3 119.174 308.916C120.163 309.513 120.901 310.353 121.386 311.436C121.871 312.519 122.114 313.779 122.114 315.216V316.532H111.81C111.885 317.932 112.221 318.996 112.818 319.724C113.415 320.452 114.283 320.816 115.422 320.816C116.411 320.816 117.149 320.629 117.634 320.256C118.119 319.883 118.446 319.36 118.614 318.688H121.918C121.675 320.181 121.022 321.348 119.958 322.188C118.894 323.028 117.391 323.448 115.45 323.448C113.173 323.448 111.418 322.785 110.186 321.46C108.954 320.116 108.338 318.24 108.338 315.832ZM118.726 314.348C118.67 313.116 118.409 312.173 117.942 311.52C117.475 310.867 116.635 310.54 115.422 310.54C114.209 310.54 113.341 310.895 112.818 311.604C112.295 312.295 111.969 313.209 111.838 314.348H118.726ZM125.084 308.44H128.528V310.456C129.256 309.541 130.021 308.907 130.824 308.552C131.626 308.179 132.457 307.992 133.316 307.992C134.921 307.992 136.134 308.449 136.956 309.364C137.777 310.26 138.188 311.557 138.188 313.256V323H134.66V313.928C134.66 312.845 134.454 312.08 134.044 311.632C133.652 311.165 133.045 310.932 132.224 310.932C131.757 310.932 131.3 311.016 130.852 311.184C130.422 311.352 130.03 311.613 129.676 311.968C129.321 312.285 129.05 312.631 128.864 313.004C128.696 313.359 128.612 313.835 128.612 314.432V323H125.084V308.44ZM141.517 308.44H144.961V310.456C145.689 309.541 146.455 308.907 147.257 308.552C148.06 308.179 148.891 307.992 149.749 307.992C151.355 307.992 152.568 308.449 153.389 309.364C154.211 310.26 154.621 311.557 154.621 313.256V323H151.093V313.928C151.093 312.845 150.888 312.08 150.477 311.632C150.085 311.165 149.479 310.932 148.657 310.932C148.191 310.932 147.733 311.016 147.285 311.184C146.856 311.352 146.464 311.613 146.109 311.968C145.755 312.285 145.484 312.631 145.297 313.004C145.129 313.359 145.045 313.835 145.045 314.432V323H141.517V308.44ZM157.979 308.44H161.507V323H157.979V308.44ZM157.951 302.952H161.507V306.116H157.951V302.952ZM164.138 318.968C164.138 318.016 164.334 317.223 164.726 316.588C165.136 315.953 165.687 315.459 166.378 315.104C167.068 314.731 167.852 314.469 168.73 314.32C169.626 314.152 170.559 314.049 171.53 314.012L173.77 313.928V313.396C173.77 312.388 173.555 311.66 173.126 311.212C172.696 310.745 172.006 310.512 171.054 310.512C170.12 310.512 169.43 310.68 168.982 311.016C168.534 311.333 168.235 311.791 168.086 312.388L164.922 312.108C165.183 310.689 165.836 309.653 166.882 309C167.927 308.328 169.355 307.992 171.166 307.992C173.331 307.992 174.871 308.487 175.786 309.476C176.7 310.447 177.158 311.856 177.158 313.704V323H173.882V321.208C173.322 321.843 172.659 322.365 171.894 322.776C171.128 323.168 170.204 323.364 169.122 323.364C167.647 323.364 166.443 322.991 165.51 322.244C164.595 321.479 164.138 320.387 164.138 318.968ZM167.554 318.8C167.554 319.397 167.74 319.883 168.114 320.256C168.487 320.611 169.094 320.788 169.934 320.788C171.091 320.788 172.015 320.489 172.706 319.892C173.415 319.295 173.77 318.455 173.77 317.372V316.14L171.698 316.224C170.111 316.28 169.019 316.523 168.422 316.952C167.843 317.381 167.554 317.997 167.554 318.8ZM180.565 303.008H184.093V323H180.565V303.008ZM196.215 318.996C196.215 318.511 196.075 318.1 195.795 317.764C195.515 317.428 194.937 317.195 194.059 317.064L192.323 316.784C190.569 316.504 189.253 316.037 188.375 315.384C187.517 314.731 187.087 313.732 187.087 312.388C187.087 311.007 187.647 309.933 188.767 309.168C189.906 308.384 191.381 307.992 193.191 307.992C194.573 307.992 195.683 308.169 196.523 308.524C197.382 308.86 198.035 309.336 198.483 309.952C198.95 310.568 199.267 311.287 199.435 312.108L196.187 312.528C195.982 311.856 195.674 311.352 195.263 311.016C194.853 310.661 194.171 310.484 193.219 310.484C192.174 310.484 191.446 310.661 191.035 311.016C190.625 311.371 190.419 311.781 190.419 312.248C190.419 312.733 190.569 313.125 190.867 313.424C191.185 313.704 191.801 313.919 192.715 314.068L194.647 314.404C196.477 314.74 197.774 315.253 198.539 315.944C199.305 316.616 199.687 317.624 199.687 318.968C199.687 320.312 199.165 321.395 198.119 322.216C197.093 323.037 195.553 323.448 193.499 323.448C191.577 323.448 189.999 323.075 188.767 322.328C187.535 321.563 186.863 320.321 186.751 318.604H190.111C190.261 319.425 190.606 320.004 191.147 320.34C191.707 320.676 192.473 320.844 193.443 320.844C194.433 320.844 195.142 320.676 195.571 320.34C196.001 320.004 196.215 319.556 196.215 318.996Z" fill="#FAECDC"/>
<path d="M43.392 69.432L49.788 42.08H57.484L63.724 69.276L69.548 41.872H78.076L68.248 79H59.668L53.428 52.22L47.292 79H38.764L28.832 41.872H37.62L43.392 69.432ZM81.9508 41.872H89.6468V55.132C90.9988 53.572 92.3508 52.4973 93.7028 51.908C95.0895 51.3187 96.5455 51.024 98.0708 51.024C101.052 51.024 103.305 51.8733 104.831 53.572C106.356 55.236 107.119 57.6453 107.119 60.8V79H99.3708V62.256C99.3708 60.5227 99.0415 59.292 98.3828 58.564C97.7588 57.8013 96.7881 57.42 95.4708 57.42C94.7081 57.42 93.9455 57.5587 93.1828 57.836C92.4548 58.1133 91.8135 58.5467 91.2588 59.136C90.7388 59.656 90.3401 60.2107 90.0628 60.8C89.7855 61.3893 89.6468 62.152 89.6468 63.088V79H81.9508V41.872ZM111.47 71.512C111.47 69.12 112.094 67.2827 113.342 66C114.625 64.6827 116.306 63.7467 118.386 63.192C120.466 62.6373 122.719 62.3253 125.146 62.256L129.046 62.1V61.112C129.046 59.448 128.699 58.252 128.006 57.524C127.313 56.796 126.203 56.432 124.678 56.432C123.187 56.432 122.061 56.7093 121.298 57.264C120.57 57.784 120.085 58.564 119.842 59.604L112.926 58.98C113.411 56.276 114.659 54.2827 116.67 53C118.681 51.6827 121.419 51.024 124.886 51.024C128.977 51.024 131.923 51.9427 133.726 53.78C135.529 55.6173 136.43 58.3213 136.43 61.892V79H129.306V75.828C128.231 77.0067 127.001 77.9427 125.614 78.636C124.262 79.3293 122.615 79.676 120.674 79.676C117.935 79.676 115.717 78.9653 114.018 77.544C112.319 76.1227 111.47 74.112 111.47 71.512ZM118.802 71.044C118.802 72.0493 119.097 72.8467 119.686 73.436C120.31 73.9907 121.298 74.268 122.65 74.268C124.591 74.268 126.134 73.7653 127.278 72.76C128.457 71.7547 129.046 70.3507 129.046 68.548V66.676L125.458 66.832C122.962 66.936 121.229 67.3347 120.258 68.028C119.287 68.7213 118.802 69.7267 118.802 71.044ZM144.461 69.328V57.888H140.145V51.856H144.461V44.628H152.209V51.856H158.605V57.888H152.209V69.64C152.209 70.784 152.469 71.6853 152.989 72.344C153.509 72.968 154.323 73.28 155.433 73.28C156.022 73.28 156.559 73.2453 157.045 73.176C157.565 73.072 158.05 72.9507 158.501 72.812L159.541 78.532C158.57 78.844 157.599 79.0867 156.629 79.26C155.658 79.4333 154.566 79.52 153.353 79.52C149.99 79.52 147.667 78.6533 146.385 76.92C145.102 75.1867 144.461 72.656 144.461 69.328ZM192.777 76.556V74.112C191.841 75.36 190.697 76.3307 189.345 77.024C188.028 77.6827 186.485 78.012 184.717 78.012C182.29 78.012 180.245 77.4573 178.581 76.348C176.952 75.204 175.721 73.6267 174.889 71.616C174.057 69.6053 173.641 67.2827 173.641 64.648C173.641 61.8747 174.109 59.4827 175.045 57.472C175.981 55.4267 177.316 53.8493 179.049 52.74C180.782 51.596 182.828 51.024 185.185 51.024C186.676 51.024 188.08 51.3013 189.397 51.856C190.714 52.4107 191.91 53.3813 192.985 54.768V51.856H200.525V75.308C200.525 78.3587 200.092 80.9413 199.225 83.056C198.393 85.2053 197.006 86.8347 195.065 87.944C193.158 89.088 190.593 89.66 187.369 89.66C183.521 89.66 180.522 88.9147 178.373 87.424C176.224 85.968 174.993 83.6627 174.681 80.508H182.169C182.446 81.756 182.966 82.6573 183.729 83.212C184.526 83.7667 185.722 84.044 187.317 84.044C189.397 84.044 190.818 83.4373 191.581 82.224C192.378 81.0107 192.777 79.1213 192.777 76.556ZM192.829 64.18C192.829 62.1 192.378 60.4187 191.477 59.136C190.576 57.8533 189.154 57.212 187.213 57.212C185.549 57.212 184.18 57.8013 183.105 58.98C182.03 60.124 181.493 61.9613 181.493 64.492C181.493 67.0573 182.03 68.912 183.105 70.056C184.214 71.1653 185.532 71.72 187.057 71.72C189.033 71.72 190.489 71.096 191.425 69.848C192.361 68.5653 192.829 66.9187 192.829 64.908V64.18ZM205.838 65.688C205.838 62.568 206.392 59.916 207.502 57.732C208.611 55.548 210.171 53.884 212.182 52.74C214.192 51.596 216.55 51.024 219.254 51.024C223.448 51.024 226.603 52.2547 228.718 54.716C230.867 57.1773 231.942 60.4707 231.942 64.596V67.144H213.326C213.638 71.8933 215.596 74.268 219.202 74.268C220.831 74.268 222.044 73.956 222.842 73.332C223.639 72.708 224.176 71.8413 224.454 70.732H231.682C231.162 73.644 229.879 75.8973 227.834 77.492C225.788 79.052 222.946 79.832 219.306 79.832C214.972 79.832 211.644 78.6013 209.322 76.14C206.999 73.6787 205.838 70.1947 205.838 65.688ZM224.662 62.724C224.558 60.6787 224.124 59.136 223.362 58.096C222.634 57.0213 221.264 56.484 219.254 56.484C217.278 56.484 215.856 57.0387 214.99 58.148C214.123 59.2227 213.586 60.748 213.378 62.724H224.662ZM237.189 51.856H244.729V55.288C246.081 53.6587 247.468 52.5493 248.889 51.96C250.31 51.336 251.784 51.024 253.309 51.024C256.29 51.024 258.544 51.8733 260.069 53.572C261.594 55.236 262.357 57.6453 262.357 60.8V79H254.609V62.256C254.609 60.5227 254.28 59.292 253.621 58.564C252.997 57.8013 252.026 57.42 250.709 57.42C249.946 57.42 249.184 57.5587 248.421 57.836C247.693 58.1133 247.052 58.5467 246.497 59.136C245.977 59.656 245.578 60.2107 245.301 60.8C245.024 61.3893 244.885 62.152 244.885 63.088V79H237.189V51.856ZM267.384 65.688C267.384 62.568 267.939 59.916 269.048 57.732C270.158 55.548 271.718 53.884 273.728 52.74C275.739 51.596 278.096 51.024 280.8 51.024C284.995 51.024 288.15 52.2547 290.264 54.716C292.414 57.1773 293.488 60.4707 293.488 64.596V67.144H274.872C275.184 71.8933 277.143 74.268 280.748 74.268C282.378 74.268 283.591 73.956 284.388 73.332C285.186 72.708 285.723 71.8413 286 70.732H293.228C292.708 73.644 291.426 75.8973 289.38 77.492C287.335 79.052 284.492 79.832 280.852 79.832C276.519 79.832 273.191 78.6013 270.868 76.14C268.546 73.6787 267.384 70.1947 267.384 65.688ZM286.208 62.724C286.104 60.6787 285.671 59.136 284.908 58.096C284.18 57.0213 282.811 56.484 280.8 56.484C278.824 56.484 277.403 57.0387 276.536 58.148C275.67 59.2227 275.132 60.748 274.924 62.724H286.208ZM298.736 51.856H306.276V55.444C308.252 52.74 310.817 51.388 313.972 51.388C314.457 51.388 314.908 51.4053 315.324 51.44C315.775 51.4747 316.191 51.544 316.572 51.648L315.688 58.252C315.237 58.1827 314.804 58.1307 314.388 58.096C313.972 58.0267 313.521 57.992 313.036 57.992C312.204 57.992 311.407 58.1133 310.644 58.356C309.916 58.564 309.223 58.928 308.564 59.448C307.905 59.968 307.385 60.6093 307.004 61.372C306.623 62.1347 306.432 63.036 306.432 64.076V79H298.736V51.856ZM318.658 71.512C318.658 69.12 319.282 67.2827 320.53 66C321.812 64.6827 323.494 63.7467 325.574 63.192C327.654 62.6373 329.907 62.3253 332.334 62.256L336.234 62.1V61.112C336.234 59.448 335.887 58.252 335.194 57.524C334.5 56.796 333.391 56.432 331.866 56.432C330.375 56.432 329.248 56.7093 328.486 57.264C327.758 57.784 327.272 58.564 327.03 59.604L320.114 58.98C320.599 56.276 321.847 54.2827 323.858 53C325.868 51.6827 328.607 51.024 332.074 51.024C336.164 51.024 339.111 51.9427 340.914 53.78C342.716 55.6173 343.618 58.3213 343.618 61.892V79H336.494V75.828C335.419 77.0067 334.188 77.9427 332.802 78.636C331.45 79.3293 329.803 79.676 327.862 79.676C325.123 79.676 322.904 78.9653 321.206 77.544C319.507 76.1227 318.658 74.112 318.658 71.512ZM325.99 71.044C325.99 72.0493 326.284 72.8467 326.874 73.436C327.498 73.9907 328.486 74.268 329.838 74.268C331.779 74.268 333.322 73.7653 334.466 72.76C335.644 71.7547 336.234 70.3507 336.234 68.548V66.676L332.646 66.832C330.15 66.936 328.416 67.3347 327.446 68.028C326.475 68.7213 325.99 69.7267 325.99 71.044ZM351.648 69.328V57.888H347.332V51.856H351.648V44.628H359.396V51.856H365.792V57.888H359.396V69.64C359.396 70.784 359.656 71.6853 360.176 72.344C360.696 72.968 361.511 73.28 362.62 73.28C363.209 73.28 363.747 73.2453 364.232 73.176C364.752 73.072 365.237 72.9507 365.688 72.812L366.728 78.532C365.757 78.844 364.787 79.0867 363.816 79.26C362.845 79.4333 361.753 79.52 360.54 79.52C357.177 79.52 354.855 78.6533 353.572 76.92C352.289 75.1867 351.648 72.656 351.648 69.328ZM370.491 51.856H378.187V79H370.491V51.856ZM370.439 41.768H378.239V47.956H370.439V41.768ZM383.521 65.532C383.521 60.9907 384.752 57.4373 387.213 54.872C389.674 52.3067 393.054 51.024 397.353 51.024C401.686 51.024 405.032 52.272 407.389 54.768C409.781 57.264 410.977 60.7827 410.977 65.324C410.977 69.8307 409.746 73.384 407.285 75.984C404.858 78.5493 401.478 79.832 397.145 79.832C392.812 79.832 389.449 78.584 387.057 76.088C384.7 73.5573 383.521 70.0387 383.521 65.532ZM391.373 65.428C391.373 67.9587 391.841 69.952 392.777 71.408C393.713 72.864 395.186 73.592 397.197 73.592C399.242 73.592 400.733 72.864 401.669 71.408C402.64 69.9173 403.125 67.9067 403.125 65.376C403.125 62.8453 402.64 60.8693 401.669 59.448C400.733 57.992 399.242 57.264 397.197 57.264C395.186 57.264 393.713 57.992 392.777 59.448C391.841 60.8693 391.373 62.8627 391.373 65.428ZM416.295 51.856H423.835V55.288C425.187 53.6587 426.573 52.5493 427.995 51.96C429.416 51.336 430.889 51.024 432.415 51.024C435.396 51.024 437.649 51.8733 439.175 53.572C440.7 55.236 441.463 57.6453 441.463 60.8V79H433.715V62.256C433.715 60.5227 433.385 59.292 432.727 58.564C432.103 57.8013 431.132 57.42 429.815 57.42C429.052 57.42 428.289 57.5587 427.527 57.836C426.799 58.1133 426.157 58.5467 425.603 59.136C425.083 59.656 424.684 60.2107 424.407 60.8C424.129 61.3893 423.991 62.152 423.991 63.088V79H416.295V51.856ZM462.87 71.356C462.87 70.5587 462.627 69.9 462.142 69.38C461.691 68.86 460.755 68.4787 459.334 68.236L456.266 67.716C452.869 67.1267 450.355 66.208 448.726 64.96C447.097 63.712 446.282 61.84 446.282 59.344C446.282 56.7093 447.339 54.664 449.454 53.208C451.603 51.752 454.446 51.024 457.982 51.024C461.83 51.024 464.673 51.7347 466.51 53.156C468.347 54.5773 469.509 56.484 469.994 58.876L462.818 59.656C462.506 58.5467 462.003 57.7147 461.31 57.16C460.617 56.5707 459.507 56.276 457.982 56.276C456.353 56.276 455.209 56.5533 454.55 57.108C453.891 57.6627 453.562 58.3213 453.562 59.084C453.562 59.8813 453.822 60.5227 454.342 61.008C454.862 61.4587 455.867 61.8227 457.358 62.1L460.738 62.672C464.309 63.3307 466.805 64.3013 468.226 65.584C469.682 66.8667 470.41 68.7733 470.41 71.304C470.41 73.9387 469.405 76.0187 467.394 77.544C465.418 79.0693 462.471 79.832 458.554 79.832C454.775 79.832 451.742 79.104 449.454 77.648C447.166 76.192 445.901 73.8693 445.658 70.68H453.042C453.285 71.9973 453.839 72.9333 454.706 73.488C455.607 74.0427 456.855 74.32 458.45 74.32C460.079 74.32 461.223 74.06 461.882 73.54C462.541 72.9853 462.87 72.2573 462.87 71.356ZM29.56 123.512C29.56 121.12 30.184 119.283 31.432 118C32.7147 116.683 34.396 115.747 36.476 115.192C38.556 114.637 40.8093 114.325 43.236 114.256L47.136 114.1V113.112C47.136 111.448 46.7893 110.252 46.096 109.524C45.4027 108.796 44.2933 108.432 42.768 108.432C41.2773 108.432 40.1507 108.709 39.388 109.264C38.66 109.784 38.1747 110.564 37.932 111.604L31.016 110.98C31.5013 108.276 32.7493 106.283 34.76 105C36.7707 103.683 39.5093 103.024 42.976 103.024C47.0667 103.024 50.0133 103.943 51.816 105.78C53.6187 107.617 54.52 110.321 54.52 113.892V131H47.396V127.828C46.3213 129.007 45.0907 129.943 43.704 130.636C42.352 131.329 40.7053 131.676 38.764 131.676C36.0253 131.676 33.8067 130.965 32.108 129.544C30.4093 128.123 29.56 126.112 29.56 123.512ZM36.892 123.044C36.892 124.049 37.1867 124.847 37.776 125.436C38.4 125.991 39.388 126.268 40.74 126.268C42.6813 126.268 44.224 125.765 45.368 124.76C46.5467 123.755 47.136 122.351 47.136 120.548V118.676L43.548 118.832C41.052 118.936 39.3187 119.335 38.348 120.028C37.3773 120.721 36.892 121.727 36.892 123.044ZM60.5223 93.872H68.2183V131H60.5223V93.872ZM83.7444 122.16L88.6324 104.064H95.0804L99.9164 121.9L104.024 103.856H111.564L103.816 131H96.5364L91.6484 112.956L86.9164 131H79.4804L71.7844 103.856H79.5844L83.7444 122.16ZM113.197 123.512C113.197 121.12 113.821 119.283 115.069 118C116.351 116.683 118.033 115.747 120.113 115.192C122.193 114.637 124.446 114.325 126.873 114.256L130.773 114.1V113.112C130.773 111.448 130.426 110.252 129.733 109.524C129.039 108.796 127.93 108.432 126.405 108.432C124.914 108.432 123.787 108.709 123.025 109.264C122.297 109.784 121.811 110.564 121.569 111.604L114.653 110.98C115.138 108.276 116.386 106.283 118.397 105C120.407 103.683 123.146 103.024 126.613 103.024C130.703 103.024 133.65 103.943 135.453 105.78C137.255 107.617 138.157 110.321 138.157 113.892V131H131.033V127.828C129.958 129.007 128.727 129.943 127.341 130.636C125.989 131.329 124.342 131.676 122.401 131.676C119.662 131.676 117.443 130.965 115.745 129.544C114.046 128.123 113.197 126.112 113.197 123.512ZM120.529 123.044C120.529 124.049 120.823 124.847 121.413 125.436C122.037 125.991 123.025 126.268 124.377 126.268C126.318 126.268 127.861 125.765 129.005 124.76C130.183 123.755 130.773 122.351 130.773 120.548V118.676L127.185 118.832C124.689 118.936 122.955 119.335 121.985 120.028C121.014 120.721 120.529 121.727 120.529 123.044ZM144.428 135.004C145.121 135.177 145.693 135.299 146.144 135.368C146.629 135.437 147.097 135.472 147.548 135.472C148.553 135.472 149.333 135.16 149.888 134.536C150.477 133.947 151.049 132.889 151.604 131.364L152.384 129.232L141.1 103.856H149.472L155.92 121.328L161.744 103.856H169.804L158.468 132.092C157.566 134.38 156.682 136.217 155.816 137.604C154.984 139.025 154.013 140.048 152.904 140.672C151.829 141.331 150.46 141.66 148.796 141.66C147.825 141.66 146.872 141.591 145.936 141.452C145 141.313 144.081 141.071 143.18 140.724L144.428 135.004ZM188.854 123.356C188.854 122.559 188.612 121.9 188.126 121.38C187.676 120.86 186.74 120.479 185.318 120.236L182.25 119.716C178.853 119.127 176.34 118.208 174.71 116.96C173.081 115.712 172.266 113.84 172.266 111.344C172.266 108.709 173.324 106.664 175.438 105.208C177.588 103.752 180.43 103.024 183.966 103.024C187.814 103.024 190.657 103.735 192.494 105.156C194.332 106.577 195.493 108.484 195.978 110.876L188.802 111.656C188.49 110.547 187.988 109.715 187.294 109.16C186.601 108.571 185.492 108.276 183.966 108.276C182.337 108.276 181.193 108.553 180.534 109.108C179.876 109.663 179.546 110.321 179.546 111.084C179.546 111.881 179.806 112.523 180.326 113.008C180.846 113.459 181.852 113.823 183.342 114.1L186.722 114.672C190.293 115.331 192.789 116.301 194.21 117.584C195.666 118.867 196.394 120.773 196.394 123.304C196.394 125.939 195.389 128.019 193.378 129.544C191.402 131.069 188.456 131.832 184.538 131.832C180.76 131.832 177.726 131.104 175.438 129.648C173.15 128.192 171.885 125.869 171.642 122.68H179.026C179.269 123.997 179.824 124.933 180.69 125.488C181.592 126.043 182.84 126.32 184.434 126.32C186.064 126.32 187.208 126.06 187.866 125.54C188.525 124.985 188.854 124.257 188.854 123.356ZM211.576 117.532C211.576 112.991 212.807 109.437 215.268 106.872C217.729 104.307 221.109 103.024 225.408 103.024C229.741 103.024 233.087 104.272 235.444 106.768C237.836 109.264 239.032 112.783 239.032 117.324C239.032 121.831 237.801 125.384 235.34 127.984C232.913 130.549 229.533 131.832 225.2 131.832C220.867 131.832 217.504 130.584 215.112 128.088C212.755 125.557 211.576 122.039 211.576 117.532ZM219.428 117.428C219.428 119.959 219.896 121.952 220.832 123.408C221.768 124.864 223.241 125.592 225.252 125.592C227.297 125.592 228.788 124.864 229.724 123.408C230.695 121.917 231.18 119.907 231.18 117.376C231.18 114.845 230.695 112.869 229.724 111.448C228.788 109.992 227.297 109.264 225.252 109.264C223.241 109.264 221.768 109.992 220.832 111.448C219.896 112.869 219.428 114.863 219.428 117.428ZM244.349 103.856H251.889V107.444C253.865 104.74 256.431 103.388 259.585 103.388C260.071 103.388 260.521 103.405 260.937 103.44C261.388 103.475 261.804 103.544 262.185 103.648L261.301 110.252C260.851 110.183 260.417 110.131 260.001 110.096C259.585 110.027 259.135 109.992 258.649 109.992C257.817 109.992 257.02 110.113 256.257 110.356C255.529 110.564 254.836 110.928 254.177 111.448C253.519 111.968 252.999 112.609 252.617 113.372C252.236 114.135 252.045 115.036 252.045 116.076V131H244.349V103.856ZM276.22 117.532C276.22 112.991 277.451 109.437 279.912 106.872C282.374 104.307 285.754 103.024 290.052 103.024C294.386 103.024 297.731 104.272 300.088 106.768C302.48 109.264 303.676 112.783 303.676 117.324C303.676 121.831 302.446 125.384 299.984 127.984C297.558 130.549 294.178 131.832 289.844 131.832C285.511 131.832 282.148 130.584 279.756 128.088C277.399 125.557 276.22 122.039 276.22 117.532ZM284.072 117.428C284.072 119.959 284.54 121.952 285.476 123.408C286.412 124.864 287.886 125.592 289.896 125.592C291.942 125.592 293.432 124.864 294.368 123.408C295.339 121.917 295.824 119.907 295.824 117.376C295.824 114.845 295.339 112.869 294.368 111.448C293.432 109.992 291.942 109.264 289.896 109.264C287.886 109.264 286.412 109.992 285.476 111.448C284.54 112.869 284.072 114.863 284.072 117.428ZM311.074 110.616H306.758V104.584H311.074V103.18C311.074 99.956 311.958 97.5293 313.726 95.9C315.528 94.2707 317.886 93.456 320.798 93.456C321.699 93.456 322.652 93.5253 323.658 93.664C324.698 93.8027 325.703 94.0107 326.674 94.288L325.634 99.852C325.079 99.6787 324.542 99.5747 324.022 99.54C323.536 99.4707 323.068 99.436 322.618 99.436C321.439 99.436 320.503 99.7133 319.81 100.268C319.151 100.823 318.822 101.776 318.822 103.128V104.584H325.062V110.616H318.822V131H311.074V110.616ZM332.3 121.328V109.888H327.984V103.856H332.3V96.628H340.048V103.856H346.444V109.888H340.048V121.64C340.048 122.784 340.308 123.685 340.828 124.344C341.348 124.968 342.163 125.28 343.272 125.28C343.862 125.28 344.399 125.245 344.884 125.176C345.404 125.072 345.89 124.951 346.34 124.812L347.38 130.532C346.41 130.844 345.439 131.087 344.468 131.26C343.498 131.433 342.406 131.52 341.192 131.52C337.83 131.52 335.507 130.653 334.224 128.92C332.942 127.187 332.3 124.656 332.3 121.328ZM350.259 117.688C350.259 114.568 350.814 111.916 351.923 109.732C353.033 107.548 354.593 105.884 356.603 104.74C358.614 103.596 360.971 103.024 363.675 103.024C367.87 103.024 371.025 104.255 373.139 106.716C375.289 109.177 376.363 112.471 376.363 116.596V119.144H357.747C358.059 123.893 360.018 126.268 363.623 126.268C365.253 126.268 366.466 125.956 367.263 125.332C368.061 124.708 368.598 123.841 368.875 122.732H376.103C375.583 125.644 374.301 127.897 372.255 129.492C370.21 131.052 367.367 131.832 363.727 131.832C359.394 131.832 356.066 130.601 353.743 128.14C351.421 125.679 350.259 122.195 350.259 117.688ZM369.083 114.724C368.979 112.679 368.546 111.136 367.783 110.096C367.055 109.021 365.686 108.484 363.675 108.484C361.699 108.484 360.278 109.039 359.411 110.148C358.545 111.223 358.007 112.748 357.799 114.724H369.083ZM381.611 103.856H389.151V107.288C390.503 105.659 391.89 104.549 393.311 103.96C394.732 103.336 396.206 103.024 397.731 103.024C400.712 103.024 402.966 103.873 404.491 105.572C406.016 107.236 406.779 109.645 406.779 112.8V131H399.031V114.256C399.031 112.523 398.702 111.292 398.043 110.564C397.419 109.801 396.448 109.42 395.131 109.42C394.368 109.42 393.606 109.559 392.843 109.836C392.115 110.113 391.474 110.547 390.919 111.136C390.399 111.656 390 112.211 389.723 112.8C389.446 113.389 389.307 114.152 389.307 115.088V131H381.611V103.856ZM425.992 110.616H421.676V104.584H425.992V103.18C425.992 99.956 426.876 97.5293 428.644 95.9C430.446 94.2707 432.804 93.456 435.716 93.456C436.617 93.456 437.57 93.5253 438.576 93.664C439.616 93.8027 440.621 94.0107 441.592 94.288L440.552 99.852C439.997 99.6787 439.46 99.5747 438.94 99.54C438.454 99.4707 437.986 99.436 437.536 99.436C436.357 99.436 435.421 99.7133 434.728 100.268C434.069 100.823 433.74 101.776 433.74 103.128V104.584H439.98V110.616H433.74V131H425.992V110.616ZM443.037 117.688C443.037 114.568 443.591 111.916 444.701 109.732C445.81 107.548 447.37 105.884 449.381 104.74C451.391 103.596 453.749 103.024 456.453 103.024C460.647 103.024 463.802 104.255 465.917 106.716C468.066 109.177 469.141 112.471 469.141 116.596V119.144H450.525C450.837 123.893 452.795 126.268 456.401 126.268C458.03 126.268 459.243 125.956 460.041 125.332C460.838 124.708 461.375 123.841 461.653 122.732H468.881C468.361 125.644 467.078 127.897 465.033 129.492C462.987 131.052 460.145 131.832 456.505 131.832C452.171 131.832 448.843 130.601 446.521 128.14C444.198 125.679 443.037 122.195 443.037 117.688ZM461.861 114.724C461.757 112.679 461.323 111.136 460.561 110.096C459.833 109.021 458.463 108.484 456.453 108.484C454.477 108.484 453.055 109.039 452.189 110.148C451.322 111.223 450.785 112.748 450.577 114.724H461.861ZM473.556 117.688C473.556 114.568 474.111 111.916 475.22 109.732C476.33 107.548 477.89 105.884 479.9 104.74C481.911 103.596 484.268 103.024 486.972 103.024C491.167 103.024 494.322 104.255 496.436 106.716C498.586 109.177 499.66 112.471 499.66 116.596V119.144H481.044C481.356 123.893 483.315 126.268 486.92 126.268C488.55 126.268 489.763 125.956 490.56 125.332C491.358 124.708 491.895 123.841 492.172 122.732H499.4C498.88 125.644 497.598 127.897 495.552 129.492C493.507 131.052 490.664 131.832 487.024 131.832C482.691 131.832 479.363 130.601 477.04 128.14C474.718 125.679 473.556 122.195 473.556 117.688ZM492.38 114.724C492.276 112.679 491.843 111.136 491.08 110.096C490.352 109.021 488.983 108.484 486.972 108.484C484.996 108.484 483.575 109.039 482.708 110.148C481.842 111.223 481.304 112.748 481.096 114.724H492.38ZM504.96 93.872H512.656V131H504.96V93.872ZM31.12 145.872H38.816V183H31.12V145.872ZM44.1501 169.532C44.1501 164.991 45.3807 161.437 47.8421 158.872C50.3034 156.307 53.6834 155.024 57.9821 155.024C62.3154 155.024 65.6607 156.272 68.0181 158.768C70.4101 161.264 71.6061 164.783 71.6061 169.324C71.6061 173.831 70.3754 177.384 67.9141 179.984C65.4874 182.549 62.1074 183.832 57.7741 183.832C53.4407 183.832 50.0781 182.584 47.6861 180.088C45.3287 177.557 44.1501 174.039 44.1501 169.532ZM52.0021 169.428C52.0021 171.959 52.4701 173.952 53.4061 175.408C54.3421 176.864 55.8154 177.592 57.8261 177.592C59.8714 177.592 61.3621 176.864 62.2981 175.408C63.2687 173.917 63.7541 171.907 63.7541 169.376C63.7541 166.845 63.2687 164.869 62.2981 163.448C61.3621 161.992 59.8714 161.264 57.8261 161.264C55.8154 161.264 54.3421 161.992 53.4061 163.448C52.4701 164.869 52.0021 166.863 52.0021 169.428ZM76.9235 155.856H84.4635V159.288C85.8155 157.659 87.2021 156.549 88.6235 155.96C90.0448 155.336 91.5181 155.024 93.0435 155.024C96.0248 155.024 98.2781 155.873 99.8035 157.572C101.329 159.236 102.091 161.645 102.091 164.8V183H94.3435V166.256C94.3435 164.523 94.0141 163.292 93.3555 162.564C92.7315 161.801 91.7608 161.42 90.4435 161.42C89.6808 161.42 88.9181 161.559 88.1555 161.836C87.4275 162.113 86.7861 162.547 86.2315 163.136C85.7115 163.656 85.3128 164.211 85.0355 164.8C84.7581 165.389 84.6195 166.152 84.6195 167.088V183H76.9235V155.856ZM107.119 169.688C107.119 166.568 107.673 163.916 108.783 161.732C109.892 159.548 111.452 157.884 113.463 156.74C115.473 155.596 117.831 155.024 120.535 155.024C124.729 155.024 127.884 156.255 129.999 158.716C132.148 161.177 133.223 164.471 133.223 168.596V171.144H114.607C114.919 175.893 116.877 178.268 120.483 178.268C122.112 178.268 123.325 177.956 124.123 177.332C124.92 176.708 125.457 175.841 125.735 174.732H132.963C132.443 177.644 131.16 179.897 129.115 181.492C127.069 183.052 124.227 183.832 120.587 183.832C116.253 183.832 112.925 182.601 110.603 180.14C108.28 177.679 107.119 174.195 107.119 169.688ZM125.943 166.724C125.839 164.679 125.405 163.136 124.643 162.096C123.915 161.021 122.545 160.484 120.535 160.484C118.559 160.484 117.137 161.039 116.271 162.148C115.404 163.223 114.867 164.748 114.659 166.724H125.943ZM138.522 145.872H146.218V183H138.522V145.872ZM153.06 187.004C153.754 187.177 154.326 187.299 154.776 187.368C155.262 187.437 155.73 187.472 156.18 187.472C157.186 187.472 157.966 187.16 158.52 186.536C159.11 185.947 159.682 184.889 160.236 183.364L161.016 181.232L149.732 155.856H158.104L164.552 173.328L170.376 155.856H178.436L167.1 184.092C166.199 186.38 165.315 188.217 164.448 189.604C163.616 191.025 162.646 192.048 161.536 192.672C160.462 193.331 159.092 193.66 157.428 193.66C156.458 193.66 155.504 193.591 154.568 193.452C153.632 193.313 152.714 193.071 151.812 192.724L153.06 187.004ZM189.871 170.78C189.871 169.567 189.992 168.527 190.235 167.66C190.512 166.759 191.015 165.84 191.743 164.904C192.471 163.933 193.511 162.789 194.863 161.472C195.799 160.536 196.527 159.687 197.047 158.924C197.601 158.127 197.879 157.173 197.879 156.064C197.879 154.643 197.497 153.568 196.735 152.84C196.007 152.077 194.932 151.696 193.511 151.696C191.881 151.696 190.633 152.095 189.767 152.892C188.935 153.689 188.328 154.955 187.947 156.688L180.823 155.908C181.239 152.788 182.504 150.24 184.619 148.264C186.733 146.253 189.819 145.248 193.875 145.248C197.688 145.248 200.617 146.132 202.663 147.9C204.708 149.668 205.731 152.008 205.731 154.92C205.731 156.827 205.315 158.491 204.483 159.912C203.685 161.333 202.559 162.703 201.103 164.02C199.959 165.06 199.075 165.961 198.451 166.724C197.861 167.452 197.445 168.163 197.203 168.856C196.995 169.515 196.891 170.26 196.891 171.092V171.664H189.871V170.78ZM189.611 175.252H197.099V183H189.611V175.252Z" fill="#FAECDC"/>
<path d="M256.808 281.02C258.125 279.911 259.564 278.697 261.124 277.38C262.684 276.028 264.123 274.78 265.44 273.636C267.555 271.833 269.236 270.291 270.484 269.008C271.732 267.725 272.633 266.512 273.188 265.368C273.777 264.224 274.072 262.976 274.072 261.624C274.072 260.029 273.673 258.816 272.876 257.984C272.079 257.152 270.935 256.736 269.444 256.736C267.641 256.736 266.324 257.169 265.492 258.036C264.66 258.868 264.053 260.168 263.672 261.936L256.236 261.104C256.617 258.989 257.328 257.117 258.368 255.488C259.408 253.824 260.864 252.507 262.736 251.536C264.608 250.565 266.931 250.08 269.704 250.08C273.621 250.08 276.637 251.068 278.752 253.044C280.867 255.02 281.924 257.672 281.924 261C281.924 262.768 281.629 264.415 281.04 265.94C280.451 267.431 279.515 268.939 278.232 270.464C276.984 271.955 275.337 273.619 273.292 275.456C272.46 276.219 271.559 277.016 270.588 277.848C269.617 278.68 268.56 279.547 267.416 280.448H282.444L281.612 287H256.808V281.02ZM286.645 269.112C286.645 262.595 287.807 257.793 290.129 254.708C292.487 251.623 295.867 250.08 300.269 250.08C304.707 250.08 308.052 251.605 310.305 254.656C312.559 257.707 313.685 262.473 313.685 268.956C313.685 275.473 312.524 280.275 310.201 283.36C307.913 286.411 304.533 287.936 300.061 287.936C295.659 287.936 292.313 286.428 290.025 283.412C287.772 280.361 286.645 275.595 286.645 269.112ZM294.653 269.06C294.653 273.255 295.052 276.323 295.849 278.264C296.647 280.205 298.085 281.176 300.165 281.176C302.211 281.176 303.632 280.205 304.429 278.264C305.261 276.288 305.677 273.22 305.677 269.06C305.677 264.865 305.261 261.78 304.429 259.804C303.632 257.828 302.211 256.84 300.165 256.84C298.085 256.84 296.647 257.828 295.849 259.804C295.052 261.745 294.653 264.831 294.653 269.06ZM345.655 251.068H352.883L335.775 287H328.599L345.655 251.068ZM345.239 276.548C345.239 272.839 346.106 270.048 347.839 268.176C349.607 266.304 351.912 265.368 354.755 265.368C357.632 265.368 359.938 266.304 361.671 268.176C363.404 270.048 364.271 272.839 364.271 276.548C364.271 280.223 363.422 282.996 361.723 284.868C360.024 286.74 357.702 287.676 354.755 287.676C351.878 287.676 349.572 286.74 347.839 284.868C346.106 282.996 345.239 280.223 345.239 276.548ZM351.479 276.548C351.479 278.628 351.756 280.119 352.311 281.02C352.866 281.921 353.68 282.372 354.755 282.372C355.864 282.372 356.679 281.921 357.199 281.02C357.754 280.119 358.031 278.628 358.031 276.548C358.031 274.503 357.754 273.029 357.199 272.128C356.679 271.192 355.864 270.724 354.755 270.724C353.68 270.724 352.866 271.175 352.311 272.076C351.756 272.977 351.479 274.468 351.479 276.548ZM317.211 261.572C317.211 257.863 318.078 255.072 319.811 253.2C321.579 251.328 323.884 250.392 326.727 250.392C329.604 250.392 331.91 251.328 333.643 253.2C335.376 255.072 336.243 257.863 336.243 261.572C336.243 265.247 335.394 268.02 333.695 269.892C331.996 271.764 329.674 272.7 326.727 272.7C323.85 272.7 321.544 271.764 319.811 269.892C318.078 268.02 317.211 265.247 317.211 261.572ZM323.451 261.572C323.451 263.652 323.728 265.143 324.283 266.044C324.838 266.945 325.652 267.396 326.727 267.396C327.836 267.396 328.651 266.945 329.171 266.044C329.726 265.143 330.003 263.652 330.003 261.572C330.003 259.527 329.726 258.053 329.171 257.152C328.651 256.216 327.836 255.748 326.727 255.748C325.652 255.748 324.838 256.199 324.283 257.1C323.728 258.001 323.451 259.492 323.451 261.572ZM255.26 315.748C255.26 314.143 255.559 312.761 256.156 311.604C256.753 310.447 257.593 309.56 258.676 308.944C259.777 308.309 261.075 307.992 262.568 307.992C264.845 307.992 266.619 308.673 267.888 310.036C269.157 311.38 269.792 313.247 269.792 315.636C269.792 318.063 269.139 319.976 267.832 321.376C266.544 322.757 264.761 323.448 262.484 323.448C260.188 323.448 258.405 322.776 257.136 321.432C255.885 320.069 255.26 318.175 255.26 315.748ZM258.9 315.692C258.9 317.167 259.18 318.352 259.74 319.248C260.319 320.144 261.243 320.592 262.512 320.592C263.781 320.592 264.705 320.144 265.284 319.248C265.863 318.352 266.152 317.167 266.152 315.692C266.152 314.217 265.863 313.041 265.284 312.164C264.705 311.287 263.781 310.848 262.512 310.848C261.261 310.848 260.347 311.287 259.768 312.164C259.189 313.041 258.9 314.217 258.9 315.692ZM273.835 311.464H271.511V308.692H273.835V307.74C273.835 306.079 274.292 304.837 275.207 304.016C276.14 303.195 277.316 302.784 278.735 302.784C279.687 302.784 280.667 302.924 281.675 303.204L281.171 305.78C280.872 305.687 280.583 305.631 280.303 305.612C280.041 305.575 279.78 305.556 279.519 305.556C278.884 305.556 278.361 305.715 277.951 306.032C277.559 306.349 277.363 306.9 277.363 307.684V308.692H280.835V311.464H277.363V323H273.835V311.464ZM288.841 313.06C288.841 310.969 289.196 309.131 289.905 307.544C290.633 305.957 291.688 304.725 293.069 303.848C294.469 302.952 296.159 302.504 298.137 302.504C300.471 302.504 302.281 303.055 303.569 304.156C304.876 305.239 305.716 306.704 306.089 308.552L302.421 309C302.16 307.973 301.712 307.161 301.077 306.564C300.443 305.967 299.453 305.668 298.109 305.668C296.84 305.668 295.804 305.985 295.001 306.62C294.217 307.255 293.639 308.123 293.265 309.224C292.892 310.307 292.705 311.557 292.705 312.976C292.705 315.272 293.172 317.073 294.105 318.38C295.057 319.668 296.532 320.312 298.529 320.312C299.369 320.312 300.163 320.219 300.909 320.032C301.656 319.845 302.328 319.556 302.925 319.164V315.328H298.613V312.276H306.425V320.76C305.399 321.656 304.167 322.337 302.729 322.804C301.292 323.271 299.855 323.504 298.417 323.504C295.356 323.504 292.995 322.589 291.333 320.76C289.672 318.912 288.841 316.345 288.841 313.06ZM309.237 315.832C309.237 314.152 309.535 312.733 310.133 311.576C310.73 310.4 311.561 309.513 312.625 308.916C313.689 308.3 314.921 307.992 316.321 307.992C317.833 307.992 319.083 308.3 320.073 308.916C321.062 309.513 321.799 310.353 322.285 311.436C322.77 312.519 323.013 313.779 323.013 315.216V316.532H312.709C312.783 317.932 313.119 318.996 313.717 319.724C314.314 320.452 315.182 320.816 316.321 320.816C317.31 320.816 318.047 320.629 318.533 320.256C319.018 319.883 319.345 319.36 319.513 318.688H322.817C322.574 320.181 321.921 321.348 320.857 322.188C319.793 323.028 318.29 323.448 316.349 323.448C314.071 323.448 312.317 322.785 311.085 321.46C309.853 320.116 309.237 318.24 309.237 315.832ZM319.625 314.348C319.569 313.116 319.307 312.173 318.841 311.52C318.374 310.867 317.534 310.54 316.321 310.54C315.107 310.54 314.239 310.895 313.717 311.604C313.194 312.295 312.867 313.209 312.737 314.348H319.625ZM325.982 308.44H329.426V310.456C330.154 309.541 330.919 308.907 331.722 308.552C332.525 308.179 333.355 307.992 334.214 307.992C335.819 307.992 337.033 308.449 337.854 309.364C338.675 310.26 339.086 311.557 339.086 313.256V323H335.558V313.928C335.558 312.845 335.353 312.08 334.942 311.632C334.55 311.165 333.943 310.932 333.122 310.932C332.655 310.932 332.198 311.016 331.75 311.184C331.321 311.352 330.929 311.613 330.574 311.968C330.219 312.285 329.949 312.631 329.762 313.004C329.594 313.359 329.51 313.835 329.51 314.432V323H325.982V308.44ZM351.145 323H347.113L353.889 312.472L347.617 303.008H351.873L356.241 310.036L360.637 303.008H364.641L358.397 312.64L365.397 323H361.169L356.045 315.048L351.145 323Z" fill="#FAECDC"/>
<path d="M416.092 258.648L409.436 263.016L405.9 257.452L417.236 250.068H423.944V286H416.092V258.648ZM453.417 274.352C453.417 272.515 453.019 271.093 452.221 270.088C451.424 269.083 450.107 268.58 448.269 268.58C447.091 268.58 446.085 268.753 445.253 269.1C444.456 269.447 443.711 270.019 443.017 270.816H436.257L438.077 250.068H458.929V256.62H444.213L443.537 264.368C445.305 263.155 447.507 262.548 450.141 262.548C452.568 262.548 454.579 263.068 456.173 264.108C457.803 265.113 459.016 266.5 459.813 268.268C460.645 270.036 461.061 272.081 461.061 274.404C461.061 278.46 459.952 281.563 457.733 283.712C455.515 285.861 452.412 286.936 448.425 286.936C444.508 286.936 441.44 286 439.221 284.128C437.003 282.256 435.755 279.535 435.477 275.964H443.017C443.295 277.524 443.832 278.668 444.629 279.396C445.427 280.124 446.64 280.488 448.269 280.488C449.933 280.488 451.199 280.003 452.065 279.032C452.967 278.027 453.417 276.467 453.417 274.352ZM493.655 250.068H500.883L483.775 286H476.599L493.655 250.068ZM493.239 275.548C493.239 271.839 494.106 269.048 495.839 267.176C497.607 265.304 499.912 264.368 502.755 264.368C505.632 264.368 507.938 265.304 509.671 267.176C511.404 269.048 512.271 271.839 512.271 275.548C512.271 279.223 511.422 281.996 509.723 283.868C508.024 285.74 505.702 286.676 502.755 286.676C499.878 286.676 497.572 285.74 495.839 283.868C494.106 281.996 493.239 279.223 493.239 275.548ZM499.479 275.548C499.479 277.628 499.756 279.119 500.311 280.02C500.866 280.921 501.68 281.372 502.755 281.372C503.864 281.372 504.679 280.921 505.199 280.02C505.754 279.119 506.031 277.628 506.031 275.548C506.031 273.503 505.754 272.029 505.199 271.128C504.679 270.192 503.864 269.724 502.755 269.724C501.68 269.724 500.866 270.175 500.311 271.076C499.756 271.977 499.479 273.468 499.479 275.548ZM465.211 260.572C465.211 256.863 466.078 254.072 467.811 252.2C469.579 250.328 471.884 249.392 474.727 249.392C477.604 249.392 479.91 250.328 481.643 252.2C483.376 254.072 484.243 256.863 484.243 260.572C484.243 264.247 483.394 267.02 481.695 268.892C479.996 270.764 477.674 271.7 474.727 271.7C471.85 271.7 469.544 270.764 467.811 268.892C466.078 267.02 465.211 264.247 465.211 260.572ZM471.451 260.572C471.451 262.652 471.728 264.143 472.283 265.044C472.838 265.945 473.652 266.396 474.727 266.396C475.836 266.396 476.651 265.945 477.171 265.044C477.726 264.143 478.003 262.652 478.003 260.572C478.003 258.527 477.726 257.053 477.171 256.152C476.651 255.216 475.836 254.748 474.727 254.748C473.652 254.748 472.838 255.199 472.283 256.1C471.728 257.001 471.451 258.492 471.451 260.572ZM403.26 314.748C403.26 313.143 403.559 311.761 404.156 310.604C404.753 309.447 405.593 308.56 406.676 307.944C407.777 307.309 409.075 306.992 410.568 306.992C412.845 306.992 414.619 307.673 415.888 309.036C417.157 310.38 417.792 312.247 417.792 314.636C417.792 317.063 417.139 318.976 415.832 320.376C414.544 321.757 412.761 322.448 410.484 322.448C408.188 322.448 406.405 321.776 405.136 320.432C403.885 319.069 403.26 317.175 403.26 314.748ZM406.9 314.692C406.9 316.167 407.18 317.352 407.74 318.248C408.319 319.144 409.243 319.592 410.512 319.592C411.781 319.592 412.705 319.144 413.284 318.248C413.863 317.352 414.152 316.167 414.152 314.692C414.152 313.217 413.863 312.041 413.284 311.164C412.705 310.287 411.781 309.848 410.512 309.848C409.261 309.848 408.347 310.287 407.768 311.164C407.189 312.041 406.9 313.217 406.9 314.692ZM421.835 310.464H419.511V307.692H421.835V306.74C421.835 305.079 422.292 303.837 423.207 303.016C424.14 302.195 425.316 301.784 426.735 301.784C427.687 301.784 428.667 301.924 429.675 302.204L429.171 304.78C428.872 304.687 428.583 304.631 428.303 304.612C428.041 304.575 427.78 304.556 427.519 304.556C426.884 304.556 426.361 304.715 425.951 305.032C425.559 305.349 425.363 305.9 425.363 306.684V307.692H428.835V310.464H425.363V322H421.835V310.464ZM437.485 302.008H444.961C446.753 302.008 448.163 302.232 449.189 302.68C450.216 303.109 450.944 303.707 451.373 304.472C451.803 305.237 452.017 306.124 452.017 307.132C452.017 308.065 451.803 308.896 451.373 309.624C450.963 310.333 450.272 310.931 449.301 311.416C450.533 311.901 451.392 312.564 451.877 313.404C452.363 314.244 452.605 315.168 452.605 316.176C452.605 317.315 452.353 318.323 451.849 319.2C451.345 320.077 450.552 320.768 449.469 321.272C448.405 321.757 446.996 322 445.241 322H437.485V302.008ZM448.965 316.092C448.965 315.065 448.667 314.291 448.069 313.768C447.472 313.245 446.483 312.984 445.101 312.984H441.013V319.116H444.961C446.511 319.116 447.565 318.855 448.125 318.332C448.685 317.809 448.965 317.063 448.965 316.092ZM448.405 307.496C448.405 306.563 448.116 305.9 447.537 305.508C446.959 305.097 445.969 304.892 444.569 304.892H441.013V310.184H444.877C446.128 310.184 447.024 309.96 447.565 309.512C448.125 309.064 448.405 308.392 448.405 307.496ZM454.548 317.968C454.548 317.016 454.744 316.223 455.136 315.588C455.546 314.953 456.097 314.459 456.788 314.104C457.478 313.731 458.262 313.469 459.14 313.32C460.036 313.152 460.969 313.049 461.94 313.012L464.18 312.928V312.396C464.18 311.388 463.965 310.66 463.536 310.212C463.106 309.745 462.416 309.512 461.464 309.512C460.53 309.512 459.84 309.68 459.392 310.016C458.944 310.333 458.645 310.791 458.496 311.388L455.332 311.108C455.593 309.689 456.246 308.653 457.292 308C458.337 307.328 459.765 306.992 461.576 306.992C463.741 306.992 465.281 307.487 466.196 308.476C467.11 309.447 467.568 310.856 467.568 312.704V322H464.292V320.208C463.732 320.843 463.069 321.365 462.304 321.776C461.538 322.168 460.614 322.364 459.532 322.364C458.057 322.364 456.853 321.991 455.92 321.244C455.005 320.479 454.548 319.387 454.548 317.968ZM457.964 317.8C457.964 318.397 458.15 318.883 458.524 319.256C458.897 319.611 459.504 319.788 460.344 319.788C461.501 319.788 462.425 319.489 463.116 318.892C463.825 318.295 464.18 317.455 464.18 316.372V315.14L462.108 315.224C460.521 315.28 459.429 315.523 458.832 315.952C458.253 316.381 457.964 316.997 457.964 317.8ZM474.391 322H470.947V302.008H474.475V309.148C475.035 308.457 475.688 307.925 476.435 307.552C477.182 307.179 478.031 306.992 478.983 306.992C480.999 306.992 482.511 307.683 483.519 309.064C484.527 310.445 485.031 312.284 485.031 314.58C485.031 316.185 484.77 317.585 484.247 318.78C483.743 319.956 483.024 320.861 482.091 321.496C481.158 322.131 480.038 322.448 478.731 322.448C477.91 322.448 477.116 322.28 476.351 321.944C475.604 321.608 474.951 321.057 474.391 320.292V322ZM474.447 314.244V315.056C474.447 316.624 474.764 317.772 475.399 318.5C476.034 319.228 476.883 319.592 477.947 319.592C478.974 319.592 479.804 319.219 480.439 318.472C481.092 317.707 481.419 316.437 481.419 314.664C481.419 313.469 481.26 312.527 480.943 311.836C480.644 311.127 480.243 310.623 479.739 310.324C479.235 310.007 478.684 309.848 478.087 309.848C477.004 309.848 476.127 310.231 475.455 310.996C474.783 311.761 474.447 312.844 474.447 314.244ZM487.795 324.604C488.411 324.791 488.953 324.884 489.419 324.884C489.979 324.884 490.418 324.707 490.735 324.352C491.053 324.016 491.37 323.419 491.687 322.56L492.163 321.244L486.087 307.44H489.979L493.843 317.576L497.343 307.44H501.095L494.907 322.868C494.459 323.988 494.021 324.903 493.591 325.612C493.181 326.34 492.695 326.872 492.135 327.208C491.575 327.563 490.857 327.74 489.979 327.74C489.027 327.74 488.103 327.591 487.207 327.292L487.795 324.604ZM509.482 302.008H516.958C518.75 302.008 520.159 302.232 521.186 302.68C522.212 303.109 522.94 303.707 523.37 304.472C523.799 305.237 524.014 306.124 524.014 307.132C524.014 308.065 523.799 308.896 523.37 309.624C522.959 310.333 522.268 310.931 521.298 311.416C522.53 311.901 523.388 312.564 523.874 313.404C524.359 314.244 524.602 315.168 524.602 316.176C524.602 317.315 524.35 318.323 523.846 319.2C523.342 320.077 522.548 320.768 521.466 321.272C520.402 321.757 518.992 322 517.238 322H509.482V302.008ZM520.962 316.092C520.962 315.065 520.663 314.291 520.066 313.768C519.468 313.245 518.479 312.984 517.098 312.984H513.01V319.116H516.958C518.507 319.116 519.562 318.855 520.122 318.332C520.682 317.809 520.962 317.063 520.962 316.092ZM520.402 307.496C520.402 306.563 520.112 305.9 519.534 305.508C518.955 305.097 517.966 304.892 516.566 304.892H513.01V310.184H516.874C518.124 310.184 519.02 309.96 519.562 309.512C520.122 309.064 520.402 308.392 520.402 307.496ZM526.936 314.748C526.936 313.143 527.234 311.761 527.832 310.604C528.429 309.447 529.269 308.56 530.352 307.944C531.453 307.309 532.75 306.992 534.244 306.992C536.521 306.992 538.294 307.673 539.564 309.036C540.833 310.38 541.468 312.247 541.468 314.636C541.468 317.063 540.814 318.976 539.508 320.376C538.22 321.757 536.437 322.448 534.16 322.448C531.864 322.448 530.081 321.776 528.812 320.432C527.561 319.069 526.936 317.175 526.936 314.748ZM530.576 314.692C530.576 316.167 530.856 317.352 531.416 318.248C531.994 319.144 532.918 319.592 534.188 319.592C535.457 319.592 536.381 319.144 536.96 318.248C537.538 317.352 537.828 316.167 537.828 314.692C537.828 313.217 537.538 312.041 536.96 311.164C536.381 310.287 535.457 309.848 534.188 309.848C532.937 309.848 532.022 310.287 531.444 311.164C530.865 312.041 530.576 313.217 530.576 314.692ZM543.998 314.748C543.998 313.143 544.297 311.761 544.894 310.604C545.492 309.447 546.332 308.56 547.414 307.944C548.516 307.309 549.813 306.992 551.306 306.992C553.584 306.992 555.357 307.673 556.626 309.036C557.896 310.38 558.53 312.247 558.53 314.636C558.53 317.063 557.877 318.976 556.57 320.376C555.282 321.757 553.5 322.448 551.222 322.448C548.926 322.448 547.144 321.776 545.874 320.432C544.624 319.069 543.998 317.175 543.998 314.748ZM547.638 314.692C547.638 316.167 547.918 317.352 548.478 318.248C549.057 319.144 549.981 319.592 551.25 319.592C552.52 319.592 553.444 319.144 554.022 318.248C554.601 317.352 554.89 316.167 554.89 314.692C554.89 313.217 554.601 312.041 554.022 311.164C553.444 310.287 552.52 309.848 551.25 309.848C550 309.848 549.085 310.287 548.506 311.164C547.928 312.041 547.638 313.217 547.638 314.692ZM561.537 307.44H564.981V309.428C565.597 308.607 566.278 308 567.025 307.608C567.771 307.197 568.546 306.992 569.349 306.992C570.357 306.992 571.197 307.216 571.869 307.664C572.541 308.093 573.045 308.709 573.381 309.512C574.631 307.832 576.218 306.992 578.141 306.992C579.578 306.992 580.689 307.403 581.473 308.224C582.257 309.027 582.649 310.287 582.649 312.004V322H579.121V312.62C579.121 311.593 578.943 310.893 578.589 310.52C578.234 310.128 577.721 309.932 577.049 309.932C576.694 309.932 576.321 309.997 575.929 310.128C575.537 310.259 575.163 310.483 574.809 310.8C574.529 311.061 574.295 311.369 574.109 311.724C573.941 312.079 573.857 312.48 573.857 312.928V322H570.329V312.648C570.329 311.659 570.151 310.959 569.797 310.548C569.442 310.137 568.938 309.932 568.285 309.932C567.482 309.932 566.735 310.259 566.045 310.912C565.802 311.155 565.578 311.463 565.373 311.836C565.167 312.209 565.065 312.695 565.065 313.292V322H561.537V307.44ZM585.533 314.832C585.533 313.152 585.832 311.733 586.429 310.576C587.027 309.4 587.857 308.513 588.921 307.916C589.985 307.3 591.217 306.992 592.617 306.992C594.129 306.992 595.38 307.3 596.369 307.916C597.359 308.513 598.096 309.353 598.581 310.436C599.067 311.519 599.309 312.779 599.309 314.216V315.532H589.005C589.08 316.932 589.416 317.996 590.013 318.724C590.611 319.452 591.479 319.816 592.617 319.816C593.607 319.816 594.344 319.629 594.829 319.256C595.315 318.883 595.641 318.36 595.809 317.688H599.113C598.871 319.181 598.217 320.348 597.153 321.188C596.089 322.028 594.587 322.448 592.645 322.448C590.368 322.448 588.613 321.785 587.381 320.46C586.149 319.116 585.533 317.24 585.533 314.832ZM595.921 313.348C595.865 312.116 595.604 311.173 595.137 310.52C594.671 309.867 593.831 309.54 592.617 309.54C591.404 309.54 590.536 309.895 590.013 310.604C589.491 311.295 589.164 312.209 589.033 313.348H595.921ZM602.279 307.44H605.723V309.484C606.806 307.953 608.196 307.188 609.895 307.188C610.156 307.188 610.399 307.197 610.623 307.216C610.866 307.235 611.08 307.263 611.267 307.3L610.847 310.408C610.436 310.296 609.998 310.24 609.531 310.24C609.064 310.24 608.616 310.315 608.187 310.464C607.776 310.595 607.384 310.819 607.011 311.136C606.638 311.435 606.339 311.799 606.115 312.228C605.91 312.657 605.807 313.171 605.807 313.768V322H602.279V307.44ZM621.95 317.996C621.95 317.511 621.81 317.1 621.53 316.764C621.25 316.428 620.671 316.195 619.794 316.064L618.058 315.784C616.303 315.504 614.987 315.037 614.11 314.384C613.251 313.731 612.822 312.732 612.822 311.388C612.822 310.007 613.382 308.933 614.502 308.168C615.641 307.384 617.115 306.992 618.926 306.992C620.307 306.992 621.418 307.169 622.258 307.524C623.117 307.86 623.77 308.336 624.218 308.952C624.685 309.568 625.002 310.287 625.17 311.108L621.922 311.528C621.717 310.856 621.409 310.352 620.998 310.016C620.587 309.661 619.906 309.484 618.954 309.484C617.909 309.484 617.181 309.661 616.77 310.016C616.359 310.371 616.154 310.781 616.154 311.248C616.154 311.733 616.303 312.125 616.602 312.424C616.919 312.704 617.535 312.919 618.45 313.068L620.382 313.404C622.211 313.74 623.509 314.253 624.274 314.944C625.039 315.616 625.422 316.624 625.422 317.968C625.422 319.312 624.899 320.395 623.854 321.216C622.827 322.037 621.287 322.448 619.234 322.448C617.311 322.448 615.734 322.075 614.502 321.328C613.27 320.563 612.598 319.321 612.486 317.604H615.846C615.995 318.425 616.341 319.004 616.882 319.34C617.442 319.676 618.207 319.844 619.178 319.844C620.167 319.844 620.877 319.676 621.306 319.34C621.735 319.004 621.95 318.556 621.95 317.996Z" fill="#FAECDC"/>
<path d="M204.772 282.884L210.064 267.008H214.04L206.844 287H202.588L195.42 267.008H199.536L204.772 282.884ZM227.389 281.512C227.389 280.859 227.183 280.28 226.773 279.776C226.381 279.272 225.559 278.908 224.309 278.684L221.733 278.208C219.661 277.835 218.083 277.219 217.001 276.36C215.937 275.483 215.405 274.139 215.405 272.328C215.405 271.04 215.731 269.967 216.385 269.108C217.057 268.249 217.971 267.605 219.129 267.176C220.286 266.728 221.621 266.504 223.133 266.504C224.869 266.504 226.269 266.756 227.333 267.26C228.415 267.745 229.227 268.399 229.769 269.22C230.329 270.041 230.693 270.965 230.861 271.992L227.305 272.496C227.043 271.488 226.614 270.741 226.017 270.256C225.419 269.752 224.449 269.5 223.105 269.5C221.63 269.5 220.594 269.752 219.997 270.256C219.399 270.76 219.101 271.395 219.101 272.16C219.101 272.944 219.325 273.541 219.773 273.952C220.221 274.363 221.033 274.671 222.209 274.876L224.981 275.408C227.146 275.819 228.723 276.491 229.713 277.424C230.702 278.357 231.197 279.692 231.197 281.428C231.197 283.201 230.534 284.657 229.209 285.796C227.902 286.935 225.961 287.504 223.385 287.504C220.902 287.504 218.923 286.981 217.449 285.936C215.974 284.891 215.143 283.257 214.957 281.036H218.681C218.867 282.231 219.343 283.108 220.109 283.668C220.874 284.209 222.003 284.48 223.497 284.48C224.953 284.48 225.961 284.2 226.521 283.64C227.099 283.061 227.389 282.352 227.389 281.512Z" fill="#FAECDC"/>
</svg>
