<svg width="34" height="34" viewBox="0 0 34 34" fill="none" xmlns="http://www.w3.org/2000/svg">
<g clip-path="url(#clip0_760_8)">
<path d="M8.67973 4.29123C8.68631 5.131 8.3621 5.93961 7.77721 6.54223C7.19232 7.14485 6.39374 7.49304 5.55415 7.51152C4.71632 7.48108 3.92222 7.1299 3.33598 6.53055C2.74975 5.93121 2.4162 5.12953 2.4043 4.29123C2.4405 3.47427 2.78616 2.70169 3.37114 2.13025C3.95611 1.5588 4.73657 1.23132 5.55415 1.21423C6.36933 1.23164 7.14702 1.55995 7.72806 2.13196C8.3091 2.70398 8.64955 3.47643 8.67973 4.29123ZM2.74187 13.2332C2.74187 11.3827 3.91973 11.6717 5.55415 11.6717C7.18858 11.6717 8.34215 11.3827 8.34215 13.2332V31.2629C8.34215 33.1378 7.1643 32.7541 5.55415 32.7541C3.94401 32.7541 2.74187 33.1378 2.74187 31.2629V13.2332ZM13.1993 13.2357C13.1993 12.2011 13.583 11.8149 14.1829 11.6959C14.7827 11.5769 16.8543 11.6959 17.5732 11.6959C18.2944 11.6959 18.5834 12.8738 18.5592 13.7627C19.1768 12.9357 19.9959 12.2806 20.9383 11.8598C21.8808 11.4389 22.9153 11.2663 23.9433 11.3584C24.953 11.2967 25.9643 11.4481 26.9117 11.8028C27.859 12.1574 28.7212 12.7074 29.4421 13.4169C30.1631 14.1264 30.7268 14.9797 31.0966 15.9212C31.4663 16.8628 31.6339 17.8716 31.5884 18.8821V31.1901C31.5884 33.0649 30.4349 32.6812 28.798 32.6812C27.1612 32.6812 26.01 33.0649 26.01 31.1901V21.5754C26.0523 21.0806 25.9877 20.5825 25.8205 20.115C25.6533 19.6474 25.3874 19.2213 25.0409 18.8656C24.6944 18.5098 24.2754 18.2329 23.8124 18.0534C23.3494 17.874 22.8531 17.7963 22.3574 17.8257C21.8637 17.8127 21.3727 17.9048 20.9173 18.0959C20.4618 18.287 20.0521 18.5728 19.7154 18.9342C19.3788 19.2957 19.1228 19.7246 18.9645 20.1925C18.8062 20.6604 18.7491 21.1566 18.7972 21.6482V31.2629C18.7972 33.1378 17.6193 32.7541 15.9849 32.7541C14.3504 32.7541 13.1969 33.1378 13.1969 31.2629L13.1993 13.2357Z" stroke="#FAECDC" stroke-width="1.5" stroke-linecap="round" stroke-linejoin="round"/>
</g>
<defs>
<clipPath id="clip0_760_8">
<rect width="34" height="34" fill="white"/>
</clipPath>
</defs>
</svg>
