<svg width="54" height="54" viewBox="0 0 54 54" fill="none" xmlns="http://www.w3.org/2000/svg">
<path fill-rule="evenodd" clip-rule="evenodd" d="M28.1934 46.1925C27.877 46.5085 27.4481 46.686 27.0009 46.686C26.5537 46.686 26.1248 46.5085 25.8084 46.1925L12.3084 32.6925C12.1426 32.538 12.0096 32.3517 11.9174 32.1447C11.8251 31.9377 11.7755 31.7143 11.7715 31.4877C11.7676 31.2611 11.8092 31.0361 11.8941 30.8259C11.979 30.6158 12.1053 30.4249 12.2655 30.2647C12.4258 30.1044 12.6167 29.9781 12.8268 29.8932C13.0369 29.8084 13.262 29.7667 13.4886 29.7707C13.7151 29.7747 13.9386 29.8243 14.1456 29.9165C14.3526 30.0087 14.5389 30.1417 14.6934 30.3075L25.3134 40.9275L25.3134 9.00002C25.3134 8.55247 25.4912 8.12325 25.8076 7.80678C26.1241 7.49031 26.5533 7.31252 27.0009 7.31252C27.4484 7.31252 27.8776 7.49031 28.1941 7.80678C28.5106 8.12325 28.6884 8.55247 28.6884 9.00002L28.6884 40.9275L39.3084 30.3075C39.4629 30.1417 39.6492 30.0087 39.8562 29.9165C40.0632 29.8243 40.2866 29.7747 40.5132 29.7707C40.7398 29.7667 40.9648 29.8084 41.175 29.8932C41.3851 29.9781 41.576 30.1044 41.7362 30.2647C41.8965 30.4249 42.0228 30.6158 42.1077 30.8259C42.1925 31.036 42.2342 31.2611 42.2302 31.4877C42.2262 31.7143 42.1766 31.9377 42.0844 32.1447C41.9921 32.3517 41.8592 32.538 41.6934 32.6925L28.1934 46.1925Z" fill="#FAECDC"/>
</svg>
