<svg width="1031" height="593" viewBox="0 0 1031 593" fill="none" xmlns="http://www.w3.org/2000/svg">
<rect x="0.5" y="487.5" width="498" height="105" rx="12" fill="#F2E7E5"/>
<rect x="1" y="488" width="497" height="104" rx="11.5" stroke="#33241F" stroke-opacity="0.5"/>
<path d="M202.328 517.5H198.09V504.409H202.462C203.744 504.409 204.846 504.671 205.766 505.195C206.687 505.715 207.392 506.463 207.882 507.439C208.377 508.411 208.624 509.576 208.624 510.935C208.624 512.299 208.374 513.471 207.876 514.451C207.381 515.431 206.666 516.185 205.728 516.714C204.791 517.238 203.657 517.5 202.328 517.5ZM200.065 515.774H202.219C203.216 515.774 204.045 515.587 204.705 515.212C205.366 514.832 205.86 514.285 206.188 513.569C206.516 512.849 206.68 511.971 206.68 510.935C206.68 509.908 206.516 509.037 206.188 508.321C205.864 507.605 205.381 507.062 204.737 506.691C204.094 506.32 203.295 506.135 202.34 506.135H200.065V515.774ZM210.926 517.5V507.682H212.838V517.5H210.926ZM211.892 506.167C211.559 506.167 211.274 506.056 211.035 505.835C210.801 505.609 210.684 505.34 210.684 505.029C210.684 504.714 210.801 504.445 211.035 504.224C211.274 503.998 211.559 503.885 211.892 503.885C212.224 503.885 212.507 503.998 212.742 504.224C212.98 504.445 213.1 504.714 213.1 505.029C213.1 505.34 212.98 505.609 212.742 505.835C212.507 506.056 212.224 506.167 211.892 506.167ZM222.766 510.079L221.034 510.386C220.961 510.164 220.846 509.953 220.689 509.753C220.535 509.553 220.326 509.388 220.062 509.261C219.798 509.133 219.468 509.069 219.071 509.069C218.53 509.069 218.079 509.19 217.716 509.433C217.354 509.672 217.173 509.981 217.173 510.36C217.173 510.688 217.294 510.952 217.537 511.153C217.78 511.353 218.172 511.517 218.714 511.645L220.273 512.003C221.177 512.212 221.85 512.533 222.293 512.968C222.736 513.403 222.958 513.967 222.958 514.662C222.958 515.25 222.787 515.774 222.446 516.234C222.11 516.69 221.639 517.048 221.034 517.308C220.433 517.568 219.736 517.698 218.944 517.698C217.844 517.698 216.947 517.464 216.253 516.995C215.558 516.522 215.132 515.851 214.974 514.982L216.821 514.7C216.937 515.182 217.173 515.546 217.531 515.793C217.889 516.036 218.356 516.158 218.931 516.158C219.557 516.158 220.058 516.028 220.433 515.768C220.808 515.504 220.995 515.182 220.995 514.803C220.995 514.496 220.88 514.238 220.65 514.029C220.424 513.82 220.077 513.663 219.608 513.556L217.946 513.192C217.03 512.983 216.353 512.651 215.914 512.195C215.479 511.739 215.262 511.161 215.262 510.462C215.262 509.883 215.424 509.376 215.748 508.941C216.071 508.506 216.519 508.168 217.09 507.925C217.661 507.678 218.315 507.554 219.052 507.554C220.113 507.554 220.949 507.784 221.558 508.244C222.167 508.7 222.57 509.312 222.766 510.079ZM225.059 521.182V507.682H226.926V509.273H227.085C227.196 509.069 227.356 508.832 227.565 508.564C227.774 508.295 228.063 508.061 228.434 507.861C228.805 507.656 229.295 507.554 229.904 507.554C230.697 507.554 231.404 507.754 232.027 508.155C232.649 508.555 233.137 509.133 233.49 509.887C233.848 510.641 234.027 511.549 234.027 512.61C234.027 513.671 233.85 514.581 233.497 515.339C233.143 516.094 232.657 516.675 232.039 517.085C231.421 517.489 230.716 517.692 229.924 517.692C229.327 517.692 228.839 517.592 228.46 517.391C228.085 517.191 227.791 516.957 227.578 516.688C227.365 516.42 227.201 516.181 227.085 515.972H226.97V521.182H225.059ZM226.932 512.591C226.932 513.281 227.032 513.886 227.233 514.406C227.433 514.926 227.723 515.333 228.102 515.627C228.481 515.917 228.946 516.062 229.495 516.062C230.066 516.062 230.544 515.911 230.927 515.608C231.311 515.301 231.6 514.886 231.796 514.362C231.997 513.837 232.097 513.247 232.097 512.591C232.097 511.943 231.999 511.362 231.803 510.846C231.611 510.33 231.321 509.923 230.934 509.625C230.55 509.327 230.071 509.178 229.495 509.178C228.941 509.178 228.473 509.32 228.089 509.606C227.71 509.891 227.422 510.29 227.226 510.801C227.03 511.312 226.932 511.909 226.932 512.591ZM238.08 504.409V517.5H236.169V504.409H238.08ZM243.508 517.717C242.886 517.717 242.324 517.602 241.821 517.372C241.318 517.138 240.919 516.799 240.625 516.356C240.336 515.913 240.191 515.369 240.191 514.726C240.191 514.172 240.297 513.716 240.51 513.358C240.723 513 241.011 512.717 241.373 512.508C241.736 512.299 242.14 512.141 242.588 512.035C243.035 511.928 243.491 511.847 243.956 511.792C244.544 511.724 245.021 511.668 245.388 511.626C245.754 511.579 246.02 511.504 246.187 511.402C246.353 511.3 246.436 511.134 246.436 510.903V510.859C246.436 510.3 246.278 509.868 245.963 509.561C245.652 509.254 245.187 509.101 244.569 509.101C243.926 509.101 243.419 509.244 243.048 509.529C242.682 509.81 242.428 510.124 242.287 510.469L240.491 510.06C240.704 509.463 241.015 508.982 241.424 508.615C241.838 508.244 242.313 507.976 242.85 507.81C243.387 507.639 243.951 507.554 244.544 507.554C244.936 507.554 245.351 507.601 245.79 507.695C246.233 507.784 246.647 507.95 247.03 508.193C247.418 508.436 247.736 508.783 247.983 509.235C248.23 509.683 248.353 510.264 248.353 510.98V517.5H246.487V516.158H246.41C246.287 516.405 246.101 516.648 245.854 516.886C245.607 517.125 245.29 517.323 244.902 517.481C244.514 517.638 244.049 517.717 243.508 517.717ZM243.924 516.183C244.452 516.183 244.904 516.079 245.279 515.87C245.658 515.661 245.946 515.388 246.142 515.052C246.342 514.711 246.442 514.347 246.442 513.959V512.693C246.374 512.761 246.242 512.825 246.046 512.885C245.854 512.94 245.635 512.989 245.388 513.032C245.14 513.07 244.9 513.107 244.665 513.141C244.431 513.17 244.235 513.196 244.077 513.217C243.706 513.264 243.368 513.343 243.061 513.454C242.758 513.565 242.515 513.724 242.332 513.933C242.153 514.138 242.064 514.411 242.064 514.751C242.064 515.224 242.238 515.582 242.588 515.825C242.937 516.064 243.383 516.183 243.924 516.183ZM251.756 521.182C251.47 521.182 251.21 521.158 250.976 521.112C250.741 521.069 250.567 521.022 250.452 520.971L250.912 519.405C251.261 519.499 251.572 519.539 251.845 519.526C252.118 519.513 252.359 519.411 252.567 519.219C252.78 519.028 252.968 518.714 253.13 518.28L253.366 517.628L249.774 507.682H251.82L254.306 515.301H254.408L256.895 507.682H258.947L254.9 518.81C254.713 519.322 254.474 519.754 254.185 520.108C253.895 520.466 253.55 520.734 253.149 520.913C252.748 521.092 252.284 521.182 251.756 521.182ZM265.66 517.5V504.409H273.778V506.109H267.635V510.098H273.196V511.792H267.635V517.5H265.66ZM279.468 517.698C278.548 517.698 277.745 517.487 277.059 517.065C276.372 516.643 275.84 516.053 275.46 515.295C275.081 514.536 274.892 513.65 274.892 512.636C274.892 511.617 275.081 510.727 275.46 509.964C275.84 509.201 276.372 508.609 277.059 508.187C277.745 507.765 278.548 507.554 279.468 507.554C280.389 507.554 281.192 507.765 281.878 508.187C282.564 508.609 283.097 509.201 283.476 509.964C283.855 510.727 284.045 511.617 284.045 512.636C284.045 513.65 283.855 514.536 283.476 515.295C283.097 516.053 282.564 516.643 281.878 517.065C281.192 517.487 280.389 517.698 279.468 517.698ZM279.475 516.094C280.071 516.094 280.566 515.936 280.958 515.621C281.35 515.305 281.639 514.886 281.827 514.362C282.019 513.837 282.115 513.26 282.115 512.629C282.115 512.003 282.019 511.428 281.827 510.903C281.639 510.375 281.35 509.951 280.958 509.631C280.566 509.312 280.071 509.152 279.475 509.152C278.874 509.152 278.375 509.312 277.979 509.631C277.587 509.951 277.295 510.375 277.103 510.903C276.916 511.428 276.822 512.003 276.822 512.629C276.822 513.26 276.916 513.837 277.103 514.362C277.295 514.886 277.587 515.305 277.979 515.621C278.375 515.936 278.874 516.094 279.475 516.094ZM288.09 511.67V517.5H286.178V507.682H288.013V509.28H288.134C288.36 508.76 288.714 508.342 289.195 508.027C289.681 507.712 290.293 507.554 291.03 507.554C291.699 507.554 292.285 507.695 292.788 507.976C293.291 508.253 293.68 508.666 293.957 509.216C294.234 509.766 294.373 510.445 294.373 511.255V517.5H292.462V511.485C292.462 510.773 292.276 510.217 291.906 509.817C291.535 509.412 291.026 509.21 290.378 509.21C289.935 509.21 289.541 509.305 289.195 509.497C288.854 509.689 288.584 509.97 288.384 510.341C288.188 510.707 288.09 511.151 288.09 511.67ZM301.519 507.682V509.216H296.156V507.682H301.519ZM297.595 505.33H299.506V514.617C299.506 514.988 299.561 515.267 299.672 515.455C299.783 515.638 299.926 515.763 300.1 515.832C300.279 515.896 300.473 515.928 300.682 515.928C300.835 515.928 300.97 515.917 301.085 515.896C301.2 515.874 301.289 515.857 301.353 515.844L301.698 517.423C301.587 517.466 301.43 517.509 301.225 517.551C301.021 517.598 300.765 517.624 300.458 517.628C299.955 517.636 299.487 517.547 299.052 517.359C298.617 517.172 298.266 516.882 297.997 516.49C297.729 516.098 297.595 515.606 297.595 515.013V505.33Z" fill="#1B38E0"/>
<path d="M163.903 538.8C165.174 538.8 165.871 539.497 165.871 540.768V542.326C165.871 543.597 165.174 544.294 163.903 544.294H152.833V550.772H162.222C163.493 550.772 164.19 551.469 164.19 552.74V553.847C164.19 555.118 163.493 555.856 162.222 555.856H152.833V565.532C152.833 566.803 152.136 567.5 150.865 567.5H148.323C147.052 567.5 146.314 566.803 146.314 565.532V540.768C146.314 539.497 147.052 538.8 148.323 538.8H163.903ZM172.961 543.925C170.624 543.925 169.148 542.49 169.148 540.645C169.148 538.759 170.501 537.324 172.961 537.324C175.38 537.324 176.774 538.759 176.774 540.645C176.774 542.49 175.298 543.925 172.961 543.925ZM171.772 567.5C170.501 567.5 169.804 566.803 169.804 565.532V548.394C169.804 547.123 170.501 546.426 171.772 546.426H174.15C175.421 546.426 176.159 547.123 176.159 548.394V565.532C176.159 566.803 175.421 567.5 174.15 567.5H171.772ZM183.343 567.5C182.072 567.5 181.375 566.803 181.375 565.532V539.825C181.375 538.554 182.072 537.857 183.343 537.857H185.721C186.992 537.857 187.73 538.554 187.73 539.825V565.532C187.73 566.803 186.992 567.5 185.721 567.5H183.343ZM200.039 567.951C196.308 567.951 193.274 566.557 191.88 563.728C191.265 562.498 191.921 561.596 193.192 561.268L194.463 560.981C195.57 560.694 196.062 561.227 196.923 562.088C197.661 562.908 198.768 563.318 200.08 563.318C201.679 563.318 202.786 562.58 202.786 561.473C202.786 560.571 202.171 560.12 200.818 559.628L198.235 558.726C196.062 558.029 192.29 556.43 192.29 552.617C192.29 548.681 195.57 545.975 200.121 545.975C202.827 545.975 205.287 546.836 206.845 549.173C207.665 550.362 207.05 551.428 205.697 551.756L204.549 552.043C203.483 552.33 202.909 551.961 202.171 551.264C201.597 550.69 200.859 550.485 200.121 550.485C198.809 550.485 197.989 551.305 197.989 552.289C197.989 553.191 198.809 553.642 199.916 554.011L202.54 554.995C206.886 556.43 208.444 558.767 208.526 561.35C208.526 565.778 204.59 567.951 200.039 567.951ZM222.575 567.951C215.892 567.951 210.89 563.072 210.89 556.963C210.89 550.895 215.892 545.975 222.575 545.975C229.258 545.975 234.26 550.895 234.26 556.963C234.26 563.031 229.258 567.951 222.575 567.951ZM222.575 562.826C225.732 562.826 228.233 560.284 228.233 557.004C228.233 553.683 225.732 551.141 222.575 551.141C219.377 551.141 216.917 553.683 216.917 557.004C216.917 560.284 219.377 562.826 222.575 562.826ZM239.956 567.5C238.685 567.5 237.988 566.803 237.988 565.532V548.394C237.988 547.123 238.685 546.426 239.956 546.426H242.375C243.646 546.426 244.343 547.123 244.343 548.394V549.788C245.368 547.369 247.623 545.975 250.739 545.975C256.397 545.975 258.447 550.403 258.447 555.364V565.532C258.447 566.803 257.709 567.5 256.438 567.5H254.06C252.789 567.5 252.092 566.803 252.092 565.532V555.815C252.092 552.863 250.944 551.141 248.771 551.141C246.598 551.141 244.343 552.822 244.343 556.758V565.532C244.343 566.803 243.646 567.5 242.375 567.5H239.956ZM283.023 567.951C277.652 567.951 273.757 565.573 272.24 561.76C271.707 560.53 272.363 559.669 273.634 559.341L275.397 558.931C276.545 558.644 277.16 559.136 277.816 560.202C278.759 561.719 280.563 562.744 282.982 562.744C285.77 562.744 287.615 561.514 287.615 559.628C287.615 558.193 286.508 557.045 284.335 556.307L280.604 554.954C277.201 553.847 273.019 551.305 272.978 546.877C272.978 541.629 277.529 538.349 283.146 538.349C287.615 538.349 290.772 540.317 292.33 543.597C292.945 544.786 292.371 545.729 291.141 546.098L289.501 546.549C288.353 546.877 287.656 546.426 286.959 545.442C286.221 544.212 284.95 543.556 283.228 543.556C281.178 543.556 279.415 544.581 279.415 546.467C279.415 547.492 279.866 548.599 282.408 549.542L286.139 550.895C291.756 552.781 293.847 555.733 293.929 559.341C293.929 564.958 289.132 567.951 283.023 567.951ZM308.219 567.951C301.536 567.951 296.534 563.072 296.534 556.963C296.534 550.895 301.536 545.975 308.219 545.975C314.902 545.975 319.904 550.895 319.904 556.963C319.904 563.031 314.902 567.951 308.219 567.951ZM308.219 562.826C311.376 562.826 313.877 560.284 313.877 557.004C313.877 553.683 311.376 551.141 308.219 551.141C305.021 551.141 302.561 553.683 302.561 557.004C302.561 560.284 305.021 562.826 308.219 562.826ZM326.674 567.5C325.403 567.5 324.706 566.803 324.706 565.532V551.141H322.82C322.164 551.141 321.795 550.772 321.795 550.116V547.738C321.795 547.082 322.164 546.713 322.82 546.713H324.706V545.36C324.706 538.923 328.97 537.406 332.496 537.406C336.186 537.406 339.548 539.128 339.548 543.023C339.548 543.228 339.507 543.474 339.466 543.679C339.384 544.171 339.015 544.458 338.482 544.458H335.53C334.997 544.458 334.669 544.13 334.669 543.72V543.474C334.669 542.695 333.89 542.121 332.906 542.121C331.594 542.121 330.897 543.023 330.897 544.54V546.713H334.587C335.243 546.713 335.612 547.082 335.612 547.738V550.116C335.612 550.772 335.243 551.141 334.587 551.141H331.02V565.532C331.02 566.803 330.282 567.5 329.011 567.5H326.674ZM348.421 567.951C344.854 567.951 341.041 566.311 341.041 560.489V551.141H338.95C338.294 551.141 337.884 550.772 337.884 550.116V547.451C337.884 546.795 338.294 546.426 338.95 546.426H341.533L342.23 542.162C342.394 541.301 342.968 540.85 343.829 540.85H345.838C346.781 540.85 347.273 541.383 347.273 542.285V546.426H352.029C352.685 546.426 353.054 546.795 353.054 547.451V550.116C353.054 550.772 352.685 551.141 352.029 551.141H347.273V560.694C347.273 562.252 348.052 562.867 348.995 562.867C350.061 562.867 350.758 562.047 350.758 560.94C350.758 560.735 350.758 560.489 350.717 560.202C350.635 559.464 350.881 559.095 351.578 559.095H354.079C354.612 559.095 355.063 559.3 355.227 559.915C355.391 560.53 355.473 561.186 355.473 561.514C355.473 566.065 352.234 567.951 348.421 567.951Z" fill="#1B38E0"/>
<rect x="532.5" y="487.5" width="496" height="105" rx="12" fill="#F2E7E5"/>
<rect x="533" y="488" width="495" height="104" rx="11.5" stroke="#33241F" stroke-opacity="0.5"/>
<path d="M738.45 517.5V504.409H743.244C744.173 504.409 744.942 504.562 745.551 504.869C746.161 505.172 746.617 505.583 746.919 506.103C747.222 506.619 747.373 507.2 747.373 507.848C747.373 508.393 747.273 508.854 747.073 509.229C746.873 509.599 746.604 509.898 746.267 510.124C745.935 510.345 745.569 510.507 745.168 510.609V510.737C745.603 510.759 746.027 510.899 746.44 511.159C746.858 511.415 747.203 511.779 747.475 512.252C747.748 512.725 747.885 513.3 747.885 513.978C747.885 514.647 747.727 515.248 747.412 515.781C747.1 516.309 746.619 516.729 745.967 517.04C745.315 517.347 744.482 517.5 743.468 517.5H738.45ZM740.425 515.806H743.276C744.222 515.806 744.9 515.623 745.309 515.256C745.718 514.89 745.922 514.432 745.922 513.882C745.922 513.469 745.818 513.089 745.609 512.744C745.4 512.399 745.102 512.124 744.714 511.92C744.331 511.715 743.875 511.613 743.346 511.613H740.425V515.806ZM740.425 510.072H743.071C743.515 510.072 743.913 509.987 744.267 509.817C744.625 509.646 744.908 509.408 745.117 509.101C745.33 508.79 745.436 508.423 745.436 508.001C745.436 507.46 745.247 507.006 744.868 506.64C744.488 506.273 743.907 506.09 743.123 506.09H740.425V510.072ZM754.21 517.698C753.289 517.698 752.486 517.487 751.8 517.065C751.114 516.643 750.581 516.053 750.202 515.295C749.822 514.536 749.633 513.65 749.633 512.636C749.633 511.617 749.822 510.727 750.202 509.964C750.581 509.201 751.114 508.609 751.8 508.187C752.486 507.765 753.289 507.554 754.21 507.554C755.13 507.554 755.933 507.765 756.619 508.187C757.305 508.609 757.838 509.201 758.217 509.964C758.597 510.727 758.786 511.617 758.786 512.636C758.786 513.65 758.597 514.536 758.217 515.295C757.838 516.053 757.305 516.643 756.619 517.065C755.933 517.487 755.13 517.698 754.21 517.698ZM754.216 516.094C754.813 516.094 755.307 515.936 755.699 515.621C756.091 515.305 756.381 514.886 756.568 514.362C756.76 513.837 756.856 513.26 756.856 512.629C756.856 512.003 756.76 511.428 756.568 510.903C756.381 510.375 756.091 509.951 755.699 509.631C755.307 509.312 754.813 509.152 754.216 509.152C753.615 509.152 753.116 509.312 752.72 509.631C752.328 509.951 752.036 510.375 751.844 510.903C751.657 511.428 751.563 512.003 751.563 512.629C751.563 513.26 751.657 513.837 751.844 514.362C752.036 514.886 752.328 515.305 752.72 515.621C753.116 515.936 753.615 516.094 754.216 516.094ZM764.595 517.692C763.802 517.692 763.095 517.489 762.473 517.085C761.855 516.675 761.369 516.094 761.015 515.339C760.666 514.581 760.491 513.671 760.491 512.61C760.491 511.549 760.668 510.641 761.022 509.887C761.38 509.133 761.87 508.555 762.492 508.155C763.114 507.754 763.819 507.554 764.608 507.554C765.217 507.554 765.707 507.656 766.078 507.861C766.453 508.061 766.743 508.295 766.947 508.564C767.156 508.832 767.318 509.069 767.433 509.273H767.548V504.409H769.459V517.5H767.593V515.972H767.433C767.318 516.181 767.152 516.42 766.934 516.688C766.721 516.957 766.427 517.191 766.052 517.391C765.677 517.592 765.192 517.692 764.595 517.692ZM765.017 516.062C765.567 516.062 766.031 515.917 766.41 515.627C766.794 515.333 767.084 514.926 767.28 514.406C767.48 513.886 767.58 513.281 767.58 512.591C767.58 511.909 767.482 511.312 767.286 510.801C767.09 510.29 766.802 509.891 766.423 509.606C766.044 509.32 765.575 509.178 765.017 509.178C764.442 509.178 763.962 509.327 763.579 509.625C763.195 509.923 762.905 510.33 762.709 510.846C762.518 511.362 762.422 511.943 762.422 512.591C762.422 513.247 762.52 513.837 762.716 514.362C762.912 514.886 763.202 515.301 763.585 515.608C763.973 515.911 764.45 516.062 765.017 516.062ZM773.395 521.182C773.11 521.182 772.85 521.158 772.615 521.112C772.381 521.069 772.206 521.022 772.091 520.971L772.551 519.405C772.901 519.499 773.212 519.539 773.485 519.526C773.757 519.513 773.998 519.411 774.207 519.219C774.42 519.028 774.608 518.714 774.77 518.28L775.006 517.628L771.414 507.682H773.459L775.946 515.301H776.048L778.534 507.682H780.586L776.54 518.81C776.353 519.322 776.114 519.754 775.824 520.108C775.534 520.466 775.189 520.734 774.789 520.913C774.388 521.092 773.924 521.182 773.395 521.182ZM787.3 517.5V504.409H795.417V506.109H789.275V510.098H794.836V511.792H789.275V517.5H787.3ZM801.108 517.698C800.188 517.698 799.384 517.487 798.698 517.065C798.012 516.643 797.479 516.053 797.1 515.295C796.721 514.536 796.531 513.65 796.531 512.636C796.531 511.617 796.721 510.727 797.1 509.964C797.479 509.201 798.012 508.609 798.698 508.187C799.384 507.765 800.188 507.554 801.108 507.554C802.028 507.554 802.832 507.765 803.518 508.187C804.204 508.609 804.737 509.201 805.116 509.964C805.495 510.727 805.685 511.617 805.685 512.636C805.685 513.65 805.495 514.536 805.116 515.295C804.737 516.053 804.204 516.643 803.518 517.065C802.832 517.487 802.028 517.698 801.108 517.698ZM801.114 516.094C801.711 516.094 802.205 515.936 802.597 515.621C802.989 515.305 803.279 514.886 803.467 514.362C803.658 513.837 803.754 513.26 803.754 512.629C803.754 512.003 803.658 511.428 803.467 510.903C803.279 510.375 802.989 509.951 802.597 509.631C802.205 509.312 801.711 509.152 801.114 509.152C800.513 509.152 800.015 509.312 799.619 509.631C799.227 509.951 798.935 510.375 798.743 510.903C798.555 511.428 798.462 512.003 798.462 512.629C798.462 513.26 798.555 513.837 798.743 514.362C798.935 514.886 799.227 515.305 799.619 515.621C800.015 515.936 800.513 516.094 801.114 516.094ZM809.729 511.67V517.5H807.818V507.682H809.653V509.28H809.774C810 508.76 810.354 508.342 810.835 508.027C811.321 507.712 811.932 507.554 812.67 507.554C813.339 507.554 813.925 507.695 814.427 507.976C814.93 508.253 815.32 508.666 815.597 509.216C815.874 509.766 816.013 510.445 816.013 511.255V517.5H814.101V511.485C814.101 510.773 813.916 510.217 813.545 509.817C813.175 509.412 812.665 509.21 812.018 509.21C811.574 509.21 811.18 509.305 810.835 509.497C810.494 509.689 810.224 509.97 810.023 510.341C809.827 510.707 809.729 511.151 809.729 511.67ZM823.159 507.682V509.216H817.796V507.682H823.159ZM819.234 505.33H821.145V514.617C821.145 514.988 821.201 515.267 821.312 515.455C821.422 515.638 821.565 515.763 821.74 515.832C821.919 515.896 822.113 515.928 822.322 515.928C822.475 515.928 822.609 515.917 822.724 515.896C822.839 515.874 822.929 515.857 822.993 515.844L823.338 517.423C823.227 517.466 823.069 517.509 822.865 517.551C822.66 517.598 822.405 517.624 822.098 517.628C821.595 517.636 821.126 517.547 820.692 517.359C820.257 517.172 819.905 516.882 819.637 516.49C819.368 516.098 819.234 515.606 819.234 515.013V505.33Z" fill="#1B38E0"/>
<path d="M742.41 537.682V567.5H736.106V537.682H742.41ZM753.683 554.571V567.5H747.481V545.136H753.392V549.082H753.654C754.149 547.781 754.979 546.752 756.144 545.995C757.308 545.229 758.721 544.845 760.38 544.845C761.933 544.845 763.287 545.185 764.443 545.864C765.598 546.544 766.495 547.514 767.136 548.776C767.777 550.028 768.097 551.523 768.097 553.261V567.5H761.895V554.367C761.904 552.999 761.555 551.931 760.846 551.164C760.138 550.388 759.162 549.999 757.92 549.999C757.085 549.999 756.347 550.179 755.707 550.538C755.076 550.897 754.581 551.421 754.222 552.11C753.872 552.79 753.693 553.61 753.683 554.571ZM784.881 545.136V549.795H771.413V545.136H784.881ZM774.47 539.778H780.673V560.628C780.673 561.201 780.76 561.647 780.935 561.967C781.11 562.278 781.352 562.496 781.663 562.623C781.983 562.749 782.352 562.812 782.769 562.812C783.061 562.812 783.352 562.788 783.643 562.739C783.934 562.681 784.158 562.637 784.313 562.608L785.288 567.223C784.978 567.32 784.541 567.432 783.978 567.558C783.415 567.694 782.731 567.777 781.925 567.806C780.43 567.864 779.12 567.665 777.994 567.209C776.878 566.753 776.009 566.044 775.388 565.083C774.767 564.122 774.461 562.909 774.47 561.443V539.778ZM798.872 567.937C796.572 567.937 794.592 567.471 792.932 566.539C791.282 565.598 790.01 564.268 789.117 562.55C788.225 560.822 787.778 558.779 787.778 556.42C787.778 554.12 788.225 552.101 789.117 550.363C790.01 548.626 791.267 547.272 792.888 546.301C794.519 545.33 796.431 544.845 798.625 544.845C800.1 544.845 801.474 545.083 802.745 545.559C804.027 546.025 805.143 546.728 806.094 547.67C807.055 548.611 807.802 549.795 808.336 551.222C808.87 552.639 809.137 554.299 809.137 556.202V557.905H790.253V554.061H803.299C803.299 553.168 803.104 552.377 802.716 551.688C802.328 550.999 801.789 550.46 801.1 550.072C800.421 549.674 799.63 549.475 798.727 549.475C797.785 549.475 796.951 549.694 796.223 550.13C795.504 550.557 794.941 551.135 794.534 551.863C794.126 552.581 793.917 553.382 793.908 554.265V557.92C793.908 559.026 794.111 559.982 794.519 560.788C794.937 561.594 795.524 562.215 796.281 562.652C797.038 563.088 797.936 563.307 798.974 563.307C799.664 563.307 800.294 563.21 800.867 563.016C801.44 562.821 801.93 562.53 802.338 562.142C802.745 561.754 803.056 561.278 803.269 560.715L809.006 561.094C808.715 562.472 808.118 563.676 807.215 564.705C806.322 565.724 805.167 566.52 803.75 567.092C802.343 567.655 800.717 567.937 798.872 567.937ZM813.185 567.5V545.136H819.198V549.038H819.431C819.838 547.65 820.523 546.602 821.484 545.893C822.445 545.175 823.551 544.816 824.803 544.816C825.114 544.816 825.449 544.835 825.808 544.874C826.167 544.913 826.482 544.967 826.754 545.034V550.538C826.463 550.451 826.06 550.373 825.546 550.305C825.031 550.237 824.561 550.203 824.133 550.203C823.221 550.203 822.406 550.402 821.687 550.8C820.979 551.188 820.416 551.732 819.999 552.431C819.591 553.13 819.387 553.935 819.387 554.848V567.5H813.185Z" fill="#1B38E0"/>
<rect x="0.5" y="0.5" width="325" height="252" rx="12" fill="#F2E7E5"/>
<rect x="1" y="1" width="324" height="251" rx="11.5" stroke="#33241F" stroke-opacity="0.5"/>
<path d="M35.8199 51.5V36.1943H41.2755C42.4663 36.1943 43.4528 36.411 44.235 36.8445C45.0173 37.2779 45.6027 37.8708 45.9913 38.6232C46.3799 39.3705 46.5742 40.2125 46.5742 41.1492C46.5742 42.0909 46.3774 42.9379 45.9838 43.6902C45.5952 44.4376 45.0073 45.0304 44.2201 45.4689C43.4379 45.9024 42.4539 46.1191 41.2681 46.1191H37.5164V44.161H41.0588C41.8111 44.161 42.4215 44.0315 42.8898 43.7724C43.3581 43.5083 43.7019 43.1496 43.9211 42.6962C44.1404 42.2428 44.25 41.7272 44.25 41.1492C44.25 40.5713 44.1404 40.0581 43.9211 39.6097C43.7019 39.1613 43.3557 38.81 42.8823 38.5559C42.414 38.3018 41.7962 38.1748 41.0289 38.1748H38.1292V51.5H35.8199ZM49.1021 51.5V40.0207H51.262V41.8443H51.3816C51.5908 41.2264 51.9595 40.7407 52.4876 40.3869C53.0207 40.0282 53.6236 39.8488 54.2962 39.8488C54.4357 39.8488 54.6001 39.8538 54.7895 39.8638C54.9838 39.8737 55.1357 39.8862 55.2454 39.9011V42.0386C55.1557 42.0137 54.9962 41.9862 54.7671 41.9564C54.5379 41.9215 54.3087 41.904 54.0795 41.904C53.5514 41.904 53.0805 42.0161 52.667 42.2403C52.2585 42.4596 51.9346 42.766 51.6954 43.1596C51.4563 43.5482 51.3367 43.9916 51.3367 44.4899V51.5H49.1021ZM57.1791 51.5V40.0207H59.4137V51.5H57.1791ZM58.3076 38.2495C57.919 38.2495 57.5852 38.12 57.3062 37.8609C57.0321 37.5968 56.8951 37.2829 56.8951 36.9192C56.8951 36.5505 57.0321 36.2366 57.3062 35.9776C57.5852 35.7135 57.919 35.5815 58.3076 35.5815C58.6962 35.5815 59.0276 35.7135 59.3016 35.9776C59.5806 36.2366 59.7201 36.5505 59.7201 36.9192C59.7201 37.2829 59.5806 37.5968 59.3016 37.8609C59.0276 38.12 58.6962 38.2495 58.3076 38.2495ZM62.4199 51.5V40.0207H64.5648V41.8891H64.7068C64.9459 41.2563 65.3371 40.7631 65.8801 40.4093C66.4232 40.0506 67.0734 39.8713 67.8307 39.8713C68.598 39.8713 69.2407 40.0506 69.7589 40.4093C70.282 40.7681 70.6681 41.2613 70.9173 41.8891H71.0368C71.3109 41.2763 71.7468 40.788 72.3447 40.4243C72.9426 40.0556 73.655 39.8713 74.4821 39.8713C75.5234 39.8713 76.3729 40.1976 77.0306 40.8503C77.6932 41.503 78.0246 42.487 78.0246 43.8023V51.5H75.79V44.0116C75.79 43.2343 75.5782 42.6713 75.1547 42.3226C74.7312 41.9738 74.2255 41.7994 73.6376 41.7994C72.9102 41.7994 72.3447 42.0236 71.9411 42.472C71.5376 42.9155 71.3358 43.4859 71.3358 44.1835V51.5H69.1087V43.8696C69.1087 43.2468 68.9144 42.7461 68.5257 42.3674C68.1371 41.9887 67.6314 41.7994 67.0086 41.7994C66.5851 41.7994 66.194 41.9115 65.8353 42.1357C65.4815 42.3549 65.1951 42.6614 64.9758 43.055C64.7616 43.4486 64.6545 43.9044 64.6545 44.4226V51.5H62.4199ZM84.3602 51.7541C83.6328 51.7541 82.9751 51.6196 82.3872 51.3505C81.7993 51.0765 81.3334 50.6804 80.9897 50.1622C80.6509 49.6441 80.4815 49.0088 80.4815 48.2565C80.4815 47.6088 80.606 47.0757 80.8551 46.6572C81.1043 46.2387 81.4406 45.9073 81.8641 45.6632C82.2876 45.4191 82.7609 45.2347 83.284 45.1102C83.8072 44.9856 84.3403 44.8909 84.8833 44.8262C85.5709 44.7465 86.1289 44.6817 86.5574 44.6319C86.9859 44.5771 87.2973 44.4899 87.4916 44.3703C87.6859 44.2507 87.7831 44.0564 87.7831 43.7874V43.735C87.7831 43.0824 87.5987 42.5767 87.23 42.2179C86.8663 41.8592 86.3232 41.6798 85.6008 41.6798C84.8485 41.6798 84.2556 41.8467 83.8221 42.1806C83.3936 42.5094 83.0972 42.8756 82.9328 43.2792L80.8327 42.8009C81.0818 42.1033 81.4455 41.5403 81.9238 41.1118C82.4071 40.6784 82.9627 40.3645 83.5904 40.1702C84.2182 39.9709 84.8784 39.8713 85.5709 39.8713C86.0293 39.8713 86.5151 39.9261 87.0282 40.0357C87.5464 40.1403 88.0297 40.3346 88.4781 40.6186C88.9315 40.9026 89.3027 41.3087 89.5916 41.8368C89.8806 42.3599 90.0251 43.04 90.0251 43.877V51.5H87.8428V49.9306H87.7532C87.6087 50.2195 87.3919 50.5035 87.103 50.7825C86.814 51.0616 86.4428 51.2932 85.9894 51.4776C85.536 51.6619 84.993 51.7541 84.3602 51.7541ZM84.846 49.9605C85.4638 49.9605 85.9919 49.8384 86.4304 49.5943C86.8738 49.3501 87.2101 49.0313 87.4393 48.6377C87.6734 48.2391 87.7905 47.8131 87.7905 47.3597V45.8799C87.7108 45.9597 87.5564 46.0344 87.3272 46.1041C87.103 46.1689 86.8464 46.2262 86.5574 46.276C86.2684 46.3209 85.9869 46.3632 85.7129 46.4031C85.4389 46.438 85.2097 46.4678 85.0253 46.4928C84.5919 46.5476 84.1958 46.6397 83.8371 46.7693C83.4833 46.8988 83.1993 47.0857 82.9851 47.3298C82.7758 47.5689 82.6712 47.8878 82.6712 48.2864C82.6712 48.8394 82.8755 49.258 83.284 49.5419C83.6926 49.821 84.2132 49.9605 84.846 49.9605ZM93.0014 51.5V40.0207H95.1613V41.8443H95.2808C95.4901 41.2264 95.8588 40.7407 96.3869 40.3869C96.92 40.0282 97.5229 39.8488 98.1955 39.8488C98.335 39.8488 98.4994 39.8538 98.6887 39.8638C98.8831 39.8737 99.035 39.8862 99.1446 39.9011V42.0386C99.055 42.0137 98.8955 41.9862 98.6663 41.9564C98.4371 41.9215 98.208 41.904 97.9788 41.904C97.4506 41.904 96.9798 42.0161 96.5663 42.2403C96.1577 42.4596 95.8339 42.766 95.5947 43.1596C95.3556 43.5482 95.236 43.9916 95.236 44.4899V51.5H93.0014ZM102.84 55.8047C102.506 55.8047 102.203 55.7773 101.929 55.7225C101.654 55.6727 101.45 55.6179 101.316 55.5581L101.854 53.7271C102.262 53.8367 102.626 53.884 102.945 53.8691C103.264 53.8541 103.545 53.7346 103.789 53.5104C104.039 53.2862 104.258 52.92 104.447 52.4118L104.724 51.6495L100.523 40.0207H102.915L105.822 48.9291H105.942L108.849 40.0207H111.248L106.517 53.0321C106.298 53.6299 106.019 54.1357 105.68 54.5492C105.341 54.9677 104.938 55.2816 104.469 55.4908C104.001 55.7001 103.458 55.8047 102.84 55.8047ZM119.097 51.5V36.1943H121.406V49.5121H128.342V51.5H119.097ZM135.632 51.7317C134.556 51.7317 133.617 51.4851 132.815 50.9918C132.012 50.4986 131.39 49.8085 130.946 48.9216C130.503 48.0348 130.281 46.9985 130.281 45.8127C130.281 44.6219 130.503 43.5806 130.946 42.6888C131.39 41.7969 132.012 41.1044 132.815 40.6111C133.617 40.1179 134.556 39.8713 135.632 39.8713C136.708 39.8713 137.647 40.1179 138.45 40.6111C139.252 41.1044 139.875 41.7969 140.318 42.6888C140.761 43.5806 140.983 44.6219 140.983 45.8127C140.983 46.9985 140.761 48.0348 140.318 48.9216C139.875 49.8085 139.252 50.4986 138.45 50.9918C137.647 51.4851 136.708 51.7317 135.632 51.7317ZM135.64 49.8558C136.337 49.8558 136.915 49.6715 137.373 49.3028C137.832 48.9341 138.171 48.4433 138.39 47.8305C138.614 47.2177 138.726 46.5426 138.726 45.8052C138.726 45.0728 138.614 44.4002 138.39 43.7874C138.171 43.1695 137.832 42.6738 137.373 42.3001C136.915 41.9265 136.337 41.7396 135.64 41.7396C134.937 41.7396 134.354 41.9265 133.891 42.3001C133.432 42.6738 133.091 43.1695 132.867 43.7874C132.648 44.4002 132.538 45.0728 132.538 45.8052C132.538 46.5426 132.648 47.2177 132.867 47.8305C133.091 48.4433 133.432 48.9341 133.891 49.3028C134.354 49.6715 134.937 49.8558 135.64 49.8558ZM148.29 56.0439C147.379 56.0439 146.594 55.9243 145.936 55.6852C145.283 55.446 144.75 55.1296 144.337 54.736C143.923 54.3424 143.614 53.9114 143.41 53.4431L145.331 52.6509C145.465 52.8701 145.645 53.1018 145.869 53.346C146.098 53.5951 146.407 53.8068 146.796 53.9812C147.189 54.1556 147.695 54.2428 148.313 54.2428C149.16 54.2428 149.86 54.036 150.413 53.6225C150.966 53.2139 151.242 52.5612 151.242 51.6644V49.4074H151.1C150.966 49.6516 150.772 49.9231 150.517 50.222C150.268 50.521 149.925 50.7801 149.486 50.9993C149.048 51.2185 148.477 51.3281 147.775 51.3281C146.868 51.3281 146.051 51.1164 145.323 50.6929C144.601 50.2644 144.028 49.6341 143.604 48.8021C143.186 47.965 142.977 46.9362 142.977 45.7155C142.977 44.4948 143.183 43.4486 143.597 42.5767C144.015 41.7047 144.588 41.0371 145.316 40.5738C146.043 40.1054 146.868 39.8713 147.79 39.8713C148.502 39.8713 149.078 39.9908 149.516 40.23C149.954 40.4641 150.296 40.7382 150.54 41.0521C150.789 41.3659 150.981 41.6425 151.115 41.8816H151.28V40.0207H153.469V51.7541C153.469 52.7406 153.24 53.5502 152.782 54.183C152.323 54.8157 151.703 55.2841 150.921 55.588C150.144 55.8919 149.267 56.0439 148.29 56.0439ZM148.268 49.4747C148.911 49.4747 149.454 49.3252 149.897 49.0263C150.346 48.7224 150.684 48.2889 150.913 47.7259C151.148 47.1579 151.265 46.4778 151.265 45.6856C151.265 44.9134 151.15 44.2333 150.921 43.6454C150.692 43.0574 150.355 42.5991 149.912 42.2702C149.469 41.9364 148.921 41.7695 148.268 41.7695C147.595 41.7695 147.035 41.9439 146.586 42.2927C146.138 42.6364 145.799 43.1048 145.57 43.6977C145.346 44.2906 145.234 44.9532 145.234 45.6856C145.234 46.438 145.348 47.0981 145.577 47.6661C145.807 48.2341 146.145 48.6775 146.594 48.9964C147.047 49.3152 147.605 49.4747 148.268 49.4747ZM161.302 51.7317C160.225 51.7317 159.286 51.4851 158.484 50.9918C157.682 50.4986 157.059 49.8085 156.616 48.9216C156.172 48.0348 155.951 46.9985 155.951 45.8127C155.951 44.6219 156.172 43.5806 156.616 42.6888C157.059 41.7969 157.682 41.1044 158.484 40.6111C159.286 40.1179 160.225 39.8713 161.302 39.8713C162.378 39.8713 163.317 40.1179 164.119 40.6111C164.921 41.1044 165.544 41.7969 165.988 42.6888C166.431 43.5806 166.653 44.6219 166.653 45.8127C166.653 46.9985 166.431 48.0348 165.988 48.9216C165.544 49.8085 164.921 50.4986 164.119 50.9918C163.317 51.4851 162.378 51.7317 161.302 51.7317ZM161.309 49.8558C162.007 49.8558 162.585 49.6715 163.043 49.3028C163.501 48.9341 163.84 48.4433 164.059 47.8305C164.284 47.2177 164.396 46.5426 164.396 45.8052C164.396 45.0728 164.284 44.4002 164.059 43.7874C163.84 43.1695 163.501 42.6738 163.043 42.3001C162.585 41.9265 162.007 41.7396 161.309 41.7396C160.607 41.7396 160.024 41.9265 159.56 42.3001C159.102 42.6738 158.761 43.1695 158.536 43.7874C158.317 44.4002 158.208 45.0728 158.208 45.8052C158.208 46.5426 158.317 47.2177 158.536 47.8305C158.761 48.4433 159.102 48.9341 159.56 49.3028C160.024 49.6715 160.607 49.8558 161.309 49.8558ZM181.48 42.8756V44.8187H174.694V42.8756H181.48ZM193.204 51.5L188.959 36.1943H191.388L194.37 48.0472H194.512L197.613 36.1943H200.02L203.121 48.0547H203.263L206.238 36.1943H208.674L204.422 51.5H202.098L198.876 40.0357H198.757L195.536 51.5H193.204ZM214.306 51.7317C213.229 51.7317 212.29 51.4851 211.488 50.9918C210.686 50.4986 210.063 49.8085 209.62 48.9216C209.176 48.0348 208.954 46.9985 208.954 45.8127C208.954 44.6219 209.176 43.5806 209.62 42.6888C210.063 41.7969 210.686 41.1044 211.488 40.6111C212.29 40.1179 213.229 39.8713 214.306 39.8713C215.382 39.8713 216.321 40.1179 217.123 40.6111C217.925 41.1044 218.548 41.7969 218.991 42.6888C219.435 43.5806 219.657 44.6219 219.657 45.8127C219.657 46.9985 219.435 48.0348 218.991 48.9216C218.548 49.8085 217.925 50.4986 217.123 50.9918C216.321 51.4851 215.382 51.7317 214.306 51.7317ZM214.313 49.8558C215.011 49.8558 215.588 49.6715 216.047 49.3028C216.505 48.9341 216.844 48.4433 217.063 47.8305C217.287 47.2177 217.4 46.5426 217.4 45.8052C217.4 45.0728 217.287 44.4002 217.063 43.7874C216.844 43.1695 216.505 42.6738 216.047 42.3001C215.588 41.9265 215.011 41.7396 214.313 41.7396C213.61 41.7396 213.028 41.9265 212.564 42.3001C212.106 42.6738 211.765 43.1695 211.54 43.7874C211.321 44.4002 211.211 45.0728 211.211 45.8052C211.211 46.5426 211.321 47.2177 211.54 47.8305C211.765 48.4433 212.106 48.9341 212.564 49.3028C213.028 49.6715 213.61 49.8558 214.313 49.8558ZM222.151 51.5V40.0207H224.311V41.8443H224.43C224.639 41.2264 225.008 40.7407 225.536 40.3869C226.069 40.0282 226.672 39.8488 227.345 39.8488C227.484 39.8488 227.649 39.8538 227.838 39.8638C228.032 39.8737 228.184 39.8862 228.294 39.9011V42.0386C228.204 42.0137 228.045 41.9862 227.816 41.9564C227.587 41.9215 227.357 41.904 227.128 41.904C226.6 41.904 226.129 42.0161 225.716 42.2403C225.307 42.4596 224.983 42.766 224.744 43.1596C224.505 43.5482 224.385 43.9916 224.385 44.4899V51.5H222.151ZM234.114 51.7242C233.187 51.7242 232.36 51.4875 231.633 51.0142C230.91 50.5359 230.342 49.8558 229.929 48.974C229.52 48.0871 229.316 47.0234 229.316 45.7828C229.316 44.5422 229.523 43.4809 229.936 42.5991C230.355 41.7172 230.928 41.0421 231.655 40.5738C232.383 40.1054 233.207 39.8713 234.129 39.8713C234.841 39.8713 235.414 39.9908 235.848 40.23C236.286 40.4641 236.625 40.7382 236.864 41.0521C237.108 41.3659 237.298 41.6425 237.432 41.8816H237.567V36.1943H239.801V51.5H237.619V49.7138H237.432C237.298 49.958 237.103 50.237 236.849 50.5509C236.6 50.8648 236.256 51.1388 235.818 51.373C235.379 51.6071 234.812 51.7242 234.114 51.7242ZM234.607 49.8185C235.25 49.8185 235.793 49.6491 236.236 49.3103C236.685 48.9665 237.024 48.4907 237.253 47.8828C237.487 47.275 237.604 46.5675 237.604 45.7604C237.604 44.9632 237.49 44.2657 237.26 43.6678C237.031 43.0699 236.695 42.6041 236.251 42.2702C235.808 41.9364 235.26 41.7695 234.607 41.7695C233.935 41.7695 233.374 41.9439 232.926 42.2927C232.477 42.6414 232.138 43.1172 231.909 43.7201C231.685 44.323 231.573 45.003 231.573 45.7604C231.573 46.5276 231.688 47.2177 231.917 47.8305C232.146 48.4433 232.485 48.9291 232.933 49.2878C233.387 49.6416 233.945 49.8185 234.607 49.8185ZM242.991 51.5V40.0207H245.136V41.8891H245.278C245.517 41.2563 245.908 40.7631 246.451 40.4093C246.994 40.0506 247.644 39.8713 248.401 39.8713C249.169 39.8713 249.811 40.0506 250.33 40.4093C250.853 40.7681 251.239 41.2613 251.488 41.8891H251.608C251.882 41.2763 252.318 40.788 252.915 40.4243C253.513 40.0556 254.226 39.8713 255.053 39.8713C256.094 39.8713 256.944 40.1976 257.601 40.8503C258.264 41.503 258.595 42.487 258.595 43.8023V51.5H256.361V44.0116C256.361 43.2343 256.149 42.6713 255.725 42.3226C255.302 41.9738 254.796 41.7994 254.208 41.7994C253.481 41.7994 252.915 42.0236 252.512 42.472C252.108 42.9155 251.907 43.4859 251.907 44.1835V51.5H249.679V43.8696C249.679 43.2468 249.485 42.7461 249.096 42.3674C248.708 41.9887 248.202 41.7994 247.579 41.7994C247.156 41.7994 246.765 41.9115 246.406 42.1357C246.052 42.3549 245.766 42.6614 245.547 43.055C245.332 43.4486 245.225 43.9044 245.225 44.4226V51.5H242.991ZM264.931 51.7541C264.204 51.7541 263.546 51.6196 262.958 51.3505C262.37 51.0765 261.904 50.6804 261.56 50.1622C261.222 49.6441 261.052 49.0088 261.052 48.2565C261.052 47.6088 261.177 47.0757 261.426 46.6572C261.675 46.2387 262.011 45.9073 262.435 45.6632C262.858 45.4191 263.332 45.2347 263.855 45.1102C264.378 44.9856 264.911 44.8909 265.454 44.8262C266.142 44.7465 266.7 44.6817 267.128 44.6319C267.557 44.5771 267.868 44.4899 268.062 44.3703C268.257 44.2507 268.354 44.0564 268.354 43.7874V43.735C268.354 43.0824 268.169 42.5767 267.801 42.2179C267.437 41.8592 266.894 41.6798 266.172 41.6798C265.419 41.6798 264.826 41.8467 264.393 42.1806C263.964 42.5094 263.668 42.8756 263.503 43.2792L261.403 42.8009C261.653 42.1033 262.016 41.5403 262.495 41.1118C262.978 40.6784 263.533 40.3645 264.161 40.1702C264.789 39.9709 265.449 39.8713 266.142 39.8713C266.6 39.8713 267.086 39.9261 267.599 40.0357C268.117 40.1403 268.6 40.3346 269.049 40.6186C269.502 40.9026 269.873 41.3087 270.162 41.8368C270.451 42.3599 270.596 43.04 270.596 43.877V51.5H268.414V49.9306H268.324C268.179 50.2195 267.963 50.5035 267.674 50.7825C267.385 51.0616 267.014 51.2932 266.56 51.4776C266.107 51.6619 265.564 51.7541 264.931 51.7541ZM265.417 49.9605C266.035 49.9605 266.563 49.8384 267.001 49.5943C267.445 49.3501 267.781 49.0313 268.01 48.6377C268.244 48.2391 268.361 47.8131 268.361 47.3597V45.8799C268.282 45.9597 268.127 46.0344 267.898 46.1041C267.674 46.1689 267.417 46.2262 267.128 46.276C266.839 46.3209 266.558 46.3632 266.284 46.4031C266.01 46.438 265.78 46.4678 265.596 46.4928C265.163 46.5476 264.767 46.6397 264.408 46.7693C264.054 46.8988 263.77 47.0857 263.556 47.3298C263.347 47.5689 263.242 47.8878 263.242 48.2864C263.242 48.8394 263.446 49.258 263.855 49.5419C264.263 49.821 264.784 49.9605 265.417 49.9605ZM273.572 51.5V40.0207H275.732V41.8443H275.852C276.061 41.2264 276.43 40.7407 276.958 40.3869C277.491 40.0282 278.094 39.8488 278.766 39.8488C278.906 39.8488 279.07 39.8538 279.259 39.8638C279.454 39.8737 279.606 39.8862 279.715 39.9011V42.0386C279.626 42.0137 279.466 41.9862 279.237 41.9564C279.008 41.9215 278.779 41.904 278.549 41.904C278.021 41.904 277.551 42.0161 277.137 42.2403C276.728 42.4596 276.405 42.766 276.165 43.1596C275.926 43.5482 275.807 43.9916 275.807 44.4899V51.5H273.572ZM283.704 47.6063L283.689 44.8785H284.078L288.652 40.0207H291.327L286.111 45.5511H285.76L283.704 47.6063ZM281.649 51.5V36.1943H283.884V51.5H281.649ZM288.898 51.5L284.788 46.0444L286.328 44.4824L291.641 51.5H288.898Z" fill="#1B38E0"/>
<path d="M90.8692 110.415V113.091C90.8692 115.275 89.6101 116.472 87.4409 116.472H76.1055V152.951C76.1055 155.134 74.9165 156.331 72.7473 156.331H68.5489C66.3797 156.331 65.1901 155.134 65.1901 152.951V116.472H53.9955C51.8263 116.472 50.6367 115.274 50.6367 113.091V110.415C50.6367 108.232 51.8263 107.035 53.9955 107.035H87.4409C89.6101 107.035 90.8692 108.232 90.8692 110.415Z" fill="#1B38E0"/>
<path d="M88.002 138.232C88.002 127.599 95.2085 119.359 105.285 119.359C110.042 119.359 114.241 121.19 116.83 125.275V123.514C116.83 121.331 118.019 120.134 120.188 120.134H124.316C126.486 120.134 127.675 121.331 127.675 123.514V152.951C127.675 155.134 126.486 156.331 124.316 156.331H120.188C118.019 156.331 116.83 155.134 116.83 152.951V151.261C114.241 155.275 110.042 157.106 105.285 157.106C95.2087 157.106 88.002 148.936 88.002 138.232ZM116.969 138.232C116.969 132.458 113.331 128.092 107.803 128.092C102.136 128.092 98.8473 132.67 98.8473 138.232C98.8473 143.866 102.136 148.373 107.803 148.373C113.331 148.373 116.969 144.007 116.969 138.232Z" fill="#1B38E0"/>
<path d="M147.189 151.26V152.951C147.189 155.134 145.93 156.331 143.761 156.331H139.702C137.533 156.331 136.344 155.134 136.344 152.951V108.796C136.344 106.613 137.533 105.416 139.702 105.416H143.761C145.93 105.416 147.189 106.613 147.189 108.796V125.274C149.778 121.19 153.976 119.359 158.664 119.359C168.81 119.359 176.017 127.599 176.017 138.232C176.017 148.936 168.81 157.105 158.664 157.105C153.976 157.105 149.778 155.274 147.189 151.26ZM165.171 138.232C165.171 132.669 161.813 128.092 156.215 128.092C150.618 128.092 147.049 132.458 146.979 138.232C147.049 144.007 150.618 148.373 156.215 148.373C161.813 148.373 165.171 143.866 165.171 138.232Z" fill="#1B38E0"/>
<path d="M193.367 151.26V152.951C193.367 155.134 192.107 156.331 189.938 156.331H185.88C183.711 156.331 182.521 155.134 182.521 152.951V108.796C182.521 106.613 183.711 105.416 185.88 105.416H189.938C192.107 105.416 193.367 106.613 193.367 108.796V125.274C195.956 121.19 200.154 119.359 204.842 119.359C214.987 119.359 222.194 127.599 222.194 138.232C222.194 148.936 214.987 157.105 204.842 157.105C200.154 157.105 195.956 155.274 193.367 151.26ZM211.349 138.232C211.349 132.669 207.99 128.092 202.393 128.092C196.795 128.092 193.227 132.458 193.157 138.232C193.227 144.007 196.795 148.373 202.393 148.373C207.99 148.373 211.349 143.866 211.349 138.232Z" fill="#1B38E0"/>
<path d="M227.719 110.204C227.719 106.965 230.028 104.5 234.226 104.5C238.354 104.5 240.733 106.965 240.733 110.204C240.733 113.373 238.214 115.838 234.226 115.838C230.238 115.838 227.719 113.373 227.719 110.204ZM228.838 152.95V123.514C228.838 121.331 230.028 120.133 232.197 120.133H236.255C238.424 120.133 239.684 121.331 239.684 123.514V152.95C239.684 155.133 238.424 156.331 236.255 156.331H232.197C230.028 156.331 228.838 155.133 228.838 152.95Z" fill="#1B38E0"/>
<path d="M250.736 144.289V128.233H247.167C246.047 128.233 245.348 127.6 245.348 126.473V121.895C245.348 120.769 246.047 120.135 247.167 120.135H251.575L252.765 112.811C253.045 111.332 254.024 110.558 255.493 110.558H258.922C260.531 110.558 261.371 111.473 261.371 113.022V120.135H269.488C270.607 120.135 271.236 120.769 271.236 121.895V126.473C271.236 127.6 270.607 128.233 269.488 128.233H261.371V144.642C261.371 147.318 262.7 148.374 264.309 148.374C266.129 148.374 267.318 146.965 267.318 145.064C267.318 144.712 267.318 144.289 267.248 143.796C267.108 142.529 267.529 141.895 268.718 141.895H272.986C273.895 141.895 274.666 142.247 274.945 143.303C275.225 144.36 275.365 145.487 275.365 146.05C275.365 153.867 269.837 157.107 263.33 157.107C257.243 157.107 250.736 154.289 250.736 144.289V144.289Z" fill="#1B38E0"/>
<rect x="350.5" y="0.5" width="328" height="252" rx="12" fill="#F2E7E5"/>
<rect x="351" y="1" width="327" height="251" rx="11.5" stroke="#33241F" stroke-opacity="0.5"/>
<path d="M394.589 40.215C394.509 39.5075 394.18 38.9595 393.602 38.5709C393.024 38.1773 392.297 37.9805 391.42 37.9805C390.792 37.9805 390.249 38.0801 389.791 38.2794C389.332 38.4737 388.976 38.7428 388.722 39.0865C388.473 39.4253 388.348 39.8115 388.348 40.2449C388.348 40.6086 388.433 40.9225 388.603 41.1866C388.777 41.4506 389.004 41.6724 389.283 41.8517C389.567 42.0261 389.871 42.1731 390.194 42.2927C390.518 42.4073 390.83 42.5019 391.129 42.5767L392.623 42.9653C393.112 43.0849 393.612 43.2468 394.125 43.4511C394.639 43.6553 395.114 43.9244 395.553 44.2582C395.991 44.592 396.345 45.0055 396.614 45.4988C396.888 45.992 397.025 46.5824 397.025 47.27C397.025 48.1369 396.801 48.9067 396.353 49.5793C395.909 50.2519 395.264 50.7825 394.417 51.1712C393.575 51.5598 392.556 51.7541 391.36 51.7541C390.214 51.7541 389.223 51.5722 388.386 51.2085C387.549 50.8448 386.894 50.3292 386.42 49.6615C385.947 48.9889 385.685 48.1917 385.636 47.27H387.952C387.997 47.823 388.177 48.2839 388.49 48.6526C388.809 49.0163 389.215 49.2878 389.709 49.4672C390.207 49.6416 390.752 49.7288 391.345 49.7288C391.998 49.7288 392.578 49.6266 393.087 49.4224C393.6 49.2131 394.003 48.9241 394.297 48.5554C394.591 48.1818 394.738 47.7458 394.738 47.2476C394.738 46.7942 394.609 46.423 394.35 46.134C394.096 45.8451 393.749 45.6059 393.311 45.4166C392.877 45.2273 392.387 45.0603 391.839 44.9159L390.03 44.4226C388.804 44.0888 387.833 43.598 387.115 42.9503C386.403 42.3026 386.047 41.4457 386.047 40.3794C386.047 39.4976 386.286 38.7278 386.764 38.0701C387.242 37.4125 387.89 36.9018 388.707 36.5381C389.524 36.1694 390.446 35.985 391.472 35.985C392.509 35.985 393.423 36.1669 394.215 36.5306C395.012 36.8943 395.64 37.395 396.098 38.0328C396.557 38.6655 396.796 39.3929 396.816 40.215H394.589ZM404.553 51.7317C403.422 51.7317 402.448 51.49 401.631 51.0067C400.819 50.5185 400.191 49.8334 399.747 48.9515C399.309 48.0647 399.09 47.0259 399.09 45.8351C399.09 44.6593 399.309 43.6229 399.747 42.7261C400.191 41.8293 400.809 41.1293 401.601 40.6261C402.398 40.1229 403.33 39.8713 404.396 39.8713C405.044 39.8713 405.671 39.9784 406.279 40.1926C406.887 40.4068 407.433 40.7432 407.916 41.2015C408.399 41.6599 408.78 42.2553 409.059 42.9877C409.338 43.7151 409.478 44.5995 409.478 45.6408V46.433H400.353V44.7589H407.288C407.288 44.171 407.169 43.6503 406.929 43.197C406.69 42.7386 406.354 42.3774 405.92 42.1133C405.492 41.8492 404.989 41.7172 404.411 41.7172C403.783 41.7172 403.235 41.8717 402.767 42.1806C402.303 42.4845 401.945 42.8831 401.69 43.3763C401.441 43.8646 401.317 44.3952 401.317 44.9682V46.276C401.317 47.0433 401.451 47.696 401.72 48.2341C401.994 48.7722 402.376 49.1832 402.864 49.4672C403.352 49.7462 403.923 49.8857 404.575 49.8857C404.999 49.8857 405.385 49.8259 405.734 49.7064C406.082 49.5818 406.384 49.3975 406.638 49.1533C406.892 48.9092 407.086 48.6078 407.221 48.249L409.336 48.6302C409.166 49.253 408.863 49.7985 408.424 50.2669C407.991 50.7302 407.445 51.0914 406.787 51.3505C406.135 51.6046 405.39 51.7317 404.553 51.7317ZM416.793 51.7317C415.681 51.7317 414.725 51.4801 413.923 50.9769C413.126 50.4687 412.513 49.7686 412.084 48.8768C411.656 47.985 411.442 46.9636 411.442 45.8127C411.442 44.6468 411.661 43.618 412.099 42.7261C412.538 41.8293 413.155 41.1293 413.953 40.6261C414.75 40.1229 415.689 39.8713 416.77 39.8713C417.642 39.8713 418.419 40.0332 419.102 40.357C419.784 40.6759 420.335 41.1243 420.753 41.7023C421.177 42.2802 421.429 42.9553 421.508 43.7276H419.334C419.214 43.1895 418.94 42.7261 418.511 42.3375C418.088 41.9489 417.52 41.7546 416.807 41.7546C416.185 41.7546 415.639 41.919 415.171 42.2478C414.707 42.5717 414.346 43.035 414.087 43.6379C413.828 44.2358 413.699 44.9433 413.699 45.7604C413.699 46.5974 413.826 47.3198 414.08 47.9277C414.334 48.5355 414.692 49.0063 415.156 49.3402C415.624 49.674 416.175 49.8409 416.807 49.8409C417.231 49.8409 417.615 49.7637 417.958 49.6092C418.307 49.4498 418.599 49.2231 418.833 48.9291C419.072 48.6352 419.239 48.2814 419.334 47.8679H421.508C421.429 48.6103 421.187 49.2729 420.783 49.8558C420.38 50.4388 419.839 50.8971 419.162 51.231C418.489 51.5648 417.699 51.7317 416.793 51.7317ZM428.733 51.7317C427.657 51.7317 426.718 51.4851 425.916 50.9918C425.114 50.4986 424.491 49.8085 424.047 48.9216C423.604 48.0348 423.382 46.9985 423.382 45.8127C423.382 44.6219 423.604 43.5806 424.047 42.6888C424.491 41.7969 425.114 41.1044 425.916 40.6111C426.718 40.1179 427.657 39.8713 428.733 39.8713C429.809 39.8713 430.749 40.1179 431.551 40.6111C432.353 41.1044 432.976 41.7969 433.419 42.6888C433.863 43.5806 434.084 44.6219 434.084 45.8127C434.084 46.9985 433.863 48.0348 433.419 48.9216C432.976 49.8085 432.353 50.4986 431.551 50.9918C430.749 51.4851 429.809 51.7317 428.733 51.7317ZM428.741 49.8558C429.438 49.8558 430.016 49.6715 430.475 49.3028C430.933 48.9341 431.272 48.4433 431.491 47.8305C431.715 47.2177 431.827 46.5426 431.827 45.8052C431.827 45.0728 431.715 44.4002 431.491 43.7874C431.272 43.1695 430.933 42.6738 430.475 42.3001C430.016 41.9265 429.438 41.7396 428.741 41.7396C428.038 41.7396 427.455 41.9265 426.992 42.3001C426.534 42.6738 426.192 43.1695 425.968 43.7874C425.749 44.4002 425.639 45.0728 425.639 45.8052C425.639 46.5426 425.749 47.2177 425.968 47.8305C426.192 48.4433 426.534 48.9341 426.992 49.3028C427.455 49.6715 428.038 49.8558 428.741 49.8558ZM438.813 44.6842V51.5H436.579V40.0207H438.723V41.8891H438.865C439.13 41.2812 439.543 40.793 440.106 40.4243C440.674 40.0556 441.389 39.8713 442.251 39.8713C443.033 39.8713 443.718 40.0357 444.306 40.3645C444.894 40.6884 445.35 41.1716 445.674 41.8144C445.998 42.4571 446.16 43.2518 446.16 44.1984V51.5H443.925V44.4674C443.925 43.6354 443.708 42.9852 443.275 42.5169C442.841 42.0435 442.246 41.8069 441.489 41.8069C440.971 41.8069 440.51 41.919 440.106 42.1432C439.708 42.3674 439.391 42.6962 439.157 43.1297C438.928 43.5582 438.813 44.0763 438.813 44.6842ZM453.454 51.7242C452.527 51.7242 451.7 51.4875 450.973 51.0142C450.25 50.5359 449.682 49.8558 449.269 48.974C448.86 48.0871 448.656 47.0234 448.656 45.7828C448.656 44.5422 448.863 43.4809 449.276 42.5991C449.695 41.7172 450.268 41.0421 450.995 40.5738C451.722 40.1054 452.547 39.8713 453.469 39.8713C454.181 39.8713 454.754 39.9908 455.188 40.23C455.626 40.4641 455.965 40.7382 456.204 41.0521C456.448 41.3659 456.637 41.6425 456.772 41.8816H456.906V36.1943H459.141V51.5H456.959V49.7138H456.772C456.637 49.958 456.443 50.237 456.189 50.5509C455.94 50.8648 455.596 51.1388 455.158 51.373C454.719 51.6071 454.151 51.7242 453.454 51.7242ZM453.947 49.8185C454.59 49.8185 455.133 49.6491 455.576 49.3103C456.025 48.9665 456.363 48.4907 456.593 47.8828C456.827 47.275 456.944 46.5675 456.944 45.7604C456.944 44.9632 456.829 44.2657 456.6 43.6678C456.371 43.0699 456.035 42.6041 455.591 42.2702C455.148 41.9364 454.6 41.7695 453.947 41.7695C453.274 41.7695 452.714 41.9439 452.265 42.2927C451.817 42.6414 451.478 43.1172 451.249 43.7201C451.025 44.323 450.913 45.003 450.913 45.7604C450.913 46.5276 451.027 47.2177 451.257 47.8305C451.486 48.4433 451.825 48.9291 452.273 49.2878C452.726 49.6416 453.284 49.8185 453.947 49.8185ZM465.671 51.7541C464.944 51.7541 464.286 51.6196 463.698 51.3505C463.11 51.0765 462.644 50.6804 462.3 50.1622C461.962 49.6441 461.792 49.0088 461.792 48.2565C461.792 47.6088 461.917 47.0757 462.166 46.6572C462.415 46.2387 462.751 45.9073 463.175 45.6632C463.598 45.4191 464.072 45.2347 464.595 45.1102C465.118 44.9856 465.651 44.8909 466.194 44.8262C466.882 44.7465 467.44 44.6817 467.868 44.6319C468.297 44.5771 468.608 44.4899 468.802 44.3703C468.997 44.2507 469.094 44.0564 469.094 43.7874V43.735C469.094 43.0824 468.91 42.5767 468.541 42.2179C468.177 41.8592 467.634 41.6798 466.912 41.6798C466.159 41.6798 465.566 41.8467 465.133 42.1806C464.704 42.5094 464.408 42.8756 464.244 43.2792L462.144 42.8009C462.393 42.1033 462.756 41.5403 463.235 41.1118C463.718 40.6784 464.273 40.3645 464.901 40.1702C465.529 39.9709 466.189 39.8713 466.882 39.8713C467.34 39.8713 467.826 39.9261 468.339 40.0357C468.857 40.1403 469.341 40.3346 469.789 40.6186C470.242 40.9026 470.613 41.3087 470.902 41.8368C471.191 42.3599 471.336 43.04 471.336 43.877V51.5H469.154V49.9306H469.064C468.919 50.2195 468.703 50.5035 468.414 50.7825C468.125 51.0616 467.754 51.2932 467.3 51.4776C466.847 51.6619 466.304 51.7541 465.671 51.7541ZM466.157 49.9605C466.775 49.9605 467.303 49.8384 467.741 49.5943C468.185 49.3501 468.521 49.0313 468.75 48.6377C468.984 48.2391 469.101 47.8131 469.101 47.3597V45.8799C469.022 45.9597 468.867 46.0344 468.638 46.1041C468.414 46.1689 468.157 46.2262 467.868 46.276C467.579 46.3209 467.298 46.3632 467.024 46.4031C466.75 46.438 466.521 46.4678 466.336 46.4928C465.903 46.5476 465.507 46.6397 465.148 46.7693C464.794 46.8988 464.51 47.0857 464.296 47.3298C464.087 47.5689 463.982 47.8878 463.982 48.2864C463.982 48.8394 464.186 49.258 464.595 49.5419C465.003 49.821 465.524 49.9605 466.157 49.9605ZM474.312 51.5V40.0207H476.472V41.8443H476.592C476.801 41.2264 477.17 40.7407 477.698 40.3869C478.231 40.0282 478.834 39.8488 479.506 39.8488C479.646 39.8488 479.81 39.8538 480 39.8638C480.194 39.8737 480.346 39.8862 480.455 39.9011V42.0386C480.366 42.0137 480.206 41.9862 479.977 41.9564C479.748 41.9215 479.519 41.904 479.29 41.904C478.761 41.904 478.291 42.0161 477.877 42.2403C477.469 42.4596 477.145 42.766 476.906 43.1596C476.666 43.5482 476.547 43.9916 476.547 44.4899V51.5H474.312ZM484.151 55.8047C483.817 55.8047 483.513 55.7773 483.239 55.7225C482.965 55.6727 482.761 55.6179 482.627 55.5581L483.165 53.7271C483.573 53.8367 483.937 53.884 484.256 53.8691C484.575 53.8541 484.856 53.7346 485.1 53.5104C485.349 53.2862 485.569 52.92 485.758 52.4118L486.034 51.6495L481.834 40.0207H484.226L487.133 48.9291H487.253L490.16 40.0207H492.559L487.828 53.0321C487.609 53.6299 487.33 54.1357 486.991 54.5492C486.652 54.9677 486.249 55.2816 485.78 55.4908C485.312 55.7001 484.769 55.8047 484.151 55.8047ZM500.408 51.5V36.1943H502.717V49.5121H509.653V51.5H500.408ZM516.943 51.7317C515.867 51.7317 514.928 51.4851 514.125 50.9918C513.323 50.4986 512.7 49.8085 512.257 48.9216C511.814 48.0348 511.592 46.9985 511.592 45.8127C511.592 44.6219 511.814 43.5806 512.257 42.6888C512.7 41.7969 513.323 41.1044 514.125 40.6111C514.928 40.1179 515.867 39.8713 516.943 39.8713C518.019 39.8713 518.958 40.1179 519.76 40.6111C520.563 41.1044 521.185 41.7969 521.629 42.6888C522.072 43.5806 522.294 44.6219 522.294 45.8127C522.294 46.9985 522.072 48.0348 521.629 48.9216C521.185 49.8085 520.563 50.4986 519.76 50.9918C518.958 51.4851 518.019 51.7317 516.943 51.7317ZM516.95 49.8558C517.648 49.8558 518.226 49.6715 518.684 49.3028C519.143 48.9341 519.481 48.4433 519.701 47.8305C519.925 47.2177 520.037 46.5426 520.037 45.8052C520.037 45.0728 519.925 44.4002 519.701 43.7874C519.481 43.1695 519.143 42.6738 518.684 42.3001C518.226 41.9265 517.648 41.7396 516.95 41.7396C516.248 41.7396 515.665 41.9265 515.202 42.3001C514.743 42.6738 514.402 43.1695 514.178 43.7874C513.958 44.4002 513.849 45.0728 513.849 45.8052C513.849 46.5426 513.958 47.2177 514.178 47.8305C514.402 48.4433 514.743 48.9341 515.202 49.3028C515.665 49.6715 516.248 49.8558 516.95 49.8558ZM529.601 56.0439C528.689 56.0439 527.905 55.9243 527.247 55.6852C526.594 55.446 526.061 55.1296 525.648 54.736C525.234 54.3424 524.925 53.9114 524.721 53.4431L526.642 52.6509C526.776 52.8701 526.956 53.1018 527.18 53.346C527.409 53.5951 527.718 53.8068 528.106 53.9812C528.5 54.1556 529.006 54.2428 529.624 54.2428C530.471 54.2428 531.171 54.036 531.724 53.6225C532.277 53.2139 532.553 52.5612 532.553 51.6644V49.4074H532.411C532.277 49.6516 532.082 49.9231 531.828 50.222C531.579 50.521 531.235 50.7801 530.797 50.9993C530.358 51.2185 529.788 51.3281 529.085 51.3281C528.179 51.3281 527.362 51.1164 526.634 50.6929C525.912 50.2644 525.339 49.6341 524.915 48.8021C524.497 47.965 524.287 46.9362 524.287 45.7155C524.287 44.4948 524.494 43.4486 524.908 42.5767C525.326 41.7047 525.899 41.0371 526.627 40.5738C527.354 40.1054 528.179 39.8713 529.1 39.8713C529.813 39.8713 530.388 39.9908 530.827 40.23C531.265 40.4641 531.607 40.7382 531.851 41.0521C532.1 41.3659 532.292 41.6425 532.426 41.8816H532.591V40.0207H534.78V51.7541C534.78 52.7406 534.551 53.5502 534.093 54.183C533.634 54.8157 533.014 55.2841 532.232 55.588C531.455 55.8919 530.578 56.0439 529.601 56.0439ZM529.579 49.4747C530.221 49.4747 530.764 49.3252 531.208 49.0263C531.656 48.7224 531.995 48.2889 532.224 47.7259C532.458 47.1579 532.576 46.4778 532.576 45.6856C532.576 44.9134 532.461 44.2333 532.232 43.6454C532.003 43.0574 531.666 42.5991 531.223 42.2702C530.779 41.9364 530.231 41.7695 529.579 41.7695C528.906 41.7695 528.346 41.9439 527.897 42.2927C527.449 42.6364 527.11 43.1048 526.881 43.6977C526.657 44.2906 526.544 44.9532 526.544 45.6856C526.544 46.438 526.659 47.0981 526.888 47.6661C527.117 48.2341 527.456 48.6775 527.905 48.9964C528.358 49.3152 528.916 49.4747 529.579 49.4747ZM542.612 51.7317C541.536 51.7317 540.597 51.4851 539.795 50.9918C538.993 50.4986 538.37 49.8085 537.927 48.9216C537.483 48.0348 537.261 46.9985 537.261 45.8127C537.261 44.6219 537.483 43.5806 537.927 42.6888C538.37 41.7969 538.993 41.1044 539.795 40.6111C540.597 40.1179 541.536 39.8713 542.612 39.8713C543.689 39.8713 544.628 40.1179 545.43 40.6111C546.232 41.1044 546.855 41.7969 547.298 42.6888C547.742 43.5806 547.963 44.6219 547.963 45.8127C547.963 46.9985 547.742 48.0348 547.298 48.9216C546.855 49.8085 546.232 50.4986 545.43 50.9918C544.628 51.4851 543.689 51.7317 542.612 51.7317ZM542.62 49.8558C543.317 49.8558 543.895 49.6715 544.354 49.3028C544.812 48.9341 545.151 48.4433 545.37 47.8305C545.594 47.2177 545.706 46.5426 545.706 45.8052C545.706 45.0728 545.594 44.4002 545.37 43.7874C545.151 43.1695 544.812 42.6738 544.354 42.3001C543.895 41.9265 543.317 41.7396 542.62 41.7396C541.917 41.7396 541.335 41.9265 540.871 42.3001C540.413 42.6738 540.071 43.1695 539.847 43.7874C539.628 44.4002 539.518 45.0728 539.518 45.8052C539.518 46.5426 539.628 47.2177 539.847 47.8305C540.071 48.4433 540.413 48.9341 540.871 49.3028C541.335 49.6715 541.917 49.8558 542.62 49.8558ZM562.791 42.8756V44.8187H556.005V42.8756H562.791ZM571.518 36.1943H574.321L579.193 48.0921H579.373L584.245 36.1943H587.048V51.5H584.851V40.4243H584.709L580.195 51.4776H578.371L573.857 40.4168H573.715V51.5H571.518V36.1943ZM593.567 51.7541C592.839 51.7541 592.182 51.6196 591.594 51.3505C591.006 51.0765 590.54 50.6804 590.196 50.1622C589.857 49.6441 589.688 49.0088 589.688 48.2565C589.688 47.6088 589.813 47.0757 590.062 46.6572C590.311 46.2387 590.647 45.9073 591.071 45.6632C591.494 45.4191 591.967 45.2347 592.491 45.1102C593.014 44.9856 593.547 44.8909 594.09 44.8262C594.777 44.7465 595.335 44.6817 595.764 44.6319C596.192 44.5771 596.504 44.4899 596.698 44.3703C596.892 44.2507 596.99 44.0564 596.99 43.7874V43.735C596.99 43.0824 596.805 42.5767 596.437 42.2179C596.073 41.8592 595.53 41.6798 594.807 41.6798C594.055 41.6798 593.462 41.8467 593.029 42.1806C592.6 42.5094 592.304 42.8756 592.139 43.2792L590.039 42.8009C590.288 42.1033 590.652 41.5403 591.13 41.1118C591.614 40.6784 592.169 40.3645 592.797 40.1702C593.425 39.9709 594.085 39.8713 594.777 39.8713C595.236 39.8713 595.722 39.9261 596.235 40.0357C596.753 40.1403 597.236 40.3346 597.685 40.6186C598.138 40.9026 598.509 41.3087 598.798 41.8368C599.087 42.3599 599.232 43.04 599.232 43.877V51.5H597.049V49.9306H596.96C596.815 50.2195 596.598 50.5035 596.309 50.7825C596.021 51.0616 595.649 51.2932 595.196 51.4776C594.743 51.6619 594.199 51.7541 593.567 51.7541ZM594.053 49.9605C594.67 49.9605 595.198 49.8384 595.637 49.5943C596.08 49.3501 596.417 49.0313 596.646 48.6377C596.88 48.2391 596.997 47.8131 596.997 47.3597V45.8799C596.917 45.9597 596.763 46.0344 596.534 46.1041C596.309 46.1689 596.053 46.2262 595.764 46.276C595.475 46.3209 595.193 46.3632 594.919 46.4031C594.645 46.438 594.416 46.4678 594.232 46.4928C593.798 46.5476 593.402 46.6397 593.044 46.7693C592.69 46.8988 592.406 47.0857 592.192 47.3298C591.982 47.5689 591.878 47.8878 591.878 48.2864C591.878 48.8394 592.082 49.258 592.491 49.5419C592.899 49.821 593.42 49.9605 594.053 49.9605ZM610.81 42.8233L608.785 43.182C608.7 42.9229 608.565 42.6763 608.381 42.4421C608.202 42.208 607.958 42.0161 607.649 41.8667C607.34 41.7172 606.954 41.6425 606.49 41.6425C605.858 41.6425 605.329 41.7845 604.906 42.0685C604.482 42.3475 604.271 42.7087 604.271 43.1521C604.271 43.5358 604.413 43.8447 604.697 44.0788C604.981 44.313 605.439 44.5048 606.072 44.6543L607.895 45.0728C608.952 45.3169 609.739 45.6931 610.257 46.2013C610.775 46.7095 611.034 47.3697 611.034 48.1818C611.034 48.8693 610.835 49.4822 610.436 50.0202C610.043 50.5534 609.492 50.9719 608.785 51.2758C608.082 51.5797 607.268 51.7317 606.341 51.7317C605.055 51.7317 604.007 51.4577 603.194 50.9096C602.382 50.3566 601.884 49.5718 601.7 48.5554L603.86 48.2266C603.994 48.7896 604.271 49.2156 604.689 49.5046C605.108 49.7886 605.653 49.9306 606.326 49.9306C607.058 49.9306 607.644 49.7786 608.082 49.4747C608.521 49.1658 608.74 48.7896 608.74 48.3462C608.74 47.9875 608.605 47.686 608.336 47.4419C608.072 47.1978 607.666 47.0134 607.118 46.8889L605.175 46.4629C604.104 46.2187 603.312 45.8301 602.798 45.297C602.29 44.7639 602.036 44.0888 602.036 43.2717C602.036 42.5941 602.225 42.0012 602.604 41.493C602.983 40.9848 603.506 40.5887 604.173 40.3047C604.841 40.0157 605.606 39.8713 606.468 39.8713C607.708 39.8713 608.685 40.1403 609.397 40.6784C610.11 41.2115 610.581 41.9265 610.81 42.8233ZM618.326 51.7317C617.215 51.7317 616.259 51.4801 615.457 50.9769C614.659 50.4687 614.047 49.7686 613.618 48.8768C613.19 47.985 612.975 46.9636 612.975 45.8127C612.975 44.6468 613.195 43.618 613.633 42.7261C614.071 41.8293 614.689 41.1293 615.486 40.6261C616.284 40.1229 617.223 39.8713 618.304 39.8713C619.176 39.8713 619.953 40.0332 620.636 40.357C621.318 40.6759 621.869 41.1243 622.287 41.7023C622.711 42.2802 622.962 42.9553 623.042 43.7276H620.867C620.748 43.1895 620.474 42.7261 620.045 42.3375C619.622 41.9489 619.054 41.7546 618.341 41.7546C617.719 41.7546 617.173 41.919 616.705 42.2478C616.241 42.5717 615.88 43.035 615.621 43.6379C615.362 44.2358 615.232 44.9433 615.232 45.7604C615.232 46.5974 615.359 47.3198 615.614 47.9277C615.868 48.5355 616.226 49.0063 616.69 49.3402C617.158 49.674 617.709 49.8409 618.341 49.8409C618.765 49.8409 619.148 49.7637 619.492 49.6092C619.841 49.4498 620.132 49.2231 620.367 48.9291C620.606 48.6352 620.773 48.2814 620.867 47.8679H623.042C622.962 48.6103 622.721 49.2729 622.317 49.8558C621.914 50.4388 621.373 50.8971 620.695 51.231C620.023 51.5648 619.233 51.7317 618.326 51.7317ZM630.267 51.7317C629.191 51.7317 628.252 51.4851 627.45 50.9918C626.648 50.4986 626.025 49.8085 625.581 48.9216C625.138 48.0348 624.916 46.9985 624.916 45.8127C624.916 44.6219 625.138 43.5806 625.581 42.6888C626.025 41.7969 626.648 41.1044 627.45 40.6111C628.252 40.1179 629.191 39.8713 630.267 39.8713C631.343 39.8713 632.283 40.1179 633.085 40.6111C633.887 41.1044 634.51 41.7969 634.953 42.6888C635.396 43.5806 635.618 44.6219 635.618 45.8127C635.618 46.9985 635.396 48.0348 634.953 48.9216C634.51 49.8085 633.887 50.4986 633.085 50.9918C632.283 51.4851 631.343 51.7317 630.267 51.7317ZM630.275 49.8558C630.972 49.8558 631.55 49.6715 632.008 49.3028C632.467 48.9341 632.806 48.4433 633.025 47.8305C633.249 47.2177 633.361 46.5426 633.361 45.8052C633.361 45.0728 633.249 44.4002 633.025 43.7874C632.806 43.1695 632.467 42.6738 632.008 42.3001C631.55 41.9265 630.972 41.7396 630.275 41.7396C629.572 41.7396 628.989 41.9265 628.526 42.3001C628.067 42.6738 627.726 43.1695 627.502 43.7874C627.283 44.4002 627.173 45.0728 627.173 45.8052C627.173 46.5426 627.283 47.2177 627.502 47.8305C627.726 48.4433 628.067 48.9341 628.526 49.3028C628.989 49.6715 629.572 49.8558 630.275 49.8558ZM643.471 40.0207V41.8144H637.201V40.0207H643.471ZM638.882 37.2705H641.117V48.1295C641.117 48.5629 641.182 48.8893 641.311 49.1085C641.441 49.3227 641.608 49.4697 641.812 49.5494C642.021 49.6242 642.248 49.6615 642.492 49.6615C642.671 49.6615 642.828 49.6491 642.963 49.6242C643.097 49.5992 643.202 49.5793 643.277 49.5644L643.68 51.4103C643.551 51.4601 643.366 51.51 643.127 51.5598C642.888 51.6146 642.589 51.6445 642.23 51.6495C641.642 51.6594 641.094 51.5548 640.586 51.3356C640.078 51.1164 639.667 50.7776 639.353 50.3192C639.039 49.8608 638.882 49.2854 638.882 48.5928V37.2705Z" fill="#1B38E0"/>
<path d="M577.651 183.416L593.268 200.939C593.55 201.255 593.265 201.513 592.632 201.513H436.378C435.744 201.513 435.46 201.255 435.742 200.939L451.358 183.416C453.842 180.63 461.176 178.527 467.912 178.527H561.098C567.834 178.527 575.169 180.63 577.652 183.416H577.651Z" fill="#F2E7E5"/>
<path d="M592.626 204.27H436.372C434.875 204.27 433.668 203.563 433.143 202.38C432.656 201.283 432.868 200.025 433.695 199.096L449.312 181.573C452.709 177.762 461.237 175.768 467.907 175.768H561.092C567.761 175.768 576.289 177.762 579.686 181.573L595.303 199.095C596.131 200.025 596.343 201.284 595.856 202.38C595.331 203.563 594.124 204.27 592.626 204.27H592.626ZM441.365 198.752H587.633L575.605 185.257C573.931 183.378 567.559 181.285 561.092 181.285H467.907C461.44 181.285 455.067 183.378 453.393 185.257L441.365 198.752Z" fill="#1B38E0"/>
<path d="M477.018 89.0273C478.943 88.6326 488.271 86.9248 495.797 92.914L496.092 93.1543C499.098 95.6471 500.581 98.469 502.009 101.124L502.173 101.433C503.086 103.18 505.344 107.959 506.531 115.973C507.254 120.853 507.288 125.009 507.394 127.734C507.398 127.837 507.402 127.937 507.406 128.035C510.911 126.587 514.216 126.868 516.827 127.057C524.837 127.637 531.113 132.29 532.712 133.522L528.624 138.897C527.2 137.8 522.268 134.238 516.344 133.809C513.343 133.591 511.437 133.523 509.426 134.542L509.425 134.542C508.829 134.844 508.669 134.993 508.063 135.365C507.558 135.676 506.206 136.48 504.426 135.973C501.982 135.277 501.295 132.979 501.072 131.999C500.804 130.82 500.726 129.368 500.673 127.998C500.56 125.068 500.534 121.389 499.88 116.971C498.755 109.384 496.592 105.271 496.095 104.347L496.094 104.347C494.584 101.538 493.615 99.807 491.626 98.2236C486.973 94.5206 480.929 95.1908 478.744 95.5858L478.36 95.6599C476.21 96.1006 471.959 97.394 468.833 101.014C466.165 104.105 464.634 108.495 465.027 118.731C465.369 127.66 466.841 133.515 468.456 138.984C470.08 144.482 471.975 149.937 472.84 157.535L472.914 158.209C473.65 165.272 473.645 175.61 469.781 188.621L463.338 186.683C467.022 174.276 466.88 164.634 466.159 158.307C465.377 151.444 463.712 146.676 462.01 140.913C460.299 135.12 458.678 128.676 458.306 118.992C457.889 108.13 459.413 101.605 463.757 96.5737C468.297 91.3151 474.262 89.5924 477.018 89.0273Z" fill="#1B38E0"/>
<path d="M534.513 92.8456C536.753 91.6825 543.701 88.3683 551.589 90.9114C557.789 92.91 561.256 97.4645 562.667 99.4884L562.921 99.8579L562.922 99.8582C570.141 110.399 567.162 123.403 565.796 129.696C564.999 133.373 563.589 138.124 560.959 143.382C562.542 145.067 564.329 147.291 565.938 150.104L566.159 150.495L566.35 150.845C570.31 158.17 570.604 164.944 570.738 168.75C571.094 178.89 568.076 186.92 565.898 191.479L559.837 188.545C561.711 184.623 564.24 177.868 564.029 169.394L564.017 168.989C563.888 165.332 563.608 159.777 560.288 153.798C558.397 150.393 556.16 148.009 554.545 146.521C553.394 145.462 553.118 143.745 553.879 142.374C556.915 136.903 558.424 131.948 559.226 128.252C560.697 121.468 562.707 111.471 557.385 103.7C556.294 102.108 553.876 98.7559 549.538 97.3573C544.339 95.6812 539.55 97.859 537.6 98.8608L537.249 99.0439C530.057 102.834 527.434 110.363 525.743 115.437C524.663 118.676 523.256 124.354 523.963 131.755L517.269 132.403C516.446 123.793 518.083 117.135 519.366 113.285C520.985 108.428 524.265 98.2459 534.129 93.0472L534.513 92.8456Z" fill="#1B38E0"/>
<path d="M509.912 155.812C512.206 155.812 514.066 153.94 514.066 151.631C514.066 149.321 512.206 147.449 509.912 147.449C507.618 147.449 505.758 149.321 505.758 151.631C505.758 153.94 507.618 155.812 509.912 155.812Z" fill="#1B38E0"/>
<path d="M539.535 153.194C541.829 153.194 543.689 151.322 543.689 149.012C543.689 146.703 541.829 144.831 539.535 144.831C537.241 144.831 535.381 146.703 535.381 149.012C535.381 151.322 537.241 153.194 539.535 153.194Z" fill="#1B38E0"/>
<path d="M531.268 171.737C534.906 171.737 537.855 168.769 537.855 165.108C537.855 161.447 534.906 158.479 531.268 158.479C527.631 158.479 524.682 161.447 524.682 165.108C524.682 168.769 527.631 171.737 531.268 171.737Z" fill="#1B38E0"/>
<rect x="701.5" y="0.5" width="328" height="252" rx="12" fill="#F2E7E5"/>
<rect x="702" y="1" width="327" height="251" rx="11.5" stroke="#33241F" stroke-opacity="0.5"/>
<path d="M797.275 41.1716H794.943C794.853 40.6734 794.686 40.235 794.442 39.8563C794.198 39.4776 793.899 39.1563 793.545 38.8922C793.191 38.6282 792.795 38.4289 792.357 38.2943C791.923 38.1598 791.463 38.0926 790.974 38.0926C790.092 38.0926 789.303 38.3143 788.605 38.7577C787.913 39.2011 787.365 39.8513 786.961 40.7083C786.563 41.5652 786.363 42.6115 786.363 43.8471C786.363 45.0927 786.563 46.144 786.961 47.001C787.365 47.8579 787.915 48.5056 788.613 48.9441C789.31 49.3825 790.095 49.6017 790.967 49.6017C791.45 49.6017 791.909 49.537 792.342 49.4074C792.78 49.2729 793.177 49.0761 793.53 48.817C793.884 48.5579 794.183 48.2416 794.427 47.8679C794.676 47.4892 794.848 47.0558 794.943 46.5675L797.275 46.575C797.15 47.3273 796.908 48.0198 796.55 48.6526C796.196 49.2804 795.74 49.8234 795.182 50.2818C794.629 50.7352 793.996 51.0865 793.284 51.3356C792.571 51.5847 791.794 51.7093 790.952 51.7093C789.627 51.7093 788.446 51.3954 787.41 50.7676C786.373 50.1348 785.556 49.2306 784.958 48.0547C784.365 46.8789 784.069 45.4764 784.069 43.8471C784.069 42.2129 784.368 40.8104 784.966 39.6396C785.564 38.4637 786.381 37.5619 787.417 36.9342C788.453 36.3014 789.632 35.985 790.952 35.985C791.764 35.985 792.521 36.1021 793.224 36.3363C793.931 36.5655 794.567 36.9043 795.13 37.3527C795.693 37.7961 796.158 38.3392 796.527 38.9819C796.896 39.6196 797.145 40.3496 797.275 41.1716ZM804.694 51.7317C803.618 51.7317 802.678 51.4851 801.876 50.9918C801.074 50.4986 800.451 49.8085 800.008 48.9216C799.565 48.0348 799.343 46.9985 799.343 45.8127C799.343 44.6219 799.565 43.5806 800.008 42.6888C800.451 41.7969 801.074 41.1044 801.876 40.6111C802.678 40.1179 803.618 39.8713 804.694 39.8713C805.77 39.8713 806.709 40.1179 807.511 40.6111C808.313 41.1044 808.936 41.7969 809.38 42.6888C809.823 43.5806 810.045 44.6219 810.045 45.8127C810.045 46.9985 809.823 48.0348 809.38 48.9216C808.936 49.8085 808.313 50.4986 807.511 50.9918C806.709 51.4851 805.77 51.7317 804.694 51.7317ZM804.701 49.8558C805.399 49.8558 805.977 49.6715 806.435 49.3028C806.894 48.9341 807.232 48.4433 807.452 47.8305C807.676 47.2177 807.788 46.5426 807.788 45.8052C807.788 45.0728 807.676 44.4002 807.452 43.7874C807.232 43.1695 806.894 42.6738 806.435 42.3001C805.977 41.9265 805.399 41.7396 804.701 41.7396C803.999 41.7396 803.416 41.9265 802.952 42.3001C802.494 42.6738 802.153 43.1695 801.929 43.7874C801.709 44.4002 801.6 45.0728 801.6 45.8052C801.6 46.5426 801.709 47.2177 801.929 47.8305C802.153 48.4433 802.494 48.9341 802.952 49.3028C803.416 49.6715 803.999 49.8558 804.701 49.8558ZM812.539 51.5V40.0207H814.684V41.8891H814.826C815.065 41.2563 815.456 40.7631 815.999 40.4093C816.542 40.0506 817.193 39.8713 817.95 39.8713C818.717 39.8713 819.36 40.0506 819.878 40.4093C820.401 40.7681 820.787 41.2613 821.036 41.8891H821.156C821.43 41.2763 821.866 40.788 822.464 40.4243C823.062 40.0556 823.774 39.8713 824.601 39.8713C825.643 39.8713 826.492 40.1976 827.15 40.8503C827.812 41.503 828.144 42.487 828.144 43.8023V51.5H825.909V44.0116C825.909 43.2343 825.697 42.6713 825.274 42.3226C824.85 41.9738 824.345 41.7994 823.757 41.7994C823.029 41.7994 822.464 42.0236 822.06 42.472C821.657 42.9155 821.455 43.4859 821.455 44.1835V51.5H819.228V43.8696C819.228 43.2468 819.034 42.7461 818.645 42.3674C818.256 41.9887 817.751 41.7994 817.128 41.7994C816.704 41.7994 816.313 41.9115 815.954 42.1357C815.601 42.3549 815.314 42.6614 815.095 43.055C814.881 43.4486 814.774 43.9044 814.774 44.4226V51.5H812.539ZM831.139 55.8047V40.0207H833.321V41.8816H833.508C833.637 41.6425 833.824 41.3659 834.068 41.0521C834.313 40.7382 834.651 40.4641 835.085 40.23C835.518 39.9908 836.091 39.8713 836.804 39.8713C837.73 39.8713 838.557 40.1054 839.285 40.5738C840.012 41.0421 840.583 41.7172 840.996 42.5991C841.415 43.4809 841.624 44.5422 841.624 45.7828C841.624 47.0234 841.417 48.0871 841.004 48.974C840.59 49.8558 840.022 50.5359 839.3 51.0142C838.577 51.4875 837.753 51.7242 836.826 51.7242C836.129 51.7242 835.558 51.6071 835.115 51.373C834.676 51.1388 834.332 50.8648 834.083 50.5509C833.834 50.237 833.642 49.958 833.508 49.7138H833.373V55.8047H831.139ZM833.328 45.7604C833.328 46.5675 833.446 47.275 833.68 47.8828C833.914 48.4907 834.253 48.9665 834.696 49.3103C835.14 49.6491 835.683 49.8185 836.325 49.8185C836.993 49.8185 837.551 49.6416 837.999 49.2878C838.448 48.9291 838.787 48.4433 839.016 47.8305C839.25 47.2177 839.367 46.5276 839.367 45.7604C839.367 45.003 839.252 44.323 839.023 43.7201C838.799 43.1172 838.46 42.6414 838.007 42.2927C837.558 41.9439 836.998 41.7695 836.325 41.7695C835.678 41.7695 835.13 41.9364 834.681 42.2702C834.238 42.6041 833.901 43.0699 833.672 43.6678C833.443 44.2657 833.328 44.9632 833.328 45.7604ZM848.963 51.7317C847.887 51.7317 846.948 51.4851 846.146 50.9918C845.343 50.4986 844.721 49.8085 844.277 48.9216C843.834 48.0348 843.612 46.9985 843.612 45.8127C843.612 44.6219 843.834 43.5806 844.277 42.6888C844.721 41.7969 845.343 41.1044 846.146 40.6111C846.948 40.1179 847.887 39.8713 848.963 39.8713C850.039 39.8713 850.978 40.1179 851.781 40.6111C852.583 41.1044 853.205 41.7969 853.649 42.6888C854.092 43.5806 854.314 44.6219 854.314 45.8127C854.314 46.9985 854.092 48.0348 853.649 48.9216C853.205 49.8085 852.583 50.4986 851.781 50.9918C850.978 51.4851 850.039 51.7317 848.963 51.7317ZM848.971 49.8558C849.668 49.8558 850.246 49.6715 850.704 49.3028C851.163 48.9341 851.502 48.4433 851.721 47.8305C851.945 47.2177 852.057 46.5426 852.057 45.8052C852.057 45.0728 851.945 44.4002 851.721 43.7874C851.502 43.1695 851.163 42.6738 850.704 42.3001C850.246 41.9265 849.668 41.7396 848.971 41.7396C848.268 41.7396 847.685 41.9265 847.222 42.3001C846.763 42.6738 846.422 43.1695 846.198 43.7874C845.979 44.4002 845.869 45.0728 845.869 45.8052C845.869 46.5426 845.979 47.2177 846.198 47.8305C846.422 48.4433 846.763 48.9341 847.222 49.3028C847.685 49.6715 848.268 49.8558 848.971 49.8558ZM865.41 42.8233L863.385 43.182C863.3 42.9229 863.166 42.6763 862.981 42.4421C862.802 42.208 862.558 42.0161 862.249 41.8667C861.94 41.7172 861.554 41.6425 861.091 41.6425C860.458 41.6425 859.93 41.7845 859.506 42.0685C859.083 42.3475 858.871 42.7087 858.871 43.1521C858.871 43.5358 859.013 43.8447 859.297 44.0788C859.581 44.313 860.039 44.5048 860.672 44.6543L862.496 45.0728C863.552 45.3169 864.339 45.6931 864.857 46.2013C865.375 46.7095 865.635 47.3697 865.635 48.1818C865.635 48.8693 865.435 49.4822 865.037 50.0202C864.643 50.5534 864.092 50.9719 863.385 51.2758C862.682 51.5797 861.868 51.7317 860.941 51.7317C859.656 51.7317 858.607 51.4577 857.795 50.9096C856.983 50.3566 856.484 49.5718 856.3 48.5554L858.46 48.2266C858.594 48.7896 858.871 49.2156 859.29 49.5046C859.708 49.7886 860.254 49.9306 860.926 49.9306C861.659 49.9306 862.244 49.7786 862.682 49.4747C863.121 49.1658 863.34 48.7896 863.34 48.3462C863.34 47.9875 863.206 47.686 862.937 47.4419C862.673 47.1978 862.266 47.0134 861.718 46.8889L859.775 46.4629C858.704 46.2187 857.912 45.8301 857.399 45.297C856.891 44.7639 856.636 44.0888 856.636 43.2717C856.636 42.5941 856.826 42.0012 857.204 41.493C857.583 40.9848 858.106 40.5887 858.774 40.3047C859.441 40.0157 860.206 39.8713 861.068 39.8713C862.309 39.8713 863.285 40.1403 863.998 40.6784C864.71 41.2115 865.181 41.9265 865.41 42.8233ZM868.091 51.5V40.0207H870.326V51.5H868.091ZM869.22 38.2495C868.831 38.2495 868.497 38.12 868.218 37.8609C867.944 37.5968 867.807 37.2829 867.807 36.9192C867.807 36.5505 867.944 36.2366 868.218 35.9776C868.497 35.7135 868.831 35.5815 869.22 35.5815C869.609 35.5815 869.94 35.7135 870.214 35.9776C870.493 36.2366 870.632 36.5505 870.632 36.9192C870.632 37.2829 870.493 37.5968 870.214 37.8609C869.94 38.12 869.609 38.2495 869.22 38.2495ZM878.691 40.0207V41.8144H872.42V40.0207H878.691ZM874.102 37.2705H876.337V48.1295C876.337 48.5629 876.401 48.8893 876.531 49.1085C876.66 49.3227 876.827 49.4697 877.032 49.5494C877.241 49.6242 877.468 49.6615 877.712 49.6615C877.891 49.6615 878.048 49.6491 878.183 49.6242C878.317 49.5992 878.422 49.5793 878.496 49.5644L878.9 51.4103C878.77 51.4601 878.586 51.51 878.347 51.5598C878.108 51.6146 877.809 51.6445 877.45 51.6495C876.862 51.6594 876.314 51.5548 875.806 51.3356C875.298 51.1164 874.887 50.7776 874.573 50.3192C874.259 49.8608 874.102 49.2854 874.102 48.5928V37.2705ZM885.987 51.7317C884.856 51.7317 883.882 51.49 883.065 51.0067C882.252 50.5185 881.625 49.8334 881.181 48.9515C880.743 48.0647 880.524 47.0259 880.524 45.8351C880.524 44.6593 880.743 43.6229 881.181 42.7261C881.625 41.8293 882.242 41.1293 883.035 40.6261C883.832 40.1229 884.764 39.8713 885.83 39.8713C886.477 39.8713 887.105 39.9784 887.713 40.1926C888.321 40.4068 888.866 40.7432 889.35 41.2015C889.833 41.6599 890.214 42.2553 890.493 42.9877C890.772 43.7151 890.912 44.5995 890.912 45.6408V46.433H881.787V44.7589H888.722C888.722 44.171 888.602 43.6503 888.363 43.197C888.124 42.7386 887.788 42.3774 887.354 42.1133C886.926 41.8492 886.423 41.7172 885.845 41.7172C885.217 41.7172 884.669 41.8717 884.201 42.1806C883.737 42.4845 883.378 42.8831 883.124 43.3763C882.875 43.8646 882.751 44.3952 882.751 44.9682V46.276C882.751 47.0433 882.885 47.696 883.154 48.2341C883.428 48.7722 883.809 49.1832 884.298 49.4672C884.786 49.7462 885.356 49.8857 886.009 49.8857C886.433 49.8857 886.819 49.8259 887.168 49.7064C887.516 49.5818 887.818 49.3975 888.072 49.1533C888.326 48.9092 888.52 48.6078 888.655 48.249L890.77 48.6302C890.6 49.253 890.296 49.7985 889.858 50.2669C889.425 50.7302 888.879 51.0914 888.221 51.3505C887.569 51.6046 886.824 51.7317 885.987 51.7317ZM899.14 36.1943H901.943L906.815 48.0921H906.995L911.867 36.1943H914.67V51.5H912.473V40.4243H912.331L907.817 51.4776H905.993L901.479 40.4168H901.337V51.5H899.14V36.1943ZM921.189 51.7541C920.461 51.7541 919.804 51.6196 919.216 51.3505C918.628 51.0765 918.162 50.6804 917.818 50.1622C917.479 49.6441 917.31 49.0088 917.31 48.2565C917.31 47.6088 917.435 47.0757 917.684 46.6572C917.933 46.2387 918.269 45.9073 918.693 45.6632C919.116 45.4191 919.589 45.2347 920.113 45.1102C920.636 44.9856 921.169 44.8909 921.712 44.8262C922.399 44.7465 922.957 44.6817 923.386 44.6319C923.814 44.5771 924.126 44.4899 924.32 44.3703C924.514 44.2507 924.612 44.0564 924.612 43.7874V43.735C924.612 43.0824 924.427 42.5767 924.059 42.2179C923.695 41.8592 923.152 41.6798 922.429 41.6798C921.677 41.6798 921.084 41.8467 920.651 42.1806C920.222 42.5094 919.926 42.8756 919.761 43.2792L917.661 42.8009C917.91 42.1033 918.274 41.5403 918.752 41.1118C919.236 40.6784 919.791 40.3645 920.419 40.1702C921.047 39.9709 921.707 39.8713 922.399 39.8713C922.858 39.8713 923.344 39.9261 923.857 40.0357C924.375 40.1403 924.858 40.3346 925.307 40.6186C925.76 40.9026 926.131 41.3087 926.42 41.8368C926.709 42.3599 926.854 43.04 926.854 43.877V51.5H924.671V49.9306H924.582C924.437 50.2195 924.22 50.5035 923.931 50.7825C923.643 51.0616 923.271 51.2932 922.818 51.4776C922.365 51.6619 921.821 51.7541 921.189 51.7541ZM921.674 49.9605C922.292 49.9605 922.82 49.8384 923.259 49.5943C923.702 49.3501 924.039 49.0313 924.268 48.6377C924.502 48.2391 924.619 47.8131 924.619 47.3597V45.8799C924.539 45.9597 924.385 46.0344 924.156 46.1041C923.931 46.1689 923.675 46.2262 923.386 46.276C923.097 46.3209 922.815 46.3632 922.541 46.4031C922.267 46.438 922.038 46.4678 921.854 46.4928C921.42 46.5476 921.024 46.6397 920.666 46.7693C920.312 46.8988 920.028 47.0857 919.814 47.3298C919.604 47.5689 919.5 47.8878 919.5 48.2864C919.5 48.8394 919.704 49.258 920.113 49.5419C920.521 49.821 921.042 49.9605 921.674 49.9605ZM929.83 51.5V40.0207H931.99V41.8443H932.109C932.319 41.2264 932.687 40.7407 933.215 40.3869C933.749 40.0282 934.351 39.8488 935.024 39.8488C935.164 39.8488 935.328 39.8538 935.517 39.8638C935.712 39.8737 935.864 39.8862 935.973 39.9011V42.0386C935.883 42.0137 935.724 41.9862 935.495 41.9564C935.266 41.9215 935.036 41.904 934.807 41.904C934.279 41.904 933.808 42.0161 933.395 42.2403C932.986 42.4596 932.662 42.766 932.423 43.1596C932.184 43.5482 932.065 43.9916 932.065 44.4899V51.5H929.83ZM939.962 47.6063L939.947 44.8785H940.336L944.91 40.0207H947.585L942.369 45.5511H942.017L939.962 47.6063ZM937.907 51.5V36.1943H940.141V51.5H937.907ZM945.156 51.5L941.046 46.0444L942.585 44.4824L947.899 51.5H945.156Z" fill="#1B38E0"/>
<path d="M807.745 184.28V186.394C807.745 188.118 806.747 189.063 805.028 189.063H796.045V217.87C796.045 219.594 795.103 220.539 793.384 220.539H790.056C788.337 220.539 787.395 219.594 787.395 217.87V189.063H778.523C776.804 189.063 775.861 188.118 775.861 186.394V184.28C775.861 182.556 776.804 181.611 778.523 181.611H805.028C806.747 181.611 807.745 182.556 807.745 184.28Z" fill="#1B38E0"/>
<path d="M805.654 206.597C805.654 198.15 811.351 191.604 819.316 191.604C823.077 191.604 826.396 193.059 828.442 196.303V194.905C828.442 193.171 829.382 192.22 831.097 192.22H834.36C836.075 192.22 837.015 193.171 837.015 194.905V218.289C837.015 220.023 836.075 220.975 834.36 220.975H831.097C829.382 220.975 828.442 220.023 828.442 218.289V216.946C826.396 220.135 823.077 221.59 819.316 221.59C811.351 221.59 805.654 215.1 805.654 206.597ZM828.552 206.597C828.552 202.01 825.676 198.541 821.307 198.541C816.827 198.541 814.227 202.178 814.227 206.597C814.227 211.072 816.827 214.652 821.307 214.652C825.676 214.652 828.552 211.184 828.552 206.597Z" fill="#1B38E0"/>
<path d="M853.05 216.951V218.293C853.05 220.026 852.038 220.976 850.295 220.976H847.033C845.29 220.976 844.334 220.026 844.334 218.293V183.242C844.334 181.509 845.29 180.559 847.033 180.559H850.295C852.038 180.559 853.05 181.509 853.05 183.242V196.323C855.13 193.081 858.505 191.627 862.272 191.627C870.425 191.627 876.217 198.168 876.217 206.609C876.217 215.106 870.425 221.591 862.272 221.591C858.504 221.591 855.13 220.137 853.05 216.951V216.951ZM867.501 206.609C867.501 202.193 864.802 198.559 860.304 198.559C855.805 198.559 852.937 202.025 852.881 206.609C852.937 211.193 855.805 214.659 860.304 214.659C864.802 214.659 867.501 211.081 867.501 206.609Z" fill="#1B38E0"/>
<path d="M890.02 216.951V218.293C890.02 220.026 889.025 220.976 887.31 220.976H884.102C882.388 220.976 881.447 220.026 881.447 218.293V183.242C881.447 181.509 882.388 180.559 884.102 180.559H887.31C889.025 180.559 890.02 181.509 890.02 183.242V196.323C892.067 193.081 895.386 191.627 899.091 191.627C907.111 191.627 912.808 198.168 912.808 206.609C912.808 215.106 907.111 221.591 899.091 221.591C895.385 221.591 892.067 220.137 890.02 216.951V216.951ZM904.235 206.609C904.235 202.193 901.58 198.559 897.155 198.559C892.731 198.559 889.91 202.025 889.855 206.609C889.91 211.193 892.731 214.659 897.155 214.659C901.58 214.659 904.235 211.081 904.235 206.609Z" fill="#1B38E0"/>
<path d="M917.508 184.021C917.508 181.456 919.27 179.505 922.473 179.505C925.624 179.505 927.439 181.456 927.439 184.021C927.439 186.53 925.516 188.481 922.473 188.481C919.43 188.481 917.508 186.53 917.508 184.021ZM918.362 217.861V194.557C918.362 192.829 919.27 191.881 920.925 191.881H924.022C925.677 191.881 926.638 192.829 926.638 194.557V217.861C926.638 219.589 925.677 220.537 924.022 220.537H920.925C919.27 220.537 918.362 219.589 918.362 217.861Z" fill="#1B38E0"/>
<path d="M935.839 211.307V198.424H933.043C932.166 198.424 931.617 197.915 931.617 197.011V193.338C931.617 192.434 932.166 191.926 933.043 191.926H936.497L937.429 186.049C937.648 184.863 938.416 184.241 939.567 184.241H942.254C943.515 184.241 944.173 184.975 944.173 186.219V191.926H950.532C951.41 191.926 951.903 192.435 951.903 193.338V197.011C951.903 197.916 951.409 198.424 950.532 198.424H944.173V211.59C944.173 213.737 945.214 214.584 946.475 214.584C947.901 214.584 948.833 213.454 948.833 211.929C948.833 211.646 948.833 211.307 948.778 210.911C948.668 209.894 948.998 209.386 949.93 209.386H953.274C953.986 209.386 954.59 209.669 954.809 210.516C955.028 211.363 955.138 212.268 955.138 212.72C955.138 218.992 950.807 221.591 945.708 221.591C940.938 221.591 935.839 219.33 935.839 211.307Z" fill="#1B38E0"/>
<path d="M904.21 146.756L913.783 157.583C913.956 157.778 913.782 157.938 913.393 157.938H817.611C817.222 157.938 817.048 157.778 817.221 157.583L826.794 146.756C828.316 145.034 832.812 143.734 836.941 143.734H894.063C898.192 143.734 902.689 145.034 904.211 146.756H904.21Z" fill="#F2E7E5"/>
<path d="M913.288 159.516H817.723C816.807 159.516 816.069 159.099 815.748 158.4C815.45 157.753 815.58 157.009 816.085 156.461L825.637 146.111C827.714 143.86 832.93 142.683 837.009 142.683H894.002C898.081 142.683 903.297 143.861 905.374 146.111L914.925 156.46C915.432 157.01 915.561 157.753 915.264 158.4C914.943 159.099 914.204 159.516 913.288 159.516H913.288ZM820.777 156.258H910.235L902.878 148.287C901.854 147.177 897.957 145.941 894.002 145.941H837.009C833.054 145.941 829.157 147.177 828.133 148.287L820.777 156.258Z" fill="#1B38E0"/>
<path d="M842.344 88.8269C843.533 88.5822 849.294 87.5234 853.942 91.2366L854.124 91.3856C855.981 92.9311 856.897 94.6807 857.778 96.3268L857.88 96.5184C858.444 97.6018 859.838 100.564 860.572 105.533C861.019 108.559 861.039 111.135 861.104 112.825C861.107 112.889 861.11 112.951 861.112 113.011C863.277 112.114 865.318 112.288 866.93 112.405C871.878 112.765 875.754 115.649 876.742 116.413L874.217 119.746C873.338 119.065 870.291 116.857 866.632 116.591C864.779 116.456 863.602 116.414 862.36 117.045L862.359 117.046C861.991 117.233 861.892 117.325 861.518 117.556C861.206 117.748 860.371 118.248 859.272 117.933C857.762 117.501 857.338 116.077 857.2 115.469C857.035 114.738 856.987 113.838 856.954 112.988C856.884 111.172 856.868 108.891 856.464 106.152C855.769 101.448 854.433 98.898 854.126 98.3251L854.126 98.3247C853.193 96.5833 852.595 95.5103 851.366 94.5285C848.492 92.2327 844.759 92.6483 843.41 92.8932L843.173 92.9391C841.845 93.2123 839.219 94.0142 837.289 96.2584C835.64 98.1747 834.695 100.897 834.938 107.243C835.149 112.779 836.058 116.409 837.056 119.8C838.059 123.208 839.229 126.59 839.763 131.301L839.809 131.719C840.263 136.098 840.26 142.507 837.874 150.574L833.895 149.373C836.17 141.68 836.082 135.702 835.637 131.78C835.154 127.525 834.126 124.569 833.074 120.995C832.018 117.404 831.016 113.409 830.787 107.405C830.529 100.67 831.471 96.6248 834.154 93.5056C836.958 90.2453 840.641 89.1772 842.344 88.8269Z" fill="#1B38E0"/>
<path d="M878.034 91.3214C879.407 90.6041 883.667 88.5601 888.502 90.1285C892.302 91.3611 894.427 94.17 895.292 95.4182L895.448 95.6461L895.448 95.6463C899.874 102.147 898.047 110.167 897.21 114.048C896.721 116.315 895.857 119.246 894.245 122.489C895.216 123.528 896.311 124.9 897.297 126.634L897.432 126.876L897.55 127.091C899.977 131.609 900.157 135.787 900.239 138.134C900.457 144.387 898.608 149.339 897.272 152.151L893.557 150.342C894.706 147.923 896.257 143.757 896.127 138.531L896.119 138.281C896.041 136.026 895.869 132.6 893.834 128.912C892.675 126.812 891.303 125.342 890.313 124.425C889.608 123.771 889.439 122.712 889.905 121.867C891.766 118.493 892.691 115.437 893.183 113.157C894.085 108.974 895.317 102.808 892.054 98.0154C891.386 97.0339 889.904 94.9664 887.244 94.1039C884.058 93.0702 881.122 94.4133 879.927 95.0311L879.711 95.144C875.579 97.3354 873.907 101.554 872.86 104.651L872.658 105.254C871.997 107.252 871.134 110.753 871.568 115.318L867.464 115.718C866.96 110.408 867.963 106.301 868.75 103.927C869.742 100.931 871.752 94.6519 877.799 91.4457L878.034 91.3214Z" fill="#1B38E0"/>
<path d="M862.889 130.058C864.188 130.058 865.241 128.88 865.241 127.428C865.241 125.975 864.188 124.797 862.889 124.797C861.59 124.797 860.537 125.975 860.537 127.428C860.537 128.88 861.59 130.058 862.889 130.058Z" fill="#1B38E0"/>
<path d="M880.66 127.954C882.248 127.954 883.535 126.894 883.535 125.586C883.535 124.279 882.248 123.219 880.66 123.219C879.072 123.219 877.785 124.279 877.785 125.586C877.785 126.894 879.072 127.954 880.66 127.954Z" fill="#1B38E0"/>
<path d="M875.692 140.054C877.713 140.054 879.351 138.169 879.351 135.845C879.351 133.52 877.713 131.636 875.692 131.636C873.671 131.636 872.033 133.52 872.033 135.845C872.033 138.169 873.671 140.054 875.692 140.054Z" fill="#1B38E0"/>
<rect x="1" y="273" width="1029" height="194" rx="11.5" stroke="#33241F" stroke-opacity="0.5"/>
<path d="M29.4018 301.172H27.07C26.9803 300.673 26.8134 300.235 26.5693 299.856C26.3252 299.478 26.0262 299.156 25.6725 298.892C25.3187 298.628 24.9226 298.429 24.4842 298.294C24.0507 298.16 23.5899 298.093 23.1016 298.093C22.2197 298.093 21.43 298.314 20.7325 298.758C20.04 299.201 19.4919 299.851 19.0883 300.708C18.6898 301.565 18.4905 302.612 18.4905 303.847C18.4905 305.093 18.6898 306.144 19.0883 307.001C19.4919 307.858 20.0425 308.506 20.74 308.944C21.4375 309.383 22.2222 309.602 23.0941 309.602C23.5774 309.602 24.0358 309.537 24.4693 309.407C24.9077 309.273 25.3038 309.076 25.6575 308.817C26.0113 308.558 26.3102 308.242 26.5544 307.868C26.8035 307.489 26.9754 307.056 27.07 306.567L29.4018 306.575C29.2772 307.327 29.0356 308.02 28.6768 308.653C28.3231 309.28 27.8672 309.823 27.3092 310.282C26.7561 310.735 26.1234 311.086 25.4109 311.336C24.6984 311.585 23.9212 311.709 23.0792 311.709C21.7539 311.709 20.5731 311.395 19.5367 310.768C18.5004 310.135 17.6833 309.231 17.0854 308.055C16.4925 306.879 16.1961 305.476 16.1961 303.847C16.1961 302.213 16.495 300.81 17.0929 299.64C17.6908 298.464 18.5079 297.562 19.5442 296.934C20.5805 296.301 21.7589 295.985 23.0792 295.985C23.8913 295.985 24.6486 296.102 25.3511 296.336C26.0586 296.565 26.6939 296.904 27.2569 297.353C27.8199 297.796 28.2857 298.339 28.6544 298.982C29.0231 299.62 29.2722 300.35 29.4018 301.172ZM36.8211 311.732C35.7449 311.732 34.8057 311.485 34.0036 310.992C33.2014 310.499 32.5786 309.809 32.1352 308.922C31.6918 308.035 31.47 306.998 31.47 305.813C31.47 304.622 31.6918 303.581 32.1352 302.689C32.5786 301.797 33.2014 301.104 34.0036 300.611C34.8057 300.118 35.7449 299.871 36.8211 299.871C37.8972 299.871 38.8364 300.118 39.6386 300.611C40.4407 301.104 41.0635 301.797 41.5069 302.689C41.9504 303.581 42.1721 304.622 42.1721 305.813C42.1721 306.998 41.9504 308.035 41.5069 308.922C41.0635 309.809 40.4407 310.499 39.6386 310.992C38.8364 311.485 37.8972 311.732 36.8211 311.732ZM36.8285 309.856C37.5261 309.856 38.104 309.671 38.5624 309.303C39.0208 308.934 39.3596 308.443 39.5788 307.831C39.803 307.218 39.9151 306.543 39.9151 305.805C39.9151 305.073 39.803 304.4 39.5788 303.787C39.3596 303.17 39.0208 302.674 38.5624 302.3C38.104 301.926 37.5261 301.74 36.8285 301.74C36.126 301.74 35.5431 301.926 35.0797 302.3C34.6214 302.674 34.2801 303.17 34.0559 303.787C33.8366 304.4 33.727 305.073 33.727 305.805C33.727 306.543 33.8366 307.218 34.0559 307.831C34.2801 308.443 34.6214 308.934 35.0797 309.303C35.5431 309.671 36.126 309.856 36.8285 309.856ZM46.9009 296.194V311.5H44.6664V296.194H46.9009ZM54.7425 311.732C53.6663 311.732 52.7271 311.485 51.925 310.992C51.1228 310.499 50.5 309.809 50.0566 308.922C49.6132 308.035 49.3915 306.998 49.3915 305.813C49.3915 304.622 49.6132 303.581 50.0566 302.689C50.5 301.797 51.1228 301.104 51.925 300.611C52.7271 300.118 53.6663 299.871 54.7425 299.871C55.8187 299.871 56.7578 300.118 57.56 300.611C58.3621 301.104 58.9849 301.797 59.4284 302.689C59.8718 303.581 60.0935 304.622 60.0935 305.813C60.0935 306.998 59.8718 308.035 59.4284 308.922C58.9849 309.809 58.3621 310.499 57.56 310.992C56.7578 311.485 55.8187 311.732 54.7425 311.732ZM54.75 309.856C55.4475 309.856 56.0254 309.671 56.4838 309.303C56.9422 308.934 57.281 308.443 57.5002 307.831C57.7244 307.218 57.8365 306.543 57.8365 305.805C57.8365 305.073 57.7244 304.4 57.5002 303.787C57.281 303.17 56.9422 302.674 56.4838 302.3C56.0254 301.926 55.4475 301.74 54.75 301.74C54.0475 301.74 53.4645 301.926 53.0012 302.3C52.5428 302.674 52.2015 303.17 51.9773 303.787C51.7581 304.4 51.6485 305.073 51.6485 305.805C51.6485 306.543 51.7581 307.218 51.9773 307.831C52.2015 308.443 52.5428 308.934 53.0012 309.303C53.4645 309.671 54.0475 309.856 54.75 309.856ZM62.5878 311.5V300.021H64.7476V301.844H64.8672C65.0765 301.226 65.4451 300.741 65.9733 300.387C66.5064 300.028 67.1092 299.849 67.7819 299.849C67.9214 299.849 68.0858 299.854 68.2751 299.864C68.4694 299.874 68.6214 299.886 68.731 299.901V302.039C68.6413 302.014 68.4819 301.986 68.2527 301.956C68.0235 301.921 67.7943 301.904 67.5651 301.904C67.037 301.904 66.5662 302.016 66.1526 302.24C65.7441 302.46 65.4202 302.766 65.1811 303.16C64.9419 303.548 64.8224 303.992 64.8224 304.49V311.5H62.5878ZM76.4137 311.5V296.194H81.8694C83.0602 296.194 84.0467 296.411 84.8289 296.844C85.6111 297.278 86.1965 297.871 86.5852 298.623C86.9738 299.371 87.1681 300.213 87.1681 301.149C87.1681 302.091 86.9713 302.938 86.5777 303.69C86.1891 304.438 85.6012 305.03 84.8139 305.469C84.0317 305.902 83.0477 306.119 81.8619 306.119H78.1102V304.161H81.6527C82.405 304.161 83.0153 304.031 83.4837 303.772C83.952 303.508 84.2958 303.15 84.515 302.696C84.7342 302.243 84.8438 301.727 84.8438 301.149C84.8438 300.571 84.7342 300.058 84.515 299.61C84.2958 299.161 83.9495 298.81 83.4762 298.556C83.0079 298.302 82.39 298.175 81.6228 298.175H78.7231V311.5H76.4137ZM92.9339 311.754C92.2065 311.754 91.5488 311.62 90.9609 311.351C90.373 311.077 89.9071 310.68 89.5633 310.162C89.2246 309.644 89.0552 309.009 89.0552 308.257C89.0552 307.609 89.1797 307.076 89.4288 306.657C89.6779 306.239 90.0143 305.907 90.4377 305.663C90.8612 305.419 91.3346 305.235 91.8577 305.11C92.3809 304.986 92.914 304.891 93.457 304.826C94.1446 304.746 94.7026 304.682 95.1311 304.632C95.5596 304.577 95.871 304.49 96.0653 304.37C96.2596 304.251 96.3568 304.056 96.3568 303.787V303.735C96.3568 303.082 96.1724 302.577 95.8037 302.218C95.44 301.859 94.8969 301.68 94.1745 301.68C93.4222 301.68 92.8293 301.847 92.3958 302.181C91.9673 302.509 91.6709 302.876 91.5065 303.279L89.4064 302.801C89.6555 302.103 90.0192 301.54 90.4975 301.112C90.9808 300.678 91.5364 300.364 92.1641 300.17C92.7919 299.971 93.4521 299.871 94.1446 299.871C94.603 299.871 95.0887 299.926 95.6019 300.036C96.1201 300.14 96.6034 300.335 97.0518 300.619C97.5052 300.903 97.8764 301.309 98.1653 301.837C98.4543 302.36 98.5988 303.04 98.5988 303.877V311.5H96.4165V309.931H96.3269C96.1824 310.22 95.9656 310.504 95.6767 310.783C95.3877 311.062 95.0165 311.293 94.5631 311.478C94.1097 311.662 93.5666 311.754 92.9339 311.754ZM93.4197 309.96C94.0375 309.96 94.5656 309.838 95.0041 309.594C95.4475 309.35 95.7838 309.031 96.013 308.638C96.2471 308.239 96.3642 307.813 96.3642 307.36V305.88C96.2845 305.96 96.1301 306.034 95.9009 306.104C95.6767 306.169 95.4201 306.226 95.1311 306.276C94.8421 306.321 94.5606 306.363 94.2866 306.403C94.0126 306.438 93.7834 306.468 93.599 306.493C93.1656 306.548 92.7695 306.64 92.4107 306.769C92.057 306.899 91.773 307.086 91.5588 307.33C91.3495 307.569 91.2449 307.888 91.2449 308.286C91.2449 308.839 91.4492 309.258 91.8577 309.542C92.2663 309.821 92.7869 309.96 93.4197 309.96ZM103.81 296.194V311.5H101.575V296.194H103.81ZM111.763 311.732C110.632 311.732 109.658 311.49 108.841 311.007C108.029 310.518 107.401 309.833 106.958 308.952C106.519 308.065 106.3 307.026 106.3 305.835C106.3 304.659 106.519 303.623 106.958 302.726C107.401 301.829 108.019 301.129 108.811 300.626C109.608 300.123 110.54 299.871 111.606 299.871C112.254 299.871 112.882 299.978 113.49 300.193C114.098 300.407 114.643 300.743 115.126 301.202C115.61 301.66 115.991 302.255 116.27 302.988C116.549 303.715 116.688 304.599 116.688 305.641V306.433H107.563V304.759H114.499C114.499 304.171 114.379 303.65 114.14 303.197C113.901 302.739 113.564 302.377 113.131 302.113C112.703 301.849 112.199 301.717 111.621 301.717C110.994 301.717 110.446 301.872 109.977 302.181C109.514 302.484 109.155 302.883 108.901 303.376C108.652 303.865 108.527 304.395 108.527 304.968V306.276C108.527 307.043 108.662 307.696 108.931 308.234C109.205 308.772 109.586 309.183 110.074 309.467C110.563 309.746 111.133 309.886 111.786 309.886C112.209 309.886 112.595 309.826 112.944 309.706C113.293 309.582 113.594 309.397 113.848 309.153C114.103 308.909 114.297 308.608 114.431 308.249L116.546 308.63C116.377 309.253 116.073 309.799 115.635 310.267C115.201 310.73 114.656 311.091 113.998 311.351C113.345 311.605 112.6 311.732 111.763 311.732ZM124.526 300.021V301.814H118.256V300.021H124.526ZM119.937 297.27H122.172V308.129C122.172 308.563 122.237 308.889 122.366 309.108C122.496 309.323 122.663 309.47 122.867 309.549C123.076 309.624 123.303 309.662 123.547 309.662C123.727 309.662 123.883 309.649 124.018 309.624C124.153 309.599 124.257 309.579 124.332 309.564L124.735 311.41C124.606 311.46 124.422 311.51 124.182 311.56C123.943 311.615 123.644 311.644 123.286 311.649C122.698 311.659 122.15 311.555 121.641 311.336C121.133 311.116 120.722 310.778 120.408 310.319C120.094 309.861 119.937 309.285 119.937 308.593V297.27ZM132.357 300.021V301.814H126.086V300.021H132.357ZM127.768 297.27H130.002V308.129C130.002 308.563 130.067 308.889 130.197 309.108C130.326 309.323 130.493 309.47 130.697 309.549C130.907 309.624 131.133 309.662 131.378 309.662C131.557 309.662 131.714 309.649 131.848 309.624C131.983 309.599 132.088 309.579 132.162 309.564L132.566 311.41C132.436 311.46 132.252 311.51 132.013 311.56C131.774 311.615 131.475 311.644 131.116 311.649C130.528 311.659 129.98 311.555 129.472 311.336C128.964 311.116 128.553 310.778 128.239 310.319C127.925 309.861 127.768 309.285 127.768 308.593V297.27ZM139.653 311.732C138.522 311.732 137.548 311.49 136.73 311.007C135.918 310.518 135.291 309.833 134.847 308.952C134.409 308.065 134.189 307.026 134.189 305.835C134.189 304.659 134.409 303.623 134.847 302.726C135.291 301.829 135.908 301.129 136.701 300.626C137.498 300.123 138.429 299.871 139.496 299.871C140.143 299.871 140.771 299.978 141.379 300.193C141.987 300.407 142.532 300.743 143.016 301.202C143.499 301.66 143.88 302.255 144.159 302.988C144.438 303.715 144.578 304.599 144.578 305.641V306.433H135.452V304.759H142.388C142.388 304.171 142.268 303.65 142.029 303.197C141.79 302.739 141.454 302.377 141.02 302.113C140.592 301.849 140.088 301.717 139.511 301.717C138.883 301.717 138.335 301.872 137.866 302.181C137.403 302.484 137.044 302.883 136.79 303.376C136.541 303.865 136.417 304.395 136.417 304.968V306.276C136.417 307.043 136.551 307.696 136.82 308.234C137.094 308.772 137.475 309.183 137.964 309.467C138.452 309.746 139.022 309.886 139.675 309.886C140.098 309.886 140.485 309.826 140.833 309.706C141.182 309.582 141.484 309.397 141.738 309.153C141.992 308.909 142.186 308.608 142.321 308.249L144.436 308.63C144.266 309.253 143.962 309.799 143.524 310.267C143.09 310.73 142.545 311.091 141.887 311.351C141.234 311.605 140.49 311.732 139.653 311.732Z" fill="#F2E7E5"/>
<rect x="170.008" y="291.5" width="214.238" height="156.933" rx="7.892" fill="#F2E7E5"/>
<rect x="393.207" y="448.433" width="156.933" height="62.7037" rx="7.892" transform="rotate(-90 393.207 448.433)" fill="#1B38E0"/>
<rect x="479.912" y="291.5" width="214.238" height="156.933" rx="7.892" fill="#33241F"/>
<rect x="703.107" y="448.433" width="156.933" height="62.7037" rx="7.892" transform="rotate(-90 703.107 448.433)" fill="#F85C36"/>
<rect x="789.811" y="291.5" width="106.405" height="72.3858" rx="7.892" fill="#DFA6ED"/>
<rect x="909.586" y="291.5" width="106.405" height="72.3858" rx="7.892" fill="#FFA748"/>
<rect x="789.811" y="376.045" width="106.405" height="72.3858" rx="7.892" fill="#FF8585"/>
<rect x="909.586" y="376.045" width="106.405" height="72.3858" rx="7.892" fill="#4ABC7A"/>
</svg>
