<svg width="1355" height="770" viewBox="0 0 1355 770" fill="none" xmlns="http://www.w3.org/2000/svg">
<g clip-path="url(#clip0_876_1997)">
<path d="M1355 0.23877H0V769.76H1355V0.23877Z" fill="#F2E7E5"/>
<path d="M421.709 294.073L455.453 331.692C456.062 332.371 455.448 332.924 454.078 332.924H116.448C115.078 332.924 114.464 332.37 115.073 331.692L148.817 294.073C154.183 288.091 170.031 283.577 184.586 283.577H385.939C400.494 283.577 416.343 288.092 421.708 294.073H421.709Z" fill="#F2E7E5"/>
<path d="M454.078 338.845H116.448C113.213 338.845 110.604 337.329 109.469 334.788C108.418 332.434 108.875 329.732 110.662 327.738L144.407 290.118C151.746 281.935 170.175 277.654 184.586 277.654H385.94C400.35 277.654 418.778 281.936 426.118 290.118L459.862 327.736C461.651 329.733 462.108 332.435 461.057 334.789C459.922 337.329 457.313 338.846 454.078 338.846V338.845ZM127.237 327H443.29L417.301 298.026C413.683 293.992 399.915 289.499 385.941 289.499H184.587C170.614 289.499 156.844 293.993 153.226 298.028L127.237 327.001V327Z" fill="#1B38E0"/>
<path d="M190.242 305.728L173.1 300.605C179.308 279.832 181.339 259.561 179.136 240.355C177.709 227.91 174.855 218.533 171.833 208.606C167.534 194.484 163.089 179.881 162.16 155.822C161.234 131.837 164.764 117.556 174.348 106.526C184.197 95.1918 197.112 91.1688 203.934 89.7798C211.341 88.2718 230.26 86.0958 245.888 98.4528C252.945 104.033 256.248 110.137 259.746 116.598C264.304 125.017 267.839 136.535 269.702 149.029C271.038 157.986 271.294 165.828 271.481 171.554C271.494 171.956 271.508 172.37 271.522 172.789C278.372 170.532 284.702 170.988 290.407 171.399C306.397 172.55 319.34 180.803 325.632 185.62L314.757 199.827C310.969 196.928 300.89 190.092 289.122 189.245C282.996 188.804 279.039 188.636 275.05 190.644C274.268 191.038 273.696 191.407 273.091 191.797C271.384 192.899 267.83 195.191 263.034 193.834C254.227 191.341 253.922 182.014 253.599 172.14C253.416 166.555 253.189 159.604 252.006 151.669C249.896 137.519 246.091 128.959 244.011 125.117C240.97 119.499 238.961 115.787 234.789 112.489C224.774 104.571 211.371 106.526 207.503 107.314C202.903 108.251 194.233 110.919 187.851 118.264C183.257 123.551 179.13 131.678 180.037 155.134C180.877 176.884 184.797 189.763 188.948 203.398C192.07 213.653 195.298 224.258 196.91 238.319C199.39 259.944 197.146 282.625 190.24 305.73L190.242 305.728Z" fill="#1B38E0"/>
<path d="M397.824 312.112L381.7 304.358C387.991 291.277 391.057 277.03 390.567 263.16C390.316 256.045 389.895 244.139 382.722 231.306C379.57 225.667 375.506 220.552 370.644 216.104C367.582 213.303 366.849 208.764 368.872 205.141C374.167 195.662 377.995 185.616 380.252 175.283C383.105 162.215 387.88 140.346 376.532 123.884C374.641 121.14 369.616 113.851 360.447 110.914C352.805 108.466 344.307 109.646 335.186 114.422C319.945 122.403 314.431 138.842 311.136 148.664C307.492 159.529 306.225 171.083 307.371 183.004L289.562 184.715C288.174 170.279 289.726 156.236 294.174 142.975C298.053 131.412 305.272 109.89 326.886 98.5728C343.729 89.7538 357.401 91.1498 365.906 93.8748C380.884 98.6738 388.696 110.006 391.263 113.729C407.015 136.581 400.977 164.239 397.733 179.097C395.576 188.974 392.196 198.612 387.66 207.831C391.797 212.335 395.375 217.274 398.339 222.577C407.622 239.185 408.158 254.37 408.446 262.529C409.038 279.284 405.365 296.43 397.823 312.113L397.824 312.112Z" fill="#1B38E0"/>
<path d="M275.343 234.806C280.3 234.806 284.319 230.787 284.319 225.83C284.319 220.873 280.3 216.854 275.343 216.854C270.386 216.854 266.367 220.873 266.367 225.83C266.367 230.787 270.386 234.806 275.343 234.806Z" fill="#1B38E0"/>
<path d="M339.355 229.19C344.312 229.19 348.331 225.171 348.331 220.214C348.331 215.256 344.312 211.238 339.355 211.238C334.398 211.238 330.379 215.256 330.379 220.214C330.379 225.171 334.398 229.19 339.355 229.19Z" fill="#1B38E0"/>
<path d="M321.493 269.001C329.353 269.001 335.726 262.628 335.726 254.768C335.726 246.907 329.353 240.535 321.493 240.535C313.632 240.535 307.26 246.907 307.26 254.768C307.26 262.628 313.632 269.001 321.493 269.001Z" fill="#1B38E0"/>
<path d="M421.709 636.626L455.453 674.245C456.062 674.924 455.448 675.477 454.078 675.477H116.448C115.078 675.477 114.464 674.923 115.073 674.245L148.817 636.626C154.183 630.644 170.031 626.13 184.586 626.13H385.939C400.494 626.13 416.343 630.645 421.708 636.626H421.709Z" fill="#33241F"/>
<path d="M454.078 681.398H116.448C113.213 681.398 110.604 679.882 109.469 677.341C108.418 674.987 108.875 672.285 110.662 670.291L144.407 632.671C151.746 624.488 170.175 620.207 184.586 620.207H385.94C400.35 620.207 418.778 624.489 426.118 632.671L459.862 670.289C461.651 672.286 462.108 674.988 461.057 677.342C459.922 679.882 457.313 681.398 454.078 681.398ZM127.237 669.554H443.29L417.301 640.58C413.683 636.546 399.915 632.053 385.941 632.053H184.587C170.614 632.053 156.844 636.547 153.226 640.582L127.237 669.554Z" fill="#F85C36"/>
<path d="M190.242 648.281L173.1 643.158C179.308 622.385 181.339 602.114 179.136 582.908C177.709 570.463 174.855 561.086 171.833 551.159C167.534 537.037 163.089 522.434 162.16 498.375C161.234 474.39 164.764 460.109 174.348 449.079C184.197 437.745 197.112 433.722 203.934 432.333C211.341 430.825 230.26 428.649 245.888 441.006C252.945 446.586 256.248 452.69 259.746 459.151C264.304 467.57 267.839 479.088 269.702 491.582C271.038 500.539 271.294 508.381 271.481 514.107C271.494 514.509 271.508 514.923 271.522 515.342C278.372 513.085 284.702 513.541 290.407 513.952C306.397 515.103 319.34 523.356 325.632 528.173L314.757 542.38C310.969 539.481 300.89 532.645 289.122 531.798C282.996 531.357 279.039 531.189 275.05 533.197C274.268 533.591 273.696 533.96 273.091 534.35C271.384 535.452 267.83 537.744 263.034 536.387C254.227 533.894 253.922 524.567 253.599 514.693C253.416 509.108 253.189 502.157 252.006 494.222C249.896 480.072 246.091 471.512 244.011 467.67C240.97 462.052 238.961 458.34 234.789 455.042C224.774 447.124 211.371 449.079 207.503 449.867C202.903 450.804 194.233 453.472 187.851 460.817C183.257 466.104 179.13 474.231 180.037 497.687C180.877 519.437 184.797 532.316 188.948 545.951C192.07 556.206 195.298 566.811 196.91 580.872C199.39 602.497 197.146 625.178 190.24 648.283L190.242 648.281Z" fill="#F85C36"/>
<path d="M397.824 654.665L381.7 646.911C387.991 633.83 391.057 619.583 390.567 605.713C390.316 598.598 389.895 586.692 382.722 573.859C379.57 568.22 375.506 563.105 370.644 558.657C367.582 555.856 366.849 551.317 368.872 547.694C374.167 538.215 377.995 528.169 380.252 517.836C383.105 504.768 387.88 482.899 376.532 466.437C374.641 463.693 369.616 456.404 360.447 453.467C352.805 451.019 344.307 452.199 335.186 456.975C319.945 464.956 314.431 481.395 311.136 491.217C307.492 502.082 306.225 513.636 307.371 525.557L289.562 527.268C288.174 512.832 289.726 498.789 294.174 485.528C298.053 473.965 305.272 452.443 326.886 441.126C343.729 432.307 357.401 433.703 365.906 436.428C380.884 441.227 388.696 452.559 391.263 456.282C407.015 479.134 400.977 506.792 397.733 521.65C395.576 531.527 392.196 541.165 387.66 550.384C391.797 554.888 395.375 559.827 398.339 565.13C407.622 581.738 408.158 596.923 408.446 605.082C409.038 621.837 405.365 638.983 397.823 654.666L397.824 654.665Z" fill="#F85C36"/>
<path d="M275.343 577.359C280.3 577.359 284.319 573.341 284.319 568.383C284.319 563.426 280.3 559.407 275.343 559.407C270.386 559.407 266.367 563.426 266.367 568.383C266.367 573.341 270.386 577.359 275.343 577.359Z" fill="#F85C36"/>
<path d="M339.355 571.743C344.312 571.743 348.331 567.724 348.331 562.767C348.331 557.81 344.312 553.791 339.355 553.791C334.398 553.791 330.379 557.81 330.379 562.767C330.379 567.724 334.398 571.743 339.355 571.743Z" fill="#F85C36"/>
<path d="M321.493 611.554C329.353 611.554 335.726 605.182 335.726 597.321C335.726 589.46 329.353 583.088 321.493 583.088C313.632 583.088 307.26 589.46 307.26 597.321C307.26 605.182 313.632 611.554 321.493 611.554Z" fill="#F85C36"/>
<path d="M874.118 308.815L902.391 340.334C902.901 340.902 902.387 341.366 901.239 341.366H618.35C617.202 341.366 616.688 340.902 617.198 340.334L645.471 308.815C649.967 303.803 663.246 300.02 675.441 300.02H844.148C856.343 300.02 869.622 303.803 874.118 308.815Z" fill="#F2E7E5"/>
<path d="M901.239 346.329H618.35C615.639 346.329 613.454 345.058 612.503 342.93C611.622 340.958 612.005 338.694 613.503 337.023L641.777 305.502C647.926 298.646 663.367 295.059 675.441 295.059H844.148C856.222 295.059 871.662 298.647 877.812 305.502L906.085 337.021C907.584 338.694 907.967 340.958 907.086 342.93C906.135 345.058 903.949 346.329 901.238 346.329H901.239ZM627.389 336.404H892.199L870.423 312.128C867.392 308.748 855.856 304.983 844.147 304.983H675.44C663.732 304.983 652.195 308.748 649.164 312.129L627.389 336.404Z" fill="#DFA6ED"/>
<path d="M680.179 318.581L665.816 314.289C671.017 296.884 672.719 279.9 670.873 263.808C669.678 253.38 667.286 245.524 664.754 237.206C661.152 225.374 657.427 213.139 656.649 192.98C655.873 172.884 658.831 160.918 666.861 151.677C675.113 142.181 685.934 138.81 691.65 137.646C697.856 136.382 713.707 134.559 726.802 144.913C732.715 149.588 735.483 154.702 738.413 160.116C742.232 167.17 745.194 176.82 746.755 187.289C747.874 194.793 748.089 201.364 748.246 206.162C748.257 206.499 748.268 206.846 748.28 207.197C754.02 205.306 759.323 205.688 764.103 206.032C777.501 206.996 788.345 213.911 793.617 217.947L784.505 229.85C781.332 227.421 772.886 221.693 763.027 220.984C757.894 220.615 754.579 220.473 751.237 222.156C750.582 222.486 750.103 222.795 749.596 223.122C748.165 224.045 745.188 225.966 741.169 224.829C733.79 222.74 733.534 214.926 733.264 206.652C733.111 201.973 732.921 196.149 731.929 189.5C730.161 177.644 726.973 170.472 725.23 167.253C722.682 162.546 720.999 159.436 717.503 156.672C709.112 150.038 697.882 151.676 694.641 152.336C690.786 153.121 683.523 155.356 678.175 161.51C674.326 165.94 670.868 172.749 671.628 192.402C672.332 210.625 675.616 221.416 679.094 232.841C681.71 241.434 684.415 250.319 685.765 262.1C687.843 280.219 685.963 299.222 680.177 318.581H680.179Z" fill="#DFA6ED"/>
<path d="M854.105 323.929L840.595 317.432C845.866 306.472 848.435 294.535 848.024 282.913C847.814 276.952 847.461 266.976 841.451 256.223C838.81 251.498 835.405 247.213 831.332 243.486C828.767 241.139 828.152 237.336 829.848 234.301C834.284 226.358 837.492 217.941 839.383 209.284C841.774 198.335 845.774 180.012 836.266 166.219C834.681 163.92 830.471 157.812 822.789 155.352C816.386 153.301 809.266 154.29 801.624 158.291C788.854 164.978 784.234 178.752 781.473 186.981C778.42 196.085 777.358 205.765 778.318 215.753L763.396 217.187C762.233 205.092 763.534 193.325 767.26 182.215C770.51 172.526 776.559 154.494 794.668 145.012C808.78 137.623 820.235 138.793 827.361 141.076C839.911 145.097 846.456 154.591 848.607 157.711C861.805 176.858 856.746 200.031 854.028 212.481C852.221 220.757 849.388 228.832 845.588 236.556C849.054 240.33 852.052 244.468 854.536 248.911C862.314 262.826 862.763 275.549 863.004 282.385C863.5 296.423 860.422 310.79 854.103 323.93L854.105 323.929Z" fill="#DFA6ED"/>
<path d="M751.482 259.156C755.635 259.156 759.002 255.789 759.002 251.636C759.002 247.483 755.635 244.116 751.482 244.116C747.329 244.116 743.962 247.483 743.962 251.636C743.962 255.789 747.329 259.156 751.482 259.156Z" fill="#DFA6ED"/>
<path d="M805.116 254.451C809.269 254.451 812.636 251.084 812.636 246.931C812.636 242.778 809.269 239.411 805.116 239.411C800.963 239.411 797.596 242.778 797.596 246.931C797.596 251.084 800.963 254.451 805.116 254.451Z" fill="#DFA6ED"/>
<path d="M790.15 287.808C796.736 287.808 802.075 282.469 802.075 275.883C802.075 269.297 796.736 263.958 790.15 263.958C783.564 263.958 778.225 269.297 778.225 275.883C778.225 282.469 783.564 287.808 790.15 287.808Z" fill="#DFA6ED"/>
<path d="M874.118 595.829L902.391 627.348C902.901 627.916 902.387 628.38 901.239 628.38H618.35C617.202 628.38 616.688 627.916 617.198 627.348L645.471 595.829C649.967 590.817 663.246 587.034 675.441 587.034H844.148C856.343 587.034 869.622 590.817 874.118 595.829Z" fill="#F2E7E5"/>
<path d="M901.239 633.342H618.35C615.639 633.342 613.454 632.071 612.503 629.943C611.622 627.971 612.005 625.707 613.503 624.036L641.777 592.515C647.926 585.659 663.367 582.072 675.441 582.072H844.148C856.222 582.072 871.662 585.66 877.812 592.515L906.085 624.034C907.584 625.707 907.967 627.971 907.086 629.943C906.135 632.071 903.949 633.342 901.238 633.342H901.239ZM627.389 623.418H892.199L870.423 599.142C867.392 595.762 855.856 591.997 844.147 591.997H675.44C663.732 591.997 652.195 595.762 649.164 599.143L627.389 623.418Z" fill="#FF8585"/>
<path d="M680.179 605.595L665.816 601.303C671.017 583.898 672.719 566.914 670.873 550.822C669.678 540.394 667.286 532.538 664.754 524.22C661.152 512.388 657.427 500.153 656.649 479.994C655.873 459.898 658.831 447.932 666.861 438.691C675.113 429.195 685.934 425.824 691.65 424.66C697.856 423.396 713.707 421.573 726.802 431.927C732.715 436.602 735.483 441.716 738.413 447.13C742.232 454.184 745.194 463.834 746.755 474.303C747.874 481.807 748.089 488.378 748.246 493.176C748.257 493.513 748.268 493.86 748.28 494.211C754.02 492.32 759.323 492.702 764.103 493.046C777.501 494.01 788.345 500.925 793.617 504.961L784.505 516.864C781.332 514.435 772.886 508.707 763.027 507.998C757.894 507.629 754.579 507.487 751.237 509.17C750.582 509.5 750.103 509.809 749.596 510.136C748.165 511.059 745.188 512.98 741.169 511.843C733.79 509.754 733.534 501.94 733.264 493.666C733.111 488.987 732.921 483.163 731.929 476.514C730.161 464.658 726.973 457.486 725.23 454.267C722.682 449.56 720.999 446.45 717.503 443.686C709.112 437.052 697.882 438.69 694.641 439.35C690.786 440.135 683.523 442.37 678.175 448.524C674.326 452.954 670.868 459.763 671.628 479.416C672.332 497.639 675.616 508.43 679.094 519.855C681.71 528.448 684.415 537.333 685.765 549.114C687.843 567.233 685.963 586.236 680.177 605.595H680.179Z" fill="#FF8585"/>
<path d="M854.105 610.943L840.595 604.446C845.866 593.486 848.435 581.549 848.024 569.927C847.814 563.966 847.461 553.99 841.451 543.237C838.81 538.512 835.405 534.227 831.332 530.5C828.767 528.153 828.152 524.35 829.848 521.315C834.284 513.372 837.492 504.955 839.383 496.298C841.774 485.349 845.774 467.026 836.266 453.233C834.681 450.934 830.471 444.826 822.789 442.366C816.386 440.315 809.266 441.304 801.624 445.305C788.854 451.992 784.234 465.766 781.473 473.995C778.42 483.099 777.358 492.779 778.318 502.767L763.396 504.201C762.233 492.106 763.534 480.339 767.26 469.229C770.51 459.54 776.559 441.508 794.668 432.026C808.78 424.637 820.235 425.807 827.361 428.09C839.911 432.111 846.456 441.605 848.607 444.725C861.805 463.872 856.746 487.045 854.028 499.495C852.221 507.771 849.388 515.846 845.588 523.57C849.054 527.344 852.052 531.482 854.536 535.925C862.314 549.84 862.763 562.563 863.004 569.399C863.5 583.437 860.422 597.804 854.103 610.944L854.105 610.943Z" fill="#FF8585"/>
<path d="M751.482 546.17C755.635 546.17 759.002 542.804 759.002 538.65C759.002 534.497 755.635 531.13 751.482 531.13C747.329 531.13 743.962 534.497 743.962 538.65C743.962 542.804 747.329 546.17 751.482 546.17Z" fill="#FF8585"/>
<path d="M805.116 541.465C809.269 541.465 812.636 538.098 812.636 533.945C812.636 529.792 809.269 526.425 805.116 526.425C800.963 526.425 797.596 529.792 797.596 533.945C797.596 538.098 800.963 541.465 805.116 541.465Z" fill="#FF8585"/>
<path d="M790.15 574.821C796.736 574.821 802.075 569.482 802.075 562.896C802.075 556.31 796.736 550.971 790.15 550.971C783.564 550.971 778.225 556.31 778.225 562.896C778.225 569.482 783.564 574.821 790.15 574.821Z" fill="#FF8585"/>
<path d="M1212.65 308.815L1240.93 340.334C1241.44 340.902 1240.92 341.366 1239.77 341.366H956.885C955.737 341.366 955.223 340.902 955.733 340.334L984.006 308.815C988.502 303.803 1001.78 300.02 1013.98 300.02H1182.68C1194.88 300.02 1208.16 303.803 1212.65 308.815Z" fill="#F2E7E5"/>
<path d="M1239.77 346.329H956.884C954.173 346.329 951.988 345.058 951.037 342.93C950.156 340.958 950.539 338.694 952.037 337.023L980.311 305.502C986.46 298.646 1001.9 295.059 1013.98 295.059H1182.68C1194.76 295.059 1210.2 298.647 1216.35 305.502L1244.62 337.021C1246.12 338.694 1246.5 340.958 1245.62 342.93C1244.67 345.058 1242.48 346.329 1239.77 346.329ZM965.924 336.404H1230.73L1208.96 312.128C1205.93 308.748 1194.39 304.983 1182.68 304.983H1013.98C1002.27 304.983 990.73 308.748 987.699 312.129L965.924 336.404Z" fill="#FFA748"/>
<path d="M1018.71 318.581L1004.35 314.289C1009.55 296.884 1011.25 279.9 1009.41 263.808C1008.21 253.38 1005.82 245.524 1003.29 237.206C999.687 225.374 995.962 213.139 995.184 192.98C994.408 172.884 997.366 160.918 1005.4 151.677C1013.65 142.181 1024.47 138.81 1030.18 137.646C1036.39 136.382 1052.24 134.559 1065.34 144.913C1071.25 149.588 1074.02 154.702 1076.95 160.116C1080.77 167.17 1083.73 176.82 1085.29 187.289C1086.41 194.793 1086.62 201.364 1086.78 206.162C1086.79 206.499 1086.8 206.846 1086.81 207.197C1092.55 205.306 1097.86 205.688 1102.64 206.032C1116.04 206.996 1126.88 213.911 1132.15 217.947L1123.04 229.85C1119.87 227.421 1111.42 221.693 1101.56 220.984C1096.43 220.615 1093.11 220.473 1089.77 222.156C1089.12 222.486 1088.64 222.795 1088.13 223.122C1086.7 224.045 1083.72 225.966 1079.7 224.829C1072.32 222.74 1072.07 214.926 1071.8 206.652C1071.65 201.973 1071.46 196.149 1070.46 189.5C1068.7 177.644 1065.51 170.472 1063.76 167.253C1061.22 162.546 1059.53 159.436 1056.04 156.672C1047.65 150.038 1036.42 151.676 1033.18 152.336C1029.32 153.121 1022.06 155.356 1016.71 161.51C1012.86 165.94 1009.4 172.749 1010.16 192.402C1010.87 210.625 1014.15 221.416 1017.63 232.841C1020.24 241.434 1022.95 250.319 1024.3 262.1C1026.38 280.219 1024.5 299.222 1018.71 318.581H1018.71Z" fill="#FFA748"/>
<path d="M1192.64 323.929L1179.13 317.432C1184.4 306.472 1186.97 294.535 1186.56 282.913C1186.35 276.952 1186 266.976 1179.99 256.223C1177.34 251.498 1173.94 247.213 1169.87 243.486C1167.3 241.139 1166.69 237.336 1168.38 234.301C1172.82 226.358 1176.03 217.941 1177.92 209.284C1180.31 198.335 1184.31 180.012 1174.8 166.219C1173.22 163.92 1169.01 157.812 1161.32 155.352C1154.92 153.301 1147.8 154.29 1140.16 158.291C1127.39 164.978 1122.77 178.752 1120.01 186.981C1116.95 196.085 1115.89 205.765 1116.85 215.753L1101.93 217.187C1100.77 205.092 1102.07 193.325 1105.79 182.215C1109.04 172.526 1115.09 154.494 1133.2 145.012C1147.31 137.623 1158.77 138.793 1165.9 141.076C1178.45 145.097 1184.99 154.591 1187.14 157.711C1200.34 176.858 1195.28 200.031 1192.56 212.481C1190.76 220.757 1187.92 228.832 1184.12 236.556C1187.59 240.33 1190.59 244.468 1193.07 248.911C1200.85 262.826 1201.3 275.549 1201.54 282.385C1202.03 296.423 1198.96 310.79 1192.64 323.93L1192.64 323.929Z" fill="#FFA748"/>
<path d="M1090.02 259.156C1094.17 259.156 1097.54 255.789 1097.54 251.636C1097.54 247.483 1094.17 244.116 1090.02 244.116C1085.86 244.116 1082.5 247.483 1082.5 251.636C1082.5 255.789 1085.86 259.156 1090.02 259.156Z" fill="#FFA748"/>
<path d="M1143.65 254.451C1147.8 254.451 1151.17 251.084 1151.17 246.931C1151.17 242.778 1147.8 239.411 1143.65 239.411C1139.5 239.411 1136.13 242.778 1136.13 246.931C1136.13 251.084 1139.5 254.451 1143.65 254.451Z" fill="#FFA748"/>
<path d="M1128.68 287.808C1135.27 287.808 1140.61 282.469 1140.61 275.883C1140.61 269.297 1135.27 263.958 1128.68 263.958C1122.1 263.958 1116.76 269.297 1116.76 275.883C1116.76 282.469 1122.1 287.808 1128.68 287.808Z" fill="#FFA748"/>
<path d="M1212.65 595.829L1240.93 627.348C1241.44 627.916 1240.92 628.38 1239.77 628.38H956.885C955.737 628.38 955.223 627.916 955.733 627.348L984.006 595.829C988.502 590.817 1001.78 587.034 1013.98 587.034H1182.68C1194.88 587.034 1208.16 590.817 1212.65 595.829Z" fill="#F2E7E5"/>
<path d="M1239.77 633.342H956.884C954.173 633.342 951.988 632.071 951.037 629.943C950.156 627.971 950.539 625.707 952.037 624.036L980.311 592.515C986.46 585.659 1001.9 582.072 1013.98 582.072H1182.68C1194.76 582.072 1210.2 585.66 1216.35 592.515L1244.62 624.034C1246.12 625.707 1246.5 627.971 1245.62 629.943C1244.67 632.071 1242.48 633.342 1239.77 633.342ZM965.924 623.418H1230.73L1208.96 599.142C1205.93 595.762 1194.39 591.997 1182.68 591.997H1013.98C1002.27 591.997 990.73 595.762 987.699 599.143L965.924 623.418Z" fill="#4ABC7A"/>
<path d="M1018.71 605.595L1004.35 601.303C1009.55 583.898 1011.25 566.914 1009.41 550.822C1008.21 540.394 1005.82 532.538 1003.29 524.22C999.687 512.388 995.962 500.153 995.184 479.994C994.408 459.898 997.366 447.932 1005.4 438.691C1013.65 429.195 1024.47 425.824 1030.18 424.66C1036.39 423.396 1052.24 421.573 1065.34 431.927C1071.25 436.602 1074.02 441.716 1076.95 447.13C1080.77 454.184 1083.73 463.834 1085.29 474.303C1086.41 481.807 1086.62 488.378 1086.78 493.176C1086.79 493.513 1086.8 493.86 1086.81 494.211C1092.55 492.32 1097.86 492.702 1102.64 493.046C1116.04 494.01 1126.88 500.925 1132.15 504.961L1123.04 516.864C1119.87 514.435 1111.42 508.707 1101.56 507.998C1096.43 507.629 1093.11 507.487 1089.77 509.17C1089.12 509.5 1088.64 509.809 1088.13 510.136C1086.7 511.059 1083.72 512.98 1079.7 511.843C1072.32 509.754 1072.07 501.94 1071.8 493.666C1071.65 488.987 1071.46 483.163 1070.46 476.514C1068.7 464.658 1065.51 457.486 1063.76 454.267C1061.22 449.56 1059.53 446.45 1056.04 443.686C1047.65 437.052 1036.42 438.69 1033.18 439.35C1029.32 440.135 1022.06 442.37 1016.71 448.524C1012.86 452.954 1009.4 459.763 1010.16 479.416C1010.87 497.639 1014.15 508.43 1017.63 519.855C1020.24 528.448 1022.95 537.333 1024.3 549.114C1026.38 567.233 1024.5 586.236 1018.71 605.595H1018.71Z" fill="#4ABC7A"/>
<path d="M1192.64 610.943L1179.13 604.446C1184.4 593.486 1186.97 581.549 1186.56 569.927C1186.35 563.966 1186 553.99 1179.99 543.237C1177.34 538.512 1173.94 534.227 1169.87 530.5C1167.3 528.153 1166.69 524.35 1168.38 521.315C1172.82 513.372 1176.03 504.955 1177.92 496.298C1180.31 485.349 1184.31 467.026 1174.8 453.233C1173.22 450.934 1169.01 444.826 1161.32 442.366C1154.92 440.315 1147.8 441.304 1140.16 445.305C1127.39 451.992 1122.77 465.766 1120.01 473.995C1116.95 483.099 1115.89 492.779 1116.85 502.767L1101.93 504.201C1100.77 492.106 1102.07 480.339 1105.79 469.229C1109.04 459.54 1115.09 441.508 1133.2 432.026C1147.31 424.637 1158.77 425.807 1165.9 428.09C1178.45 432.111 1184.99 441.605 1187.14 444.725C1200.34 463.872 1195.28 487.045 1192.56 499.495C1190.76 507.771 1187.92 515.846 1184.12 523.57C1187.59 527.344 1190.59 531.482 1193.07 535.925C1200.85 549.84 1201.3 562.563 1201.54 569.399C1202.03 583.437 1198.96 597.804 1192.64 610.944L1192.64 610.943Z" fill="#4ABC7A"/>
<path d="M1090.02 546.17C1094.17 546.17 1097.54 542.804 1097.54 538.65C1097.54 534.497 1094.17 531.13 1090.02 531.13C1085.86 531.13 1082.5 534.497 1082.5 538.65C1082.5 542.804 1085.86 546.17 1090.02 546.17Z" fill="#4ABC7A"/>
<path d="M1143.65 541.465C1147.8 541.465 1151.17 538.098 1151.17 533.945C1151.17 529.792 1147.8 526.425 1143.65 526.425C1139.5 526.425 1136.13 529.792 1136.13 533.945C1136.13 538.098 1139.5 541.465 1143.65 541.465Z" fill="#4ABC7A"/>
<path d="M1128.68 574.821C1135.27 574.821 1140.61 569.482 1140.61 562.896C1140.61 556.31 1135.27 550.971 1128.68 550.971C1122.1 550.971 1116.76 556.31 1116.76 562.896C1116.76 569.482 1122.1 574.821 1128.68 574.821Z" fill="#4ABC7A"/>
<path d="M261.962 696.737C262.448 696.737 262.736 697.007 262.736 697.493V697.961C262.736 698.447 262.448 698.735 261.962 698.735H256.778V702.191H261.206C261.692 702.191 261.98 702.461 261.98 702.947V703.307C261.98 703.793 261.692 704.081 261.206 704.081H256.778V708.581C256.778 709.067 256.508 709.337 256.022 709.337H255.158C254.672 709.337 254.402 709.067 254.402 708.581V697.493C254.402 697.007 254.672 696.737 255.158 696.737H261.962ZM269.36 709.535C266.336 709.535 264.158 707.897 264.158 705.629C264.158 704.207 265.292 703.019 266.588 702.587C265.598 702.191 264.698 701.237 264.698 700.031C264.698 698.033 266.606 696.539 269.36 696.539C272.114 696.539 274.004 698.033 274.004 700.031C274.004 701.237 273.104 702.191 272.114 702.587C273.374 703.001 274.544 704.171 274.544 705.629C274.544 707.897 272.366 709.535 269.36 709.535ZM269.378 701.957C270.854 701.957 271.682 701.021 271.682 700.157C271.682 699.239 270.746 698.483 269.36 698.483C267.956 698.483 267.02 699.239 267.02 700.157C267.02 701.147 267.884 701.957 269.378 701.957ZM269.36 707.573C271.034 707.573 272.15 706.655 272.15 705.521C272.15 704.477 271.196 703.523 269.378 703.523C267.56 703.523 266.552 704.369 266.552 705.521C266.552 706.655 267.668 707.573 269.36 707.573ZM280.592 709.535C279.062 709.535 277.694 709.139 276.686 708.491C276.272 708.221 276.272 707.807 276.578 707.429L276.83 707.087C277.118 706.727 277.478 706.709 277.892 706.925C278.72 707.339 279.818 707.555 280.556 707.555C282.41 707.555 283.436 706.457 283.436 705.053C283.436 703.847 282.482 702.785 280.826 702.785C280.088 702.785 279.278 703.001 278.594 703.379C278.216 703.595 277.928 703.667 277.55 703.505L277.136 703.325C276.722 703.145 276.56 702.875 276.578 702.425L276.884 697.475C276.92 696.971 277.19 696.737 277.676 696.737H284.066C284.552 696.737 284.822 697.007 284.822 697.493V697.889C284.822 698.375 284.552 698.645 284.066 698.645H278.972L278.738 701.849C279.368 701.273 280.358 700.967 281.42 700.967C284.066 700.967 285.722 702.857 285.722 705.053C285.722 707.699 283.868 709.535 280.592 709.535ZM293.971 709.535C289.705 709.535 287.113 706.547 287.113 703.037C287.113 699.527 289.705 696.539 293.971 696.539C295.573 696.539 296.743 696.971 297.751 697.637C298.147 697.925 298.201 698.285 297.931 698.699L297.643 699.113C297.373 699.527 297.031 699.563 296.581 699.311C295.825 698.879 294.871 698.627 293.971 698.627C291.181 698.627 289.525 700.643 289.525 703.037C289.525 705.431 291.181 707.447 293.971 707.447C294.871 707.447 295.825 707.195 296.581 706.763C297.031 706.511 297.373 706.547 297.643 706.961L297.931 707.375C298.201 707.789 298.183 708.113 297.841 708.365C296.815 709.067 295.627 709.535 293.971 709.535ZM303.79 709.535C302.134 709.535 300.766 709.103 299.794 708.437C299.434 708.185 299.416 707.825 299.686 707.501L300.064 707.033C300.334 706.709 300.658 706.673 301.018 706.889C301.954 707.429 302.674 707.555 303.682 707.555C305.716 707.555 306.706 706.277 306.706 705.107C306.706 703.793 305.59 702.893 304.15 702.893C303.862 702.893 303.376 702.929 302.926 703.127C302.548 703.271 302.26 703.235 302.008 702.911L301.828 702.659C301.576 702.335 301.594 702.011 301.936 701.723L305.23 698.645H300.55C300.118 698.645 299.884 698.393 299.884 697.979V697.403C299.884 696.989 300.118 696.737 300.55 696.737H307.894C308.326 696.737 308.578 696.989 308.578 697.403V697.619C308.578 697.961 308.452 698.213 308.2 698.447L304.888 701.381C305.158 701.381 305.41 701.399 305.644 701.453C307.444 701.723 309.01 703.001 309.01 705.143C309.01 707.591 307.156 709.535 303.79 709.535ZM316.033 709.535C312.685 709.535 310.723 707.033 310.723 703.289C310.723 699.581 312.595 696.539 316.321 696.539C317.581 696.539 318.715 696.881 319.579 697.511C319.993 697.799 319.975 698.213 319.615 698.591L319.327 698.879C319.003 699.203 318.679 699.203 318.265 698.969C317.779 698.681 317.113 698.519 316.429 698.519C314.413 698.519 313.009 700.103 313.009 702.731C313.855 701.525 315.169 701.057 316.375 701.057C318.715 701.057 320.785 702.677 320.785 705.251C320.785 707.735 318.877 709.535 316.033 709.535ZM315.907 707.573C317.329 707.573 318.481 706.637 318.481 705.251C318.481 703.847 317.293 702.911 315.889 702.911C314.413 702.911 313.207 703.901 313.207 705.251C313.207 706.601 314.413 707.573 315.907 707.573Z" fill="#F85C36"/>
<path d="M257.876 741.535C256.22 741.535 254.852 741.103 253.88 740.437C253.52 740.185 253.502 739.825 253.772 739.501L254.15 739.033C254.42 738.709 254.744 738.673 255.104 738.889C256.04 739.429 256.76 739.555 257.768 739.555C259.802 739.555 260.792 738.277 260.792 737.107C260.792 735.793 259.676 734.893 258.236 734.893C257.948 734.893 257.462 734.929 257.012 735.127C256.634 735.271 256.346 735.235 256.094 734.911L255.914 734.659C255.662 734.335 255.68 734.011 256.022 733.723L259.316 730.645H254.636C254.204 730.645 253.97 730.393 253.97 729.979V729.403C253.97 728.989 254.204 728.737 254.636 728.737H261.98C262.412 728.737 262.664 728.989 262.664 729.403V729.619C262.664 729.961 262.538 730.213 262.286 730.447L258.974 733.381C259.244 733.381 259.496 733.399 259.73 733.453C261.53 733.723 263.096 735.001 263.096 737.143C263.096 739.591 261.242 741.535 257.876 741.535ZM268.985 741.535C267.329 741.535 265.961 741.103 264.989 740.437C264.629 740.185 264.611 739.825 264.881 739.501L265.259 739.033C265.529 738.709 265.853 738.673 266.213 738.889C267.149 739.429 267.869 739.555 268.877 739.555C270.911 739.555 271.901 738.277 271.901 737.107C271.901 735.793 270.785 734.893 269.345 734.893C269.057 734.893 268.571 734.929 268.121 735.127C267.743 735.271 267.455 735.235 267.203 734.911L267.023 734.659C266.771 734.335 266.789 734.011 267.131 733.723L270.425 730.645H265.745C265.313 730.645 265.079 730.393 265.079 729.979V729.403C265.079 728.989 265.313 728.737 265.745 728.737H273.089C273.521 728.737 273.773 728.989 273.773 729.403V729.619C273.773 729.961 273.647 730.213 273.395 730.447L270.083 733.381C270.353 733.381 270.605 733.399 270.839 733.453C272.639 733.723 274.205 735.001 274.205 737.143C274.205 739.591 272.351 741.535 268.985 741.535ZM276.855 741.337C276.387 741.337 276.117 741.103 276.027 740.653L276.009 740.473C275.937 740.077 276.045 739.771 276.351 739.483L280.941 735.343C281.913 734.497 282.669 733.633 282.669 732.517C282.669 731.239 281.733 730.501 280.383 730.501C279.051 730.501 278.457 731.095 278.241 731.725C278.079 732.157 277.881 732.391 277.431 732.391H276.639C276.135 732.391 275.811 732.103 275.937 731.599C276.225 730.123 277.467 728.539 280.419 728.539C283.137 728.539 284.937 730.087 284.937 732.517C284.937 734.389 283.803 735.667 282.615 736.693L279.447 739.447L279.465 739.519C280.131 739.447 282.003 739.429 282.183 739.429H284.703C285.189 739.429 285.459 739.699 285.459 740.185V740.581C285.459 741.067 285.189 741.337 284.703 741.337H276.855ZM293.688 741.337C293.256 741.337 293.004 741.085 293.004 740.635V738.097H287.262C286.812 738.097 286.578 737.845 286.578 737.395V736.981C286.578 736.639 286.668 736.387 286.902 736.117L293.31 729.115C293.544 728.845 293.814 728.737 294.174 728.737H294.624C295.074 728.737 295.326 728.989 295.326 729.439V736.261H297.252C297.702 736.261 297.954 736.513 297.954 736.963V737.395C297.954 737.845 297.702 738.097 297.252 738.097H295.326V740.635C295.326 741.085 295.074 741.337 294.624 741.337H293.688ZM289.098 736.261H293.004V732.013L289.098 736.261ZM302.279 741.337C301.793 741.337 301.523 741.067 301.523 740.581V731.383L299.507 732.265C299.039 732.463 298.679 732.283 298.535 731.815L298.409 731.419C298.265 730.969 298.427 730.627 298.841 730.429L302.135 728.935C302.477 728.791 302.747 728.737 303.197 728.737C303.611 728.737 303.845 729.007 303.845 729.493V740.581C303.845 741.067 303.575 741.337 303.089 741.337H302.279ZM314.257 728.737C314.743 728.737 315.031 729.007 315.031 729.493V729.961C315.031 730.447 314.743 730.735 314.257 730.735H309.073V734.191H313.501C313.987 734.191 314.275 734.461 314.275 734.947V735.307C314.275 735.793 313.987 736.081 313.501 736.081H309.073V740.581C309.073 741.067 308.803 741.337 308.317 741.337H307.453C306.967 741.337 306.697 741.067 306.697 740.581V729.493C306.697 729.007 306.967 728.737 307.453 728.737H314.257Z" fill="#33241F"/>
<path d="M319.127 382.449H251.294C248.693 382.449 246.585 384.557 246.585 387.158V403.224C246.585 405.825 248.693 407.933 251.294 407.933H319.127C321.728 407.933 323.836 405.825 323.836 403.224V387.158C323.836 384.557 321.728 382.449 319.127 382.449Z" fill="#33241F"/>
<path d="M257.254 368.638V359.437L255.237 360.32C254.769 360.517 254.409 360.338 254.265 359.87L254.139 359.474C253.995 359.024 254.157 358.682 254.571 358.484L257.866 356.99C258.208 356.845 258.478 356.792 258.928 356.792C259.342 356.792 259.576 357.062 259.576 357.548V368.64C259.576 369.125 259.306 369.396 258.82 369.396H258.01C257.524 369.396 257.254 369.125 257.254 368.64V368.638Z" fill="#1B38E0"/>
<path d="M272.108 365.937C272.108 368.026 270.361 369.394 267.751 369.394H263.178C262.692 369.394 262.422 369.123 262.422 368.638V357.546C262.422 357.06 262.692 356.79 263.178 356.79H267.193C269.696 356.79 271.514 358.05 271.514 360.139C271.514 361.31 270.866 362.444 269.317 362.894C271.171 363.128 272.108 364.514 272.108 365.937ZM264.798 358.698V362.227H266.527C268.4 362.227 269.138 361.309 269.138 360.373C269.138 359.293 268.22 358.698 267.085 358.698H264.798ZM269.731 365.792C269.731 364.82 268.903 363.866 266.94 363.866H264.797V367.449H267.696C268.92 367.449 269.73 366.764 269.73 365.792H269.731Z" fill="#1B38E0"/>
<path d="M273.849 368.493C273.489 368.241 273.471 367.881 273.741 367.556L274.119 367.088C274.389 366.764 274.713 366.728 275.073 366.943C276.01 367.484 276.73 367.61 277.738 367.61C279.773 367.61 280.763 366.332 280.763 365.161C280.763 363.847 279.646 362.946 278.206 362.946C277.918 362.946 277.432 362.982 276.982 363.18C276.604 363.325 276.316 363.288 276.064 362.964L275.884 362.712C275.632 362.388 275.65 362.064 275.992 361.775L279.287 358.696H274.606C274.173 358.696 273.939 358.444 273.939 358.03V357.454C273.939 357.04 274.173 356.788 274.606 356.788H281.952C282.385 356.788 282.637 357.04 282.637 357.454V357.67C282.637 358.013 282.511 358.265 282.259 358.498L278.946 361.434C279.217 361.434 279.468 361.452 279.702 361.505C281.503 361.776 283.069 363.054 283.069 365.196C283.069 367.645 281.215 369.59 277.847 369.59C276.19 369.59 274.822 369.157 273.85 368.491L273.849 368.493Z" fill="#1B38E0"/>
<path d="M284.722 365.685C284.722 364.262 285.856 363.074 287.153 362.642C286.162 362.246 285.262 361.291 285.262 360.085C285.262 358.086 287.17 356.592 289.925 356.592C292.68 356.592 294.571 358.086 294.571 360.085C294.571 361.291 293.671 362.245 292.68 362.642C293.94 363.056 295.111 364.226 295.111 365.685C295.111 367.954 292.932 369.592 289.925 369.592C286.9 369.592 284.721 367.953 284.721 365.685H284.722ZM292.716 365.576C292.716 364.532 291.762 363.578 289.943 363.578C288.124 363.578 287.116 364.424 287.116 365.576C287.116 366.711 288.232 367.629 289.925 367.629C291.6 367.629 292.716 366.711 292.716 365.576ZM292.248 360.211C292.248 359.293 291.312 358.536 289.925 358.536C288.521 358.536 287.584 359.293 287.584 360.211C287.584 361.201 288.448 362.012 289.943 362.012C291.42 362.012 292.248 361.075 292.248 360.211Z" fill="#1B38E0"/>
<path d="M299.86 358.788V362.245H304.253C304.739 362.245 305.027 362.516 305.027 363.002V363.361C305.027 363.847 304.739 364.135 304.253 364.135H299.86V367.394H305.027C305.513 367.394 305.783 367.682 305.783 368.168V368.637C305.783 369.122 305.512 369.393 305.027 369.393H298.239C297.753 369.393 297.483 369.122 297.483 368.637V357.545C297.483 357.059 297.753 356.789 298.239 356.789H305.027C305.513 356.789 305.783 357.059 305.783 357.545V358.014C305.783 358.499 305.512 358.787 305.027 358.787H299.86V358.788Z" fill="#1B38E0"/>
<path d="M307.51 363.092C307.51 359.49 309.599 356.573 313.038 356.573C316.459 356.573 318.583 359.49 318.583 363.092C318.583 366.675 316.458 369.592 313.038 369.592C309.599 369.592 307.51 366.675 307.51 363.092ZM316.296 363.092C316.296 360.553 315.054 358.536 313.037 358.536C311.02 358.536 309.814 360.553 309.814 363.092C309.814 365.613 311.021 367.629 313.037 367.629C315.053 367.629 316.296 365.612 316.296 363.092Z" fill="#1B38E0"/>
<path d="M263.61 389.546V390.015C263.61 390.5 263.322 390.788 262.836 390.788H257.65V394.245H262.079C262.565 394.245 262.853 394.516 262.853 395.002V395.361C262.853 395.847 262.565 396.135 262.079 396.135H257.65V400.637C257.65 401.122 257.379 401.393 256.894 401.393H256.03C255.544 401.393 255.274 401.122 255.274 400.637V389.545C255.274 389.059 255.544 388.789 256.03 388.789H262.836C263.322 388.789 263.61 389.06 263.61 389.546Z" fill="#F2E7E5"/>
<path d="M265.192 400.709L265.174 400.529C265.102 400.133 265.21 399.827 265.516 399.539L270.107 395.397C271.079 394.551 271.836 393.687 271.836 392.571C271.836 391.293 270.9 390.554 269.549 390.554C268.216 390.554 267.622 391.148 267.406 391.778C267.244 392.211 267.046 392.445 266.595 392.445H265.803C265.299 392.445 264.975 392.157 265.101 391.652C265.389 390.175 266.631 388.591 269.584 388.591C272.303 388.591 274.103 390.14 274.103 392.57C274.103 394.442 272.969 395.72 271.78 396.747L268.611 399.502L268.629 399.574C269.296 399.502 271.168 399.484 271.348 399.484H273.869C274.355 399.484 274.625 399.754 274.625 400.24V400.636C274.625 401.121 274.355 401.392 273.869 401.392H266.018C265.55 401.392 265.28 401.158 265.19 400.707L265.192 400.709Z" fill="#F2E7E5"/>
<path d="M279.286 390.788V394.245H283.679C284.165 394.245 284.453 394.516 284.453 395.002V395.361C284.453 395.847 284.165 396.135 283.679 396.135H279.286V399.394H284.453C284.939 399.394 285.209 399.682 285.209 400.168V400.637C285.209 401.122 284.938 401.393 284.453 401.393H277.665C277.179 401.393 276.909 401.122 276.909 400.637V389.545C276.909 389.059 277.179 388.789 277.665 388.789H284.453C284.939 388.789 285.209 389.059 285.209 389.545V390.014C285.209 390.499 284.938 390.787 284.453 390.787H279.286V390.788Z" fill="#F2E7E5"/>
<path d="M287.763 400.583L293.291 390.698H287.277C286.845 390.698 286.61 390.446 286.61 390.032V389.456C286.61 389.042 286.844 388.79 287.277 388.79H295.217C295.631 388.79 295.883 389.042 295.883 389.456V389.816C295.883 390.14 295.811 390.374 295.667 390.644L290.175 400.907C290.013 401.231 289.743 401.393 289.383 401.393H288.231C287.709 401.393 287.493 401.051 287.763 400.582V400.583Z" fill="#F2E7E5"/>
<path d="M300.04 390.788V394.245H304.433C304.919 394.245 305.207 394.516 305.207 395.002V395.361C305.207 395.847 304.919 396.135 304.433 396.135H300.04V399.394H305.207C305.693 399.394 305.963 399.682 305.963 400.168V400.637C305.963 401.122 305.692 401.393 305.207 401.393H298.419C297.933 401.393 297.663 401.122 297.663 400.637V389.545C297.663 389.059 297.933 388.789 298.419 388.789H305.207C305.693 388.789 305.963 389.059 305.963 389.545V390.014C305.963 390.499 305.692 390.787 305.207 390.787H300.04V390.788Z" fill="#F2E7E5"/>
<path d="M308.175 400.547C307.761 400.277 307.761 399.863 308.067 399.485L308.319 399.142C308.607 398.783 308.967 398.764 309.381 398.98C310.21 399.394 311.308 399.611 312.046 399.611C313.9 399.611 314.927 398.512 314.927 397.108C314.927 395.902 313.973 394.839 312.316 394.839C311.578 394.839 310.768 395.055 310.083 395.433C309.705 395.649 309.417 395.721 309.039 395.559L308.625 395.379C308.211 395.199 308.049 394.929 308.066 394.479L308.372 389.528C308.408 389.023 308.678 388.79 309.164 388.79H315.556C316.042 388.79 316.312 389.06 316.312 389.546V389.942C316.312 390.428 316.042 390.698 315.556 390.698H310.461L310.227 393.903C310.857 393.327 311.847 393.021 312.91 393.021C315.556 393.021 317.213 394.911 317.213 397.108C317.213 399.754 315.359 401.591 312.082 401.591C310.551 401.591 309.183 401.195 308.175 400.546V400.547Z" fill="#F2E7E5"/>
<path d="M740.515 356.273C741.001 356.273 741.289 356.543 741.289 357.029V357.497C741.289 357.983 741.001 358.271 740.515 358.271H735.331V361.727H739.759C740.245 361.727 740.533 361.997 740.533 362.483V362.843C740.533 363.329 740.245 363.617 739.759 363.617H735.331V368.117C735.331 368.603 735.061 368.873 734.575 368.873H733.711C733.225 368.873 732.955 368.603 732.955 368.117V357.029C732.955 356.543 733.225 356.273 733.711 356.273H740.515ZM747.912 369.071C744.888 369.071 742.71 367.433 742.71 365.165C742.71 363.743 743.844 362.555 745.14 362.123C744.15 361.727 743.25 360.773 743.25 359.567C743.25 357.569 745.158 356.075 747.912 356.075C750.666 356.075 752.556 357.569 752.556 359.567C752.556 360.773 751.656 361.727 750.666 362.123C751.926 362.537 753.096 363.707 753.096 365.165C753.096 367.433 750.918 369.071 747.912 369.071ZM747.93 361.493C749.406 361.493 750.234 360.557 750.234 359.693C750.234 358.775 749.298 358.019 747.912 358.019C746.508 358.019 745.572 358.775 745.572 359.693C745.572 360.683 746.436 361.493 747.93 361.493ZM747.912 367.109C749.586 367.109 750.702 366.191 750.702 365.057C750.702 364.013 749.748 363.059 747.93 363.059C746.112 363.059 745.104 363.905 745.104 365.057C745.104 366.191 746.22 367.109 747.912 367.109ZM759.144 369.071C757.614 369.071 756.246 368.675 755.238 368.027C754.824 367.757 754.824 367.343 755.13 366.965L755.382 366.623C755.67 366.263 756.03 366.245 756.444 366.461C757.272 366.875 758.37 367.091 759.108 367.091C760.962 367.091 761.988 365.993 761.988 364.589C761.988 363.383 761.034 362.321 759.378 362.321C758.64 362.321 757.83 362.537 757.146 362.915C756.768 363.131 756.48 363.203 756.102 363.041L755.688 362.861C755.274 362.681 755.112 362.411 755.13 361.961L755.436 357.011C755.472 356.507 755.742 356.273 756.228 356.273H762.618C763.104 356.273 763.374 356.543 763.374 357.029V357.425C763.374 357.911 763.104 358.181 762.618 358.181H757.524L757.29 361.385C757.92 360.809 758.91 360.503 759.972 360.503C762.618 360.503 764.274 362.393 764.274 364.589C764.274 367.235 762.42 369.071 759.144 369.071ZM772.523 369.071C768.257 369.071 765.665 366.083 765.665 362.573C765.665 359.063 768.257 356.075 772.523 356.075C774.125 356.075 775.295 356.507 776.303 357.173C776.699 357.461 776.753 357.821 776.483 358.235L776.195 358.649C775.925 359.063 775.583 359.099 775.133 358.847C774.377 358.415 773.423 358.163 772.523 358.163C769.733 358.163 768.077 360.179 768.077 362.573C768.077 364.967 769.733 366.983 772.523 366.983C773.423 366.983 774.377 366.731 775.133 366.299C775.583 366.047 775.925 366.083 776.195 366.497L776.483 366.911C776.753 367.325 776.735 367.649 776.393 367.901C775.367 368.603 774.179 369.071 772.523 369.071ZM782.343 369.071C780.687 369.071 779.319 368.639 778.347 367.973C777.987 367.721 777.969 367.361 778.239 367.037L778.617 366.569C778.887 366.245 779.211 366.209 779.571 366.425C780.507 366.965 781.227 367.091 782.235 367.091C784.269 367.091 785.259 365.813 785.259 364.643C785.259 363.329 784.143 362.429 782.703 362.429C782.415 362.429 781.929 362.465 781.479 362.663C781.101 362.807 780.813 362.771 780.561 362.447L780.381 362.195C780.129 361.871 780.147 361.547 780.489 361.259L783.783 358.181H779.103C778.671 358.181 778.437 357.929 778.437 357.515V356.939C778.437 356.525 778.671 356.273 779.103 356.273H786.447C786.879 356.273 787.131 356.525 787.131 356.939V357.155C787.131 357.497 787.005 357.749 786.753 357.983L783.441 360.917C783.711 360.917 783.963 360.935 784.197 360.989C785.997 361.259 787.563 362.537 787.563 364.679C787.563 367.127 785.709 369.071 782.343 369.071ZM794.586 369.071C791.238 369.071 789.276 366.569 789.276 362.825C789.276 359.117 791.148 356.075 794.874 356.075C796.134 356.075 797.268 356.417 798.132 357.047C798.546 357.335 798.528 357.749 798.168 358.127L797.88 358.415C797.556 358.739 797.232 358.739 796.818 358.505C796.332 358.217 795.666 358.055 794.982 358.055C792.966 358.055 791.562 359.639 791.562 362.267C792.408 361.061 793.722 360.593 794.928 360.593C797.268 360.593 799.338 362.213 799.338 364.787C799.338 367.271 797.43 369.071 794.586 369.071ZM794.46 367.109C795.882 367.109 797.034 366.173 797.034 364.787C797.034 363.383 795.846 362.447 794.442 362.447C792.966 362.447 791.76 363.437 791.76 364.787C791.76 366.137 792.966 367.109 794.46 367.109Z" fill="#DFA6ED"/>
<path d="M742.08 647.736C742.566 647.736 742.854 648.006 742.854 648.492V648.96C742.854 649.446 742.566 649.734 742.08 649.734H736.896V653.19H741.324C741.81 653.19 742.098 653.46 742.098 653.946V654.306C742.098 654.792 741.81 655.08 741.324 655.08H736.896V659.58C736.896 660.066 736.626 660.336 736.14 660.336H735.276C734.79 660.336 734.52 660.066 734.52 659.58V648.492C734.52 648.006 734.79 647.736 735.276 647.736H742.08ZM749.478 660.534C746.454 660.534 744.276 658.896 744.276 656.628C744.276 655.206 745.41 654.018 746.706 653.586C745.716 653.19 744.816 652.236 744.816 651.03C744.816 649.032 746.724 647.538 749.478 647.538C752.232 647.538 754.122 649.032 754.122 651.03C754.122 652.236 753.222 653.19 752.232 653.586C753.492 654 754.662 655.17 754.662 656.628C754.662 658.896 752.484 660.534 749.478 660.534ZM749.496 652.956C750.972 652.956 751.8 652.02 751.8 651.156C751.8 650.238 750.864 649.482 749.478 649.482C748.074 649.482 747.138 650.238 747.138 651.156C747.138 652.146 748.002 652.956 749.496 652.956ZM749.478 658.572C751.152 658.572 752.268 657.654 752.268 656.52C752.268 655.476 751.314 654.522 749.496 654.522C747.678 654.522 746.67 655.368 746.67 656.52C746.67 657.654 747.786 658.572 749.478 658.572ZM760.71 660.534C759.18 660.534 757.812 660.138 756.804 659.49C756.39 659.22 756.39 658.806 756.696 658.428L756.948 658.086C757.236 657.726 757.596 657.708 758.01 657.924C758.838 658.338 759.936 658.554 760.674 658.554C762.528 658.554 763.554 657.456 763.554 656.052C763.554 654.846 762.6 653.784 760.944 653.784C760.206 653.784 759.396 654 758.712 654.378C758.334 654.594 758.046 654.666 757.668 654.504L757.254 654.324C756.84 654.144 756.678 653.874 756.696 653.424L757.002 648.474C757.038 647.97 757.308 647.736 757.794 647.736H764.184C764.67 647.736 764.94 648.006 764.94 648.492V648.888C764.94 649.374 764.67 649.644 764.184 649.644H759.09L758.856 652.848C759.486 652.272 760.476 651.966 761.538 651.966C764.184 651.966 765.84 653.856 765.84 656.052C765.84 658.698 763.986 660.534 760.71 660.534ZM774.089 660.534C769.823 660.534 767.231 657.546 767.231 654.036C767.231 650.526 769.823 647.538 774.089 647.538C775.691 647.538 776.861 647.97 777.869 648.636C778.265 648.924 778.319 649.284 778.049 649.698L777.761 650.112C777.491 650.526 777.149 650.562 776.699 650.31C775.943 649.878 774.989 649.626 774.089 649.626C771.299 649.626 769.643 651.642 769.643 654.036C769.643 656.43 771.299 658.446 774.089 658.446C774.989 658.446 775.943 658.194 776.699 657.762C777.149 657.51 777.491 657.546 777.761 657.96L778.049 658.374C778.319 658.788 778.301 659.112 777.959 659.364C776.933 660.066 775.745 660.534 774.089 660.534ZM783.908 660.534C782.252 660.534 780.884 660.102 779.912 659.436C779.552 659.184 779.534 658.824 779.804 658.5L780.182 658.032C780.452 657.708 780.776 657.672 781.136 657.888C782.072 658.428 782.792 658.554 783.8 658.554C785.834 658.554 786.824 657.276 786.824 656.106C786.824 654.792 785.708 653.892 784.268 653.892C783.98 653.892 783.494 653.928 783.044 654.126C782.666 654.27 782.378 654.234 782.126 653.91L781.946 653.658C781.694 653.334 781.712 653.01 782.054 652.722L785.348 649.644H780.668C780.236 649.644 780.002 649.392 780.002 648.978V648.402C780.002 647.988 780.236 647.736 780.668 647.736H788.012C788.444 647.736 788.696 647.988 788.696 648.402V648.618C788.696 648.96 788.57 649.212 788.318 649.446L785.006 652.38C785.276 652.38 785.528 652.398 785.762 652.452C787.562 652.722 789.128 654 789.128 656.142C789.128 658.59 787.274 660.534 783.908 660.534ZM796.152 660.534C792.804 660.534 790.842 658.032 790.842 654.288C790.842 650.58 792.714 647.538 796.44 647.538C797.7 647.538 798.834 647.88 799.698 648.51C800.112 648.798 800.094 649.212 799.734 649.59L799.446 649.878C799.122 650.202 798.798 650.202 798.384 649.968C797.898 649.68 797.232 649.518 796.548 649.518C794.532 649.518 793.128 651.102 793.128 653.73C793.974 652.524 795.288 652.056 796.494 652.056C798.834 652.056 800.904 653.676 800.904 656.25C800.904 658.734 798.996 660.534 796.152 660.534ZM796.026 658.572C797.448 658.572 798.6 657.636 798.6 656.25C798.6 654.846 797.412 653.91 796.008 653.91C794.532 653.91 793.326 654.9 793.326 656.25C793.326 657.6 794.532 658.572 796.026 658.572Z" fill="#FF8585"/>
<path d="M1086.56 356.273C1087.04 356.273 1087.33 356.543 1087.33 357.029V357.497C1087.33 357.983 1087.04 358.271 1086.56 358.271H1081.37V361.727H1085.8C1086.29 361.727 1086.58 361.997 1086.58 362.483V362.843C1086.58 363.329 1086.29 363.617 1085.8 363.617H1081.37V368.117C1081.37 368.603 1081.1 368.873 1080.62 368.873H1079.75C1079.27 368.873 1079 368.603 1079 368.117V357.029C1079 356.543 1079.27 356.273 1079.75 356.273H1086.56ZM1093.96 369.071C1090.93 369.071 1088.75 367.433 1088.75 365.165C1088.75 363.743 1089.89 362.555 1091.18 362.123C1090.19 361.727 1089.29 360.773 1089.29 359.567C1089.29 357.569 1091.2 356.075 1093.96 356.075C1096.71 356.075 1098.6 357.569 1098.6 359.567C1098.6 360.773 1097.7 361.727 1096.71 362.123C1097.97 362.537 1099.14 363.707 1099.14 365.165C1099.14 367.433 1096.96 369.071 1093.96 369.071ZM1093.97 361.493C1095.45 361.493 1096.28 360.557 1096.28 359.693C1096.28 358.775 1095.34 358.019 1093.96 358.019C1092.55 358.019 1091.62 358.775 1091.62 359.693C1091.62 360.683 1092.48 361.493 1093.97 361.493ZM1093.96 367.109C1095.63 367.109 1096.75 366.191 1096.75 365.057C1096.75 364.013 1095.79 363.059 1093.97 363.059C1092.16 363.059 1091.15 363.905 1091.15 365.057C1091.15 366.191 1092.26 367.109 1093.96 367.109ZM1105.19 369.071C1103.66 369.071 1102.29 368.675 1101.28 368.027C1100.87 367.757 1100.87 367.343 1101.17 366.965L1101.43 366.623C1101.71 366.263 1102.07 366.245 1102.49 366.461C1103.32 366.875 1104.41 367.091 1105.15 367.091C1107.01 367.091 1108.03 365.993 1108.03 364.589C1108.03 363.383 1107.08 362.321 1105.42 362.321C1104.68 362.321 1103.87 362.537 1103.19 362.915C1102.81 363.131 1102.52 363.203 1102.15 363.041L1101.73 362.861C1101.32 362.681 1101.16 362.411 1101.17 361.961L1101.48 357.011C1101.52 356.507 1101.79 356.273 1102.27 356.273H1108.66C1109.15 356.273 1109.42 356.543 1109.42 357.029V357.425C1109.42 357.911 1109.15 358.181 1108.66 358.181H1103.57L1103.33 361.385C1103.96 360.809 1104.95 360.503 1106.02 360.503C1108.66 360.503 1110.32 362.393 1110.32 364.589C1110.32 367.235 1108.46 369.071 1105.19 369.071ZM1118.57 369.071C1114.3 369.071 1111.71 366.083 1111.71 362.573C1111.71 359.063 1114.3 356.075 1118.57 356.075C1120.17 356.075 1121.34 356.507 1122.35 357.173C1122.74 357.461 1122.8 357.821 1122.53 358.235L1122.24 358.649C1121.97 359.063 1121.63 359.099 1121.18 358.847C1120.42 358.415 1119.47 358.163 1118.57 358.163C1115.78 358.163 1114.12 360.179 1114.12 362.573C1114.12 364.967 1115.78 366.983 1118.57 366.983C1119.47 366.983 1120.42 366.731 1121.18 366.299C1121.63 366.047 1121.97 366.083 1122.24 366.497L1122.53 366.911C1122.8 367.325 1122.78 367.649 1122.44 367.901C1121.41 368.603 1120.22 369.071 1118.57 369.071ZM1128.39 369.071C1126.73 369.071 1125.36 368.639 1124.39 367.973C1124.03 367.721 1124.01 367.361 1124.28 367.037L1124.66 366.569C1124.93 366.245 1125.25 366.209 1125.61 366.425C1126.55 366.965 1127.27 367.091 1128.28 367.091C1130.31 367.091 1131.3 365.813 1131.3 364.643C1131.3 363.329 1130.19 362.429 1128.75 362.429C1128.46 362.429 1127.97 362.465 1127.52 362.663C1127.14 362.807 1126.86 362.771 1126.6 362.447L1126.42 362.195C1126.17 361.871 1126.19 361.547 1126.53 361.259L1129.83 358.181H1125.15C1124.71 358.181 1124.48 357.929 1124.48 357.515V356.939C1124.48 356.525 1124.71 356.273 1125.15 356.273H1132.49C1132.92 356.273 1133.17 356.525 1133.17 356.939V357.155C1133.17 357.497 1133.05 357.749 1132.8 357.983L1129.48 360.917C1129.75 360.917 1130.01 360.935 1130.24 360.989C1132.04 361.259 1133.61 362.537 1133.61 364.679C1133.61 367.127 1131.75 369.071 1128.39 369.071ZM1140.63 369.071C1137.28 369.071 1135.32 366.569 1135.32 362.825C1135.32 359.117 1137.19 356.075 1140.92 356.075C1142.18 356.075 1143.31 356.417 1144.18 357.047C1144.59 357.335 1144.57 357.749 1144.21 358.127L1143.92 358.415C1143.6 358.739 1143.28 358.739 1142.86 358.505C1142.38 358.217 1141.71 358.055 1141.03 358.055C1139.01 358.055 1137.61 359.639 1137.61 362.267C1138.45 361.061 1139.77 360.593 1140.97 360.593C1143.31 360.593 1145.38 362.213 1145.38 364.787C1145.38 367.271 1143.47 369.071 1140.63 369.071ZM1140.5 367.109C1141.93 367.109 1143.08 366.173 1143.08 364.787C1143.08 363.383 1141.89 362.447 1140.49 362.447C1139.01 362.447 1137.8 363.437 1137.8 364.787C1137.8 366.137 1139.01 367.109 1140.5 367.109Z" fill="#FFA748"/>
<path d="M1086.56 647.736C1087.04 647.736 1087.33 648.006 1087.33 648.492V648.96C1087.33 649.446 1087.04 649.734 1086.56 649.734H1081.37V653.19H1085.8C1086.29 653.19 1086.58 653.46 1086.58 653.946V654.306C1086.58 654.792 1086.29 655.08 1085.8 655.08H1081.37V659.58C1081.37 660.066 1081.1 660.336 1080.62 660.336H1079.75C1079.27 660.336 1079 660.066 1079 659.58V648.492C1079 648.006 1079.27 647.736 1079.75 647.736H1086.56ZM1093.96 660.534C1090.93 660.534 1088.75 658.896 1088.75 656.628C1088.75 655.206 1089.89 654.018 1091.18 653.586C1090.19 653.19 1089.29 652.236 1089.29 651.03C1089.29 649.032 1091.2 647.538 1093.96 647.538C1096.71 647.538 1098.6 649.032 1098.6 651.03C1098.6 652.236 1097.7 653.19 1096.71 653.586C1097.97 654 1099.14 655.17 1099.14 656.628C1099.14 658.896 1096.96 660.534 1093.96 660.534ZM1093.97 652.956C1095.45 652.956 1096.28 652.02 1096.28 651.156C1096.28 650.238 1095.34 649.482 1093.96 649.482C1092.55 649.482 1091.62 650.238 1091.62 651.156C1091.62 652.146 1092.48 652.956 1093.97 652.956ZM1093.96 658.572C1095.63 658.572 1096.75 657.654 1096.75 656.52C1096.75 655.476 1095.79 654.522 1093.97 654.522C1092.16 654.522 1091.15 655.368 1091.15 656.52C1091.15 657.654 1092.26 658.572 1093.96 658.572ZM1105.19 660.534C1103.66 660.534 1102.29 660.138 1101.28 659.49C1100.87 659.22 1100.87 658.806 1101.17 658.428L1101.43 658.086C1101.71 657.726 1102.07 657.708 1102.49 657.924C1103.32 658.338 1104.41 658.554 1105.15 658.554C1107.01 658.554 1108.03 657.456 1108.03 656.052C1108.03 654.846 1107.08 653.784 1105.42 653.784C1104.68 653.784 1103.87 654 1103.19 654.378C1102.81 654.594 1102.52 654.666 1102.15 654.504L1101.73 654.324C1101.32 654.144 1101.16 653.874 1101.17 653.424L1101.48 648.474C1101.52 647.97 1101.79 647.736 1102.27 647.736H1108.66C1109.15 647.736 1109.42 648.006 1109.42 648.492V648.888C1109.42 649.374 1109.15 649.644 1108.66 649.644H1103.57L1103.33 652.848C1103.96 652.272 1104.95 651.966 1106.02 651.966C1108.66 651.966 1110.32 653.856 1110.32 656.052C1110.32 658.698 1108.46 660.534 1105.19 660.534ZM1118.57 660.534C1114.3 660.534 1111.71 657.546 1111.71 654.036C1111.71 650.526 1114.3 647.538 1118.57 647.538C1120.17 647.538 1121.34 647.97 1122.35 648.636C1122.74 648.924 1122.8 649.284 1122.53 649.698L1122.24 650.112C1121.97 650.526 1121.63 650.562 1121.18 650.31C1120.42 649.878 1119.47 649.626 1118.57 649.626C1115.78 649.626 1114.12 651.642 1114.12 654.036C1114.12 656.43 1115.78 658.446 1118.57 658.446C1119.47 658.446 1120.42 658.194 1121.18 657.762C1121.63 657.51 1121.97 657.546 1122.24 657.96L1122.53 658.374C1122.8 658.788 1122.78 659.112 1122.44 659.364C1121.41 660.066 1120.22 660.534 1118.57 660.534ZM1128.39 660.534C1126.73 660.534 1125.36 660.102 1124.39 659.436C1124.03 659.184 1124.01 658.824 1124.28 658.5L1124.66 658.032C1124.93 657.708 1125.25 657.672 1125.61 657.888C1126.55 658.428 1127.27 658.554 1128.28 658.554C1130.31 658.554 1131.3 657.276 1131.3 656.106C1131.3 654.792 1130.19 653.892 1128.75 653.892C1128.46 653.892 1127.97 653.928 1127.52 654.126C1127.14 654.27 1126.86 654.234 1126.6 653.91L1126.42 653.658C1126.17 653.334 1126.19 653.01 1126.53 652.722L1129.83 649.644H1125.15C1124.71 649.644 1124.48 649.392 1124.48 648.978V648.402C1124.48 647.988 1124.71 647.736 1125.15 647.736H1132.49C1132.92 647.736 1133.17 647.988 1133.17 648.402V648.618C1133.17 648.96 1133.05 649.212 1132.8 649.446L1129.48 652.38C1129.75 652.38 1130.01 652.398 1130.24 652.452C1132.04 652.722 1133.61 654 1133.61 656.142C1133.61 658.59 1131.75 660.534 1128.39 660.534ZM1140.63 660.534C1137.28 660.534 1135.32 658.032 1135.32 654.288C1135.32 650.58 1137.19 647.538 1140.92 647.538C1142.18 647.538 1143.31 647.88 1144.18 648.51C1144.59 648.798 1144.57 649.212 1144.21 649.59L1143.92 649.878C1143.6 650.202 1143.28 650.202 1142.86 649.968C1142.38 649.68 1141.71 649.518 1141.03 649.518C1139.01 649.518 1137.61 651.102 1137.61 653.73C1138.45 652.524 1139.77 652.056 1140.97 652.056C1143.31 652.056 1145.38 653.676 1145.38 656.25C1145.38 658.734 1143.47 660.534 1140.63 660.534ZM1140.5 658.572C1141.93 658.572 1143.08 657.636 1143.08 656.25C1143.08 654.846 1141.89 653.91 1140.49 653.91C1139.01 653.91 1137.8 654.9 1137.8 656.25C1137.8 657.6 1139.01 658.572 1140.5 658.572Z" fill="#4ABC7A"/>
<path d="M40.846 729.4C41.332 729.4 41.602 729.67 41.602 730.156V730.624C41.602 731.11 41.332 731.398 40.846 731.398H37.642V741.244C37.642 741.73 37.372 742 36.886 742H36.04C35.554 742 35.284 741.73 35.284 741.244V731.398H32.098C31.612 731.398 31.342 731.11 31.342 730.624V730.156C31.342 729.67 31.612 729.4 32.098 729.4H40.846ZM45.3577 742.198C42.7117 742.198 40.8937 740.092 40.8937 737.428C40.8937 734.764 42.7117 732.658 45.3577 732.658C46.5637 732.658 47.6797 733.108 48.4537 734.224V733.63C48.4537 733.144 48.7237 732.856 49.2097 732.856H50.0017C50.4877 732.856 50.7757 733.144 50.7757 733.63V741.244C50.7757 741.73 50.4877 742 50.0017 742H49.2097C48.7237 742 48.4537 741.73 48.4537 741.244V740.632C47.6797 741.748 46.5637 742.198 45.3577 742.198ZM45.8077 740.272C47.4097 740.272 48.4717 739.066 48.4897 737.428C48.4717 735.79 47.4097 734.584 45.8077 734.584C44.1697 734.584 43.2157 735.88 43.2157 737.428C43.2157 738.994 44.1697 740.272 45.8077 740.272ZM58.6479 742.198C57.4419 742.198 56.3259 741.748 55.5519 740.632V741.244C55.5519 741.73 55.2819 742 54.7959 742H54.0039C53.5179 742 53.2299 741.73 53.2299 741.244V729.742C53.2299 729.256 53.5179 728.986 54.0039 728.986H54.7959C55.2819 728.986 55.5519 729.256 55.5519 729.742V734.224C56.3259 733.108 57.4419 732.658 58.6479 732.658C61.2939 732.658 63.1119 734.764 63.1119 737.428C63.1119 740.092 61.2939 742.198 58.6479 742.198ZM58.1979 740.272C59.8539 740.272 60.7899 738.994 60.7899 737.428C60.7899 735.88 59.8539 734.584 58.1979 734.584C56.6139 734.584 55.5339 735.79 55.5159 737.428C55.5339 739.066 56.6139 740.272 58.1979 740.272ZM70.4076 742.198C69.2016 742.198 68.0856 741.748 67.3116 740.632V741.244C67.3116 741.73 67.0416 742 66.5556 742H65.7636C65.2776 742 64.9896 741.73 64.9896 741.244V729.742C64.9896 729.256 65.2776 728.986 65.7636 728.986H66.5556C67.0416 728.986 67.3116 729.256 67.3116 729.742V734.224C68.0856 733.108 69.2016 732.658 70.4076 732.658C73.0536 732.658 74.8716 734.764 74.8716 737.428C74.8716 740.092 73.0536 742.198 70.4076 742.198ZM69.9576 740.272C71.6136 740.272 72.5496 738.994 72.5496 737.428C72.5496 735.88 71.6136 734.584 69.9576 734.584C68.3736 734.584 67.2936 735.79 67.2756 737.428C67.2936 739.066 68.3736 740.272 69.9576 740.272ZM77.9554 731.506C77.0734 731.506 76.4974 730.912 76.4974 730.156C76.4974 729.4 77.0554 728.806 77.9554 728.806C78.8554 728.806 79.4314 729.4 79.4314 730.156C79.4314 730.912 78.8374 731.506 77.9554 731.506ZM77.5594 742C77.0734 742 76.8034 741.73 76.8034 741.244V733.63C76.8034 733.144 77.0734 732.856 77.5594 732.856H78.3694C78.8554 732.856 79.1254 733.144 79.1254 733.63V741.244C79.1254 741.73 78.8554 742 78.3694 742H77.5594ZM85.2181 742.198C83.7061 742.198 82.1761 741.478 82.1761 739.03V734.62H81.1681C80.8981 734.62 80.7541 734.476 80.7541 734.206V733.27C80.7541 733.018 80.8981 732.856 81.1681 732.856H82.2841L82.6081 730.894C82.6621 730.534 82.8961 730.354 83.2381 730.354H83.8681C84.2461 730.354 84.4621 730.57 84.4621 730.948V732.856H86.7301C87.0001 732.856 87.1441 733.018 87.1441 733.27V734.206C87.1441 734.476 87.0001 734.62 86.7301 734.62H84.4621V739.12C84.4621 739.948 84.8761 740.272 85.3621 740.272C85.8661 740.272 86.2801 739.93 86.2801 739.372C86.2801 739.282 86.2801 739.174 86.2621 739.048C86.2261 738.76 86.3161 738.598 86.6041 738.598H87.5581C87.7921 738.598 87.9721 738.688 88.0261 738.922C88.0981 739.228 88.1161 739.534 88.1161 739.606C88.1161 741.298 86.9281 742.198 85.2181 742.198ZM89.8582 734.008C89.6422 734.134 89.4622 734.062 89.3362 733.864L89.2642 733.702C89.1382 733.504 89.1742 733.324 89.3902 733.18C90.1282 732.748 90.4882 732.046 90.4882 731.416C90.3802 731.452 90.2722 731.452 90.1822 731.47C89.4622 731.47 89.0662 730.894 89.0662 730.318C89.0482 729.58 89.5522 728.986 90.5062 728.986C91.6582 728.986 91.9462 730.048 91.9462 730.606C91.9462 732.082 91.1542 733.378 89.8582 734.008ZM96.3475 742.198C94.8175 742.198 93.5215 741.586 92.9095 740.398C92.6755 739.912 92.9275 739.57 93.4135 739.444L93.8815 739.336C94.3135 739.228 94.5295 739.426 94.8355 739.768C95.1595 740.164 95.7175 740.416 96.3475 740.416C97.1395 740.416 97.6975 739.984 97.6975 739.408C97.6975 738.922 97.3195 738.67 96.7255 738.454L95.5555 738.04C94.3855 737.68 93.1255 736.96 93.1255 735.466C93.1255 733.846 94.4575 732.658 96.3475 732.658C97.4995 732.658 98.5615 733.036 99.1915 734.116C99.4975 734.584 99.2455 734.962 98.7415 735.088L98.3275 735.196C97.8955 735.304 97.6615 735.142 97.3735 734.836C97.1035 734.512 96.7435 734.422 96.3835 734.422C95.6815 734.422 95.2675 734.854 95.2675 735.376C95.2675 735.862 95.6995 736.114 96.2035 736.276L97.4275 736.708C99.2455 737.284 99.8215 738.346 99.8395 739.39C99.8395 741.226 98.2195 742.198 96.3475 742.198ZM112.564 742.198C108.298 742.198 105.706 739.21 105.706 735.7C105.706 732.19 108.298 729.202 112.564 729.202C114.166 729.202 115.336 729.634 116.344 730.3C116.74 730.588 116.794 730.948 116.524 731.362L116.236 731.776C115.966 732.19 115.624 732.226 115.174 731.974C114.418 731.542 113.464 731.29 112.564 731.29C109.774 731.29 108.118 733.306 108.118 735.7C108.118 738.094 109.774 740.11 112.564 740.11C113.464 740.11 114.418 739.858 115.174 739.426C115.624 739.174 115.966 739.21 116.236 739.624L116.524 740.038C116.794 740.452 116.776 740.776 116.434 741.028C115.408 741.73 114.22 742.198 112.564 742.198ZM122.712 742.198C119.922 742.198 117.78 740.074 117.78 737.428C117.78 734.8 119.922 732.658 122.712 732.658C125.502 732.658 127.662 734.818 127.662 737.428C127.662 740.074 125.502 742.198 122.712 742.198ZM122.712 740.254C124.224 740.254 125.412 739.012 125.412 737.446C125.412 735.862 124.224 734.602 122.712 734.602C121.2 734.602 120.012 735.862 120.012 737.446C120.012 739.012 121.2 740.254 122.712 740.254ZM130.311 742C129.825 742 129.555 741.73 129.555 741.244V729.742C129.555 729.256 129.825 728.986 130.311 728.986H131.121C131.607 728.986 131.877 729.256 131.877 729.742V741.244C131.877 741.73 131.607 742 131.121 742H130.311ZM138.708 742.198C135.918 742.198 133.776 740.074 133.776 737.428C133.776 734.8 135.918 732.658 138.708 732.658C141.498 732.658 143.658 734.818 143.658 737.428C143.658 740.074 141.498 742.198 138.708 742.198ZM138.708 740.254C140.22 740.254 141.408 739.012 141.408 737.446C141.408 735.862 140.22 734.602 138.708 734.602C137.196 734.602 136.008 735.862 136.008 737.446C136.008 739.012 137.196 740.254 138.708 740.254ZM148.791 742.198C146.559 742.198 145.371 740.578 145.371 738.076V733.63C145.371 733.144 145.659 732.856 146.145 732.856H146.937C147.423 732.856 147.693 733.144 147.693 733.63V737.968C147.693 739.534 148.377 740.254 149.331 740.254C150.267 740.254 151.689 739.552 151.689 737.338V733.63C151.689 733.144 151.977 732.856 152.463 732.856H153.255C153.741 732.856 154.011 733.144 154.011 733.63V741.244C154.011 741.73 153.741 742 153.255 742H152.463C151.977 742 151.689 741.73 151.689 741.244V740.38C151.275 741.532 150.195 742.198 148.791 742.198ZM157.258 742C156.772 742 156.502 741.73 156.502 741.244V733.63C156.502 733.144 156.772 732.856 157.258 732.856H158.014C158.5 732.856 158.77 733.144 158.77 733.63V734.89C159.076 733.324 160.246 732.658 161.182 732.658C161.254 732.658 161.452 732.676 161.542 732.694C161.938 732.73 162.01 733.054 162.01 733.414V734.314C162.01 734.782 161.794 734.98 161.452 734.926C161.29 734.89 161.128 734.872 160.984 734.872C160.12 734.872 158.824 735.394 158.824 738.382V741.244C158.824 741.73 158.536 742 158.05 742H157.258ZM166.361 742.198C164.831 742.198 163.535 741.586 162.923 740.398C162.689 739.912 162.941 739.57 163.427 739.444L163.895 739.336C164.327 739.228 164.543 739.426 164.849 739.768C165.173 740.164 165.731 740.416 166.361 740.416C167.153 740.416 167.711 739.984 167.711 739.408C167.711 738.922 167.333 738.67 166.739 738.454L165.569 738.04C164.399 737.68 163.139 736.96 163.139 735.466C163.139 733.846 164.471 732.658 166.361 732.658C167.513 732.658 168.575 733.036 169.205 734.116C169.511 734.584 169.259 734.962 168.755 735.088L168.341 735.196C167.909 735.304 167.675 735.142 167.387 734.836C167.117 734.512 166.757 734.422 166.397 734.422C165.695 734.422 165.281 734.854 165.281 735.376C165.281 735.862 165.713 736.114 166.217 736.276L167.441 736.708C169.259 737.284 169.835 738.346 169.853 739.39C169.853 741.226 168.233 742.198 166.361 742.198Z" fill="#33241F"/>
<path d="M1226.1 725.362V726.624C1226.1 727.654 1225.5 728.218 1224.47 728.218H1219.09V745.424C1219.09 746.454 1218.52 747.018 1217.49 747.018H1215.5C1214.47 747.018 1213.91 746.453 1213.91 745.424V728.218H1208.59C1207.56 728.218 1207 727.653 1207 726.624V725.362C1207 724.332 1207.56 723.768 1208.59 723.768H1224.47C1225.5 723.768 1226.1 724.332 1226.1 725.362H1226.1Z" fill="#1B38E0"/>
<path d="M1224.73 738.482C1224.73 733.467 1228.16 729.58 1232.94 729.58C1235.2 729.58 1237.19 730.444 1238.42 732.37V731.54C1238.42 730.51 1238.98 729.946 1240.01 729.946H1241.97C1243 729.946 1243.57 730.511 1243.57 731.54V745.424C1243.57 746.454 1243 747.018 1241.97 747.018H1240.01C1238.98 747.018 1238.42 746.453 1238.42 745.424V744.627C1237.19 746.52 1235.2 747.384 1232.94 747.384C1228.16 747.384 1224.73 743.531 1224.73 738.482ZM1238.49 738.482C1238.49 735.758 1236.76 733.699 1234.14 733.699C1231.45 733.699 1229.88 735.858 1229.88 738.482C1229.88 741.139 1231.44 743.265 1234.14 743.265C1236.76 743.265 1238.49 741.206 1238.49 738.482Z" fill="#1B38E0"/>
<path d="M1252.83 744.627V745.424C1252.83 746.454 1252.23 747.018 1251.21 747.018H1249.28C1248.25 747.018 1247.69 746.453 1247.69 745.424V724.598C1247.69 723.568 1248.25 723.004 1249.28 723.004H1251.21C1252.24 723.004 1252.83 723.569 1252.83 724.598V732.37C1254.06 730.444 1256.05 729.58 1258.28 729.58C1263.1 729.58 1266.52 733.466 1266.52 738.482C1266.52 743.531 1263.1 747.384 1258.28 747.384C1256.05 747.384 1254.06 746.52 1252.83 744.627ZM1261.37 738.482C1261.37 735.858 1259.78 733.699 1257.12 733.699C1254.46 733.699 1252.77 735.758 1252.73 738.482C1252.77 741.206 1254.46 743.265 1257.12 743.265C1259.77 743.265 1261.37 741.139 1261.37 738.482Z" fill="#1B38E0"/>
<path d="M1274.75 744.627V745.424C1274.75 746.454 1274.16 747.018 1273.13 747.018H1271.2C1270.17 747.018 1269.61 746.453 1269.61 745.424V724.598C1269.61 723.568 1270.17 723.004 1271.2 723.004H1273.13C1274.16 723.004 1274.75 723.569 1274.75 724.598V732.37C1275.98 730.444 1277.98 729.58 1280.2 729.58C1285.02 729.58 1288.44 733.466 1288.44 738.482C1288.44 743.531 1285.02 747.384 1280.2 747.384C1277.98 747.384 1275.98 746.52 1274.75 744.627ZM1283.29 738.482C1283.29 735.858 1281.7 733.699 1279.04 733.699C1276.38 733.699 1274.69 735.758 1274.65 738.482C1274.69 741.206 1276.38 743.265 1279.04 743.265C1281.7 743.265 1283.29 741.139 1283.29 738.482Z" fill="#1B38E0"/>
<path d="M1291.06 725.262C1291.06 723.734 1292.16 722.572 1294.15 722.572C1296.11 722.572 1297.24 723.734 1297.24 725.262C1297.24 726.757 1296.04 727.919 1294.15 727.919C1292.26 727.919 1291.06 726.757 1291.06 725.262ZM1291.59 745.424V731.54C1291.59 730.51 1292.16 729.946 1293.19 729.946H1295.11C1296.14 729.946 1296.74 730.511 1296.74 731.54V745.424C1296.74 746.454 1296.14 747.018 1295.11 747.018H1293.19C1292.16 747.018 1291.59 746.453 1291.59 745.424Z" fill="#1B38E0"/>
<path d="M1301.99 741.338V733.765H1300.29C1299.76 733.765 1299.43 733.466 1299.43 732.935V730.776C1299.43 730.245 1299.76 729.946 1300.29 729.946H1302.39L1302.95 726.492C1303.08 725.794 1303.55 725.429 1304.25 725.429H1305.87C1306.64 725.429 1307.04 725.861 1307.04 726.591V729.946H1310.89C1311.42 729.946 1311.72 730.245 1311.72 730.776V732.935C1311.72 733.467 1311.42 733.765 1310.89 733.765H1307.04V741.504C1307.04 742.766 1307.67 743.264 1308.43 743.264C1309.3 743.264 1309.86 742.6 1309.86 741.703C1309.86 741.537 1309.86 741.338 1309.83 741.105C1309.76 740.507 1309.96 740.208 1310.52 740.208H1312.55C1312.98 740.208 1313.35 740.374 1313.48 740.872C1313.61 741.37 1313.68 741.902 1313.68 742.168C1313.68 745.855 1311.06 747.383 1307.97 747.383C1305.08 747.383 1301.99 746.054 1301.99 741.338Z" fill="#1B38E0"/>
<path d="M1283.39 703.431L1289.09 709.787C1289.2 709.902 1289.09 709.995 1288.86 709.995H1231.82C1231.59 709.995 1231.48 709.901 1231.58 709.787L1237.29 703.431C1238.19 702.42 1240.87 701.658 1243.33 701.658H1277.35C1279.81 701.658 1282.49 702.421 1283.39 703.431Z" fill="#F2E7E5"/>
<path d="M1288.86 710.996H1231.82C1231.27 710.996 1230.83 710.74 1230.64 710.311C1230.46 709.913 1230.54 709.457 1230.84 709.12L1236.54 702.764C1237.78 701.381 1240.9 700.658 1243.33 700.658H1277.35C1279.78 700.658 1282.9 701.382 1284.14 702.764L1289.84 709.12C1290.14 709.457 1290.22 709.914 1290.04 710.312C1289.85 710.741 1289.41 710.996 1288.86 710.996ZM1233.64 708.995H1287.04L1282.65 704.1C1282.04 703.419 1279.71 702.659 1277.35 702.659H1243.33C1240.97 702.659 1238.64 703.418 1238.03 704.1L1233.64 708.995Z" fill="#1B38E0"/>
<path d="M1244.01 705.319L1241.66 704.616C1242.72 701.069 1243.07 697.606 1242.69 694.323C1242.45 692.195 1241.96 690.599 1241.45 688.909C1240.73 686.54 1239.98 684.091 1239.82 680.063C1239.67 676.09 1240.25 673.734 1241.81 671.931C1243.42 670.08 1245.54 669.421 1246.66 669.194C1247.87 668.947 1250.96 668.59 1253.51 670.604C1254.66 671.51 1255.2 672.517 1255.78 673.582C1256.53 674.975 1257.12 676.888 1257.43 678.968C1257.65 680.465 1257.7 681.781 1257.73 682.741C1257.73 682.934 1257.74 683.142 1257.75 683.343C1258.99 682.831 1260.15 682.915 1261.19 682.989C1263.82 683.178 1265.95 684.539 1266.99 685.334L1265.5 687.284C1264.84 686.779 1263.08 685.587 1261.01 685.438C1259.93 685.36 1259.23 685.331 1258.49 685.704C1258.34 685.777 1258.23 685.847 1258.13 685.914C1257.86 686.09 1257.35 686.418 1256.66 686.223C1256.19 686.089 1255.59 685.693 1255.4 684.567C1255.32 684.1 1255.3 683.536 1255.27 682.822C1255.24 681.871 1255.2 680.688 1255 679.331C1254.64 676.896 1253.98 675.417 1253.62 674.752C1253.11 673.807 1252.74 673.124 1251.99 672.531C1250.2 671.117 1247.83 671.462 1247.15 671.601C1246.33 671.767 1244.8 672.239 1243.67 673.543C1242.73 674.626 1242.13 676.134 1242.28 679.97C1242.42 683.681 1243.12 685.976 1243.8 688.196C1244.32 689.916 1244.86 691.696 1245.13 694.046C1245.55 697.661 1245.17 701.455 1244.01 705.322L1244.01 705.319Z" fill="#1B38E0"/>
<path d="M1279.1 706.356L1276.89 705.292C1277.97 703.041 1278.5 700.588 1278.41 698.198C1278.37 696.97 1278.3 694.915 1277.05 692.688C1276.5 691.708 1275.8 690.82 1274.96 690.049C1274.54 689.665 1274.43 689.042 1274.71 688.545C1275.62 686.919 1276.28 685.195 1276.66 683.423C1277.16 681.17 1277.98 677.4 1275.99 674.517C1275.66 674.032 1274.77 672.742 1273.13 672.216C1271.76 671.778 1270.25 671.984 1268.64 672.828C1265.97 674.229 1265.01 677.075 1264.44 678.775C1263.81 680.648 1263.59 682.64 1263.79 684.694L1261.35 684.929C1261.12 682.53 1261.37 680.196 1262.11 677.994C1262.75 676.078 1263.95 672.513 1267.5 670.653C1270.26 669.209 1272.49 669.434 1273.88 669.878C1276.31 670.659 1277.59 672.514 1278.01 673.123C1280.6 676.883 1279.6 681.478 1279.06 683.946C1278.69 685.654 1278.1 687.32 1277.3 688.91C1278.04 689.692 1278.67 690.557 1279.19 691.49C1280.73 694.236 1280.82 696.757 1280.87 698.111C1280.96 700.897 1280.35 703.747 1279.1 706.355L1279.1 706.356Z" fill="#1B38E0"/>
<path d="M1258.66 693.417C1259.5 693.417 1260.18 692.738 1260.18 691.901C1260.18 691.064 1259.5 690.385 1258.66 690.385C1257.83 690.385 1257.15 691.064 1257.15 691.901C1257.15 692.738 1257.83 693.417 1258.66 693.417Z" fill="#1B38E0"/>
<path d="M1269.48 692.469C1270.32 692.469 1270.99 691.79 1270.99 690.953C1270.99 690.115 1270.32 689.437 1269.48 689.437C1268.64 689.437 1267.96 690.115 1267.96 690.953C1267.96 691.79 1268.64 692.469 1269.48 692.469Z" fill="#1B38E0"/>
<path d="M1266.46 699.196C1267.79 699.196 1268.86 698.119 1268.86 696.791C1268.86 695.462 1267.79 694.386 1266.46 694.386C1265.13 694.386 1264.05 695.462 1264.05 696.791C1264.05 698.119 1265.13 699.196 1266.46 699.196Z" fill="#1B38E0"/>
</g>
<defs>
<clipPath id="clip0_876_1997">
<rect width="1355" height="770" fill="white"/>
</clipPath>
</defs>
</svg>
