<?xml version="1.0" encoding="UTF-8"?>
<svg id="a" data-name="Layer_1" xmlns="http://www.w3.org/2000/svg" width="1066" height="656.4" xmlns:xlink="http://www.w3.org/1999/xlink" viewBox="0 0 1066 656.4">
  <g>
    <rect y="0" width="1066" height="656.4" fill="#f2e7e5"/>
    <text transform="translate(10 641.889)" font-family="Inter-Medium, Inter" font-size="14" font-variation-settings="&apos;wght&apos; 500, &apos;slnt&apos; 0" font-weight="500"><tspan x="0" y="0">UI Components</tspan></text>
    <g id="b" data-name="c">
      <g>
        <g>
          <path d="M981.198,627.297v1.078c0,.88-.511,1.362-1.39,1.362h-4.596v14.696c0,.88-.482,1.362-1.362,1.362h-1.702c-.88,0-1.362-.482-1.362-1.362v-14.696h-4.539c-.88,0-1.362-.482-1.362-1.362v-1.078c0-.88.482-1.362,1.362-1.362h13.561c.88,0,1.39.482,1.39,1.362h0Z" fill="#1b38e0"/>
          <path d="M980.034,638.504c0-4.284,2.922-7.603,7.008-7.603,1.929,0,3.631.738,4.681,2.383v-.709c0-.88.482-1.362,1.362-1.362h1.674c.88,0,1.362.482,1.362,1.362v11.859c0,.88-.482,1.362-1.362,1.362h-1.674c-.88,0-1.362-.482-1.362-1.362v-.681c-1.05,1.617-2.752,2.355-4.681,2.355-4.086,0-7.008-3.291-7.008-7.603h0ZM991.779,638.504c0-2.326-1.475-4.085-3.716-4.085-2.298,0-3.631,1.844-3.631,4.085,0,2.27,1.333,4.085,3.631,4.085,2.241,0,3.716-1.759,3.716-4.085Z" fill="#1b38e0"/>
          <path d="M1004.034,643.752v.681c0,.88-.511,1.362-1.39,1.362h-1.645c-.88,0-1.362-.482-1.362-1.362v-17.788c0-.88.482-1.362,1.362-1.362h1.645c.88,0,1.39.482,1.39,1.362v6.638c1.05-1.645,2.752-2.383,4.653-2.383,4.114,0,7.036,3.319,7.036,7.603,0,4.312-2.922,7.603-7.036,7.603-1.901,0-3.603-.738-4.653-2.355h0ZM1011.326,638.504c0-2.241-1.362-4.085-3.631-4.085s-3.717,1.759-3.745,4.085c.028,2.326,1.475,4.085,3.745,4.085s3.631-1.816,3.631-4.085Z" fill="#1b38e0"/>
          <path d="M1022.758,643.752v.681c0,.88-.511,1.362-1.39,1.362h-1.645c-.88,0-1.362-.482-1.362-1.362v-17.788c0-.88.482-1.362,1.362-1.362h1.645c.88,0,1.39.482,1.39,1.362v6.638c1.05-1.645,2.752-2.383,4.653-2.383,4.114,0,7.036,3.319,7.036,7.603,0,4.312-2.922,7.603-7.036,7.603-1.901,0-3.603-.738-4.653-2.355h0ZM1030.049,638.504c0-2.241-1.362-4.085-3.631-4.085s-3.717,1.759-3.745,4.085c.028,2.326,1.475,4.085,3.745,4.085s3.631-1.816,3.631-4.085Z" fill="#1b38e0"/>
          <path d="M1036.687,627.212c0-1.305.936-2.298,2.638-2.298,1.674,0,2.638.993,2.638,2.298,0,1.277-1.021,2.27-2.638,2.27s-2.638-.993-2.638-2.27ZM1037.14,644.433v-11.859c0-.88.482-1.362,1.362-1.362h1.645c.88,0,1.39.482,1.39,1.362v11.859c0,.88-.511,1.362-1.39,1.362h-1.645c-.88,0-1.362-.482-1.362-1.362Z" fill="#1b38e0"/>
          <path d="M1046.02,640.944v-6.468h-1.447c-.454,0-.738-.255-.738-.709v-1.844c0-.454.284-.709.738-.709h1.787l.482-2.951c.113-.596.511-.908,1.106-.908h1.39c.652,0,.993.369.993.993v2.865h3.291c.454,0,.709.256.709.709v1.844c0,.454-.255.709-.709.709h-3.291v6.61c0,1.078.539,1.504,1.191,1.504.738,0,1.22-.567,1.22-1.333,0-.142,0-.312-.028-.511-.057-.511.114-.766.596-.766h1.731c.369,0,.681.142.794.567.113.426.17.88.17,1.107,0,3.149-2.241,4.454-4.88,4.454-2.468,0-5.107-1.135-5.107-5.164h0Z" fill="#1b38e0"/>
        </g>
        <g>
          <g>
            <path d="M1030.136,608.566l4.87,5.429c.088.098,0,.178-.198.178h-48.724c-.198,0-.286-.08-.198-.178l4.87-5.429c.774-.863,3.061-1.515,5.162-1.515h29.057c2.1,0,4.388.651,5.162,1.515h0Z" fill="#f2e7e5"/>
            <path d="M1034.807,615.027h-48.724c-.467,0-.843-.219-1.007-.585-.152-.34-.086-.73.172-1.017l4.87-5.429c1.059-1.181,3.719-1.799,5.798-1.799h29.057c2.08,0,4.739.618,5.798,1.799l4.87,5.429c.258.288.324.678.172,1.018-.164.367-.54.585-1.007.585h0ZM987.641,613.318h45.61l-3.751-4.181c-.522-.582-2.509-1.231-4.526-1.231h-29.057c-2.016,0-4.004.649-4.526,1.231l-3.75,4.181h0Z" fill="#1b38e0"/>
          </g>
          <g>
            <g>
              <path d="M996.501,610.178l-2.009-.6c.905-3.029,1.201-5.988.88-8.792-.208-1.818-.624-3.181-1.063-4.625-.616-2.023-1.253-4.115-1.386-7.556-.131-3.393.361-5.406,1.7-6.946,1.374-1.581,3.18-2.144,4.135-2.338,1.036-.211,3.68-.516,5.856,1.204.979.774,1.445,1.634,1.937,2.544.644,1.19,1.145,2.824,1.41,4.6.191,1.279.227,2.402.254,3.223.005.165.011.343.019.514,1.062-.437,2.054-.366,2.937-.302,2.245.162,4.067,1.324,4.954,2.003l-1.275,1.665c-.564-.432-2.066-1.45-3.829-1.576-.925-.067-1.525-.091-2.157.227-.125.063-.216.122-.305.179-.233.151-.667.43-1.254.264-.403-.114-.919-.452-1.082-1.415-.068-.399-.083-.881-.103-1.49-.027-.812-.06-1.823-.232-2.982-.31-2.08-.873-3.343-1.18-3.911-.437-.807-.753-1.39-1.394-1.897-1.528-1.208-3.553-.913-4.136-.794-.694.141-2.003.545-2.971,1.659-.804.925-1.314,2.213-1.187,5.489.122,3.17.719,5.13,1.296,7.026.447,1.47.91,2.989,1.14,4.996.354,3.088.033,6.328-.954,9.631Z" fill="#1b38e0"/>
              <path d="M1026.471,611.064l-1.89-.909c.925-1.923,1.376-4.018,1.303-6.059-.037-1.049-.099-2.804-1.163-4.707-.468-.837-1.07-1.595-1.791-2.254-.359-.328-.445-.86-.208-1.285.776-1.389,1.337-2.861,1.667-4.375.42-1.924,1.123-5.144-.574-7.607-.286-.415-1.045-1.516-2.447-1.965-1.167-.374-2.456-.198-3.832.522-2.286,1.197-3.101,3.627-3.588,5.079-.537,1.6-.724,3.301-.555,5.056l-2.087.201c-.197-2.05.023-4.042.654-5.923.549-1.636,1.57-4.682,4.603-6.27,2.356-1.234,4.261-1.041,5.445-.662,2.082.667,3.175,2.251,3.534,2.772,2.214,3.212,1.357,7.136.896,9.245-.319,1.459-.825,2.882-1.508,4.24.632.668,1.176,1.407,1.621,2.204,1.311,2.345,1.387,4.499,1.428,5.656.084,2.379-.438,4.814-1.509,7.042Z" fill="#1b38e0"/>
            </g>
            <circle cx="1009.014" cy="598.718" r="1.295" fill="#1b38e0"/>
            <circle cx="1018.252" cy="597.907" r="1.295" fill="#1b38e0"/>
            <circle cx="1015.674" cy="602.894" r="2.054" fill="#1b38e0"/>
          </g>
        </g>
      </g>
    </g>
  </g>
  <image width="2138" height="1317" transform="translate(51.954 33.861) scale(.435)" xlink:href="C:\Users\Jennifer\Downloads\Frame 172.png"/>
</svg>