<svg width="1355" height="770" viewBox="0 0 1355 770" fill="none" xmlns="http://www.w3.org/2000/svg">
<g clip-path="url(#clip0_876_1739)">
<path d="M1355 0H0V769.521H1355V0Z" fill="#F2E7E5"/>
<path d="M584.799 662.175H192.406C184.411 662.175 177.906 655.67 177.906 647.675V494.057C177.906 486.062 184.411 479.557 192.406 479.557H584.799C592.794 479.557 599.299 486.062 599.299 494.057V647.675C599.299 655.67 592.794 662.175 584.799 662.175ZM192.406 484.557C187.168 484.557 182.906 488.819 182.906 494.057V647.675C182.906 652.913 187.168 657.175 192.406 657.175H584.799C590.037 657.175 594.299 652.913 594.299 647.675V494.057C594.299 488.819 590.037 484.557 584.799 484.557H192.406Z" fill="#1B38E0"/>
<path d="M277.886 539.879V543.904C277.886 547.187 275.973 548.989 272.678 548.989H255.458V603.856C255.458 607.14 253.652 608.941 250.356 608.941H243.978C240.683 608.941 238.875 607.14 238.875 603.856V548.989H221.868C218.573 548.989 216.765 547.187 216.765 543.904V539.879C216.765 536.595 218.572 534.795 221.868 534.795H272.677C275.972 534.795 277.885 536.595 277.885 539.879H277.886Z" fill="#1B38E0"/>
<path d="M273.878 582.389C273.878 566.299 284.798 553.833 300.067 553.833C307.277 553.833 313.639 556.603 317.562 562.784V560.12C317.562 556.818 319.365 555.006 322.651 555.006H328.906C332.193 555.006 333.996 556.818 333.996 560.12V604.66C333.996 607.963 332.193 609.775 328.906 609.775H322.651C319.365 609.775 317.562 607.963 317.562 604.66V602.103C313.639 608.176 307.277 610.946 300.067 610.946C284.798 610.946 273.878 598.586 273.878 582.39V582.389ZM317.773 582.389C317.773 573.652 312.26 567.046 303.884 567.046C295.296 567.046 290.312 573.972 290.312 582.389C290.312 590.913 295.295 597.732 303.884 597.732C312.26 597.732 317.773 591.125 317.773 582.389Z" fill="#1B38E0"/>
<path d="M364.73 602.107V604.663C364.73 607.963 362.79 609.774 359.449 609.774H353.197C349.855 609.774 348.023 607.963 348.023 604.663V537.902C348.023 534.602 349.856 532.791 353.197 532.791H359.449C362.791 532.791 364.73 534.602 364.73 537.902V562.817C368.719 556.642 375.187 553.873 382.409 553.873C398.04 553.873 409.143 566.33 409.143 582.408C409.143 598.593 398.04 610.944 382.409 610.944C375.187 610.944 368.719 608.176 364.73 602.107ZM392.435 582.409C392.435 573.997 387.26 567.077 378.637 567.077C370.014 567.077 364.515 573.679 364.408 582.409C364.515 591.14 370.013 597.742 378.637 597.742C387.261 597.742 392.435 590.928 392.435 582.409Z" fill="#1B38E0"/>
<path d="M435.598 602.107V604.663C435.598 607.963 433.689 609.774 430.403 609.774H424.254C420.967 609.774 419.164 607.963 419.164 604.663V537.902C419.164 534.602 420.967 532.791 424.254 532.791H430.403C433.689 532.791 435.598 534.602 435.598 537.902V562.817C439.521 556.642 445.883 553.873 452.986 553.873C468.36 553.873 479.282 566.33 479.282 582.408C479.282 598.593 468.361 610.944 452.986 610.944C445.883 610.944 439.521 608.176 435.598 602.107ZM462.847 582.409C462.847 573.997 457.757 567.077 449.275 567.077C440.793 567.077 435.385 573.679 435.279 582.409C435.384 591.14 440.792 597.742 449.275 597.742C457.758 597.742 462.847 590.928 462.847 582.409Z" fill="#1B38E0"/>
<path d="M488.299 539.388C488.299 534.503 491.677 530.787 497.818 530.787C503.857 530.787 507.337 534.503 507.337 539.388C507.337 544.166 503.652 547.883 497.818 547.883C491.984 547.883 488.299 544.167 488.299 539.388ZM489.937 603.844V559.458C489.937 556.166 491.677 554.36 494.851 554.36H500.787C503.96 554.36 505.803 556.166 505.803 559.458V603.844C505.803 607.135 503.96 608.941 500.787 608.941H494.851C491.678 608.941 489.937 607.135 489.937 603.844Z" fill="#1B38E0"/>
<path d="M523.446 591.356V566.818H518.085C516.404 566.818 515.353 565.85 515.353 564.128V557.132C515.353 555.411 516.404 554.442 518.085 554.442H524.707L526.495 543.249C526.915 540.989 528.386 539.805 530.593 539.805H535.743C538.16 539.805 539.421 541.204 539.421 543.571V554.441H551.613C553.294 554.441 554.24 555.41 554.24 557.131V564.127C554.24 565.849 553.294 566.817 551.613 566.817H539.421V591.894C539.421 595.984 541.418 597.597 543.836 597.597C546.568 597.597 548.355 595.445 548.355 592.539C548.355 592.001 548.355 591.355 548.25 590.601C548.04 588.664 548.671 587.696 550.458 587.696H556.869C558.235 587.696 559.392 588.234 559.812 589.847C560.233 591.462 560.442 593.184 560.442 594.045C560.442 605.991 552.14 610.942 542.364 610.942C533.221 610.942 523.446 606.637 523.446 591.353V591.356Z" fill="#1B38E0"/>
<path d="M584.799 457.592H192.406C184.411 457.592 177.906 451.087 177.906 443.092V123.198C177.906 115.203 184.411 108.698 192.406 108.698H584.799C592.794 108.698 599.299 115.203 599.299 123.198V443.092C599.299 451.087 592.794 457.592 584.799 457.592ZM192.406 113.698C187.168 113.698 182.906 117.96 182.906 123.198V443.092C182.906 448.33 187.168 452.592 192.406 452.592H584.799C590.037 452.592 594.299 448.33 594.299 443.092V123.198C594.299 117.96 590.037 113.698 584.799 113.698H192.406Z" fill="#1B38E0"/>
<path d="M521.85 360.792L554.803 397.529C555.398 398.192 554.798 398.732 553.46 398.732H223.744C222.406 398.732 221.807 398.191 222.401 397.529L255.354 360.792C260.594 354.95 276.071 350.542 290.285 350.542H486.92C501.134 350.542 516.611 354.951 521.851 360.792H521.85Z" fill="#F2E7E5"/>
<path d="M553.46 404.516H223.743C220.583 404.516 218.036 403.035 216.928 400.554C215.901 398.255 216.348 395.616 218.093 393.669L251.048 356.93C258.215 348.939 276.212 344.758 290.285 344.758H486.92C500.992 344.758 518.988 348.94 526.156 356.93L559.109 393.667C560.856 395.617 561.303 398.256 560.276 400.554C559.168 403.035 556.619 404.516 553.46 404.516ZM234.28 392.948H542.926L517.545 364.653C514.012 360.714 500.566 356.325 486.92 356.325H290.285C276.639 356.325 263.192 360.714 259.659 364.654L234.279 392.947L234.28 392.948Z" fill="#1B38E0"/>
<path d="M294.236 371.705L280.639 367.642C286.765 347.141 288.769 327.124 286.592 308.147C285.182 295.846 282.373 286.619 279.399 276.852C275.231 263.161 270.921 249.003 270.022 225.72C269.134 202.757 272.467 189.14 281.524 178.719C290.822 168.018 303.046 164.212 309.506 162.896C316.515 161.469 334.41 159.403 349.132 171.046C355.759 176.285 358.907 182.102 362.24 188.26C366.601 196.312 369.991 207.368 371.783 219.391C373.073 228.044 373.322 235.648 373.504 241.2C373.54 242.316 373.58 243.52 373.63 244.677C380.819 241.717 387.527 242.201 393.508 242.63C408.697 243.723 421.029 251.592 427.029 256.185L418.402 267.454C414.586 264.533 404.423 257.645 392.49 256.786C386.227 256.334 382.171 256.168 377.892 258.322C377.049 258.747 376.427 259.148 375.826 259.536C374.248 260.555 371.31 262.448 367.338 261.324C364.609 260.551 361.122 258.263 360.019 251.75C359.562 249.051 359.455 245.791 359.321 241.664C359.141 236.168 358.918 229.328 357.748 221.484C355.65 207.412 351.843 198.862 349.761 195.017C346.804 189.554 344.669 185.608 340.331 182.178C329.994 174.003 316.291 175.997 312.339 176.802C307.643 177.759 298.786 180.49 292.237 188.027C286.795 194.288 283.347 203.001 284.203 225.173C285.032 246.624 289.07 259.891 292.976 272.72C296.003 282.664 299.134 292.948 300.691 306.531C303.088 327.427 300.916 349.355 294.236 371.706V371.705Z" fill="#1B38E0"/>
<path d="M497.048 377.697L484.259 371.546C490.517 358.534 493.567 344.356 493.079 330.545C492.828 323.449 492.408 311.57 485.211 298.695C482.046 293.032 477.969 287.9 473.092 283.439C470.663 281.217 470.082 277.617 471.687 274.743C476.937 265.343 480.733 255.382 482.97 245.135C485.813 232.115 490.572 210.322 479.085 193.659C477.15 190.853 472.011 183.399 462.527 180.361C454.631 177.832 445.907 179.021 436.597 183.896C421.128 191.996 415.612 208.441 412.317 218.267C408.683 229.096 407.42 240.606 408.561 252.479L394.435 253.837C393.102 239.968 394.592 226.482 398.862 213.753C402.575 202.681 409.488 182.07 430.012 171.323C445.955 162.974 458.847 164.278 466.856 166.845C480.947 171.359 488.339 182.079 490.768 185.602C505.749 207.335 499.95 233.893 496.834 248.161C494.678 258.035 491.252 267.664 486.627 276.855C490.905 281.378 494.584 286.375 497.598 291.769C506.468 307.639 506.985 322.212 507.262 330.041C507.83 346.141 504.299 362.62 497.048 377.694V377.697Z" fill="#1B38E0"/>
<path d="M378.914 302.913C383.755 302.913 387.679 298.989 387.679 294.148C387.679 289.308 383.755 285.383 378.914 285.383C374.074 285.383 370.149 289.308 370.149 294.148C370.149 298.989 374.074 302.913 378.914 302.913Z" fill="#1B38E0"/>
<path d="M441.426 297.429C446.267 297.429 450.191 293.505 450.191 288.664C450.191 283.824 446.267 279.899 441.426 279.899C436.585 279.899 432.661 283.824 432.661 288.664C432.661 293.505 436.585 297.429 441.426 297.429Z" fill="#1B38E0"/>
<path d="M423.983 336.307C431.659 336.307 437.882 330.084 437.882 322.408C437.882 314.732 431.659 308.509 423.983 308.509C416.307 308.509 410.084 314.732 410.084 322.408C410.084 330.084 416.307 336.307 423.983 336.307Z" fill="#1B38E0"/>
<path d="M1162.59 662.065H635.896C627.901 662.065 621.396 655.56 621.396 647.565V122.325C621.396 114.33 627.901 107.825 635.896 107.825H1162.59C1170.59 107.825 1177.09 114.33 1177.09 122.325V647.565C1177.09 655.56 1170.59 662.065 1162.59 662.065ZM635.896 112.825C630.658 112.825 626.396 117.087 626.396 122.325V647.565C626.396 652.803 630.658 657.065 635.896 657.065H1162.59C1167.83 657.065 1172.09 652.803 1172.09 647.565V122.325C1172.09 117.087 1167.83 112.825 1162.59 112.825H635.896Z" fill="#1B38E0"/>
<path d="M744.554 462.512V468.214C744.554 472.866 741.854 475.417 737.202 475.417H712.893V553.145C712.893 557.797 710.343 560.348 705.691 560.348H696.687C692.035 560.348 689.484 557.797 689.484 553.145V475.417H665.476C660.824 475.417 658.273 472.866 658.273 468.214V462.512C658.273 457.86 660.824 455.31 665.476 455.31H737.201C741.853 455.31 744.553 457.86 744.553 462.512H744.554Z" fill="#1B38E0"/>
<path d="M738.398 521.783C738.398 499.125 753.853 481.569 775.462 481.569C785.665 481.569 794.669 485.471 800.22 494.173V490.422C800.22 485.77 802.771 483.219 807.423 483.219H816.276C820.928 483.219 823.479 485.77 823.479 490.422V553.145C823.479 557.797 820.928 560.348 816.276 560.348H807.423C802.771 560.348 800.22 557.797 800.22 553.145V549.544C794.669 558.097 785.665 561.998 775.462 561.998C753.854 561.998 738.398 544.591 738.398 521.783ZM800.519 521.783C800.519 509.479 792.717 500.176 780.863 500.176C768.709 500.176 761.656 509.93 761.656 521.783C761.656 533.787 768.708 543.39 780.863 543.39C792.717 543.39 800.519 534.086 800.519 521.783Z" fill="#1B38E0"/>
<path d="M865.335 549.544V553.145C865.335 557.797 862.635 560.348 857.983 560.348H849.28C844.628 560.348 842.077 557.797 842.077 553.145V459.062C842.077 454.41 844.628 451.859 849.28 451.859H857.983C862.635 451.859 865.335 454.41 865.335 459.062V494.173C870.888 485.47 879.891 481.569 889.944 481.569C911.702 481.569 927.158 499.126 927.158 521.783C927.158 544.592 911.702 561.997 889.944 561.997C879.891 561.997 870.888 558.096 865.335 549.544ZM903.899 521.783C903.899 509.929 896.696 500.176 884.692 500.176C872.688 500.176 865.035 509.48 864.885 521.783C865.034 534.087 872.687 543.39 884.692 543.39C896.697 543.39 903.899 533.787 903.899 521.783Z" fill="#1B38E0"/>
<path d="M964.364 549.544V553.145C964.364 557.797 961.664 560.348 957.012 560.348H948.309C943.657 560.348 941.106 557.797 941.106 553.145V459.062C941.106 454.41 943.657 451.859 948.309 451.859H957.012C961.664 451.859 964.364 454.41 964.364 459.062V494.173C969.917 485.47 978.92 481.569 988.973 481.569C1010.73 481.569 1026.19 499.126 1026.19 521.783C1026.19 544.592 1010.73 561.997 988.973 561.997C978.92 561.997 969.917 558.096 964.364 549.544ZM1002.93 521.783C1002.93 509.929 995.726 500.176 983.722 500.176C971.718 500.176 964.065 509.48 963.915 521.783C964.064 534.087 971.718 543.39 983.722 543.39C995.726 543.39 1002.93 533.787 1002.93 521.783Z" fill="#1B38E0"/>
<path d="M1038.04 462.063C1038.04 455.16 1042.99 449.909 1051.99 449.909C1060.84 449.909 1065.94 455.16 1065.94 462.063C1065.94 468.816 1060.54 474.067 1051.99 474.067C1043.44 474.067 1038.04 468.816 1038.04 462.063ZM1040.44 553.145V490.422C1040.44 485.77 1042.99 483.219 1047.64 483.219H1056.34C1060.99 483.219 1063.69 485.77 1063.69 490.422V553.145C1063.69 557.797 1060.99 560.348 1056.34 560.348H1047.64C1042.99 560.348 1040.44 557.797 1040.44 553.145Z" fill="#1B38E0"/>
<path d="M1087.4 534.687V500.476H1079.75C1077.34 500.476 1075.84 499.126 1075.84 496.724V486.971C1075.84 484.57 1077.34 483.219 1079.75 483.219H1089.2L1091.75 467.613C1092.35 464.462 1094.45 462.812 1097.6 462.812H1104.95C1108.41 462.812 1110.21 464.762 1110.21 468.063V483.218H1127.61C1130.01 483.218 1131.36 484.57 1131.36 486.97V496.723C1131.36 499.125 1130.01 500.475 1127.61 500.475H1110.21V535.438C1110.21 541.14 1113.06 543.39 1116.51 543.39C1120.41 543.39 1122.96 540.389 1122.96 536.338C1122.96 535.588 1122.96 534.687 1122.81 533.637C1122.51 530.937 1123.41 529.586 1125.96 529.586H1135.12C1137.07 529.586 1138.72 530.336 1139.32 532.586C1139.92 534.837 1140.22 537.238 1140.22 538.439C1140.22 555.096 1128.36 561.998 1114.41 561.998C1101.35 561.998 1087.4 555.995 1087.4 534.687Z" fill="#1B38E0"/>
<path d="M1003.39 363.44L1029.15 392.153C1029.61 392.671 1029.14 393.094 1028.1 393.094H770.397C769.352 393.094 768.883 392.671 769.348 392.153L795.104 363.44C799.2 358.874 811.296 355.428 822.406 355.428H976.092C987.201 355.428 999.298 358.874 1003.39 363.44H1003.39Z" fill="#F2E7E5"/>
<path d="M1028.1 397.614H770.395C767.925 397.614 765.934 396.457 765.069 394.518C764.267 392.721 764.616 390.659 765.98 389.137L791.737 360.423C797.339 354.177 811.405 350.91 822.404 350.91H976.09C987.089 350.91 1001.15 354.179 1006.76 360.423L1032.51 389.136C1033.88 390.66 1034.23 392.723 1033.42 394.519C1032.56 396.458 1030.57 397.615 1028.1 397.615L1028.1 397.614ZM778.63 388.573H1019.86L1000.02 366.458C997.264 363.379 986.755 359.949 976.089 359.949H822.403C811.738 359.949 801.228 363.379 798.466 366.459L778.63 388.573Z" fill="#1B38E0"/>
<path d="M825.491 371.97L814.864 368.794C819.652 352.771 821.218 337.126 819.517 322.294C818.415 312.68 816.219 305.468 813.895 297.834C810.637 287.133 807.269 276.068 806.566 257.87C805.872 239.922 808.477 229.28 815.556 221.135C822.823 212.771 832.377 209.797 837.426 208.768C842.904 207.652 856.891 206.038 868.397 215.138C873.577 219.233 876.037 223.779 878.642 228.592C882.05 234.885 884.7 243.527 886.101 252.923C887.109 259.686 887.304 265.629 887.446 269.968C887.474 270.84 887.505 271.781 887.545 272.686C893.164 270.373 898.407 270.751 903.081 271.086C914.953 271.941 924.591 278.09 929.28 281.68L922.537 290.487C919.554 288.204 911.611 282.82 902.284 282.149C897.389 281.796 894.219 281.666 890.874 283.35C890.215 283.682 889.729 283.996 889.26 284.299C888.027 285.095 885.73 286.575 882.626 285.696C880.493 285.092 877.768 283.303 876.906 278.213C876.549 276.104 876.465 273.556 876.36 270.33C876.219 266.034 876.045 260.688 875.131 254.558C873.491 243.559 870.516 236.877 868.889 233.872C866.578 229.602 864.909 226.518 861.519 223.837C853.44 217.447 842.73 219.006 839.641 219.635C835.971 220.383 829.048 222.517 823.93 228.408C819.677 233.302 816.981 240.111 817.651 257.44C818.299 274.206 821.455 284.575 824.508 294.602C826.874 302.374 829.321 310.412 830.538 321.028C832.411 337.36 830.714 354.498 825.493 371.968L825.491 371.97Z" fill="#1B38E0"/>
<path d="M984.004 376.653L974.008 371.846C978.899 361.676 981.283 350.595 980.901 339.8C980.705 334.254 980.376 324.97 974.751 314.906C972.278 310.48 969.091 306.469 965.279 302.982C963.381 301.246 962.926 298.432 964.181 296.186C968.284 288.839 971.251 281.054 973 273.045C975.222 262.869 978.941 245.836 969.963 232.812C968.451 230.619 964.434 224.793 957.022 222.419C950.851 220.442 944.032 221.372 936.755 225.182C924.665 231.513 920.354 244.366 917.778 252.046C914.938 260.509 913.951 269.506 914.843 278.786L903.802 279.848C902.76 269.008 903.924 258.468 907.262 248.519C910.164 239.865 915.567 223.756 931.609 215.356C944.07 208.831 954.146 209.85 960.406 211.856C971.419 215.384 977.197 223.763 979.095 226.516C990.804 243.502 986.272 264.259 983.836 275.411C982.151 283.129 979.473 290.655 975.858 297.838C979.202 301.373 982.077 305.279 984.433 309.495C991.366 321.898 991.769 333.289 991.986 339.408C992.43 351.992 989.67 364.871 984.003 376.653H984.004Z" fill="#1B38E0"/>
<path d="M891.673 318.204C895.457 318.204 898.524 315.137 898.524 311.353C898.524 307.569 895.457 304.502 891.673 304.502C887.89 304.502 884.822 307.569 884.822 311.353C884.822 315.137 887.89 318.204 891.673 318.204Z" fill="#1B38E0"/>
<path d="M940.533 313.918C944.316 313.918 947.384 310.851 947.384 307.067C947.384 303.283 944.316 300.216 940.533 300.216C936.749 300.216 933.682 303.283 933.682 307.067C933.682 310.851 936.749 313.918 940.533 313.918Z" fill="#1B38E0"/>
<path d="M926.898 344.303C932.898 344.303 937.761 339.44 937.761 333.44C937.761 327.441 932.898 322.577 926.898 322.577C920.899 322.577 916.035 327.441 916.035 333.44C916.035 339.44 920.899 344.303 926.898 344.303Z" fill="#1B38E0"/>
<path d="M40.846 729.4C41.332 729.4 41.602 729.67 41.602 730.156V730.624C41.602 731.11 41.332 731.398 40.846 731.398H37.642V741.244C37.642 741.73 37.372 742 36.886 742H36.04C35.554 742 35.284 741.73 35.284 741.244V731.398H32.098C31.612 731.398 31.342 731.11 31.342 730.624V730.156C31.342 729.67 31.612 729.4 32.098 729.4H40.846ZM45.3577 742.198C42.7117 742.198 40.8937 740.092 40.8937 737.428C40.8937 734.764 42.7117 732.658 45.3577 732.658C46.5637 732.658 47.6797 733.108 48.4537 734.224V733.63C48.4537 733.144 48.7237 732.856 49.2097 732.856H50.0017C50.4877 732.856 50.7757 733.144 50.7757 733.63V741.244C50.7757 741.73 50.4877 742 50.0017 742H49.2097C48.7237 742 48.4537 741.73 48.4537 741.244V740.632C47.6797 741.748 46.5637 742.198 45.3577 742.198ZM45.8077 740.272C47.4097 740.272 48.4717 739.066 48.4897 737.428C48.4717 735.79 47.4097 734.584 45.8077 734.584C44.1697 734.584 43.2157 735.88 43.2157 737.428C43.2157 738.994 44.1697 740.272 45.8077 740.272ZM58.6479 742.198C57.4419 742.198 56.3259 741.748 55.5519 740.632V741.244C55.5519 741.73 55.2819 742 54.7959 742H54.0039C53.5179 742 53.2299 741.73 53.2299 741.244V729.742C53.2299 729.256 53.5179 728.986 54.0039 728.986H54.7959C55.2819 728.986 55.5519 729.256 55.5519 729.742V734.224C56.3259 733.108 57.4419 732.658 58.6479 732.658C61.2939 732.658 63.1119 734.764 63.1119 737.428C63.1119 740.092 61.2939 742.198 58.6479 742.198ZM58.1979 740.272C59.8539 740.272 60.7899 738.994 60.7899 737.428C60.7899 735.88 59.8539 734.584 58.1979 734.584C56.6139 734.584 55.5339 735.79 55.5159 737.428C55.5339 739.066 56.6139 740.272 58.1979 740.272ZM70.4076 742.198C69.2016 742.198 68.0856 741.748 67.3116 740.632V741.244C67.3116 741.73 67.0416 742 66.5556 742H65.7636C65.2776 742 64.9896 741.73 64.9896 741.244V729.742C64.9896 729.256 65.2776 728.986 65.7636 728.986H66.5556C67.0416 728.986 67.3116 729.256 67.3116 729.742V734.224C68.0856 733.108 69.2016 732.658 70.4076 732.658C73.0536 732.658 74.8716 734.764 74.8716 737.428C74.8716 740.092 73.0536 742.198 70.4076 742.198ZM69.9576 740.272C71.6136 740.272 72.5496 738.994 72.5496 737.428C72.5496 735.88 71.6136 734.584 69.9576 734.584C68.3736 734.584 67.2936 735.79 67.2756 737.428C67.2936 739.066 68.3736 740.272 69.9576 740.272ZM77.9554 731.506C77.0734 731.506 76.4974 730.912 76.4974 730.156C76.4974 729.4 77.0554 728.806 77.9554 728.806C78.8554 728.806 79.4314 729.4 79.4314 730.156C79.4314 730.912 78.8374 731.506 77.9554 731.506ZM77.5594 742C77.0734 742 76.8034 741.73 76.8034 741.244V733.63C76.8034 733.144 77.0734 732.856 77.5594 732.856H78.3694C78.8554 732.856 79.1254 733.144 79.1254 733.63V741.244C79.1254 741.73 78.8554 742 78.3694 742H77.5594ZM85.2181 742.198C83.7061 742.198 82.1761 741.478 82.1761 739.03V734.62H81.1681C80.8981 734.62 80.7541 734.476 80.7541 734.206V733.27C80.7541 733.018 80.8981 732.856 81.1681 732.856H82.2841L82.6081 730.894C82.6621 730.534 82.8961 730.354 83.2381 730.354H83.8681C84.2461 730.354 84.4621 730.57 84.4621 730.948V732.856H86.7301C87.0001 732.856 87.1441 733.018 87.1441 733.27V734.206C87.1441 734.476 87.0001 734.62 86.7301 734.62H84.4621V739.12C84.4621 739.948 84.8761 740.272 85.3621 740.272C85.8661 740.272 86.2801 739.93 86.2801 739.372C86.2801 739.282 86.2801 739.174 86.2621 739.048C86.2261 738.76 86.3161 738.598 86.6041 738.598H87.5581C87.7921 738.598 87.9721 738.688 88.0261 738.922C88.0981 739.228 88.1161 739.534 88.1161 739.606C88.1161 741.298 86.9281 742.198 85.2181 742.198ZM89.8582 734.008C89.6422 734.134 89.4622 734.062 89.3362 733.864L89.2642 733.702C89.1382 733.504 89.1742 733.324 89.3902 733.18C90.1282 732.748 90.4882 732.046 90.4882 731.416C90.3802 731.452 90.2722 731.452 90.1822 731.47C89.4622 731.47 89.0662 730.894 89.0662 730.318C89.0482 729.58 89.5522 728.986 90.5062 728.986C91.6582 728.986 91.9462 730.048 91.9462 730.606C91.9462 732.082 91.1542 733.378 89.8582 734.008ZM96.3475 742.198C94.8175 742.198 93.5215 741.586 92.9095 740.398C92.6755 739.912 92.9275 739.57 93.4135 739.444L93.8815 739.336C94.3135 739.228 94.5295 739.426 94.8355 739.768C95.1595 740.164 95.7175 740.416 96.3475 740.416C97.1395 740.416 97.6975 739.984 97.6975 739.408C97.6975 738.922 97.3195 738.67 96.7255 738.454L95.5555 738.04C94.3855 737.68 93.1255 736.96 93.1255 735.466C93.1255 733.846 94.4575 732.658 96.3475 732.658C97.4995 732.658 98.5615 733.036 99.1915 734.116C99.4975 734.584 99.2455 734.962 98.7415 735.088L98.3275 735.196C97.8955 735.304 97.6615 735.142 97.3735 734.836C97.1035 734.512 96.7435 734.422 96.3835 734.422C95.6815 734.422 95.2675 734.854 95.2675 735.376C95.2675 735.862 95.6995 736.114 96.2035 736.276L97.4275 736.708C99.2455 737.284 99.8215 738.346 99.8395 739.39C99.8395 741.226 98.2195 742.198 96.3475 742.198ZM107.308 742C106.822 742 106.552 741.73 106.552 741.244V730.156C106.552 729.67 106.822 729.4 107.308 729.4H108.172C108.658 729.4 108.928 729.67 108.928 730.156V740.002H113.896C114.382 740.002 114.67 740.29 114.67 740.776V741.244C114.67 741.73 114.382 742 113.896 742H107.308ZM120.269 742.198C117.479 742.198 115.337 740.074 115.337 737.428C115.337 734.8 117.479 732.658 120.269 732.658C123.059 732.658 125.219 734.818 125.219 737.428C125.219 740.074 123.059 742.198 120.269 742.198ZM120.269 740.254C121.781 740.254 122.969 739.012 122.969 737.446C122.969 735.862 121.781 734.602 120.269 734.602C118.757 734.602 117.569 735.862 117.569 737.446C117.569 739.012 118.757 740.254 120.269 740.254ZM131.342 746.23C129.848 746.23 128.75 745.87 127.85 745.348C127.436 745.114 127.364 744.736 127.58 744.304L127.76 743.98C128.012 743.53 128.354 743.458 128.786 743.71C129.524 744.142 130.352 744.358 131.216 744.358C132.872 744.358 134.024 743.44 134.024 741.568V740.632C133.268 741.748 132.116 742.198 130.91 742.198C128.264 742.198 126.464 740.056 126.464 737.428C126.464 734.818 128.264 732.658 130.91 732.658C132.116 732.658 133.25 733.108 134.006 734.224V733.576C134.006 733.108 134.276 732.856 134.762 732.856H135.536C136.022 732.856 136.292 733.144 136.292 733.63V741.586C136.292 744.88 133.988 746.23 131.342 746.23ZM131.36 740.29C132.962 740.29 134.024 739.066 134.042 737.428C134.024 735.79 132.962 734.566 131.36 734.566C129.722 734.566 128.768 735.88 128.768 737.428C128.768 738.994 129.722 740.29 131.36 740.29ZM143.067 742.198C140.277 742.198 138.135 740.074 138.135 737.428C138.135 734.8 140.277 732.658 143.067 732.658C145.857 732.658 148.017 734.818 148.017 737.428C148.017 740.074 145.857 742.198 143.067 742.198ZM143.067 740.254C144.579 740.254 145.767 739.012 145.767 737.446C145.767 735.862 144.579 734.602 143.067 734.602C141.555 734.602 140.367 735.862 140.367 737.446C140.367 739.012 141.555 740.254 143.067 740.254ZM150.094 744.484C149.896 744.592 149.698 744.52 149.59 744.322L149.5 744.16C149.392 743.944 149.446 743.782 149.662 743.656C150.454 743.206 150.868 742.36 150.886 741.694C150.778 741.73 150.688 741.73 150.598 741.748C149.86 741.766 149.446 741.154 149.428 740.578C149.41 739.84 149.914 739.192 150.904 739.192C152.074 739.192 152.38 740.29 152.38 740.848C152.38 742.414 151.462 743.872 150.094 744.484ZM160.166 742C159.68 742 159.41 741.73 159.41 741.244V730.156C159.41 729.67 159.68 729.4 160.166 729.4H161.03C161.516 729.4 161.786 729.67 161.786 730.156V741.244C161.786 741.73 161.516 742 161.03 742H160.166ZM169.037 742.198C165.833 742.198 163.817 740.11 163.817 737.5C163.817 734.836 165.761 732.658 169.037 732.658C169.829 732.658 170.837 732.838 171.845 733.432C172.277 733.684 172.331 734.098 172.025 734.494L171.809 734.764C171.521 735.16 171.197 735.178 170.747 734.962C170.063 734.62 169.379 734.602 169.163 734.602C167.417 734.602 166.139 735.772 166.139 737.428C166.139 739.102 167.417 740.272 169.163 740.272C169.379 740.272 170.063 740.236 170.747 739.912C171.197 739.696 171.539 739.714 171.809 740.092L172.025 740.38C172.313 740.776 172.223 741.244 171.629 741.55C170.711 742.054 169.775 742.198 169.037 742.198ZM178.224 742.198C175.434 742.198 173.292 740.074 173.292 737.428C173.292 734.8 175.434 732.658 178.224 732.658C181.014 732.658 183.174 734.818 183.174 737.428C183.174 740.074 181.014 742.198 178.224 742.198ZM178.224 740.254C179.736 740.254 180.924 739.012 180.924 737.446C180.924 735.862 179.736 734.602 178.224 734.602C176.712 734.602 175.524 735.862 175.524 737.446C175.524 739.012 176.712 740.254 178.224 740.254ZM185.787 742C185.301 742 185.031 741.73 185.031 741.244V733.63C185.031 733.144 185.301 732.856 185.787 732.856H186.579C187.065 732.856 187.353 733.144 187.353 733.63V734.476C187.767 733.324 188.847 732.658 190.251 732.658C192.483 732.658 193.671 734.278 193.671 736.78V741.244C193.671 741.73 193.383 742 192.897 742H192.105C191.619 742 191.349 741.73 191.349 741.244V736.888C191.349 735.322 190.665 734.602 189.711 734.602C188.775 734.602 187.353 735.304 187.353 737.536V741.244C187.353 741.73 187.065 742 186.579 742H185.787ZM196.377 744.484C196.179 744.592 195.981 744.52 195.873 744.322L195.783 744.16C195.675 743.944 195.729 743.782 195.945 743.656C196.737 743.206 197.151 742.36 197.169 741.694C197.061 741.73 196.971 741.73 196.881 741.748C196.143 741.766 195.729 741.154 195.711 740.578C195.693 739.84 196.197 739.192 197.187 739.192C198.357 739.192 198.663 740.29 198.663 740.848C198.663 742.414 197.745 743.872 196.377 744.484ZM209.221 742.198C206.575 742.198 204.757 740.092 204.757 737.428C204.757 734.764 206.575 732.658 209.221 732.658C210.427 732.658 211.543 733.108 212.317 734.224V733.63C212.317 733.144 212.587 732.856 213.073 732.856H213.865C214.351 732.856 214.639 733.144 214.639 733.63V741.244C214.639 741.73 214.351 742 213.865 742H213.073C212.587 742 212.317 741.73 212.317 741.244V740.632C211.543 741.748 210.427 742.198 209.221 742.198ZM209.671 740.272C211.273 740.272 212.335 739.066 212.353 737.428C212.335 735.79 211.273 734.584 209.671 734.584C208.033 734.584 207.079 735.88 207.079 737.428C207.079 738.994 208.033 740.272 209.671 740.272ZM217.867 742C217.381 742 217.111 741.73 217.111 741.244V733.63C217.111 733.144 217.381 732.856 217.867 732.856H218.659C219.145 732.856 219.433 733.144 219.433 733.63V734.476C219.847 733.324 220.927 732.658 222.331 732.658C224.563 732.658 225.751 734.278 225.751 736.78V741.244C225.751 741.73 225.463 742 224.977 742H224.185C223.699 742 223.429 741.73 223.429 741.244V736.888C223.429 735.322 222.745 734.602 221.791 734.602C220.855 734.602 219.433 735.304 219.433 737.536V741.244C219.433 741.73 219.145 742 218.659 742H217.867ZM231.967 742.198C229.321 742.198 227.521 740.092 227.521 737.428C227.521 734.764 229.321 732.658 231.967 732.658C233.191 732.658 234.307 733.108 235.063 734.224V729.742C235.063 729.256 235.351 728.986 235.837 728.986H236.629C237.115 728.986 237.385 729.256 237.385 729.742V741.244C237.385 741.73 237.115 742 236.629 742H235.837C235.351 742 235.063 741.73 235.063 741.244V740.632C234.307 741.748 233.191 742.198 231.967 742.198ZM232.417 740.272C234.019 740.272 235.099 739.066 235.117 737.428C235.099 735.79 234.019 734.584 232.417 734.584C230.779 734.584 229.843 735.88 229.843 737.428C229.843 738.994 230.779 740.272 232.417 740.272ZM247.663 742C247.231 742 246.943 741.784 246.817 741.37L243.343 730.264C243.181 729.742 243.433 729.4 243.973 729.4H244.819C245.269 729.4 245.539 729.616 245.665 730.03L248.113 738.004L250.453 730.444C250.579 730.03 250.867 729.814 251.299 729.814H251.821C252.253 729.814 252.541 730.03 252.667 730.444L254.989 738.004L257.437 730.03C257.563 729.616 257.851 729.4 258.283 729.4H259.129C259.669 729.4 259.921 729.742 259.759 730.264L256.285 741.37C256.159 741.784 255.871 742 255.439 742H254.809C254.377 742 254.089 741.784 253.963 741.37L251.551 733.504L249.139 741.37C249.013 741.784 248.743 742 248.293 742H247.663ZM265.024 742.198C262.234 742.198 260.092 740.074 260.092 737.428C260.092 734.8 262.234 732.658 265.024 732.658C267.814 732.658 269.974 734.818 269.974 737.428C269.974 740.074 267.814 742.198 265.024 742.198ZM265.024 740.254C266.536 740.254 267.724 739.012 267.724 737.446C267.724 735.862 266.536 734.602 265.024 734.602C263.512 734.602 262.324 735.862 262.324 737.446C262.324 739.012 263.512 740.254 265.024 740.254ZM272.588 742C272.102 742 271.832 741.73 271.832 741.244V733.63C271.832 733.144 272.102 732.856 272.588 732.856H273.344C273.83 732.856 274.1 733.144 274.1 733.63V734.89C274.406 733.324 275.576 732.658 276.512 732.658C276.584 732.658 276.782 732.676 276.872 732.694C277.268 732.73 277.34 733.054 277.34 733.414V734.314C277.34 734.782 277.124 734.98 276.782 734.926C276.62 734.89 276.458 734.872 276.314 734.872C275.45 734.872 274.154 735.394 274.154 738.382V741.244C274.154 741.73 273.866 742 273.38 742H272.588ZM282.522 742.198C279.876 742.198 278.076 740.092 278.076 737.428C278.076 734.764 279.876 732.658 282.522 732.658C283.746 732.658 284.862 733.108 285.618 734.224V729.742C285.618 729.256 285.906 728.986 286.392 728.986H287.184C287.67 728.986 287.94 729.256 287.94 729.742V741.244C287.94 741.73 287.67 742 287.184 742H286.392C285.906 742 285.618 741.73 285.618 741.244V740.632C284.862 741.748 283.746 742.198 282.522 742.198ZM282.972 740.272C284.574 740.272 285.654 739.066 285.672 737.428C285.654 735.79 284.574 734.584 282.972 734.584C281.334 734.584 280.398 735.88 280.398 737.428C280.398 738.994 281.334 740.272 282.972 740.272ZM291.186 742C290.7 742 290.43 741.73 290.43 741.244V733.63C290.43 733.144 290.7 732.856 291.186 732.856H291.978C292.464 732.856 292.752 733.144 292.752 733.63V734.476C293.112 733.306 294.192 732.658 295.416 732.658C296.388 732.658 297.54 733.036 298.17 734.404C298.998 732.928 300.132 732.658 301.194 732.658C303.462 732.658 304.614 734.296 304.614 736.798V741.244C304.614 741.73 304.344 742 303.858 742H303.066C302.58 742 302.292 741.73 302.292 741.244V736.852C302.292 735.304 301.644 734.602 300.744 734.602C299.934 734.602 298.746 735.196 298.691 737.356V741.244C298.691 741.73 298.404 742 297.918 742H297.126C296.64 742 296.37 741.73 296.37 741.244V736.852C296.37 735.304 295.704 734.602 294.804 734.602C293.939 734.602 292.752 735.268 292.752 737.5V741.244C292.752 741.73 292.464 742 291.978 742H291.186ZM310.823 742.198C308.177 742.198 306.359 740.092 306.359 737.428C306.359 734.764 308.177 732.658 310.823 732.658C312.029 732.658 313.145 733.108 313.919 734.224V733.63C313.919 733.144 314.189 732.856 314.675 732.856H315.467C315.953 732.856 316.241 733.144 316.241 733.63V741.244C316.241 741.73 315.953 742 315.467 742H314.675C314.189 742 313.919 741.73 313.919 741.244V740.632C313.145 741.748 312.029 742.198 310.823 742.198ZM311.273 740.272C312.875 740.272 313.937 739.066 313.955 737.428C313.937 735.79 312.875 734.584 311.273 734.584C309.635 734.584 308.681 735.88 308.681 737.428C308.681 738.994 309.635 740.272 311.273 740.272ZM319.469 742C318.983 742 318.713 741.73 318.713 741.244V733.63C318.713 733.144 318.983 732.856 319.469 732.856H320.225C320.711 732.856 320.981 733.144 320.981 733.63V734.89C321.287 733.324 322.457 732.658 323.393 732.658C323.465 732.658 323.663 732.676 323.753 732.694C324.149 732.73 324.221 733.054 324.221 733.414V734.314C324.221 734.782 324.005 734.98 323.663 734.926C323.501 734.89 323.339 734.872 323.195 734.872C322.331 734.872 321.035 735.394 321.035 738.382V741.244C321.035 741.73 320.747 742 320.261 742H319.469ZM332.568 742.198C330.894 742.198 330.138 741.19 329.508 740.128L327.978 737.518V741.244C327.978 741.73 327.69 742 327.204 742H326.412C325.926 742 325.656 741.73 325.656 741.244V729.742C325.656 729.256 325.926 728.986 326.412 728.986H327.204C327.69 728.986 327.978 729.256 327.978 729.742V736.636L330.498 733.324C330.714 733 331.002 732.856 331.416 732.856H332.352C333 732.856 333.198 733.288 332.802 733.792L330.174 737.068L331.524 739.192C331.992 739.894 332.298 740.254 332.964 740.254C333.09 740.254 333.378 740.236 333.648 740.128C333.954 740.02 334.134 740.074 334.278 740.326L334.62 741.028C334.746 741.28 334.656 741.604 334.188 741.838C333.54 742.162 332.892 742.198 332.568 742.198Z" fill="#33241F"/>
<path d="M1226.1 725.362V726.624C1226.1 727.654 1225.5 728.218 1224.47 728.218H1219.09V745.424C1219.09 746.454 1218.52 747.018 1217.49 747.018H1215.5C1214.47 747.018 1213.91 746.453 1213.91 745.424V728.218H1208.59C1207.56 728.218 1207 727.653 1207 726.624V725.362C1207 724.332 1207.56 723.768 1208.59 723.768H1224.47C1225.5 723.768 1226.1 724.332 1226.1 725.362H1226.1Z" fill="#1B38E0"/>
<path d="M1224.73 738.482C1224.73 733.467 1228.16 729.58 1232.94 729.58C1235.2 729.58 1237.19 730.444 1238.42 732.37V731.54C1238.42 730.51 1238.98 729.946 1240.01 729.946H1241.97C1243 729.946 1243.57 730.511 1243.57 731.54V745.424C1243.57 746.454 1243 747.018 1241.97 747.018H1240.01C1238.98 747.018 1238.42 746.453 1238.42 745.424V744.627C1237.19 746.52 1235.2 747.384 1232.94 747.384C1228.16 747.384 1224.73 743.531 1224.73 738.482ZM1238.49 738.482C1238.49 735.758 1236.76 733.699 1234.14 733.699C1231.45 733.699 1229.88 735.858 1229.88 738.482C1229.88 741.139 1231.44 743.265 1234.14 743.265C1236.76 743.265 1238.49 741.206 1238.49 738.482Z" fill="#1B38E0"/>
<path d="M1252.83 744.627V745.424C1252.83 746.454 1252.23 747.018 1251.21 747.018H1249.28C1248.25 747.018 1247.69 746.453 1247.69 745.424V724.598C1247.69 723.568 1248.25 723.004 1249.28 723.004H1251.21C1252.24 723.004 1252.83 723.569 1252.83 724.598V732.37C1254.06 730.444 1256.05 729.58 1258.28 729.58C1263.1 729.58 1266.52 733.466 1266.52 738.482C1266.52 743.531 1263.1 747.384 1258.28 747.384C1256.05 747.384 1254.06 746.52 1252.83 744.627ZM1261.37 738.482C1261.37 735.858 1259.78 733.699 1257.12 733.699C1254.46 733.699 1252.77 735.758 1252.73 738.482C1252.77 741.206 1254.46 743.265 1257.12 743.265C1259.77 743.265 1261.37 741.139 1261.37 738.482Z" fill="#1B38E0"/>
<path d="M1274.75 744.627V745.424C1274.75 746.454 1274.16 747.018 1273.13 747.018H1271.2C1270.17 747.018 1269.61 746.453 1269.61 745.424V724.598C1269.61 723.568 1270.17 723.004 1271.2 723.004H1273.13C1274.16 723.004 1274.75 723.569 1274.75 724.598V732.37C1275.98 730.444 1277.98 729.58 1280.2 729.58C1285.02 729.58 1288.44 733.466 1288.44 738.482C1288.44 743.531 1285.02 747.384 1280.2 747.384C1277.98 747.384 1275.98 746.52 1274.75 744.627ZM1283.29 738.482C1283.29 735.858 1281.7 733.699 1279.04 733.699C1276.38 733.699 1274.69 735.758 1274.65 738.482C1274.69 741.206 1276.38 743.265 1279.04 743.265C1281.7 743.265 1283.29 741.139 1283.29 738.482Z" fill="#1B38E0"/>
<path d="M1291.06 725.262C1291.06 723.734 1292.16 722.572 1294.15 722.572C1296.11 722.572 1297.24 723.734 1297.24 725.262C1297.24 726.757 1296.04 727.919 1294.15 727.919C1292.26 727.919 1291.06 726.757 1291.06 725.262ZM1291.59 745.424V731.54C1291.59 730.51 1292.16 729.946 1293.19 729.946H1295.11C1296.14 729.946 1296.74 730.511 1296.74 731.54V745.424C1296.74 746.454 1296.14 747.018 1295.11 747.018H1293.19C1292.16 747.018 1291.59 746.453 1291.59 745.424Z" fill="#1B38E0"/>
<path d="M1301.99 741.338V733.765H1300.29C1299.76 733.765 1299.43 733.466 1299.43 732.935V730.776C1299.43 730.245 1299.76 729.946 1300.29 729.946H1302.39L1302.95 726.492C1303.08 725.794 1303.55 725.429 1304.25 725.429H1305.87C1306.64 725.429 1307.04 725.861 1307.04 726.591V729.946H1310.89C1311.42 729.946 1311.72 730.245 1311.72 730.776V732.935C1311.72 733.467 1311.42 733.765 1310.89 733.765H1307.04V741.504C1307.04 742.766 1307.67 743.264 1308.43 743.264C1309.3 743.264 1309.86 742.6 1309.86 741.703C1309.86 741.537 1309.86 741.338 1309.83 741.105C1309.76 740.507 1309.96 740.208 1310.52 740.208H1312.55C1312.98 740.208 1313.35 740.374 1313.48 740.872C1313.61 741.37 1313.68 741.902 1313.68 742.168C1313.68 745.855 1311.06 747.383 1307.97 747.383C1305.08 747.383 1301.99 746.054 1301.99 741.338Z" fill="#1B38E0"/>
<path d="M1283.39 703.431L1289.09 709.787C1289.2 709.902 1289.09 709.995 1288.86 709.995H1231.82C1231.59 709.995 1231.48 709.901 1231.58 709.787L1237.29 703.431C1238.19 702.42 1240.87 701.658 1243.33 701.658H1277.35C1279.81 701.658 1282.49 702.421 1283.39 703.431Z" fill="#F2E7E5"/>
<path d="M1288.86 710.996H1231.82C1231.27 710.996 1230.83 710.74 1230.64 710.311C1230.46 709.913 1230.54 709.457 1230.84 709.12L1236.54 702.764C1237.78 701.381 1240.9 700.658 1243.33 700.658H1277.35C1279.78 700.658 1282.9 701.382 1284.14 702.764L1289.84 709.12C1290.14 709.457 1290.22 709.914 1290.04 710.312C1289.85 710.741 1289.41 710.996 1288.86 710.996ZM1233.64 708.995H1287.04L1282.65 704.1C1282.04 703.419 1279.71 702.659 1277.35 702.659H1243.33C1240.97 702.659 1238.64 703.418 1238.03 704.1L1233.64 708.995Z" fill="#1B38E0"/>
<path d="M1244.01 705.319L1241.66 704.616C1242.72 701.069 1243.07 697.606 1242.69 694.323C1242.45 692.195 1241.96 690.599 1241.45 688.909C1240.73 686.54 1239.98 684.091 1239.82 680.063C1239.67 676.09 1240.25 673.734 1241.81 671.931C1243.42 670.08 1245.54 669.421 1246.66 669.194C1247.87 668.947 1250.96 668.59 1253.51 670.604C1254.66 671.51 1255.2 672.517 1255.78 673.582C1256.53 674.975 1257.12 676.888 1257.43 678.968C1257.65 680.465 1257.7 681.781 1257.73 682.741C1257.73 682.934 1257.74 683.142 1257.75 683.343C1258.99 682.831 1260.15 682.915 1261.19 682.989C1263.82 683.178 1265.95 684.539 1266.99 685.334L1265.5 687.284C1264.84 686.779 1263.08 685.587 1261.01 685.438C1259.93 685.36 1259.23 685.331 1258.49 685.704C1258.34 685.777 1258.23 685.847 1258.13 685.914C1257.86 686.09 1257.35 686.418 1256.66 686.223C1256.19 686.089 1255.59 685.693 1255.4 684.567C1255.32 684.1 1255.3 683.536 1255.27 682.822C1255.24 681.871 1255.2 680.688 1255 679.331C1254.64 676.896 1253.98 675.417 1253.62 674.752C1253.11 673.807 1252.74 673.124 1251.99 672.531C1250.2 671.117 1247.83 671.462 1247.15 671.601C1246.33 671.767 1244.8 672.239 1243.67 673.543C1242.73 674.626 1242.13 676.134 1242.28 679.97C1242.42 683.681 1243.12 685.976 1243.8 688.196C1244.32 689.916 1244.86 691.696 1245.13 694.046C1245.55 697.661 1245.17 701.455 1244.01 705.322L1244.01 705.319Z" fill="#1B38E0"/>
<path d="M1279.1 706.356L1276.89 705.292C1277.97 703.041 1278.5 700.588 1278.41 698.198C1278.37 696.97 1278.3 694.915 1277.05 692.688C1276.5 691.708 1275.8 690.82 1274.96 690.049C1274.54 689.665 1274.43 689.042 1274.71 688.545C1275.62 686.919 1276.28 685.195 1276.66 683.423C1277.16 681.17 1277.98 677.4 1275.99 674.517C1275.66 674.032 1274.77 672.742 1273.13 672.216C1271.76 671.778 1270.25 671.984 1268.64 672.828C1265.97 674.229 1265.01 677.075 1264.44 678.775C1263.81 680.648 1263.59 682.64 1263.79 684.694L1261.35 684.929C1261.12 682.53 1261.37 680.196 1262.11 677.994C1262.75 676.078 1263.95 672.513 1267.5 670.653C1270.26 669.209 1272.49 669.434 1273.88 669.878C1276.31 670.659 1277.59 672.514 1278.01 673.123C1280.6 676.883 1279.6 681.478 1279.06 683.946C1278.69 685.654 1278.1 687.32 1277.3 688.91C1278.04 689.692 1278.67 690.557 1279.19 691.49C1280.73 694.236 1280.82 696.757 1280.87 698.111C1280.96 700.897 1280.35 703.747 1279.1 706.355L1279.1 706.356Z" fill="#1B38E0"/>
<path d="M1258.66 693.417C1259.5 693.417 1260.18 692.738 1260.18 691.901C1260.18 691.064 1259.5 690.385 1258.66 690.385C1257.83 690.385 1257.15 691.064 1257.15 691.901C1257.15 692.738 1257.83 693.417 1258.66 693.417Z" fill="#1B38E0"/>
<path d="M1269.48 692.469C1270.32 692.469 1270.99 691.79 1270.99 690.953C1270.99 690.115 1270.32 689.437 1269.48 689.437C1268.64 689.437 1267.96 690.115 1267.96 690.953C1267.96 691.79 1268.64 692.469 1269.48 692.469Z" fill="#1B38E0"/>
<path d="M1266.46 699.196C1267.79 699.196 1268.86 698.119 1268.86 696.791C1268.86 695.462 1267.79 694.386 1266.46 694.386C1265.13 694.386 1264.05 695.462 1264.05 696.791C1264.05 698.119 1265.13 699.196 1266.46 699.196Z" fill="#1B38E0"/>
</g>
<defs>
<clipPath id="clip0_876_1739">
<rect width="1355" height="770" fill="white"/>
</clipPath>
</defs>
</svg>
