<?xml version="1.0" encoding="UTF-8"?>
<svg id="a" data-name="Layer_1" xmlns="http://www.w3.org/2000/svg" width="1066" height="656.4" viewBox="0 0 1066 656.4">
  <g>
    <rect width="1066" height="656.4" fill="#f2e7e5"/>
    <text transform="translate(10 641.889)" font-family="Inter-Medium, Inter" font-size="14" font-variation-settings="&apos;wght&apos; 500, &apos;slnt&apos; 0" font-weight="500"><tspan x="0" y="0">B</tspan><tspan x="9.158" y="0" letter-spacing="-.005em">r</tspan><tspan x="14.467" y="0" letter-spacing="0em">and Assets</tspan></text>
    <g id="b" data-name="c">
      <g>
        <g>
          <path d="M981.198,627.297v1.078c0,.88-.511,1.362-1.39,1.362h-4.596v14.696c0,.88-.482,1.362-1.362,1.362h-1.702c-.88,0-1.362-.482-1.362-1.362v-14.696h-4.539c-.88,0-1.362-.482-1.362-1.362v-1.078c0-.88.482-1.362,1.362-1.362h13.561c.88,0,1.39.482,1.39,1.362h0Z" fill="#1b38e0"/>
          <path d="M980.034,638.504c0-4.284,2.922-7.603,7.008-7.603,1.929,0,3.631.738,4.681,2.383v-.709c0-.88.482-1.362,1.362-1.362h1.674c.88,0,1.362.482,1.362,1.362v11.859c0,.88-.482,1.362-1.362,1.362h-1.674c-.88,0-1.362-.482-1.362-1.362v-.681c-1.05,1.617-2.752,2.355-4.681,2.355-4.086,0-7.008-3.291-7.008-7.603h0ZM991.779,638.504c0-2.326-1.475-4.085-3.716-4.085-2.298,0-3.631,1.844-3.631,4.085,0,2.27,1.333,4.085,3.631,4.085,2.241,0,3.716-1.759,3.716-4.085Z" fill="#1b38e0"/>
          <path d="M1004.034,643.752v.681c0,.88-.511,1.362-1.39,1.362h-1.645c-.88,0-1.362-.482-1.362-1.362v-17.788c0-.88.482-1.362,1.362-1.362h1.645c.88,0,1.39.482,1.39,1.362v6.638c1.05-1.645,2.752-2.383,4.653-2.383,4.114,0,7.036,3.319,7.036,7.603,0,4.312-2.922,7.603-7.036,7.603-1.901,0-3.603-.738-4.653-2.355h0ZM1011.326,638.504c0-2.241-1.362-4.085-3.631-4.085s-3.717,1.759-3.745,4.085c.028,2.326,1.475,4.085,3.745,4.085s3.631-1.816,3.631-4.085Z" fill="#1b38e0"/>
          <path d="M1022.758,643.752v.681c0,.88-.511,1.362-1.39,1.362h-1.645c-.88,0-1.362-.482-1.362-1.362v-17.788c0-.88.482-1.362,1.362-1.362h1.645c.88,0,1.39.482,1.39,1.362v6.638c1.05-1.645,2.752-2.383,4.653-2.383,4.114,0,7.036,3.319,7.036,7.603,0,4.312-2.922,7.603-7.036,7.603-1.901,0-3.603-.738-4.653-2.355h0ZM1030.049,638.504c0-2.241-1.362-4.085-3.631-4.085s-3.717,1.759-3.745,4.085c.028,2.326,1.475,4.085,3.745,4.085s3.631-1.816,3.631-4.085Z" fill="#1b38e0"/>
          <path d="M1036.687,627.212c0-1.305.936-2.298,2.638-2.298,1.674,0,2.638.993,2.638,2.298,0,1.277-1.021,2.27-2.638,2.27s-2.638-.993-2.638-2.27ZM1037.14,644.433v-11.859c0-.88.482-1.362,1.362-1.362h1.645c.88,0,1.39.482,1.39,1.362v11.859c0,.88-.511,1.362-1.39,1.362h-1.645c-.88,0-1.362-.482-1.362-1.362Z" fill="#1b38e0"/>
          <path d="M1046.02,640.944v-6.468h-1.447c-.454,0-.738-.255-.738-.709v-1.844c0-.454.284-.709.738-.709h1.787l.482-2.951c.113-.596.511-.908,1.106-.908h1.39c.652,0,.993.369.993.993v2.865h3.291c.454,0,.709.256.709.709v1.844c0,.454-.255.709-.709.709h-3.291v6.61c0,1.078.539,1.504,1.191,1.504.738,0,1.22-.567,1.22-1.333,0-.142,0-.312-.028-.511-.057-.511.114-.766.596-.766h1.731c.369,0,.681.142.794.567.113.426.17.88.17,1.107,0,3.149-2.241,4.454-4.88,4.454-2.468,0-5.107-1.135-5.107-5.164h0Z" fill="#1b38e0"/>
        </g>
        <g>
          <g>
            <path d="M1030.136,608.566l4.87,5.429c.088.098,0,.178-.198.178h-48.724c-.198,0-.286-.08-.198-.178l4.87-5.429c.774-.863,3.061-1.515,5.162-1.515h29.057c2.1,0,4.388.651,5.162,1.515h0Z" fill="#f2e7e5"/>
            <path d="M1034.807,615.027h-48.724c-.467,0-.843-.219-1.007-.585-.152-.34-.086-.73.172-1.017l4.87-5.429c1.059-1.181,3.719-1.799,5.798-1.799h29.057c2.08,0,4.739.618,5.798,1.799l4.87,5.429c.258.288.324.678.172,1.018-.164.367-.54.585-1.007.585h0ZM987.641,613.318h45.61l-3.751-4.181c-.522-.582-2.509-1.231-4.526-1.231h-29.057c-2.016,0-4.004.649-4.526,1.231l-3.75,4.181h0Z" fill="#1b38e0"/>
          </g>
          <g>
            <g>
              <path d="M996.501,610.178l-2.009-.6c.905-3.029,1.201-5.988.88-8.792-.208-1.818-.624-3.181-1.063-4.625-.616-2.023-1.253-4.115-1.386-7.556-.131-3.393.361-5.406,1.7-6.946,1.374-1.581,3.18-2.144,4.135-2.338,1.036-.211,3.68-.516,5.856,1.204.979.774,1.445,1.634,1.937,2.544.644,1.19,1.145,2.824,1.41,4.6.191,1.279.227,2.402.254,3.223.005.165.011.343.019.514,1.062-.437,2.054-.366,2.937-.302,2.245.162,4.067,1.324,4.954,2.003l-1.275,1.665c-.564-.432-2.066-1.45-3.829-1.576-.925-.067-1.525-.091-2.157.227-.125.063-.216.122-.305.179-.233.151-.667.43-1.254.264-.403-.114-.919-.452-1.082-1.415-.068-.399-.083-.881-.103-1.49-.027-.812-.06-1.823-.232-2.982-.31-2.08-.873-3.343-1.18-3.911-.437-.807-.753-1.39-1.394-1.897-1.528-1.208-3.553-.913-4.136-.794-.694.141-2.003.545-2.971,1.659-.804.925-1.314,2.213-1.187,5.489.122,3.17.719,5.13,1.296,7.026.447,1.47.91,2.989,1.14,4.996.354,3.088.033,6.328-.954,9.631Z" fill="#1b38e0"/>
              <path d="M1026.471,611.064l-1.89-.909c.925-1.923,1.376-4.018,1.303-6.059-.037-1.049-.099-2.804-1.163-4.707-.468-.837-1.07-1.595-1.791-2.254-.359-.328-.445-.86-.208-1.285.776-1.389,1.337-2.861,1.667-4.375.42-1.924,1.123-5.144-.574-7.607-.286-.415-1.045-1.516-2.447-1.965-1.167-.374-2.456-.198-3.832.522-2.286,1.197-3.101,3.627-3.588,5.079-.537,1.6-.724,3.301-.555,5.056l-2.087.201c-.197-2.05.023-4.042.654-5.923.549-1.636,1.57-4.682,4.603-6.27,2.356-1.234,4.261-1.041,5.445-.662,2.082.667,3.175,2.251,3.534,2.772,2.214,3.212,1.357,7.136.896,9.245-.319,1.459-.825,2.882-1.508,4.24.632.668,1.176,1.407,1.621,2.204,1.311,2.345,1.387,4.499,1.428,5.656.084,2.379-.438,4.814-1.509,7.042Z" fill="#1b38e0"/>
            </g>
            <circle cx="1009.014" cy="598.718" r="1.295" fill="#1b38e0"/>
            <circle cx="1018.252" cy="597.907" r="1.295" fill="#1b38e0"/>
            <circle cx="1015.674" cy="602.894" r="2.054" fill="#1b38e0"/>
          </g>
        </g>
      </g>
    </g>
  </g>
  <g>
    <g>
      <g>
        <path d="M164.207,342.162l-9.774-2.921c4.404-14.735,5.843-29.124,4.279-42.766-1.014-8.842-3.033-15.474-5.17-22.495-2.996-9.842-6.094-20.018-6.741-36.755-.637-16.506,1.758-26.294,8.267-33.785,6.685-7.693,15.471-10.428,20.114-11.374,5.04-1.026,17.903-2.509,28.484,5.858,4.763,3.766,7.026,7.947,9.423,12.374,3.136,5.792,5.572,13.74,6.86,22.378.928,6.22,1.106,11.686,1.237,15.676.026.802.055,1.668.091,2.5,5.168-2.127,9.989-1.781,14.288-1.471,10.918.786,19.783,6.441,24.095,9.743l-6.201,8.1c-2.743-2.1-10.05-7.051-18.627-7.668-4.502-.324-7.416-.444-10.493,1.105-.605.305-1.052.593-1.484.872-1.134.732-3.244,2.094-6.099,1.286-1.964-.556-4.47-2.201-5.263-6.883-.329-1.94-.405-4.283-.502-7.25-.129-3.951-.29-8.867-1.131-14.505-1.508-10.112-4.244-16.261-5.741-19.026-2.126-3.926-3.661-6.763-6.779-9.228-7.429-5.874-17.279-4.443-20.121-3.864-3.375.688-9.741,2.65-14.45,8.069-3.911,4.501-6.389,10.764-5.774,26.701.595,15.42,3.499,24.956,6.306,34.178,2.176,7.149,4.427,14.541,5.546,24.304,1.722,15.022.161,30.784-4.64,46.849Z" fill="#4abc7a"/>
        <path d="M309.991,346.47l-9.193-4.421c4.498-9.354,6.691-19.545,6.34-29.473-.18-5.101-.482-13.638-5.656-22.894-2.275-4.069-5.206-7.759-8.712-10.966-1.746-1.597-2.164-4.185-1.01-6.251,3.773-6.755,6.502-13.916,8.111-21.283,2.044-9.359,5.464-25.024-2.793-37.002-1.39-2.017-5.083-7.374-11.902-9.558-5.676-1.819-11.947-.963-18.64,2.541-11.119,5.822-15.084,17.644-17.453,24.707-2.611,7.785-3.519,16.059-2.699,24.593l-10.154.976c-.958-9.968.112-19.662,3.182-28.813,2.67-7.959,7.639-22.774,22.392-30.499,11.461-6.002,20.729-5.063,26.484-3.219,10.132,3.246,15.443,10.951,17.189,13.483,10.768,15.621,6.599,34.712,4.36,44.968-1.55,7.099-4.013,14.021-7.338,20.627,3.076,3.251,5.721,6.844,7.887,10.721,6.377,11.409,6.747,21.884,6.946,27.511.409,11.572-2.13,23.417-7.342,34.254Z" fill="#4abc7a"/>
      </g>
      <circle cx="225.075" cy="286.413" r="6.301" fill="#4abc7a"/>
      <circle cx="270.01" cy="282.471" r="6.301" fill="#4abc7a"/>
      <circle cx="257.471" cy="306.727" r="9.991" fill="#4abc7a"/>
    </g>
    <path d="M362.919,366.52H101.158c-1.893,0-2.786-2.337-1.374-3.599l31.67-28.315c.378-.338.867-.525,1.374-.525h198.422c.507,0,.996.187,1.374.525l31.67,28.315c1.411,1.262.519,3.599-1.374,3.599Z" fill="#4abc7a"/>
    <path d="M98.105,365.171c-.126,3.584,3.077,6.357,6.552,6.369,3.886.014,6.907-3.49,5.882-7.36-.905-3.415-4.996-5.588-8.326-4.529-5.005,1.592-3.578,8.186-3.568,12.27.046,18.233.068,36.467.065,54.7-.002,10.3-.012,20.6-.03,30.899-.009,5.109,7.931,5.117,7.94,0,.053-31.178.034-62.356-.057-93.533-.388.936-.775,1.871-1.163,2.807-.58.557-1.579.677-2.177.192l-.341-.696c-.104-1.541.394-2.394,1.494-2.557.318-.318,1.162.134.384-.164.634.243,1.31.862,1.284,1.602.18-5.11-7.761-5.103-7.94,0h0Z" fill="#4abc7a"/>
    <path d="M365.924,369.912c-.016-1.388-.031-2.777-.047-4.165h-7.94c2.048,29.662,2.401,59.423,1.056,89.125-.231,5.108,7.709,5.097,7.94,0,1.345-29.702.993-59.464-1.056-89.125-.348-5.043-7.998-5.165-7.94,0l.047,4.165c.057,5.106,7.998,5.119,7.94,0h0Z" fill="#4abc7a"/>
    <path d="M330.045,338.895c15.561-22.413,31.464-44.589,47.711-66.51,4.607-6.216,9.243-12.412,13.904-18.588,1.292-1.713.273-4.439-1.424-5.432-2.034-1.19-4.136-.293-5.432,1.424-16.436,21.78-32.54,43.81-48.295,66.087-4.468,6.318-8.907,12.655-13.32,19.011-1.223,1.762-.324,4.409,1.424,5.432,1.975,1.155,4.205.342,5.432-1.424h0Z" fill="#4abc7a"/>
    <path d="M366.721,369.252c15.12-23.926,31.15-47.274,48.071-69.962,4.802-6.439,9.676-12.825,14.623-19.154,1.319-1.688,1.646-3.968,0-5.614-1.373-1.373-4.287-1.699-5.614,0-17.72,22.673-34.594,45.998-50.505,69.977-4.555,6.865-9.029,13.782-13.43,20.746-2.738,4.332,4.13,8.32,6.856,4.007h0Z" fill="#4abc7a"/>
    <path d="M390.647,249.417l-.277-.224c.34.584.681,1.168,1.021,1.752l.054,1.048c-.34.584-.681,1.168-1.021,1.752l-.212.124-2.004.542c1.008-.117,3.515,1.865,4.53,2.436,1.912,1.077,3.824,2.154,5.736,3.231,3.585,2.02,7.17,4.039,10.755,6.059,7.409,4.174,14.818,8.348,22.228,12.521,4.458,2.511,8.464-4.345,4.007-6.856-9.68-5.453-19.36-10.906-29.039-16.359-4.732-2.665-9.399-5.574-14.248-8.018-2.374-1.196-5.231-1.523-7.242.551-1.816,1.873-2.053,5.316.097,7.054,1.666,1.347,3.986,1.629,5.614,0,1.393-1.393,1.676-4.26,0-5.614h0Z" fill="#4abc7a"/>
    <path d="M137.571,338.411c-16.916-27.873-31.851-56.964-44.505-87.015-.831-1.975-2.624-3.394-4.884-2.773-1.861.511-3.61,2.895-2.773,4.884,12.927,30.701,28.021,60.432,45.305,88.912,2.647,4.362,9.516.377,6.856-4.007h0Z" fill="#4abc7a"/>
    <path d="M104.559,363.63c-17.329-27.421-33.479-55.582-48.367-84.402-4.271-8.268-8.436-16.59-12.502-24.96-.937-1.928-3.683-2.447-5.432-1.424-1.969,1.152-2.364,3.496-1.424,5.432,14.173,29.177,29.596,57.744,46.244,85.584,4.776,7.987,9.654,15.912,14.625,23.778,2.723,4.308,9.596.329,6.856-4.007h0Z" fill="#4abc7a"/>
    <path d="M39.547,261.395c14.761-.524,29.424-3.021,43.503-7.488,4.853-1.54,2.779-9.208-2.111-7.656-13.432,4.262-27.308,6.705-41.393,7.205-5.095.181-5.119,8.122,0,7.94h0Z" fill="#4abc7a"/>
  </g>
  <text transform="translate(492.537 216.182)" fill="#4abc7a" font-family="FilsonSoftMedium, &apos;Filson Soft&apos;" font-size="34"><tspan x="0" y="0" letter-spacing="-.004em">B</tspan><tspan x="22.439" y="0" letter-spacing="-.007em">r</tspan><tspan x="35.36" y="0" letter-spacing="0em">and ass</tspan><tspan x="162.451" y="0" letter-spacing="-.005em">e</tspan><tspan x="182.817" y="0">ts include</tspan><tspan x="342.92" y="0" letter-spacing="-.03em"> </tspan><tspan x="350.469" y="0" letter-spacing="-.021em">v</tspan><tspan x="369.271" y="0">ecto</tspan><tspan x="444.036" y="0" letter-spacing="-.007em">r</tspan><tspan x="456.956" y="0" letter-spacing="0em">-</tspan><tspan x="0" y="40.8">based, hand d</tspan><tspan x="237.012" y="40.8" letter-spacing="-.007em">r</tspan><tspan x="249.932" y="40.8">awn illu</tspan><tspan x="377.838" y="40.8" letter-spacing="-.002em">s</tspan><tspan x="393.376" y="40.8">t</tspan><tspan x="408.336" y="40.8" letter-spacing="-.007em">r</tspan><tspan x="421.256" y="40.8">ations </tspan><tspan x="0" y="81.6">that </tspan><tspan x="81.395" y="81.6" letter-spacing="-.01em">c</tspan><tspan x="99.346" y="81.6">an be used on thei</tspan><tspan x="405.581" y="81.6" letter-spacing="-.024em">r</tspan><tspan x="417.922" y="81.6"> </tspan><tspan x="426.491" y="81.6" letter-spacing="-.018em">o</tspan><tspan x="446.857" y="81.6">wn </tspan><tspan x="0" y="122.4">o</tspan><tspan x="20.978" y="122.4" letter-spacing="-.024em">r</tspan><tspan x="33.32" y="122.4" xml:space="preserve"> along</tspan><tspan x="137.086" y="122.4" letter-spacing="-.027em"> </tspan><tspan x="144.737" y="122.4">with the</tspan><tspan x="282.468" y="122.4" letter-spacing="-.028em"> </tspan><tspan x="290.083" y="122.4" letter-spacing="-.094em">T</tspan><tspan x="307.559" y="122.4">abbi</tspan><tspan x="383.345" y="122.4" letter-spacing="-.015em">t</tspan><tspan x="397.794" y="122.4" letter-spacing="-.026em">’</tspan><tspan x="405.581" y="122.4">s logos. </tspan><tspan x="0" y="163.2" letter-spacing="-.004em">T</tspan><tspan x="20.536" y="163.2">hese ass</tspan><tspan x="159.9" y="163.2" letter-spacing="-.005em">e</tspan><tspan x="180.266" y="163.2">ts </tspan><tspan x="219.4" y="163.2" letter-spacing="-.01em">c</tspan><tspan x="237.351" y="163.2">an be used on the </tspan><tspan x="0" y="204">ap</tspan><tspan x="44.335" y="204" letter-spacing="-.006em">p</tspan><tspan x="66.299" y="204">, social media, and pri</tspan><tspan x="429.246" y="204" letter-spacing="-.006em">n</tspan><tspan x="449.816" y="204" letter-spacing="0em">ting </tspan><tspan x="0" y="244.8">material </tspan><tspan x="151.23" y="244.8" letter-spacing="-.005em">e</tspan><tspan x="171.596" y="244.8">tc.</tspan></text>
  <g>
    <g>
      <path d="M107.501,154.139c2.67-.449,5.34-.897,8.009-1.346,2.636-.443,5.502-.634,8.062-1.418,2.495-.764,3.963-2.767,5.685-4.571,1.595-1.672,3.288-3.254,5.093-4.697,7.323-5.858,16.105-9.966,25.374-11.527,2.739-.461,3.61-3.645,1.165-5.218-3.256-2.095-7.071-3.213-10.897-3.649-4.102-.467-8.531-.656-12.529.539-4.171,1.246-7.646,4.286-10.991,6.946-3.406,2.708-6.72,5.536-9.931,8.473-3.668,3.355-7.19,6.866-10.571,10.509-2.42,2.608,1.679,6.32,4.105,3.706,6.953-7.493,14.513-14.398,22.66-20.574,1.901-1.441,3.855-2.98,6.155-3.717,2.321-.743,4.832-.726,7.243-.655,4.305.127,8.552.975,12.213,3.331.388-1.739.777-3.479,1.165-5.218-9.635,1.623-18.817,5.384-26.663,11.247-1.976,1.477-3.872,3.078-5.663,4.774-.81.767-1.598,1.558-2.361,2.372-.722.77-1.402,1.832-2.304,2.397-.818.512-2.027.551-2.95.707l-4.272.718c-2.67.449-5.34.897-8.009,1.346-1.471.247-2.721,1.244-2.657,2.869.053,1.343,1.388,2.906,2.869,2.657h0Z" fill="#ffa748"/>
      <path d="M139.193,122.897c-2.949-5.344-6.024-10.799-8.287-16.235-1.108-2.661-2.383-5.144-4.774-6.9-2.995-2.199-6.992-2.771-10.605-3.122-15.077-1.466-29.667,4.64-41.352,13.83-2.928,2.303-5.726,4.776-8.397,7.373-2.629,2.557-5.328,5.192-7.458,8.191-2.291,3.226-3.502,6.652-3.786,10.6-.243,3.388-.019,6.863.4,10.229.898,7.209,3.144,14.415,8.287,19.753,1.16,1.204,2.483,2.383,4.16,2.752,1.693.372,3.166-.193,4.637-.954.276-.143,1.241-.568.212-.125.511-.22,1.014-.46,1.524-.682,11.584-5.049,23.437-9.524,35.193-14.15,1.39-.547,2.272-1.979,1.798-3.472-.429-1.352-2.075-2.348-3.472-1.798-10.608,4.175-21.234,8.319-31.761,12.697-2.17.902-4.376,1.778-6.461,2.867-.078.041-.15.097-.229.134.447-.209-.093.052-.167.054-.241.005.431.48-.342-.103-.204-.154-.387-.351-.575-.526-1.103-1.023-2.035-2.16-2.861-3.416-1.704-2.592-2.79-5.492-3.54-8.491-.768-3.07-1.115-6.224-1.272-9.38-.152-3.05-.304-6.299.75-9.222,1.085-3.007,3.411-5.433,5.568-7.706,2.401-2.53,4.901-4.969,7.523-7.27,9.987-8.763,22.397-15.488,35.923-15.884,3.65-.107,7.444.185,10.954,1.25,2.791.847,3.97,3.04,4.904,5.269,2.519,6.011,5.722,11.752,8.867,17.45.722,1.308,2.638,1.582,3.826.811,1.328-.862,1.535-2.514.811-3.826h0Z" fill="#ffa748"/>
      <path d="M59.902,162.276c-1.311,6.485-2.488,13.262-2.251,19.896.152,4.281,1.436,9.133,6.333,9.927,2.12.344,4.3-.004,6.397-.341,2.428-.39,4.782-.992,7.085-1.855,3.32-1.244,1.667-6.522-1.673-5.27-1.797.673-3.831,1.288-5.624,1.599-1.524.264-3.622.63-4.97.473-.587-.069-.993-.158-1.277-.59-.319-.485-.453-1.194-.534-1.673-.252-1.491-.251-3.042-.222-4.549.108-5.506,1.042-11.013,2.132-16.401.706-3.491-4.689-4.707-5.395-1.215h0Z" fill="#ffa748"/>
      <path d="M144.895,132.848c3,4.276,6.134,8.832,10.108,12.284.685.595,1.4,1.11,1.578,2.066.199,1.069-.181,2.258-.524,3.008-.465,1.017-1.039,1.93-1.866,2.7-.432.402-.916.738-1.422,1.045-.238.144-.487.266-.728.405-.538.31.409-.178-.078.032-1.371.591-2.283,1.946-1.798,3.472.418,1.315,2.092,2.393,3.472,1.798,3.064-1.322,5.63-3.464,7.134-6.496,1.587-3.199,2.088-7.237-.199-10.253-1.283-1.692-3.126-2.993-4.547-4.584-2.164-2.424-4.47-5.607-6.494-8.491-2.036-2.903-6.688.09-4.637,3.014h0Z" fill="#ffa748"/>
      <circle cx="107.408" cy="162.954" r="3.415" fill="#ffa748"/>
      <circle cx="129.974" cy="153.546" r="3.415" fill="#ffa748"/>
      <circle cx="127.475" cy="168.133" r="5.415" fill="#ffa748"/>
      <path d="M78.565,198.705l-5.369-1.319c1.214-4.941,1.287-10.181.212-15.153-1.08-4.992-3.324-9.749-6.49-13.758l4.339-3.427c3.686,4.667,6.299,10.205,7.556,16.017,1.252,5.789,1.167,11.889-.246,17.641Z" fill="#ffa748"/>
      <path d="M156.171,173.52l-5.526-.183c.159-4.786-.453-12.126-4.266-19.919-2.667-5.451-6.541-10.297-11.2-14.014l3.447-4.323c5.296,4.224,9.694,9.724,12.719,15.906,4.314,8.815,5.005,17.119,4.826,22.532Z" fill="#ffa748"/>
    </g>
    <g>
      <g>
        <path d="M344.38,131.526c6.995-4.202,13.991-8.404,20.986-12.606,3.099-1.861,6.143-3.976,9.431-5.522,2.281-1.073,5.189-2.119,7.497-.4,1.784,1.329,2.659,3.654,3.535,5.572.996,2.182,2,4.495,3.641,6.317,1.982,2.202,4.562,3.412,7.543,3.481,1.671.039,3.286-.226,4.936-.386,1.348-.131,3.578-.282,4.429,1.063.837,1.324.545,3.924.646,5.382.158,2.268.316,4.536.475,6.804.15,2.155.301,4.309.451,6.464.074,1.057.259,2.182.234,3.239-.004.184-.054.434-.022.602l-.14.346c-.208-.394.202-.556,1.23-.486l1.328.56-.273-.169c-1.252-.776-2.815-.793-3.78.379-.823.999-.742,2.918.5,3.687,3.51,2.173,6.464-.908,6.53-4.339.092-4.708-.631-9.577-.959-14.287-.269-3.858.337-9.179-2.788-12.19-3.275-3.155-7.733-2.208-11.746-1.916-3.067.223-4.699-1.257-6.029-3.831-1.362-2.635-2.334-5.466-4.101-7.9-2.035-2.803-5.133-4.535-8.641-4.537-3.837-.002-7.276,1.873-10.421,3.741-9.289,5.519-18.523,11.126-27.784,16.689-2.919,1.753.398,5.98,3.293,4.242h0Z" fill="#ff8585"/>
        <path d="M340.131,131.383c11.835,12.059,27.327,20.17,44.101,22.852,3.436.549,4.069-4.636.624-5.187-15.228-2.435-29.677-9.762-40.455-20.744-1.027-1.046-2.522-1.468-3.781-.581-1.056.744-1.506,2.624-.488,3.661h0Z" fill="#ff8585"/>
        <path d="M344.962,126.788c-3.695-1.728-7.39-3.456-11.086-5.183-3.13-1.464-6.595-3.607-10-4.25-3.518-.665-6.101,1.138-6.403,4.156-.256,2.556.559,5.401,1.439,7.949,3.934,11.394,14.507,20.904,25.559,27.629,6.547,3.984,13.475,7.302,20.536,10.315,6.718,2.866,13.533,5.576,20.527,7.602,12.516,3.625,27.171,4.84,36.909-2.205,2.332-1.687,4.265-3.752,5.493-6.248,1.229-2.496,2.037-5.785.8-8.68-2.725-6.377-11.624-6.261-17.166-9.287-2.961-1.617-4.758,2.386-1.814,3.993,2.419,1.321,5.095,2.043,7.712,2.808,1.919.56,4.441,1.152,5.869,2.626,1.616,1.668.773,4.205.075,5.823-.778,1.805-2.05,3.377-3.623,4.654-7.682,6.238-19.825,5.612-30.25,3.038-6.034-1.49-11.909-3.667-17.695-6.021-6.143-2.499-12.246-5.153-18.13-8.216-10.432-5.432-20.617-12.57-26.711-22.084-1.443-2.253-2.667-4.671-3.454-7.107-.375-1.162-1.984-5.835-.532-6.361.884-.32,3.316,1.184,4.116,1.558l5.235,2.448c3.593,1.68,7.185,3.36,10.778,5.039,3.061,1.431,4.877-2.561,1.814-3.993h0Z" fill="#ff8585"/>
      </g>
      <path d="M412.763,177.673c.913,6.553,1.674,13.389,1.033,19.996-.413,4.264-1.991,9.028-6.927,9.522-2.137.214-4.292-.266-6.364-.731-2.399-.538-4.712-1.282-6.959-2.284-3.238-1.445-1.266-6.611,1.992-5.158,1.752.782,3.745,1.52,5.516,1.939,1.505.356,3.577.85,4.931.775.59-.033,1-.097,1.311-.511.348-.464.525-1.164.635-1.637.343-1.472.436-3.021.499-4.527.228-5.502-.368-11.056-1.127-16.501-.492-3.527,4.967-4.412,5.459-.883h0Z" fill="#ff8585"/>
      <path d="M329.724,143.113c-3.255,4.085-6.662,8.442-10.839,11.645-.72.552-1.465,1.022-1.701,1.966-.264,1.055.043,2.265.339,3.035.402,1.044.919,1.99,1.698,2.809.407.428.869.793,1.355,1.129.229.158.47.296.702.449.518.342-.397-.203.076.036,1.332.674,2.16,2.082,1.583,3.575-.497,1.287-2.234,2.261-3.575,1.583-2.978-1.506-5.408-3.801-6.724-6.919-1.389-3.29-1.642-7.351.824-10.222,1.384-1.611,3.302-2.796,4.818-4.299,2.308-2.288,4.804-5.323,7-8.079,2.21-2.773,6.67.498,4.444,3.292h0Z" fill="#ff8585"/>
      <circle cx="365.305" cy="175.451" r="3.415" fill="#ff8585"/>
      <circle cx="343.355" cy="164.684" r="3.415" fill="#ff8585"/>
      <circle cx="344.959" cy="179.396" r="5.415" fill="#ff8585"/>
      <path d="M391.913,212.896l5.579-1.349c-.438-3.597-.719-9.759,1.407-16.935,2.447-8.258,6.871-13.777,9.427-16.538-1.803-.871-3.606-1.741-5.409-2.612-4.233,5.128-7.471,11.255-9.366,17.719-1.887,6.438-2.454,13.255-1.638,19.715Z" fill="#ff8585"/>
      <path d="M315.988,183.022l5.527.154c.134-4.786,1.192-12.076,5.474-19.622,2.995-5.278,7.157-9.879,12.035-13.304l-3.177-4.525c-5.544,3.893-10.27,9.114-13.666,15.1-4.843,8.536-6.041,16.781-6.192,22.196Z" fill="#ff8585"/>
    </g>
  </g>
  <g>
    <path d="M66.247,497.264c5.574-1.365,12.208-1.556,18.408-1.26,6.77.323,14.294,1.204,19.447,3.313,1.803.738,4.417,1.985,3.993,3.165-.147.41-.726.733-1.629.962-1.156.293-2.675.358-4.038.365-3.826.02-7.579-.406-11.347-.645-1.879-.119-3.772-.22-5.673-.193-1.611.023-3.205.135-4.805.217-1.702.087-3.48.155-5.178.015-1.988-.164-3.778-.536-5.426-1.056-2.387-.754-5.621-2.323-4.816-3.721.631-1.096-3.133-1.563-3.764-.467-1.01,1.753,1.319,3.553,4.013,4.743,2.981,1.318,6.841,2.182,11.029,2.315,3.703.118,7.339-.375,11.051-.273,4.331.119,8.549.652,12.878.791,3.532.114,7.777-.033,10.153-1.38,2.374-1.347,1.515-3.105-.482-4.431-4.661-3.097-12.999-4.519-20.85-5.181-8.279-.698-17.369-.651-24.934,1.201-2.208.54-.24,2.058,1.97,1.517h0Z" fill="#1b38e0"/>
    <path d="M83.37,501.39c.121-1.758-3.578-3.204-7-3.704-2.395-.35-3.421,1.346-1.038,1.695,1.842.269,4.197,1.104,4.135,2.009-.078,1.131,3.826,1.13,3.903,0h0Z" fill="#1b38e0"/>
    <path d="M95.441,501.333c-.511-1.987-3.935-3.677-7.705-4.619-2.199-.549-4.169.968-1.97,1.517,1.549.387,2.909.896,4.019,1.519.455.255.848.539,1.179.831.168.148.257.242.367.399.046.066.089.132.126.199-.002-.004.113.28.081.154.121.471.81.879,1.952.879.961,0,2.074-.404,1.952-.879h0Z" fill="#1b38e0"/>
  </g>
  <g>
    <path d="M111.529,523.071c7.774,1.222,16.161,1.862,24.369,1.333,3.339-.215,7.017-.628,9.762-1.55,3.052-1.025,4.23-2.624,3.211-4.278-1.047-1.7-3.977-3.036-7.226-3.948-3.28-.92-7.074-1.436-10.94-1.466-3.968-.031-7.733.512-11.626.752-3.783.233-7.461-.142-11.229-.214-1.902-.036-3.858.03-5.594.408-1.83.399-2.976,1.203-3.235,2.096-.567,1.95,2.608,3.822,5.84,4.951.832.291,1.949.365,2.76,0,.673-.303.838-.95,0-1.243-2.168-.757-4.777-1.954-4.772-3.286.004-1.226,3.037-1.211,5.143-1.166,3.256.069,6.466.382,9.737.273,3.483-.117,6.826-.603,10.29-.761,6.03-.274,13.221.753,16.351,3.271,1.315,1.058,1.431,2.233-.565,3.04-2.063.834-5.298,1.145-7.946,1.354-7.774.613-15.939-.106-23.291-1.262-.995-.156-2.135.178-2.401.614-.295.484.364.924,1.363,1.081h0Z" fill="#1b38e0"/>
    <path d="M115.698,517.96c.669.285,1.299.606,1.591,1.007.208.286.188.369-.258.469-.943.212-1.207.812-.7,1.202.562.433,1.723.528,2.67.315,1.723-.387,2.488-1.226,2.232-2.059-.261-.849-1.419-1.6-2.775-2.178-1.824-.777-4.589.463-2.76,1.243h0Z" fill="#1b38e0"/>
    <path d="M127.901,518.018c.962.477,1.753,1.033,2.111,1.662.122.215.185.458.143.632.006-.026-.142.257-.115.226-.01.011-.268.203-.392.276-.645.376-.127.984.7,1.202,1.008.265,2.024.062,2.67-.315,2.617-1.526.062-3.724-2.357-4.925-1.692-.839-4.445.406-2.76,1.243h0Z" fill="#1b38e0"/>
  </g>
  <g>
    <path d="M155.49,497.264c5.574-1.365,12.208-1.556,18.408-1.26,6.77.323,14.294,1.204,19.447,3.313,1.803.738,4.417,1.985,3.993,3.165-.147.41-.726.733-1.629.962-1.156.293-2.675.358-4.038.365-3.826.02-7.579-.406-11.347-.645-1.879-.119-3.772-.22-5.673-.193-1.611.023-3.205.135-4.805.217-1.702.087-3.48.155-5.178.015-1.988-.164-3.778-.536-5.426-1.056-2.387-.754-5.621-2.323-4.816-3.721.631-1.096-3.133-1.563-3.764-.467-1.01,1.753,1.319,3.553,4.013,4.743,2.981,1.318,6.841,2.182,11.029,2.315,3.703.118,7.339-.375,11.051-.273,4.331.119,8.549.652,12.878.791,3.532.114,7.777-.033,10.153-1.38s1.515-3.105-.482-4.431c-4.661-3.097-12.999-4.519-20.85-5.181-8.279-.698-17.369-.651-24.934,1.201-2.208.54-.24,2.058,1.97,1.517h0Z" fill="#1b38e0"/>
    <path d="M172.613,501.39c.121-1.758-3.578-3.204-7-3.704-2.395-.35-3.421,1.346-1.038,1.695,1.842.269,4.197,1.104,4.135,2.009-.078,1.131,3.826,1.13,3.903,0h0Z" fill="#1b38e0"/>
    <path d="M184.684,501.333c-.511-1.987-3.935-3.677-7.705-4.619-2.199-.549-4.169.968-1.97,1.517,1.549.387,2.909.896,4.019,1.519.455.255.848.539,1.179.831.168.148.257.242.367.399.046.066.089.132.126.199-.002-.004.113.28.081.154.121.471.81.879,1.952.879.961,0,2.074-.404,1.952-.879h0Z" fill="#1b38e0"/>
  </g>
  <g>
    <path d="M200.772,523.071c7.774,1.222,16.161,1.862,24.369,1.333,3.339-.215,7.017-.628,9.762-1.55,3.052-1.025,4.23-2.624,3.211-4.278-1.047-1.7-3.977-3.036-7.226-3.948-3.28-.92-7.074-1.436-10.94-1.466-3.968-.031-7.733.512-11.626.752-3.783.233-7.461-.142-11.229-.214-1.902-.036-3.858.03-5.594.408-1.83.399-2.976,1.203-3.235,2.096-.567,1.95,2.608,3.822,5.84,4.951.832.291,1.949.365,2.76,0,.673-.303.838-.95,0-1.243-2.168-.757-4.777-1.954-4.772-3.286.004-1.226,3.037-1.211,5.143-1.166,3.256.069,6.466.382,9.737.273,3.483-.117,6.826-.603,10.29-.761,6.03-.274,13.221.753,16.351,3.271,1.315,1.058,1.431,2.233-.565,3.04-2.063.834-5.298,1.145-7.946,1.354-7.774.613-15.939-.106-23.291-1.262-.995-.156-2.135.178-2.401.614-.295.484.364.924,1.363,1.081h0Z" fill="#1b38e0"/>
    <path d="M204.941,517.96c.669.285,1.299.606,1.591,1.007.208.286.188.369-.258.469-.943.212-1.207.812-.7,1.202.562.433,1.723.528,2.67.315,1.723-.387,2.488-1.226,2.232-2.059-.261-.849-1.419-1.6-2.775-2.178-1.824-.777-4.589.463-2.76,1.243h0Z" fill="#1b38e0"/>
    <path d="M217.144,518.018c.962.477,1.753,1.033,2.111,1.662.122.215.185.458.143.632.006-.026-.142.257-.115.226-.01.011-.268.203-.392.276-.645.376-.127.984.7,1.202,1.008.265,2.024.062,2.67-.315,2.617-1.526.062-3.724-2.357-4.925-1.692-.839-4.445.406-2.76,1.243h0Z" fill="#1b38e0"/>
  </g>
  <g>
    <path d="M247.442,497.264c5.574-1.365,12.208-1.556,18.408-1.26,6.77.323,14.294,1.204,19.447,3.313,1.803.738,4.417,1.985,3.993,3.165-.147.41-.726.733-1.629.962-1.156.293-2.675.358-4.038.365-3.826.02-7.579-.406-11.347-.645-1.879-.119-3.772-.22-5.673-.193-1.611.023-3.205.135-4.805.217-1.702.087-3.48.155-5.178.015-1.988-.164-3.778-.536-5.426-1.056-2.387-.754-5.621-2.323-4.816-3.721.631-1.096-3.133-1.563-3.764-.467-1.01,1.753,1.319,3.553,4.013,4.743,2.981,1.318,6.841,2.182,11.029,2.315,3.703.118,7.339-.375,11.051-.273,4.331.119,8.549.652,12.878.791,3.532.114,7.777-.033,10.153-1.38,2.374-1.347,1.515-3.105-.482-4.431-4.661-3.097-12.999-4.519-20.85-5.181-8.279-.698-17.369-.651-24.934,1.201-2.208.54-.24,2.058,1.97,1.517h0Z" fill="#1b38e0"/>
    <path d="M264.565,501.39c.121-1.758-3.578-3.204-7-3.704-2.395-.35-3.421,1.346-1.038,1.695,1.842.269,4.197,1.104,4.135,2.009-.078,1.131,3.826,1.13,3.903,0h0Z" fill="#1b38e0"/>
    <path d="M276.637,501.333c-.511-1.987-3.935-3.677-7.705-4.619-2.199-.549-4.169.968-1.97,1.517,1.549.387,2.909.896,4.019,1.519.455.255.848.539,1.179.831.168.148.257.242.367.399.046.066.089.132.126.199-.002-.004.113.28.081.154.121.471.81.879,1.952.879.961,0,2.074-.404,1.952-.879h0Z" fill="#1b38e0"/>
  </g>
  <g>
    <path d="M292.724,523.071c7.774,1.222,16.161,1.862,24.369,1.333,3.339-.215,7.017-.628,9.762-1.55,3.052-1.025,4.23-2.624,3.211-4.278-1.047-1.7-3.977-3.036-7.226-3.948-3.28-.92-7.074-1.436-10.94-1.466-3.968-.031-7.733.512-11.626.752-3.783.233-7.461-.142-11.229-.214-1.902-.036-3.858.03-5.594.408-1.83.399-2.976,1.203-3.235,2.096-.567,1.95,2.608,3.822,5.84,4.951.832.291,1.949.365,2.76,0,.673-.303.838-.95,0-1.243-2.168-.757-4.777-1.954-4.772-3.286.004-1.226,3.037-1.211,5.143-1.166,3.256.069,6.466.382,9.737.273,3.483-.117,6.826-.603,10.29-.761,6.03-.274,13.221.753,16.351,3.271,1.315,1.058,1.431,2.233-.565,3.04-2.063.834-5.298,1.145-7.946,1.354-7.774.613-15.939-.106-23.291-1.262-.995-.156-2.135.178-2.401.614-.295.484.364.924,1.363,1.081h0Z" fill="#1b38e0"/>
    <path d="M296.894,517.96c.669.285,1.299.606,1.591,1.007.208.286.188.369-.258.469-.943.212-1.207.812-.7,1.202.562.433,1.723.528,2.67.315,1.723-.387,2.488-1.226,2.232-2.059-.261-.849-1.419-1.6-2.775-2.178-1.824-.777-4.589.463-2.76,1.243h0Z" fill="#1b38e0"/>
    <path d="M309.096,518.018c.962.477,1.753,1.033,2.111,1.662.122.215.185.458.143.632.006-.026-.142.257-.115.226-.01.011-.268.203-.392.276-.645.376-.127.984.7,1.202,1.008.265,2.024.062,2.67-.315,2.617-1.526.062-3.724-2.357-4.925-1.692-.839-4.445.406-2.76,1.243h0Z" fill="#1b38e0"/>
  </g>
  <g>
    <path d="M335.492,497.264c5.574-1.365,12.208-1.556,18.408-1.26,6.77.323,14.294,1.204,19.447,3.313,1.803.738,4.417,1.985,3.993,3.165-.147.41-.726.733-1.629.962-1.156.293-2.675.358-4.038.365-3.826.02-7.579-.406-11.347-.645-1.879-.119-3.772-.22-5.673-.193-1.611.023-3.205.135-4.805.217-1.702.087-3.48.155-5.178.015-1.988-.164-3.778-.536-5.426-1.056-2.387-.754-5.621-2.323-4.816-3.721.631-1.096-3.133-1.563-3.764-.467-1.01,1.753,1.319,3.553,4.013,4.743,2.981,1.318,6.841,2.182,11.029,2.315,3.703.118,7.339-.375,11.051-.273,4.331.119,8.549.652,12.878.791,3.532.114,7.777-.033,10.153-1.38s1.515-3.105-.482-4.431c-4.661-3.097-12.999-4.519-20.85-5.181-8.279-.698-17.369-.651-24.934,1.201-2.208.54-.24,2.058,1.97,1.517h0Z" fill="#1b38e0"/>
    <path d="M352.615,501.39c.121-1.758-3.578-3.204-7-3.704-2.395-.35-3.421,1.346-1.038,1.695,1.842.269,4.197,1.104,4.135,2.009-.078,1.131,3.826,1.13,3.903,0h0Z" fill="#1b38e0"/>
    <path d="M364.686,501.333c-.511-1.987-3.935-3.677-7.705-4.619-2.199-.549-4.169.968-1.97,1.517,1.549.387,2.909.896,4.019,1.519.455.255.848.539,1.179.831.168.148.257.242.367.399.046.066.089.132.126.199-.002-.004.113.28.081.154.121.471.81.879,1.952.879.961,0,2.074-.404,1.952-.879h0Z" fill="#1b38e0"/>
  </g>
  <g>
    <path d="M380.774,523.071c7.774,1.222,16.161,1.862,24.369,1.333,3.339-.215,7.017-.628,9.762-1.55,3.052-1.025,4.23-2.624,3.211-4.278-1.047-1.7-3.977-3.036-7.226-3.948-3.28-.92-7.074-1.436-10.94-1.466-3.968-.031-7.733.512-11.626.752-3.783.233-7.461-.142-11.229-.214-1.902-.036-3.858.03-5.594.408-1.83.399-2.976,1.203-3.235,2.096-.567,1.95,2.608,3.822,5.84,4.951.832.291,1.949.365,2.76,0,.673-.303.838-.95,0-1.243-2.168-.757-4.777-1.954-4.772-3.286.004-1.226,3.037-1.211,5.143-1.166,3.256.069,6.466.382,9.737.273,3.483-.117,6.826-.603,10.29-.761,6.03-.274,13.221.753,16.351,3.271,1.315,1.058,1.431,2.233-.565,3.04-2.063.834-5.298,1.145-7.946,1.354-7.774.613-15.939-.106-23.291-1.262-.995-.156-2.135.178-2.401.614-.295.484.364.924,1.363,1.081h0Z" fill="#1b38e0"/>
    <path d="M384.944,517.96c.669.285,1.299.606,1.591,1.007.208.286.188.369-.258.469-.943.212-1.207.812-.7,1.202.562.433,1.723.528,2.67.315,1.723-.387,2.488-1.226,2.232-2.059-.261-.849-1.419-1.6-2.775-2.178-1.824-.777-4.589.463-2.76,1.243h0Z" fill="#1b38e0"/>
    <path d="M397.146,518.018c.962.477,1.753,1.033,2.111,1.662.122.215.185.458.143.632.006-.026-.142.257-.115.226-.01.011-.268.203-.392.276-.645.376-.127.984.7,1.202,1.008.265,2.024.062,2.67-.315,2.617-1.526.062-3.724-2.357-4.925-1.692-.839-4.445.406-2.76,1.243h0Z" fill="#1b38e0"/>
  </g>
  <path d="M224.451,151.58c17.29-.165,34.536-2.05,51.453-5.624.995-.21,1.782-1.005,1.66-2.085-.106-.938-1.084-1.872-2.085-1.66-16.917,3.574-34.164,5.459-51.453,5.624-1.018.01-1.766,1.149-1.66,2.085.124,1.098,1.064,1.67,2.085,1.66h0Z" fill="#dfa6ed"/>
  <path d="M224.375,147.41c-5.131-3.146-10.266-6.288-15.394-9.44-4.455-2.738-8.98-5.626-12.449-9.598-1.585-1.815-4.644.389-3.047,2.219,3.749,4.293,8.432,7.412,13.244,10.385,5.353,3.307,10.728,6.58,16.092,9.869.868.532,2.113-.095,2.494-.94.463-1.025-.069-1.96-.94-2.494h0Z" fill="#dfa6ed"/>
  <path d="M226.234,149.562c1.729-4.041,1.587-8.514,2.306-12.782.739-4.388,1.943-8.679,3.173-12.95,2.427-8.423,4.919-16.917,4.385-25.782-.146-2.42-3.892-1.995-3.746.425.511,8.478-2.043,16.721-4.362,24.772-1.17,4.062-2.315,8.141-3.061,12.307-.731,4.087-.478,8.596-2.129,12.456-.954,2.231,2.48,3.786,3.434,1.554h0Z" fill="#dfa6ed"/>
  <path d="M233.808,99.575c15.72.128,31.44.257,47.16.385,1.019.008,1.764-1.162,1.66-2.085-.125-1.112-1.064-1.652-2.085-1.66-15.72-.128-31.44-.257-47.16-.385-1.019-.008-1.764,1.162-1.66,2.085.125,1.112,1.064,1.652,2.085,1.66h0Z" fill="#dfa6ed"/>
  <path d="M277.867,143.849c2.768-14.838,5.536-29.675,8.303-44.513.445-2.386-3.278-2.969-3.723-.585-2.768,14.838-5.536,29.675-8.303,44.513-.445,2.386,3.278,2.969,3.723.585h0Z" fill="#dfa6ed"/>
  <path d="M195.44,128.816c3.08-15.893,6.161-31.787,9.241-47.68.462-2.383-3.262-2.965-3.723-.585-3.08,15.893-6.161,31.787-9.241,47.68-.462,2.383,3.262,2.965,3.723.585h0Z" fill="#dfa6ed"/>
  <path d="M235.13,96.937l-15.133-8.803c-4.743-2.759-9.841-5.268-14.059-8.815-1.861-1.565-4.241,1.358-2.385,2.919,4.345,3.654,9.599,6.253,14.486,9.096,5.179,3.013,10.357,6.026,15.536,9.038.88.512,2.106-.08,2.494-.94.455-1.008-.057-1.981-.94-2.494h0Z" fill="#dfa6ed"/>
  <path d="M202.977,82.139c13.947-.76,27.915-1.071,41.882-.931,2.029.02,2.018-2.807.565-3.59-.384-.207-.768-.414-1.152-.621-2.139-1.153-3.679,2.29-1.554,3.434.384.207.768.414,1.152.621.188-1.197.376-2.393.565-3.59-13.967-.14-27.935.171-41.882.931-2.42.132-1.994,3.878.425,3.746h0Z" fill="#dfa6ed"/>
  <path d="M284.921,97.407c-3.165-2.023-6.419-3.896-9.787-5.561-3.398-1.679-6.94-2.985-10.392-4.538-3.414-1.536-6.317-3.831-9.487-5.785s-6.506-3.557-9.998-4.823c-2.269-.823-3.836,2.607-1.554,3.434,3.351,1.215,6.592,2.736,9.633,4.599,3.164,1.939,6.052,4.258,9.441,5.822,3.371,1.556,6.866,2.81,10.21,4.435,3.282,1.594,6.475,3.371,9.549,5.336.857.548,1.956.584,2.652-.267.586-.717.595-2.101-.267-2.652h0Z" fill="#dfa6ed"/>
  <path d="M223.802,82.713c3.255,2.834,6.665,5.485,10.215,7.94.579.4,1.383.157,1.514-.578.128-.718.374-1.425.765-2.046l-1.109.26c2.334.974,5.08.661,7.118-.845.377-.279.543-.924.205-1.305-1.805-2.033-3.775-3.909-5.913-5.589-.946-.744-2.128.703-1.182,1.447,2.011,1.581,3.887,3.329,5.585,5.242l.205-1.305c-1.521,1.124-3.547,1.363-5.248.653-.343-.143-.889-.09-1.109.26-.574.912-.973,1.873-1.163,2.938l1.514-.578c-3.549-2.455-6.96-5.106-10.215-7.94-.909-.792-2.088.659-1.182,1.447h0Z" fill="#dfa6ed"/>
</svg>