<?xml version="1.0" encoding="UTF-8"?>
<svg id="a" data-name="Layer_1" xmlns="http://www.w3.org/2000/svg" width="1066" height="656.4" viewBox="0 0 1066 656.4">
  <g>
    <rect x=".588" y="0" width="1066" height="656.4" fill="#f2e7e5"/>
    <text transform="translate(10.588 641.888)" font-family="Inter-Medium, Inter" font-size="14" font-variation-settings="&apos;wght&apos; 500, &apos;slnt&apos; 0" font-weight="500"><tspan x="0" y="0">Tabbit’s Composite Mark</tspan><tspan x="167.292" y="0" letter-spacing="-.011em">,</tspan><tspan x="171.16" y="0" xml:space="preserve" letter-spacing="0em"> Wordmark</tspan><tspan x="244.639" y="0" letter-spacing="-.011em">,</tspan><tspan x="248.507" y="0" xml:space="preserve"> Icon</tspan></text>
    <g id="b" data-name="c">
      <g>
        <g>
          <path d="M981.786,627.296v1.078c0,.88-.511,1.362-1.39,1.362h-4.596v14.696c0,.88-.482,1.362-1.362,1.362h-1.702c-.88,0-1.362-.482-1.362-1.362v-14.696h-4.539c-.88,0-1.362-.482-1.362-1.362v-1.078c0-.88.482-1.362,1.362-1.362h13.561c.88,0,1.39.482,1.39,1.362h0Z" fill="#1b38e0"/>
          <path d="M980.622,638.503c0-4.284,2.922-7.603,7.008-7.603,1.929,0,3.631.738,4.681,2.383v-.709c0-.88.482-1.362,1.362-1.362h1.674c.88,0,1.362.482,1.362,1.362v11.859c0,.88-.482,1.362-1.362,1.362h-1.674c-.88,0-1.362-.482-1.362-1.362v-.681c-1.05,1.617-2.752,2.355-4.681,2.355-4.086,0-7.008-3.291-7.008-7.603h0ZM992.368,638.503c0-2.326-1.475-4.085-3.716-4.085-2.298,0-3.631,1.844-3.631,4.085,0,2.27,1.333,4.085,3.631,4.085,2.241,0,3.716-1.759,3.716-4.085Z" fill="#1b38e0"/>
          <path d="M1004.622,643.752v.681c0,.88-.511,1.362-1.39,1.362h-1.645c-.88,0-1.362-.482-1.362-1.362v-17.788c0-.88.482-1.362,1.362-1.362h1.645c.88,0,1.39.482,1.39,1.362v6.638c1.05-1.645,2.752-2.383,4.653-2.383,4.114,0,7.036,3.319,7.036,7.603,0,4.312-2.922,7.603-7.036,7.603-1.901,0-3.603-.738-4.653-2.355h0ZM1011.914,638.503c0-2.241-1.362-4.085-3.631-4.085s-3.717,1.759-3.745,4.085c.028,2.326,1.475,4.085,3.745,4.085s3.631-1.816,3.631-4.085Z" fill="#1b38e0"/>
          <path d="M1023.346,643.752v.681c0,.88-.511,1.362-1.39,1.362h-1.645c-.88,0-1.362-.482-1.362-1.362v-17.788c0-.88.482-1.362,1.362-1.362h1.645c.88,0,1.39.482,1.39,1.362v6.638c1.05-1.645,2.752-2.383,4.653-2.383,4.114,0,7.036,3.319,7.036,7.603,0,4.312-2.922,7.603-7.036,7.603-1.901,0-3.603-.738-4.653-2.355h0ZM1030.637,638.503c0-2.241-1.362-4.085-3.631-4.085s-3.717,1.759-3.745,4.085c.028,2.326,1.475,4.085,3.745,4.085s3.631-1.816,3.631-4.085Z" fill="#1b38e0"/>
          <path d="M1037.275,627.211c0-1.305.936-2.298,2.638-2.298,1.674,0,2.638.993,2.638,2.298,0,1.277-1.021,2.27-2.638,2.27s-2.638-.993-2.638-2.27ZM1037.729,644.432v-11.859c0-.88.482-1.362,1.362-1.362h1.645c.88,0,1.39.482,1.39,1.362v11.859c0,.88-.511,1.362-1.39,1.362h-1.645c-.88,0-1.362-.482-1.362-1.362Z" fill="#1b38e0"/>
          <path d="M1046.608,640.943v-6.468h-1.447c-.454,0-.738-.255-.738-.709v-1.844c0-.454.284-.709.738-.709h1.787l.482-2.951c.113-.596.511-.908,1.106-.908h1.39c.652,0,.993.369.993.993v2.865h3.291c.454,0,.709.256.709.709v1.844c0,.454-.255.709-.709.709h-3.291v6.61c0,1.078.539,1.504,1.191,1.504.738,0,1.22-.567,1.22-1.333,0-.142,0-.312-.028-.511-.057-.511.114-.766.596-.766h1.731c.369,0,.681.142.794.567.113.426.17.88.17,1.107,0,3.149-2.241,4.454-4.88,4.454-2.468,0-5.107-1.135-5.107-5.164h0Z" fill="#1b38e0"/>
        </g>
        <g>
          <g>
            <path d="M1030.724,608.565l4.87,5.429c.088.098,0,.178-.198.178h-48.724c-.198,0-.286-.08-.198-.178l4.87-5.429c.774-.863,3.061-1.515,5.162-1.515h29.057c2.1,0,4.388.651,5.162,1.515h0Z" fill="#f2e7e5"/>
            <path d="M1035.396,615.026h-48.724c-.467,0-.843-.219-1.007-.585-.152-.34-.086-.73.172-1.017l4.87-5.429c1.059-1.181,3.719-1.799,5.798-1.799h29.057c2.08,0,4.739.618,5.798,1.799l4.87,5.429c.258.288.324.678.172,1.018-.164.367-.54.585-1.007.585h0ZM988.229,613.317h45.61l-3.751-4.181c-.522-.582-2.509-1.231-4.526-1.231h-29.057c-2.016,0-4.004.649-4.526,1.231l-3.75,4.181h0Z" fill="#1b38e0"/>
          </g>
          <g>
            <g>
              <path d="M997.089,610.178l-2.009-.6c.905-3.029,1.201-5.988.88-8.792-.208-1.818-.624-3.181-1.063-4.625-.616-2.023-1.253-4.115-1.386-7.556-.131-3.393.361-5.406,1.7-6.946,1.374-1.581,3.18-2.144,4.135-2.338,1.036-.211,3.68-.516,5.856,1.204.979.774,1.445,1.634,1.937,2.544.644,1.19,1.145,2.824,1.41,4.6.191,1.279.227,2.402.254,3.223.005.165.011.343.019.514,1.062-.437,2.054-.366,2.937-.302,2.245.162,4.067,1.324,4.954,2.003l-1.275,1.665c-.564-.432-2.066-1.45-3.829-1.576-.925-.067-1.525-.091-2.157.227-.125.063-.216.122-.305.179-.233.151-.667.43-1.254.264-.403-.114-.919-.452-1.082-1.415-.068-.399-.083-.881-.103-1.49-.027-.812-.06-1.823-.232-2.982-.31-2.08-.873-3.343-1.18-3.911-.437-.807-.753-1.39-1.394-1.897-1.528-1.208-3.553-.913-4.136-.794-.694.141-2.003.545-2.971,1.659-.804.925-1.314,2.213-1.187,5.489.122,3.17.719,5.13,1.296,7.026.447,1.47.91,2.989,1.14,4.996.354,3.088.033,6.328-.954,9.631Z" fill="#1b38e0"/>
              <path d="M1027.059,611.063l-1.89-.909c.925-1.923,1.376-4.018,1.303-6.059-.037-1.049-.099-2.804-1.163-4.707-.468-.837-1.07-1.595-1.791-2.254-.359-.328-.445-.86-.208-1.285.776-1.389,1.337-2.861,1.667-4.375.42-1.924,1.123-5.144-.574-7.607-.286-.415-1.045-1.516-2.447-1.965-1.167-.374-2.456-.198-3.832.522-2.286,1.197-3.101,3.627-3.588,5.079-.537,1.6-.724,3.301-.555,5.056l-2.087.201c-.197-2.05.023-4.042.654-5.923.549-1.636,1.57-4.682,4.603-6.27,2.356-1.234,4.261-1.041,5.445-.662,2.082.667,3.175,2.251,3.534,2.772,2.214,3.212,1.357,7.136.896,9.245-.319,1.459-.825,2.882-1.508,4.24.632.668,1.176,1.407,1.621,2.204,1.311,2.345,1.387,4.499,1.428,5.656.084,2.379-.438,4.814-1.509,7.042Z" fill="#1b38e0"/>
            </g>
            <circle cx="1009.602" cy="598.717" r="1.295" fill="#1b38e0"/>
            <circle cx="1018.84" cy="597.906" r="1.295" fill="#1b38e0"/>
            <circle cx="1016.262" cy="602.893" r="2.054" fill="#1b38e0"/>
          </g>
        </g>
      </g>
    </g>
  </g>
  <g>
    <g>
      <g>
        <rect x="99.858" y="412.818" width="362.824" height="154.767" rx="12" ry="12" fill="none" stroke="#1b38e0" stroke-miterlimit="10" stroke-width="5"/>
        <g>
          <path d="M184.795,463.201v3.507c0,2.861-1.667,4.431-4.538,4.431h-15.005v47.808c0,2.862-1.574,4.431-4.445,4.431h-5.558c-2.871,0-4.446-1.569-4.446-4.431v-47.808h-14.819c-2.871,0-4.446-1.57-4.446-4.431v-3.507c0-2.862,1.575-4.43,4.446-4.43h44.273c2.871,0,4.538,1.568,4.538,4.43Z" fill="#1b38e0"/>
          <path d="M181.303,500.242c0-14.02,9.515-24.882,22.82-24.882,6.282,0,11.826,2.414,15.244,7.799v-2.321c0-2.878,1.571-4.456,4.434-4.456h5.451c2.865,0,4.435,1.579,4.435,4.456v38.81c0,2.878-1.571,4.457-4.435,4.457h-5.451c-2.864,0-4.434-1.579-4.434-4.457v-2.228c-3.418,5.292-8.962,7.706-15.244,7.706-13.304,0-22.82-10.77-22.82-24.882ZM219.551,500.242c0-7.613-4.804-13.369-12.102-13.369-7.483,0-11.826,6.035-11.826,13.369,0,7.427,4.342,13.369,11.826,13.369,7.298,0,12.102-5.757,12.102-13.369Z" fill="#1b38e0"/>
          <path d="M260.468,517.424v2.227c0,2.876-1.69,4.454-4.602,4.454h-5.448c-2.912,0-4.509-1.578-4.509-4.454v-58.172c0-2.876,1.597-4.454,4.509-4.454h5.448c2.912,0,4.602,1.578,4.602,4.454v21.71c3.476-5.381,9.111-7.793,15.404-7.793,13.62,0,23.294,10.855,23.294,24.864,0,14.103-9.674,24.865-23.294,24.865-6.293,0-11.929-2.412-15.404-7.7h0ZM284.609,500.259c0-7.329-4.509-13.36-12.023-13.36s-12.305,5.753-12.398,13.36c.093,7.608,4.884,13.361,12.398,13.361s12.023-5.938,12.023-13.361Z" fill="#1b38e0"/>
          <path d="M322.218,517.424v2.227c0,2.876-1.663,4.454-4.527,4.454h-5.358c-2.865,0-4.435-1.578-4.435-4.454v-58.172c0-2.876,1.571-4.454,4.435-4.454h5.358c2.864,0,4.527,1.578,4.527,4.454v21.71c3.418-5.381,8.962-7.793,15.151-7.793,13.396,0,22.913,10.855,22.913,24.864,0,14.103-9.516,24.865-22.913,24.865-6.189,0-11.733-2.412-15.151-7.7h0ZM345.962,500.259c0-7.329-4.435-13.36-11.826-13.36s-12.103,5.753-12.195,13.36c.092,7.608,4.804,13.361,12.195,13.361s11.826-5.938,11.826-13.361Z" fill="#1b38e0"/>
          <path d="M368.139,462.774c0-4.256,2.943-7.494,8.294-7.494,5.262,0,8.294,3.238,8.294,7.494,0,4.164-3.211,7.402-8.294,7.402s-8.294-3.238-8.294-7.402ZM369.566,518.937v-38.676c0-2.869,1.517-4.442,4.282-4.442h5.172c2.765,0,4.371,1.573,4.371,4.442v38.676c0,2.868-1.606,4.441-4.371,4.441h-5.172c-2.765,0-4.282-1.573-4.282-4.441Z" fill="#1b38e0"/>
          <path d="M398.764,508.056v-21.381h-4.671c-1.465,0-2.381-.843-2.381-2.344v-6.096c0-1.5.916-2.344,2.381-2.344h5.77l1.558-9.753c.366-1.97,1.647-3.001,3.571-3.001h4.488c2.106,0,3.205,1.219,3.205,3.282v9.472h10.623c1.465,0,2.289.844,2.289,2.344v6.096c0,1.501-.824,2.344-2.289,2.344h-10.623v21.851c0,3.564,1.74,4.969,3.847,4.969,2.381,0,3.938-1.875,3.938-4.407,0-.469,0-1.032-.092-1.689-.183-1.688.367-2.531,1.924-2.531h5.586c1.19,0,2.198.469,2.564,1.874.367,1.407.549,2.907.549,3.658,0,10.41-7.234,14.723-15.752,14.723-7.967,0-16.484-3.752-16.484-17.068Z" fill="#1b38e0"/>
        </g>
      </g>
      <g>
        <rect x="99.858" y="89.671" width="362.824" height="299.652" rx="12" ry="12" fill="none" stroke="#1b38e0" stroke-miterlimit="10" stroke-width="5"/>
        <g>
          <g>
            <path d="M397.375,307.154l28.714,32.011c.518.577-.004,1.049-1.17,1.049H137.62c-1.165,0-1.688-.471-1.17-1.049l28.714-32.011c4.566-5.09,18.052-8.932,30.437-8.932h171.337c12.385,0,25.871,3.841,30.437,8.932h-.001Z" fill="#f2e7e5"/>
            <path d="M424.918,345.253H137.619c-2.753,0-4.973-1.29-5.938-3.452-.895-2.003-.505-4.303,1.015-5.999l28.715-32.012c6.245-6.963,21.927-10.606,34.189-10.606h171.337c12.262,0,27.943,3.644,34.189,10.606l28.714,32.01c1.522,1.699,1.912,3.998,1.017,6.001-.966,2.162-3.185,3.452-5.939,3.452h0ZM146.8,335.173h268.938l-22.115-24.655c-3.078-3.432-14.794-7.256-26.685-7.256h-171.337c-11.89,0-23.607,3.824-26.686,7.257l-22.115,24.653h0Z" fill="#1b38e0"/>
          </g>
          <g>
            <g>
              <path d="M199.044,316.663l-11.848-3.541c5.338-17.863,7.084-35.306,5.187-51.841-1.229-10.719-3.676-18.758-6.267-27.269-3.632-11.93-7.387-24.266-8.171-44.554-.773-20.009,2.131-31.874,10.022-40.955,8.102-9.324,18.753-12.64,24.382-13.787,6.107-1.244,21.7-3.044,34.528,7.101,5.775,4.565,8.518,9.634,11.422,14.999,3.8,7.016,6.753,16.65,8.315,27.126,1.124,7.54,1.341,14.166,1.499,19.003.031.972.066,2.021.11,3.03,6.264-2.579,12.109-2.157,17.32-1.784,13.235.953,23.981,7.809,29.208,11.811l-7.517,9.819c-3.325-2.546-12.181-8.547-22.579-9.295-5.457-.394-8.991-.539-12.72,1.339-.735.37-1.276.72-1.8,1.058-1.375.888-3.935,2.538-7.396,1.558-2.378-.673-5.416-2.668-6.377-8.343-.399-2.352-.491-5.192-.609-8.788-.157-4.789-.351-10.749-1.371-17.584-1.828-12.262-5.145-19.712-6.959-23.062-2.576-4.76-4.437-8.199-8.217-11.187-9.007-7.124-20.947-5.386-24.391-4.684-4.092.834-11.81,3.213-17.516,9.781-4.742,5.456-7.747,13.047-7,32.367.722,18.692,4.241,30.251,7.644,41.43,2.638,8.665,5.366,17.626,6.723,29.461,2.089,18.207.196,37.314-5.624,56.79Z" fill="#1b38e0"/>
              <path d="M375.763,321.884l-11.144-5.359c5.453-11.338,8.111-23.692,7.685-35.726-.219-6.183-.585-16.534-6.856-27.753-2.758-4.934-6.31-9.406-10.56-13.293-2.116-1.936-2.623-5.073-1.224-7.577,4.574-8.19,7.882-16.87,9.832-25.799,2.477-11.345,6.624-30.334-3.385-44.854-1.686-2.445-6.164-8.94-14.428-11.587-6.88-2.204-14.482-1.168-22.595,3.081-13.479,7.058-18.285,21.388-21.156,29.949-3.166,9.435-4.267,19.465-3.273,29.811l-12.309,1.183c-1.162-12.085.136-23.836,3.858-34.927,3.236-9.648,9.259-27.607,27.143-36.971,13.892-7.274,25.126-6.139,32.104-3.902,12.278,3.933,18.719,13.274,20.836,16.344,13.054,18.937,8.001,42.078,5.286,54.511-1.878,8.604-4.864,16.994-8.894,25.002,3.728,3.941,6.933,8.296,9.56,12.995,7.729,13.828,8.179,26.526,8.42,33.349.495,14.029-2.582,28.387-8.9,41.523Z" fill="#1b38e0"/>
            </g>
            <circle cx="272.827" cy="249.084" r="7.638" fill="#1b38e0"/>
            <circle cx="327.297" cy="244.306" r="7.638" fill="#1b38e0"/>
            <circle cx="312.098" cy="273.708" r="12.111" fill="#1b38e0"/>
          </g>
        </g>
      </g>
    </g>
    <g>
      <rect x="486.292" y="88.91" width="479.85" height="478.58" rx="12" ry="12" fill="none" stroke="#1b38e0" stroke-miterlimit="10" stroke-width="5"/>
      <g id="c">
        <g>
          <g>
            <path d="M591.427,395.788v4.969c0,4.053-2.353,6.276-6.406,6.276h-21.182v67.728c0,4.053-2.222,6.276-6.275,6.276h-7.845c-4.053,0-6.276-2.223-6.276-6.276v-67.728h-20.919c-4.053,0-6.276-2.223-6.276-6.276v-4.969c0-4.053,2.223-6.275,6.276-6.275h62.498c4.053,0,6.406,2.222,6.406,6.275h0Z" fill="#1b38e0"/>
            <path d="M586.063,447.434c0-19.743,13.466-35.041,32.295-35.041,8.891,0,16.736,3.4,21.573,10.983v-3.268c0-4.053,2.223-6.276,6.276-6.276h7.714c4.053,0,6.276,2.223,6.276,6.276v54.653c0,4.053-2.223,6.276-6.276,6.276h-7.714c-4.053,0-6.276-2.223-6.276-6.276v-3.138c-4.837,7.453-12.683,10.852-21.573,10.852-18.828,0-32.295-15.167-32.295-35.041h0ZM640.193,447.434c0-10.721-6.799-18.827-17.127-18.827-10.591,0-16.736,8.499-16.736,18.827,0,10.46,6.145,18.827,16.736,18.827,10.329,0,17.127-8.107,17.127-18.827Z" fill="#1b38e0"/>
            <path d="M696.67,471.623v3.138c0,4.053-2.353,6.276-6.406,6.276h-7.583c-4.053,0-6.276-2.223-6.276-6.276v-81.979c0-4.053,2.223-6.276,6.276-6.276h7.583c4.053,0,6.406,2.223,6.406,6.276v30.594c4.838-7.583,12.684-10.983,21.443-10.983,18.959,0,32.426,15.298,32.426,35.041,0,19.874-13.467,35.041-32.426,35.041-8.76,0-16.605-3.4-21.443-10.852h0ZM730.273,447.434c0-10.329-6.276-18.827-16.736-18.827s-17.128,8.107-17.258,18.827c.13,10.721,6.799,18.827,17.258,18.827s16.736-8.368,16.736-18.827Z" fill="#1b38e0"/>
            <path d="M782.959,471.623v3.138c0,4.053-2.353,6.276-6.406,6.276h-7.583c-4.053,0-6.276-2.223-6.276-6.276v-81.979c0-4.053,2.223-6.276,6.276-6.276h7.583c4.053,0,6.406,2.223,6.406,6.276v30.594c4.838-7.583,12.684-10.983,21.443-10.983,18.959,0,32.426,15.298,32.426,35.041,0,19.874-13.467,35.041-32.426,35.041-8.76,0-16.605-3.4-21.443-10.852h0ZM816.562,447.434c0-10.329-6.276-18.827-16.736-18.827s-17.128,8.107-17.258,18.827c.13,10.721,6.799,18.827,17.258,18.827s16.736-8.368,16.736-18.827Z" fill="#1b38e0"/>
            <path d="M847.152,395.396c0-6.015,4.315-10.591,12.16-10.591,7.714,0,12.159,4.576,12.159,10.591,0,5.884-4.707,10.46-12.159,10.46s-12.16-4.576-12.16-10.46ZM849.243,474.76v-54.653c0-4.053,2.223-6.276,6.276-6.276h7.583c4.053,0,6.407,2.223,6.407,6.276v54.653c0,4.053-2.354,6.276-6.407,6.276h-7.583c-4.053,0-6.276-2.223-6.276-6.276Z" fill="#1b38e0"/>
            <path d="M890.165,458.678v-29.81h-6.669c-2.092,0-3.4-1.177-3.4-3.269v-8.498c0-2.092,1.308-3.269,3.4-3.269h8.238l2.223-13.598c.523-2.746,2.353-4.183,5.099-4.183h6.407c3.007,0,4.576,1.699,4.576,4.576v13.205h15.167c2.092,0,3.268,1.178,3.268,3.269v8.498c0,2.093-1.177,3.269-3.268,3.269h-15.167v30.465c0,4.969,2.484,6.929,5.491,6.929,3.4,0,5.622-2.615,5.622-6.145,0-.654,0-1.439-.131-2.354-.261-2.353.524-3.53,2.747-3.53h7.975c1.699,0,3.138.654,3.661,2.614.523,1.961.784,4.053.784,5.1,0,14.514-10.329,20.528-22.488,20.528-11.375,0-23.535-5.231-23.535-23.797h0Z" fill="#1b38e0"/>
          </g>
          <g>
            <g>
              <path d="M816.964,309.462l22.442,25.019c.405.451-.003.82-.914.82h-224.548c-.911,0-1.319-.368-.914-.82l22.442-25.019c3.569-3.979,14.109-6.981,23.789-6.981h133.914c9.68,0,20.221,3.002,23.789,6.981h0Z" fill="#f2e7e5"/>
              <path d="M838.491,339.239h-224.548c-2.152,0-3.887-1.009-4.641-2.698-.699-1.566-.395-3.363.793-4.689l22.443-25.02c4.881-5.442,17.138-8.289,26.722-8.289h133.914c9.584,0,21.839,2.848,26.721,8.289l22.442,25.019c1.19,1.328,1.494,3.125.795,4.69-.755,1.689-2.49,2.698-4.642,2.698h0ZM621.119,331.361h210.197l-17.285-19.27c-2.406-2.682-11.563-5.671-20.857-5.671h-133.914c-9.293,0-18.451,2.989-20.857,5.672l-17.284,19.269h0Z" fill="#1b38e0"/>
            </g>
            <g>
              <g>
                <path d="M661.952,316.894l-9.26-2.767c4.172-13.962,5.536-27.594,4.054-40.518-.96-8.377-2.873-14.661-4.898-21.313-2.839-9.324-5.774-18.966-6.386-34.822-.605-15.639,1.665-24.912,7.833-32.009,6.332-7.288,14.657-9.88,19.056-10.776,4.773-.972,16.961-2.379,26.987,5.55,4.513,3.568,6.657,7.529,8.927,11.723,2.97,5.484,5.278,13.013,6.499,21.201.879,5.893,1.048,11.072,1.172,14.853.025.76.051,1.58.086,2.368,4.896-2.016,9.464-1.686,13.537-1.394,10.344.745,18.743,6.103,22.829,9.231l-5.875,7.674c-2.599-1.99-9.52-6.68-17.647-7.265-4.265-.308-7.027-.421-9.942,1.046-.574.289-.998.563-1.407.827-1.075.694-3.075,1.983-5.78,1.218-1.858-.526-4.233-2.085-4.984-6.52-.311-1.838-.384-4.058-.476-6.869-.123-3.743-.275-8.401-1.071-13.743-1.429-9.584-4.021-15.407-5.439-18.025-2.014-3.721-3.468-6.408-6.422-8.744-7.04-5.568-16.372-4.209-19.063-3.661-3.198.652-9.23,2.512-13.69,7.645-3.706,4.264-6.055,10.198-5.471,25.297.564,14.609,3.315,23.644,5.974,32.381,2.062,6.772,4.194,13.776,5.254,23.027,1.632,14.231.153,29.164-4.396,44.386Z" fill="#1b38e0"/>
                <path d="M800.072,320.975l-8.71-4.189c4.262-8.862,6.339-18.517,6.007-27.923-.171-4.833-.457-12.922-5.359-21.691-2.155-3.856-4.932-7.352-8.253-10.39-1.654-1.513-2.05-3.965-.957-5.922,3.575-6.402,6.16-13.185,7.684-20.164,1.936-8.867,5.177-23.708-2.646-35.057-1.318-1.911-4.818-6.987-11.276-9.056-5.377-1.722-11.319-.913-17.659,2.408-10.535,5.516-14.291,16.716-16.535,23.408-2.475,7.375-3.335,15.214-2.558,23.3l-9.62.925c-.908-9.445.107-18.63,3.015-27.298,2.529-7.541,7.236-21.577,21.214-28.896,10.858-5.686,19.638-4.798,25.092-3.05,9.596,3.074,14.631,10.375,16.285,12.774,10.203,14.801,6.253,32.888,4.131,42.605-1.468,6.725-3.802,13.282-6.951,19.541,2.914,3.08,5.419,6.484,7.472,10.157,6.041,10.808,6.393,20.733,6.581,26.065.387,10.965-2.018,22.187-6.956,32.453Z" fill="#1b38e0"/>
              </g>
              <circle cx="719.62" cy="264.075" r="5.969" fill="#1b38e0"/>
              <circle cx="762.192" cy="260.34" r="5.969" fill="#1b38e0"/>
              <circle cx="750.313" cy="283.321" r="9.466" fill="#1b38e0"/>
            </g>
          </g>
        </g>
      </g>
    </g>
  </g>
</svg>