<svg width="1355" height="770" viewBox="0 0 1355 770" fill="none" xmlns="http://www.w3.org/2000/svg">
<g clip-path="url(#clip0_876_1678)">
<path d="M1355 0.479004H0V770H1355V0.479004Z" fill="#F2E7E5"/>
<path d="M1355 456.733H0.775391V457.733H1355V456.733Z" fill="#1B38E0"/>
<path d="M1355 562.577H0.775391V563.577H1355V562.577Z" fill="#1B38E0"/>
<path d="M923.356 0H922.356V770H923.356V0Z" fill="#1B38E0"/>
<path d="M432.75 0H431.75V770H432.75V0Z" fill="#1B38E0"/>
<path d="M1355 395.561H0.775391V396.561H1355V395.561Z" fill="#1B38E0"/>
<path d="M541.455 0H540.455V770H541.455V0Z" fill="#1B38E0"/>
<path d="M814.65 0H813.65V770H814.65V0Z" fill="#1B38E0"/>
<path d="M1355 203.563H0.775391V204.563H1355V203.563Z" fill="#1B38E0"/>
<path d="M371.578 0H370.578V770H371.578V0Z" fill="#1B38E0"/>
<path d="M984.527 0H983.527V770H984.527V0Z" fill="#1B38E0"/>
<path d="M1355 623.749H0V624.749H1355V623.749Z" fill="#1B38E0"/>
<path d="M674.649 588.242L677.507 592.912H677.6L680.458 588.242H682.545L678.824 594.214L682.568 600.186H680.469L677.599 595.579H677.506L674.636 600.186H672.536L676.344 594.214L672.559 588.242H674.647H674.649Z" fill="#1B38E0"/>
<path d="M950.538 504.183L953.396 508.853H953.489L956.347 504.183H958.434L954.713 510.155L958.457 516.127H956.358L953.488 511.52H953.395L950.525 516.127H948.425L952.233 510.155L948.448 504.183H950.536H950.538Z" fill="#1B38E0"/>
<path d="M1355 142.207H0.775391V143.207H1355V142.207Z" fill="#1B38E0"/>
<path d="M674.649 420.674L677.507 425.344H677.6L680.458 420.674H682.545L678.824 426.646L682.568 432.618H680.469L677.599 428.011H677.506L674.636 432.618H672.536L676.344 426.646L672.559 420.674H674.647H674.649Z" fill="#1B38E0"/>
<path d="M674.649 165.01L677.507 169.68H677.6L680.458 165.01H682.545L678.824 170.982L682.568 176.954H680.469L677.599 172.347H677.506L674.636 176.954H672.536L676.344 170.982L672.559 165.01H674.647H674.649Z" fill="#1B38E0"/>
<path d="M483.002 286.056L485.86 290.726H485.953L488.811 286.056H490.898L487.177 292.028L490.921 298H488.822L485.952 293.393H485.859L482.989 298H480.889L484.697 292.028L480.912 286.056H483H483.002Z" fill="#1B38E0"/>
<path d="M520.205 463.054V468.854C520.205 473.586 517.458 476.181 512.727 476.181H488V555.244C488 559.976 485.406 562.571 480.674 562.571H471.516C466.784 562.571 464.189 559.976 464.189 555.244V476.181H439.769C435.037 476.181 432.442 473.586 432.442 468.854V463.054C432.442 458.322 435.037 455.728 439.769 455.728H512.726C517.458 455.728 520.204 458.322 520.204 463.054H520.205Z" fill="#1B38E0"/>
<path d="M513.944 523.344C513.944 500.297 529.664 482.439 551.644 482.439C562.022 482.439 571.181 486.408 576.828 495.26V491.445C576.828 486.713 579.423 484.118 584.155 484.118H593.16C597.892 484.118 600.487 486.713 600.487 491.445V555.245C600.487 559.977 597.892 562.572 593.16 562.572H584.155C579.423 562.572 576.828 559.977 576.828 555.245V551.582C571.181 560.282 562.023 564.25 551.644 564.25C529.665 564.25 513.944 546.544 513.944 523.344ZM577.132 523.344C577.132 510.829 569.196 501.366 557.138 501.366C544.775 501.366 537.601 511.288 537.601 523.344C537.601 535.554 544.774 545.322 557.138 545.322C569.195 545.322 577.132 535.858 577.132 523.344Z" fill="#1B38E0"/>
<path d="M643.061 551.581V555.244C643.061 559.976 640.314 562.571 635.583 562.571H626.731C621.999 562.571 619.404 559.976 619.404 555.244V459.545C619.404 454.813 621.999 452.218 626.731 452.218H635.583C640.315 452.218 643.061 454.813 643.061 459.545V495.259C648.709 486.407 657.867 482.438 668.092 482.438C690.224 482.438 705.945 500.296 705.945 523.343C705.945 546.543 690.224 564.248 668.092 564.248C657.866 564.248 648.709 560.28 643.061 551.581ZM682.287 523.344C682.287 511.287 674.96 501.366 662.75 501.366C650.54 501.366 642.755 510.83 642.603 523.344C642.755 535.859 650.539 545.322 662.75 545.322C674.961 545.322 682.287 535.554 682.287 523.344Z" fill="#1B38E0"/>
<path d="M743.791 551.581V555.244C743.791 559.976 741.044 562.571 736.313 562.571H727.461C722.729 562.571 720.134 559.976 720.134 555.244V459.545C720.134 454.813 722.729 452.218 727.461 452.218H736.313C741.045 452.218 743.791 454.813 743.791 459.545V495.259C749.439 486.407 758.597 482.438 768.822 482.438C790.954 482.438 806.675 500.296 806.675 523.343C806.675 546.543 790.954 564.248 768.822 564.248C758.596 564.248 749.439 560.28 743.791 551.581ZM783.018 523.344C783.018 511.287 775.691 501.366 763.481 501.366C751.271 501.366 743.486 510.83 743.334 523.344C743.486 535.859 751.27 545.322 763.481 545.322C775.692 545.322 783.018 535.554 783.018 523.344Z" fill="#1B38E0"/>
<path d="M818.727 462.597C818.727 455.576 823.764 450.234 832.922 450.234C841.927 450.234 847.116 455.576 847.116 462.597C847.116 469.466 841.621 474.807 832.922 474.807C824.223 474.807 818.727 469.465 818.727 462.597ZM821.168 555.244V491.444C821.168 486.712 823.763 484.117 828.495 484.117H837.347C842.079 484.117 844.827 486.712 844.827 491.444V555.244C844.827 559.976 842.079 562.571 837.347 562.571H828.495C823.763 562.571 821.168 559.976 821.168 555.244Z" fill="#1B38E0"/>
<path d="M868.938 536.469V501.67H861.153C858.711 501.67 857.184 500.296 857.184 497.854V487.934C857.184 485.492 858.71 484.118 861.153 484.118H870.769L873.364 468.244C873.974 465.039 876.111 463.36 879.316 463.36H886.796C890.306 463.36 892.138 465.343 892.138 468.702V484.117H909.843C912.285 484.117 913.658 485.492 913.658 487.933V497.853C913.658 500.296 912.284 501.669 909.843 501.669H892.138V537.232C892.138 543.032 895.038 545.321 898.548 545.321C902.517 545.321 905.111 542.268 905.111 538.148C905.111 537.385 905.111 536.469 904.958 535.4C904.653 532.653 905.569 531.28 908.164 531.28H917.474C919.457 531.28 921.137 532.043 921.748 534.332C922.358 536.622 922.663 539.064 922.663 540.285C922.663 557.228 910.606 564.248 896.411 564.248C883.132 564.248 868.938 558.143 868.938 536.469Z" fill="#1B38E0"/>
<path d="M783.486 362.282L809.684 391.488C810.157 392.015 809.68 392.445 808.617 392.445H546.491C545.428 392.445 544.951 392.015 545.424 391.488L571.622 362.282C575.788 357.638 588.092 354.133 599.393 354.133H755.718C767.018 354.133 779.323 357.638 783.489 362.282H783.488H783.486Z" fill="#F2E7E5"/>
<path d="M808.616 397.042H546.49C543.978 397.042 541.953 395.865 541.072 393.893C540.256 392.065 540.611 389.967 541.998 388.419L568.197 359.212C573.895 352.859 588.203 349.535 599.391 349.535H755.716C766.903 349.535 781.21 352.86 786.909 359.212L813.107 388.418C814.496 389.968 814.851 392.066 814.035 393.893C813.154 395.865 811.128 397.042 808.616 397.042ZM554.866 387.846H800.24L780.062 365.352C777.253 362.221 766.564 358.732 755.715 358.732H599.39C588.542 358.732 577.851 362.221 575.042 365.354L554.865 387.847L554.866 387.846Z" fill="#1B38E0"/>
<path d="M602.532 370.957L591.722 367.727C596.592 351.429 598.185 335.515 596.455 320.428C595.334 310.649 593.101 303.314 590.737 295.548C587.423 284.664 583.997 273.408 583.282 254.898C582.576 236.642 585.226 225.817 592.426 217.532C599.818 209.025 609.536 205.999 614.671 204.953C620.243 203.818 634.47 202.176 646.174 211.432C651.443 215.597 653.945 220.221 656.595 225.117C660.062 231.518 662.757 240.308 664.182 249.866C665.208 256.746 665.406 262.79 665.55 267.204C665.579 268.091 665.61 269.048 665.65 269.968C671.365 267.615 676.698 268 681.453 268.341C693.528 269.21 703.333 275.466 708.102 279.117L701.243 288.076C698.209 285.753 690.129 280.278 680.643 279.595C675.664 279.236 672.44 279.104 669.037 280.816C668.367 281.154 667.872 281.473 667.395 281.781C666.141 282.591 663.805 284.096 660.647 283.202C658.478 282.588 655.706 280.768 654.829 275.59C654.465 273.444 654.381 270.853 654.274 267.572C654.131 263.202 653.953 257.765 653.023 251.529C651.355 240.342 648.329 233.544 646.673 230.488C644.322 226.145 642.625 223.007 639.176 220.281C630.958 213.782 620.064 215.367 616.922 216.007C613.189 216.768 606.147 218.939 600.941 224.931C596.615 229.909 593.873 236.835 594.554 254.462C595.213 271.516 598.423 282.063 601.528 292.262C603.935 300.168 606.424 308.344 607.662 319.142C609.568 335.754 607.841 353.187 602.53 370.956L602.532 370.957Z" fill="#1B38E0"/>
<path d="M763.767 375.722L753.6 370.832C758.575 360.487 761 349.216 760.612 338.236C760.413 332.594 760.078 323.151 754.357 312.915C751.841 308.413 748.6 304.333 744.723 300.787C742.792 299.021 742.33 296.158 743.606 293.874C747.78 286.401 750.797 278.482 752.576 270.336C754.836 259.985 758.619 242.66 749.487 229.412C747.949 227.181 743.863 221.256 736.324 218.84C730.047 216.829 723.111 217.775 715.709 221.651C703.411 228.09 699.026 241.165 696.406 248.976C693.517 257.585 692.513 266.736 693.42 276.175L682.19 277.255C681.13 266.229 682.315 255.508 685.71 245.388C688.662 236.585 694.157 220.2 710.475 211.656C723.15 205.019 733.399 206.055 739.766 208.096C750.968 211.684 756.845 220.207 758.776 223.008C770.686 240.286 766.076 261.399 763.598 272.743C761.884 280.593 759.16 288.248 755.483 295.555C758.884 299.151 761.809 303.124 764.205 307.412C771.257 320.028 771.667 331.614 771.888 337.839C772.34 350.639 769.532 363.739 763.768 375.724L763.767 375.722Z" fill="#1B38E0"/>
<path d="M669.851 316.268C673.699 316.268 676.819 313.148 676.819 309.3C676.819 305.452 673.699 302.332 669.851 302.332C666.003 302.332 662.883 305.452 662.883 309.3C662.883 313.148 666.003 316.268 669.851 316.268Z" fill="#1B38E0"/>
<path d="M719.548 311.908C723.396 311.908 726.516 308.788 726.516 304.94C726.516 301.091 723.396 297.972 719.548 297.972C715.7 297.972 712.58 301.091 712.58 304.94C712.58 308.788 715.7 311.908 719.548 311.908Z" fill="#1B38E0"/>
<path d="M705.681 342.816C711.784 342.816 716.731 337.869 716.731 331.766C716.731 325.663 711.784 320.716 705.681 320.716C699.578 320.716 694.631 325.663 694.631 331.766C694.631 337.869 699.578 342.816 705.681 342.816Z" fill="#1B38E0"/>
<path d="M1226.1 725.362V726.624C1226.1 727.654 1225.5 728.218 1224.47 728.218H1219.09V745.424C1219.09 746.454 1218.52 747.018 1217.49 747.018H1215.5C1214.47 747.018 1213.91 746.453 1213.91 745.424V728.218H1208.59C1207.56 728.218 1207 727.653 1207 726.624V725.362C1207 724.332 1207.56 723.768 1208.59 723.768H1224.47C1225.5 723.768 1226.1 724.332 1226.1 725.362H1226.1Z" fill="#1B38E0"/>
<path d="M1224.73 738.482C1224.73 733.467 1228.16 729.58 1232.94 729.58C1235.2 729.58 1237.19 730.444 1238.42 732.37V731.54C1238.42 730.51 1238.98 729.946 1240.01 729.946H1241.97C1243 729.946 1243.57 730.511 1243.57 731.54V745.424C1243.57 746.454 1243 747.018 1241.97 747.018H1240.01C1238.98 747.018 1238.42 746.453 1238.42 745.424V744.627C1237.19 746.52 1235.2 747.384 1232.94 747.384C1228.16 747.384 1224.73 743.531 1224.73 738.482ZM1238.49 738.482C1238.49 735.758 1236.76 733.699 1234.14 733.699C1231.45 733.699 1229.88 735.858 1229.88 738.482C1229.88 741.139 1231.44 743.265 1234.14 743.265C1236.76 743.265 1238.49 741.206 1238.49 738.482Z" fill="#1B38E0"/>
<path d="M1252.83 744.627V745.424C1252.83 746.454 1252.23 747.018 1251.21 747.018H1249.28C1248.25 747.018 1247.69 746.453 1247.69 745.424V724.598C1247.69 723.568 1248.25 723.004 1249.28 723.004H1251.21C1252.24 723.004 1252.83 723.569 1252.83 724.598V732.37C1254.06 730.444 1256.05 729.58 1258.28 729.58C1263.1 729.58 1266.52 733.466 1266.52 738.482C1266.52 743.531 1263.1 747.384 1258.28 747.384C1256.05 747.384 1254.06 746.52 1252.83 744.627ZM1261.37 738.482C1261.37 735.858 1259.78 733.699 1257.12 733.699C1254.46 733.699 1252.77 735.758 1252.73 738.482C1252.77 741.206 1254.46 743.265 1257.12 743.265C1259.77 743.265 1261.37 741.139 1261.37 738.482Z" fill="#1B38E0"/>
<path d="M1274.75 744.627V745.424C1274.75 746.454 1274.16 747.018 1273.13 747.018H1271.2C1270.17 747.018 1269.61 746.453 1269.61 745.424V724.598C1269.61 723.568 1270.17 723.004 1271.2 723.004H1273.13C1274.16 723.004 1274.75 723.569 1274.75 724.598V732.37C1275.98 730.444 1277.98 729.58 1280.2 729.58C1285.02 729.58 1288.44 733.466 1288.44 738.482C1288.44 743.531 1285.02 747.384 1280.2 747.384C1277.98 747.384 1275.98 746.52 1274.75 744.627ZM1283.29 738.482C1283.29 735.858 1281.7 733.699 1279.04 733.699C1276.38 733.699 1274.69 735.758 1274.65 738.482C1274.69 741.206 1276.38 743.265 1279.04 743.265C1281.7 743.265 1283.29 741.139 1283.29 738.482Z" fill="#1B38E0"/>
<path d="M1291.06 725.262C1291.06 723.734 1292.16 722.572 1294.15 722.572C1296.11 722.572 1297.24 723.734 1297.24 725.262C1297.24 726.757 1296.04 727.919 1294.15 727.919C1292.26 727.919 1291.06 726.757 1291.06 725.262ZM1291.59 745.424V731.54C1291.59 730.51 1292.16 729.946 1293.19 729.946H1295.11C1296.14 729.946 1296.74 730.511 1296.74 731.54V745.424C1296.74 746.454 1296.14 747.018 1295.11 747.018H1293.19C1292.16 747.018 1291.59 746.453 1291.59 745.424Z" fill="#1B38E0"/>
<path d="M1301.99 741.338V733.765H1300.29C1299.76 733.765 1299.43 733.466 1299.43 732.935V730.776C1299.43 730.245 1299.76 729.946 1300.29 729.946H1302.39L1302.95 726.492C1303.08 725.794 1303.55 725.429 1304.25 725.429H1305.87C1306.64 725.429 1307.04 725.861 1307.04 726.591V729.946H1310.89C1311.42 729.946 1311.72 730.245 1311.72 730.776V732.935C1311.72 733.467 1311.42 733.765 1310.89 733.765H1307.04V741.504C1307.04 742.766 1307.67 743.264 1308.43 743.264C1309.3 743.264 1309.86 742.6 1309.86 741.703C1309.86 741.537 1309.86 741.338 1309.83 741.105C1309.76 740.507 1309.96 740.208 1310.52 740.208H1312.55C1312.98 740.208 1313.35 740.374 1313.48 740.872C1313.61 741.37 1313.68 741.902 1313.68 742.168C1313.68 745.855 1311.06 747.383 1307.97 747.383C1305.08 747.383 1301.99 746.054 1301.99 741.338Z" fill="#1B38E0"/>
<path d="M1283.39 703.431L1289.09 709.787C1289.2 709.902 1289.09 709.995 1288.86 709.995H1231.82C1231.59 709.995 1231.48 709.901 1231.58 709.787L1237.29 703.431C1238.19 702.42 1240.87 701.658 1243.33 701.658H1277.35C1279.81 701.658 1282.49 702.421 1283.39 703.431Z" fill="#F2E7E5"/>
<path d="M1288.86 710.996H1231.82C1231.27 710.996 1230.83 710.74 1230.64 710.311C1230.46 709.913 1230.54 709.457 1230.84 709.12L1236.54 702.764C1237.78 701.381 1240.9 700.658 1243.33 700.658H1277.35C1279.78 700.658 1282.9 701.382 1284.14 702.764L1289.84 709.12C1290.14 709.457 1290.22 709.914 1290.04 710.312C1289.85 710.741 1289.41 710.996 1288.86 710.996ZM1233.64 708.995H1287.04L1282.65 704.1C1282.04 703.419 1279.71 702.659 1277.35 702.659H1243.33C1240.97 702.659 1238.64 703.418 1238.03 704.1L1233.64 708.995Z" fill="#1B38E0"/>
<path d="M1244.01 705.319L1241.66 704.616C1242.72 701.069 1243.07 697.606 1242.69 694.323C1242.45 692.195 1241.96 690.599 1241.45 688.909C1240.73 686.54 1239.98 684.091 1239.82 680.063C1239.67 676.09 1240.25 673.734 1241.81 671.931C1243.42 670.08 1245.54 669.421 1246.66 669.194C1247.87 668.947 1250.96 668.59 1253.51 670.604C1254.66 671.51 1255.2 672.517 1255.78 673.582C1256.53 674.975 1257.12 676.888 1257.43 678.968C1257.65 680.465 1257.7 681.781 1257.73 682.741C1257.73 682.934 1257.74 683.142 1257.75 683.343C1258.99 682.831 1260.15 682.915 1261.19 682.989C1263.82 683.178 1265.95 684.539 1266.99 685.334L1265.5 687.284C1264.84 686.779 1263.08 685.587 1261.01 685.438C1259.93 685.36 1259.23 685.331 1258.49 685.704C1258.34 685.777 1258.23 685.847 1258.13 685.914C1257.86 686.09 1257.35 686.418 1256.66 686.223C1256.19 686.089 1255.59 685.693 1255.4 684.567C1255.32 684.1 1255.3 683.536 1255.27 682.822C1255.24 681.871 1255.2 680.688 1255 679.331C1254.64 676.896 1253.98 675.417 1253.62 674.752C1253.11 673.807 1252.74 673.124 1251.99 672.531C1250.2 671.117 1247.83 671.462 1247.15 671.601C1246.33 671.767 1244.8 672.239 1243.67 673.543C1242.73 674.626 1242.13 676.134 1242.28 679.97C1242.42 683.681 1243.12 685.976 1243.8 688.196C1244.32 689.916 1244.86 691.696 1245.13 694.046C1245.55 697.661 1245.17 701.455 1244.01 705.322L1244.01 705.319Z" fill="#1B38E0"/>
<path d="M1279.1 706.356L1276.89 705.292C1277.97 703.041 1278.5 700.588 1278.41 698.198C1278.37 696.97 1278.3 694.915 1277.05 692.688C1276.5 691.708 1275.8 690.82 1274.96 690.049C1274.54 689.665 1274.43 689.042 1274.71 688.545C1275.62 686.919 1276.28 685.195 1276.66 683.423C1277.16 681.17 1277.98 677.4 1275.99 674.517C1275.66 674.032 1274.77 672.742 1273.13 672.216C1271.76 671.778 1270.25 671.984 1268.64 672.828C1265.97 674.229 1265.01 677.075 1264.44 678.775C1263.81 680.648 1263.59 682.64 1263.79 684.694L1261.35 684.929C1261.12 682.53 1261.37 680.196 1262.11 677.994C1262.75 676.078 1263.95 672.513 1267.5 670.653C1270.26 669.209 1272.49 669.434 1273.88 669.878C1276.31 670.659 1277.59 672.514 1278.01 673.123C1280.6 676.883 1279.6 681.478 1279.06 683.946C1278.69 685.654 1278.1 687.32 1277.3 688.91C1278.04 689.692 1278.67 690.557 1279.19 691.49C1280.73 694.236 1280.82 696.757 1280.87 698.111C1280.96 700.897 1280.35 703.747 1279.1 706.355L1279.1 706.356Z" fill="#1B38E0"/>
<path d="M1258.66 693.417C1259.5 693.417 1260.18 692.738 1260.18 691.901C1260.18 691.064 1259.5 690.385 1258.66 690.385C1257.83 690.385 1257.15 691.064 1257.15 691.901C1257.15 692.738 1257.83 693.417 1258.66 693.417Z" fill="#1B38E0"/>
<path d="M1269.48 692.469C1270.32 692.469 1270.99 691.79 1270.99 690.953C1270.99 690.115 1270.32 689.437 1269.48 689.437C1268.64 689.437 1267.96 690.115 1267.96 690.953C1267.96 691.79 1268.64 692.469 1269.48 692.469Z" fill="#1B38E0"/>
<path d="M1266.46 699.196C1267.79 699.196 1268.86 698.119 1268.86 696.791C1268.86 695.462 1267.79 694.386 1266.46 694.386C1265.13 694.386 1264.05 695.462 1264.05 696.791C1264.05 698.119 1265.13 699.196 1266.46 699.196Z" fill="#1B38E0"/>
<path d="M40.846 729.4C41.332 729.4 41.602 729.67 41.602 730.156V730.624C41.602 731.11 41.332 731.398 40.846 731.398H37.642V741.244C37.642 741.73 37.372 742 36.886 742H36.04C35.554 742 35.284 741.73 35.284 741.244V731.398H32.098C31.612 731.398 31.342 731.11 31.342 730.624V730.156C31.342 729.67 31.612 729.4 32.098 729.4H40.846ZM45.3577 742.198C42.7117 742.198 40.8937 740.092 40.8937 737.428C40.8937 734.764 42.7117 732.658 45.3577 732.658C46.5637 732.658 47.6797 733.108 48.4537 734.224V733.63C48.4537 733.144 48.7237 732.856 49.2097 732.856H50.0017C50.4877 732.856 50.7757 733.144 50.7757 733.63V741.244C50.7757 741.73 50.4877 742 50.0017 742H49.2097C48.7237 742 48.4537 741.73 48.4537 741.244V740.632C47.6797 741.748 46.5637 742.198 45.3577 742.198ZM45.8077 740.272C47.4097 740.272 48.4717 739.066 48.4897 737.428C48.4717 735.79 47.4097 734.584 45.8077 734.584C44.1697 734.584 43.2157 735.88 43.2157 737.428C43.2157 738.994 44.1697 740.272 45.8077 740.272ZM58.6479 742.198C57.4419 742.198 56.3259 741.748 55.5519 740.632V741.244C55.5519 741.73 55.2819 742 54.7959 742H54.0039C53.5179 742 53.2299 741.73 53.2299 741.244V729.742C53.2299 729.256 53.5179 728.986 54.0039 728.986H54.7959C55.2819 728.986 55.5519 729.256 55.5519 729.742V734.224C56.3259 733.108 57.4419 732.658 58.6479 732.658C61.2939 732.658 63.1119 734.764 63.1119 737.428C63.1119 740.092 61.2939 742.198 58.6479 742.198ZM58.1979 740.272C59.8539 740.272 60.7899 738.994 60.7899 737.428C60.7899 735.88 59.8539 734.584 58.1979 734.584C56.6139 734.584 55.5339 735.79 55.5159 737.428C55.5339 739.066 56.6139 740.272 58.1979 740.272ZM70.4076 742.198C69.2016 742.198 68.0856 741.748 67.3116 740.632V741.244C67.3116 741.73 67.0416 742 66.5556 742H65.7636C65.2776 742 64.9896 741.73 64.9896 741.244V729.742C64.9896 729.256 65.2776 728.986 65.7636 728.986H66.5556C67.0416 728.986 67.3116 729.256 67.3116 729.742V734.224C68.0856 733.108 69.2016 732.658 70.4076 732.658C73.0536 732.658 74.8716 734.764 74.8716 737.428C74.8716 740.092 73.0536 742.198 70.4076 742.198ZM69.9576 740.272C71.6136 740.272 72.5496 738.994 72.5496 737.428C72.5496 735.88 71.6136 734.584 69.9576 734.584C68.3736 734.584 67.2936 735.79 67.2756 737.428C67.2936 739.066 68.3736 740.272 69.9576 740.272ZM77.9554 731.506C77.0734 731.506 76.4974 730.912 76.4974 730.156C76.4974 729.4 77.0554 728.806 77.9554 728.806C78.8554 728.806 79.4314 729.4 79.4314 730.156C79.4314 730.912 78.8374 731.506 77.9554 731.506ZM77.5594 742C77.0734 742 76.8034 741.73 76.8034 741.244V733.63C76.8034 733.144 77.0734 732.856 77.5594 732.856H78.3694C78.8554 732.856 79.1254 733.144 79.1254 733.63V741.244C79.1254 741.73 78.8554 742 78.3694 742H77.5594ZM85.2181 742.198C83.7061 742.198 82.1761 741.478 82.1761 739.03V734.62H81.1681C80.8981 734.62 80.7541 734.476 80.7541 734.206V733.27C80.7541 733.018 80.8981 732.856 81.1681 732.856H82.2841L82.6081 730.894C82.6621 730.534 82.8961 730.354 83.2381 730.354H83.8681C84.2461 730.354 84.4621 730.57 84.4621 730.948V732.856H86.7301C87.0001 732.856 87.1441 733.018 87.1441 733.27V734.206C87.1441 734.476 87.0001 734.62 86.7301 734.62H84.4621V739.12C84.4621 739.948 84.8761 740.272 85.3621 740.272C85.8661 740.272 86.2801 739.93 86.2801 739.372C86.2801 739.282 86.2801 739.174 86.2621 739.048C86.2261 738.76 86.3161 738.598 86.6041 738.598H87.5581C87.7921 738.598 87.9721 738.688 88.0261 738.922C88.0981 739.228 88.1161 739.534 88.1161 739.606C88.1161 741.298 86.9281 742.198 85.2181 742.198ZM89.8582 734.008C89.6422 734.134 89.4622 734.062 89.3362 733.864L89.2642 733.702C89.1382 733.504 89.1742 733.324 89.3902 733.18C90.1282 732.748 90.4882 732.046 90.4882 731.416C90.3802 731.452 90.2722 731.452 90.1822 731.47C89.4622 731.47 89.0662 730.894 89.0662 730.318C89.0482 729.58 89.5522 728.986 90.5062 728.986C91.6582 728.986 91.9462 730.048 91.9462 730.606C91.9462 732.082 91.1542 733.378 89.8582 734.008ZM96.3475 742.198C94.8175 742.198 93.5215 741.586 92.9095 740.398C92.6755 739.912 92.9275 739.57 93.4135 739.444L93.8815 739.336C94.3135 739.228 94.5295 739.426 94.8355 739.768C95.1595 740.164 95.7175 740.416 96.3475 740.416C97.1395 740.416 97.6975 739.984 97.6975 739.408C97.6975 738.922 97.3195 738.67 96.7255 738.454L95.5555 738.04C94.3855 737.68 93.1255 736.96 93.1255 735.466C93.1255 733.846 94.4575 732.658 96.3475 732.658C97.4995 732.658 98.5615 733.036 99.1915 734.116C99.4975 734.584 99.2455 734.962 98.7415 735.088L98.3275 735.196C97.8955 735.304 97.6615 735.142 97.3735 734.836C97.1035 734.512 96.7435 734.422 96.3835 734.422C95.6815 734.422 95.2675 734.854 95.2675 735.376C95.2675 735.862 95.6995 736.114 96.2035 736.276L97.4275 736.708C99.2455 737.284 99.8215 738.346 99.8395 739.39C99.8395 741.226 98.2195 742.198 96.3475 742.198ZM112.564 742.198C108.298 742.198 105.706 739.21 105.706 735.7C105.706 732.19 108.298 729.202 112.564 729.202C114.166 729.202 115.336 729.634 116.344 730.3C116.74 730.588 116.794 730.948 116.524 731.362L116.236 731.776C115.966 732.19 115.624 732.226 115.174 731.974C114.418 731.542 113.464 731.29 112.564 731.29C109.774 731.29 108.118 733.306 108.118 735.7C108.118 738.094 109.774 740.11 112.564 740.11C113.464 740.11 114.418 739.858 115.174 739.426C115.624 739.174 115.966 739.21 116.236 739.624L116.524 740.038C116.794 740.452 116.776 740.776 116.434 741.028C115.408 741.73 114.22 742.198 112.564 742.198ZM119.378 742C118.892 742 118.622 741.73 118.622 741.244V729.742C118.622 729.256 118.892 728.986 119.378 728.986H120.188C120.674 728.986 120.944 729.256 120.944 729.742V741.244C120.944 741.73 120.674 742 120.188 742H119.378ZM128.062 742.198C124.822 742.198 122.842 740.074 122.842 737.464C122.842 734.854 124.84 732.658 127.81 732.658C130.258 732.658 132.382 734.134 132.562 737.05C132.598 737.518 132.292 737.77 131.806 737.77H125.092C125.056 739.156 126.28 740.29 128.17 740.29C128.926 740.29 129.682 740.092 130.42 739.624C130.816 739.39 131.176 739.426 131.482 739.768L131.644 739.966C131.968 740.326 131.95 740.776 131.5 741.118C130.456 741.928 129.214 742.198 128.062 742.198ZM125.2 736.312H130.33C129.97 734.872 128.818 734.512 127.846 734.512C126.838 734.512 125.632 734.926 125.2 736.312ZM138.188 742.198C135.542 742.198 133.724 740.092 133.724 737.428C133.724 734.764 135.542 732.658 138.188 732.658C139.394 732.658 140.51 733.108 141.284 734.224V733.63C141.284 733.144 141.554 732.856 142.04 732.856H142.832C143.318 732.856 143.606 733.144 143.606 733.63V741.244C143.606 741.73 143.318 742 142.832 742H142.04C141.554 742 141.284 741.73 141.284 741.244V740.632C140.51 741.748 139.394 742.198 138.188 742.198ZM138.638 740.272C140.24 740.272 141.302 739.066 141.32 737.428C141.302 735.79 140.24 734.584 138.638 734.584C137 734.584 136.046 735.88 136.046 737.428C136.046 738.994 137 740.272 138.638 740.272ZM146.834 742C146.348 742 146.078 741.73 146.078 741.244V733.63C146.078 733.144 146.348 732.856 146.834 732.856H147.59C148.076 732.856 148.346 733.144 148.346 733.63V734.89C148.652 733.324 149.822 732.658 150.758 732.658C150.83 732.658 151.028 732.676 151.118 732.694C151.514 732.73 151.586 733.054 151.586 733.414V734.314C151.586 734.782 151.37 734.98 151.028 734.926C150.866 734.89 150.704 734.872 150.56 734.872C149.696 734.872 148.4 735.394 148.4 738.382V741.244C148.4 741.73 148.112 742 147.626 742H146.834ZM161.239 742.198C158.935 742.198 157.297 741.136 156.631 739.552C156.433 739.084 156.685 738.742 157.171 738.634L157.801 738.472C158.269 738.364 158.503 738.544 158.755 738.976C159.169 739.696 160.051 740.218 161.203 740.218C162.643 740.218 163.525 739.552 163.525 738.598C163.525 737.806 162.895 737.266 161.905 736.906L160.159 736.294C158.215 735.664 157.009 734.386 157.009 732.838C157.009 730.588 158.953 729.202 161.275 729.202C163.237 729.202 164.641 730.12 165.271 731.542C165.487 731.992 165.271 732.37 164.785 732.496L164.209 732.658C163.759 732.802 163.471 732.622 163.237 732.208C162.877 731.524 162.211 731.2 161.293 731.2C160.267 731.2 159.367 731.74 159.367 732.712C159.367 733.198 159.565 733.792 160.825 734.26L162.589 734.908C164.875 735.646 165.829 737.014 165.847 738.472C165.847 740.83 163.903 742.198 161.239 742.198ZM168.49 746.032C168.004 746.032 167.734 745.762 167.734 745.276V733.63C167.734 733.144 168.004 732.856 168.49 732.856H169.282C169.768 732.856 170.056 733.144 170.056 733.63V734.224C170.812 733.108 171.928 732.658 173.152 732.658C175.798 732.658 177.598 734.764 177.598 737.428C177.598 740.092 175.798 742.198 173.152 742.198C171.928 742.198 170.812 741.748 170.056 740.632V745.276C170.056 745.762 169.768 746.032 169.282 746.032H168.49ZM172.702 740.272C174.34 740.272 175.276 738.994 175.276 737.428C175.276 735.88 174.34 734.584 172.702 734.584C171.1 734.584 170.02 735.79 170.002 737.428C170.02 739.066 171.1 740.272 172.702 740.272ZM183.328 742.198C180.682 742.198 178.864 740.092 178.864 737.428C178.864 734.764 180.682 732.658 183.328 732.658C184.534 732.658 185.65 733.108 186.424 734.224V733.63C186.424 733.144 186.694 732.856 187.18 732.856H187.972C188.458 732.856 188.746 733.144 188.746 733.63V741.244C188.746 741.73 188.458 742 187.972 742H187.18C186.694 742 186.424 741.73 186.424 741.244V740.632C185.65 741.748 184.534 742.198 183.328 742.198ZM183.778 740.272C185.38 740.272 186.442 739.066 186.46 737.428C186.442 735.79 185.38 734.584 183.778 734.584C182.14 734.584 181.186 735.88 181.186 737.428C181.186 738.994 182.14 740.272 183.778 740.272ZM195.809 742.198C192.605 742.198 190.589 740.11 190.589 737.5C190.589 734.836 192.533 732.658 195.809 732.658C196.601 732.658 197.609 732.838 198.617 733.432C199.049 733.684 199.103 734.098 198.797 734.494L198.581 734.764C198.293 735.16 197.969 735.178 197.519 734.962C196.835 734.62 196.151 734.602 195.935 734.602C194.189 734.602 192.911 735.772 192.911 737.428C192.911 739.102 194.189 740.272 195.935 740.272C196.151 740.272 196.835 740.236 197.519 739.912C197.969 739.696 198.311 739.714 198.581 740.092L198.797 740.38C199.085 740.776 198.995 741.244 198.401 741.55C197.483 742.054 196.547 742.198 195.809 742.198ZM205.283 742.198C202.043 742.198 200.063 740.074 200.063 737.464C200.063 734.854 202.061 732.658 205.031 732.658C207.479 732.658 209.603 734.134 209.783 737.05C209.819 737.518 209.513 737.77 209.027 737.77H202.313C202.277 739.156 203.501 740.29 205.391 740.29C206.147 740.29 206.903 740.092 207.641 739.624C208.037 739.39 208.397 739.426 208.703 739.768L208.865 739.966C209.189 740.326 209.171 740.776 208.721 741.118C207.677 741.928 206.435 742.198 205.283 742.198ZM202.421 736.312H207.551C207.191 734.872 206.039 734.512 205.067 734.512C204.059 734.512 202.853 734.926 202.421 736.312Z" fill="#33241F"/>
</g>
<defs>
<clipPath id="clip0_876_1678">
<rect width="1355" height="770" fill="white"/>
</clipPath>
</defs>
</svg>
