<?xml version="1.0" encoding="UTF-8"?>
<svg id="a" data-name="Layer_1" xmlns="http://www.w3.org/2000/svg" width="1066" height="656.4" viewBox="0 0 1066 656.4">
  <g>
    <rect x="0" y="0" width="1066" height="656.4" fill="#f2e7e5"/>
    <text transform="translate(10 641.889)" font-family="Inter-Medium, Inter" font-size="14" font-variation-settings="&apos;wght&apos; 500, &apos;slnt&apos; 0" font-weight="500"><tspan x="0" y="0">Tabbit’s Clear Space</tspan></text>
    <g id="b" data-name="c">
      <g>
        <g>
          <path d="M981.198,627.297v1.078c0,.88-.511,1.362-1.39,1.362h-4.596v14.696c0,.88-.482,1.362-1.362,1.362h-1.702c-.88,0-1.362-.482-1.362-1.362v-14.696h-4.539c-.88,0-1.362-.482-1.362-1.362v-1.078c0-.88.482-1.362,1.362-1.362h13.561c.88,0,1.39.482,1.39,1.362h0Z" fill="#1b38e0"/>
          <path d="M980.034,638.504c0-4.284,2.922-7.603,7.008-7.603,1.929,0,3.631.738,4.681,2.383v-.709c0-.88.482-1.362,1.362-1.362h1.674c.88,0,1.362.482,1.362,1.362v11.859c0,.88-.482,1.362-1.362,1.362h-1.674c-.88,0-1.362-.482-1.362-1.362v-.681c-1.05,1.617-2.752,2.355-4.681,2.355-4.086,0-7.008-3.291-7.008-7.603h0ZM991.78,638.504c0-2.326-1.475-4.085-3.716-4.085-2.298,0-3.631,1.844-3.631,4.085,0,2.27,1.333,4.085,3.631,4.085,2.241,0,3.716-1.759,3.716-4.085Z" fill="#1b38e0"/>
          <path d="M1004.035,643.752v.681c0,.88-.511,1.362-1.39,1.362h-1.645c-.88,0-1.362-.482-1.362-1.362v-17.788c0-.88.482-1.362,1.362-1.362h1.645c.88,0,1.39.482,1.39,1.362v6.638c1.05-1.645,2.752-2.383,4.653-2.383,4.114,0,7.036,3.319,7.036,7.603,0,4.312-2.922,7.603-7.036,7.603-1.901,0-3.603-.738-4.653-2.355h0ZM1011.326,638.504c0-2.241-1.362-4.085-3.631-4.085s-3.717,1.759-3.745,4.085c.028,2.326,1.475,4.085,3.745,4.085s3.631-1.816,3.631-4.085Z" fill="#1b38e0"/>
          <path d="M1022.758,643.752v.681c0,.88-.511,1.362-1.39,1.362h-1.645c-.88,0-1.362-.482-1.362-1.362v-17.788c0-.88.482-1.362,1.362-1.362h1.645c.88,0,1.39.482,1.39,1.362v6.638c1.05-1.645,2.752-2.383,4.653-2.383,4.114,0,7.036,3.319,7.036,7.603,0,4.312-2.922,7.603-7.036,7.603-1.901,0-3.603-.738-4.653-2.355h0ZM1030.049,638.504c0-2.241-1.362-4.085-3.631-4.085s-3.717,1.759-3.745,4.085c.028,2.326,1.475,4.085,3.745,4.085s3.631-1.816,3.631-4.085Z" fill="#1b38e0"/>
          <path d="M1036.687,627.212c0-1.305.936-2.298,2.638-2.298,1.674,0,2.638.993,2.638,2.298,0,1.277-1.021,2.27-2.638,2.27s-2.638-.993-2.638-2.27ZM1037.141,644.433v-11.859c0-.88.482-1.362,1.362-1.362h1.645c.88,0,1.39.482,1.39,1.362v11.859c0,.88-.511,1.362-1.39,1.362h-1.645c-.88,0-1.362-.482-1.362-1.362Z" fill="#1b38e0"/>
          <path d="M1046.02,640.944v-6.468h-1.447c-.454,0-.738-.255-.738-.709v-1.844c0-.454.284-.709.738-.709h1.787l.482-2.951c.113-.596.511-.908,1.106-.908h1.39c.652,0,.993.369.993.993v2.865h3.291c.454,0,.709.256.709.709v1.844c0,.454-.255.709-.709.709h-3.291v6.61c0,1.078.539,1.504,1.191,1.504.738,0,1.22-.567,1.22-1.333,0-.142,0-.312-.028-.511-.057-.511.114-.766.596-.766h1.731c.369,0,.681.142.794.567.113.426.17.88.17,1.107,0,3.149-2.241,4.454-4.88,4.454-2.468,0-5.107-1.135-5.107-5.164h0Z" fill="#1b38e0"/>
        </g>
        <g>
          <g>
            <path d="M1030.137,608.566l4.87,5.429c.088.098,0,.178-.198.178h-48.724c-.198,0-.286-.08-.198-.178l4.87-5.429c.774-.863,3.061-1.515,5.162-1.515h29.057c2.1,0,4.388.651,5.162,1.515h0Z" fill="#f2e7e5"/>
            <path d="M1034.808,615.027h-48.724c-.467,0-.843-.219-1.007-.585-.152-.34-.086-.73.172-1.017l4.87-5.429c1.059-1.181,3.719-1.799,5.798-1.799h29.057c2.08,0,4.739.618,5.798,1.799l4.87,5.429c.258.288.324.678.172,1.018-.164.367-.54.585-1.007.585h0ZM987.641,613.318h45.61l-3.751-4.181c-.522-.582-2.509-1.231-4.526-1.231h-29.057c-2.016,0-4.004.649-4.526,1.231l-3.75,4.181h0Z" fill="#1b38e0"/>
          </g>
          <g>
            <g>
              <path d="M996.501,610.178l-2.009-.6c.905-3.029,1.201-5.988.88-8.792-.208-1.818-.624-3.181-1.063-4.625-.616-2.023-1.253-4.115-1.386-7.556-.131-3.393.361-5.406,1.7-6.946,1.374-1.581,3.18-2.144,4.135-2.338,1.036-.211,3.68-.516,5.856,1.204.979.774,1.445,1.634,1.937,2.544.644,1.19,1.145,2.824,1.41,4.6.191,1.279.227,2.402.254,3.223.005.165.011.343.019.514,1.062-.437,2.054-.366,2.937-.302,2.245.162,4.067,1.324,4.954,2.003l-1.275,1.665c-.564-.432-2.066-1.45-3.829-1.576-.925-.067-1.525-.091-2.157.227-.125.063-.216.122-.305.179-.233.151-.667.43-1.254.264-.403-.114-.919-.452-1.082-1.415-.068-.399-.083-.881-.103-1.49-.027-.812-.06-1.823-.232-2.982-.31-2.08-.873-3.343-1.18-3.911-.437-.807-.753-1.39-1.394-1.897-1.528-1.208-3.553-.913-4.136-.794-.694.141-2.003.545-2.971,1.659-.804.925-1.314,2.213-1.187,5.489.122,3.17.719,5.13,1.296,7.026.447,1.47.91,2.989,1.14,4.996.354,3.088.033,6.328-.954,9.631Z" fill="#1b38e0"/>
              <path d="M1026.471,611.064l-1.89-.909c.925-1.923,1.376-4.018,1.303-6.059-.037-1.049-.099-2.804-1.163-4.707-.468-.837-1.07-1.595-1.791-2.254-.359-.328-.445-.86-.208-1.285.776-1.389,1.337-2.861,1.667-4.375.42-1.924,1.123-5.144-.574-7.607-.286-.415-1.045-1.516-2.447-1.965-1.167-.374-2.456-.198-3.832.522-2.286,1.197-3.101,3.627-3.588,5.079-.537,1.6-.724,3.301-.555,5.056l-2.087.201c-.197-2.05.023-4.042.654-5.923.549-1.636,1.57-4.682,4.603-6.27,2.356-1.234,4.261-1.041,5.445-.662,2.082.667,3.175,2.251,3.534,2.772,2.214,3.212,1.357,7.136.896,9.245-.319,1.459-.825,2.882-1.508,4.24.632.668,1.176,1.407,1.621,2.204,1.311,2.345,1.387,4.499,1.428,5.656.084,2.379-.438,4.814-1.509,7.042Z" fill="#1b38e0"/>
            </g>
            <circle cx="1009.014" cy="598.718" r="1.295" fill="#1b38e0"/>
            <circle cx="1018.252" cy="597.907" r="1.295" fill="#1b38e0"/>
            <circle cx="1015.674" cy="602.894" r="2.054" fill="#1b38e0"/>
          </g>
        </g>
      </g>
    </g>
  </g>
  <line y1="389.775" x2="1066" y2="389.775" fill="none" stroke="#1b38e0" stroke-miterlimit="10"/>
  <line y1="480.005" x2="1066" y2="480.005" fill="none" stroke="#1b38e0" stroke-miterlimit="10"/>
  <line x1="742.113" y1="0" x2="742.113" y2="656.4" fill="none" stroke="#1b38e0" stroke-miterlimit="10"/>
  <line x1="323.887" y1="0" x2="323.887" y2="656.4" fill="none" stroke="#1b38e0" stroke-miterlimit="10"/>
  <line y1="337.629" x2="1066" y2="337.629" fill="none" stroke="#1b38e0" stroke-miterlimit="10"/>
  <line x1="416.555" x2="416.555" y2="656.4" fill="none" stroke="#1b38e0" stroke-miterlimit="10"/>
  <line x1="649.445" y1="0" x2="649.445" y2="656.4" fill="none" stroke="#1b38e0" stroke-miterlimit="10"/>
  <line y1="173.956" x2="1066" y2="173.956" fill="none" stroke="#1b38e0" stroke-miterlimit="10"/>
  <line x1="271.74" y1="656.4" x2="271.74" y2="0" fill="none" stroke="#1b38e0" stroke-miterlimit="10"/>
  <line x1="794.26" y1="656.4" x2="794.26" y2="0" fill="none" stroke="#1b38e0" stroke-miterlimit="10"/>
  <line x1="-.61" y1="532.152" x2="1066" y2="532.152" fill="none" stroke="#1b38e0" stroke-miterlimit="10"/>
  <path d="M530.524,501.457l2.437,3.981h.079l2.437-3.981h1.779l-3.172,5.091,3.191,5.091h-1.789l-2.446-3.928h-.079l-2.446,3.928h-1.79l3.246-5.091-3.227-5.091h1.78Z" fill="#1b38e0"/>
  <path d="M765.711,429.799l2.437,3.981h.079l2.437-3.981h1.779l-3.172,5.091,3.191,5.091h-1.789l-2.446-3.928h-.079l-2.446,3.928h-1.79l3.246-5.091-3.227-5.091h1.78Z" fill="#1b38e0"/>
  <line x1="0" y1="121.653" x2="1066" y2="121.653" fill="none" stroke="#1b38e0" stroke-miterlimit="10"/>
  <path d="M530.524,358.611l2.437,3.981h.079l2.437-3.981h1.779l-3.172,5.091,3.191,5.091h-1.789l-2.446-3.928h-.079l-2.446,3.928h-1.79l3.246-5.091-3.227-5.091h1.78Z" fill="#1b38e0"/>
  <path d="M530.524,140.666l2.437,3.981h.079l2.437-3.981h1.779l-3.172,5.091,3.191,5.091h-1.789l-2.446-3.928h-.079l-2.446,3.928h-1.79l3.246-5.091-3.227-5.091h1.78Z" fill="#1b38e0"/>
  <path d="M367.152,243.854l2.437,3.981h.079l2.437-3.981h1.779l-3.172,5.091,3.191,5.091h-1.789l-2.446-3.928h-.079l-2.446,3.928h-1.79l3.246-5.091-3.227-5.091h1.78Z" fill="#1b38e0"/>
  <g id="c">
    <g>
      <g>
        <path d="M398.866,394.739v4.944c0,4.034-2.341,6.246-6.375,6.246h-21.079v67.399c0,4.034-2.211,6.246-6.245,6.246h-7.807c-4.034,0-6.246-2.212-6.246-6.246v-67.399h-20.817c-4.034,0-6.246-2.212-6.246-6.246v-4.944c0-4.034,2.212-6.245,6.246-6.245h62.193c4.034,0,6.375,2.211,6.375,6.245h0Z" fill="#1b38e0"/>
        <path d="M393.528,446.134c0-19.647,13.401-34.87,32.138-34.87,8.847,0,16.655,3.383,21.468,10.929v-3.252c0-4.034,2.212-6.246,6.246-6.246h7.676c4.034,0,6.246,2.212,6.246,6.246v54.387c0,4.034-2.212,6.246-6.246,6.246h-7.676c-4.034,0-6.246-2.212-6.246-6.246v-3.123c-4.814,7.416-12.621,10.799-21.468,10.799-18.737,0-32.138-15.093-32.138-34.87h0ZM447.394,446.134c0-10.669-6.766-18.736-17.044-18.736-10.539,0-16.655,8.458-16.655,18.736,0,10.409,6.115,18.736,16.655,18.736,10.278,0,17.044-8.067,17.044-18.736Z" fill="#1b38e0"/>
        <path d="M503.596,470.205v3.123c0,4.034-2.341,6.246-6.375,6.246h-7.546c-4.034,0-6.246-2.212-6.246-6.246v-81.58c0-4.034,2.212-6.246,6.246-6.246h7.546c4.034,0,6.375,2.212,6.375,6.246v30.445c4.815-7.546,12.622-10.929,21.338-10.929,18.867,0,32.268,15.223,32.268,34.87,0,19.777-13.402,34.87-32.268,34.87-8.717,0-16.524-3.383-21.338-10.799h0ZM537.036,446.134c0-10.278-6.246-18.736-16.655-18.736s-17.045,8.067-17.174,18.736c.129,10.669,6.766,18.736,17.174,18.736s16.655-8.327,16.655-18.736Z" fill="#1b38e0"/>
        <path d="M589.465,470.205v3.123c0,4.034-2.341,6.246-6.375,6.246h-7.546c-4.034,0-6.246-2.212-6.246-6.246v-81.58c0-4.034,2.212-6.246,6.246-6.246h7.546c4.034,0,6.375,2.212,6.375,6.246v30.445c4.815-7.546,12.622-10.929,21.338-10.929,18.867,0,32.268,15.223,32.268,34.87,0,19.777-13.402,34.87-32.268,34.87-8.717,0-16.524-3.383-21.338-10.799h0ZM622.905,446.134c0-10.278-6.246-18.736-16.655-18.736s-17.045,8.067-17.174,18.736c.129,10.669,6.766,18.736,17.174,18.736s16.655-8.327,16.655-18.736Z" fill="#1b38e0"/>
        <path d="M653.345,394.349c0-5.986,4.294-10.539,12.101-10.539,7.676,0,12.1,4.554,12.1,10.539,0,5.855-4.684,10.409-12.1,10.409s-12.101-4.554-12.101-10.409ZM655.427,473.327v-54.387c0-4.034,2.212-6.246,6.246-6.246h7.546c4.034,0,6.376,2.212,6.376,6.246v54.387c0,4.034-2.342,6.246-6.376,6.246h-7.546c-4.034,0-6.246-2.212-6.246-6.246Z" fill="#1b38e0"/>
        <path d="M696.149,457.323v-29.665h-6.636c-2.082,0-3.383-1.171-3.383-3.253v-8.457c0-2.082,1.301-3.253,3.383-3.253h8.198l2.212-13.532c.52-2.732,2.341-4.163,5.074-4.163h6.376c2.992,0,4.554,1.691,4.554,4.554v13.141h15.093c2.082,0,3.252,1.172,3.252,3.253v8.457c0,2.083-1.171,3.253-3.252,3.253h-15.093v30.316c0,4.944,2.472,6.895,5.464,6.895,3.383,0,5.595-2.603,5.595-6.115,0-.651,0-1.432-.13-2.342-.26-2.341.521-3.512,2.733-3.512h7.937c1.691,0,3.123.651,3.643,2.602.52,1.952.78,4.034.78,5.075,0,14.443-10.278,20.428-22.379,20.428-11.32,0-23.42-5.205-23.42-23.681h0Z" fill="#1b38e0"/>
      </g>
      <g>
        <g>
          <path d="M623.304,308.833l22.333,24.897c.403.449-.003.816-.91.816h-223.454c-.906,0-1.313-.366-.91-.816l22.333-24.897c3.551-3.959,14.04-6.947,23.674-6.947h133.262c9.633,0,20.122,2.988,23.674,6.947h0Z" fill="#f2e7e5"/>
          <path d="M644.727,338.466h-223.454c-2.141,0-3.868-1.004-4.618-2.685-.696-1.558-.393-3.346.79-4.666l22.334-24.898c4.857-5.416,17.054-8.249,26.592-8.249h133.262c9.537,0,21.733,2.834,26.591,8.249l22.333,24.897c1.184,1.321,1.487,3.11.791,4.667-.751,1.681-2.478,2.685-4.619,2.685h0ZM428.413,330.626h209.174l-17.201-19.176c-2.394-2.669-11.507-5.644-20.755-5.644h-133.262c-9.248,0-18.361,2.974-20.756,5.645l-17.2,19.175h0Z" fill="#1b38e0"/>
        </g>
        <g>
          <g>
            <path d="M469.047,316.229l-9.215-2.754c4.152-13.894,5.51-27.46,4.034-40.321-.956-8.337-2.859-14.59-4.875-21.209-2.825-9.279-5.746-18.873-6.355-34.653-.602-15.563,1.657-24.791,7.795-31.854,6.301-7.252,14.586-9.831,18.964-10.723,4.75-.967,16.878-2.367,26.855,5.523,4.491,3.551,6.625,7.493,8.884,11.666,2.955,5.457,5.253,12.95,6.468,21.098.874,5.865,1.043,11.018,1.166,14.78.024.756.051,1.572.085,2.357,4.872-2.006,9.418-1.678,13.471-1.387,10.294.741,18.652,6.074,22.718,9.186l-5.847,7.637c-2.586-1.98-9.474-6.648-17.561-7.23-4.244-.306-6.993-.419-9.893,1.041-.572.288-.993.56-1.4.823-1.069.69-3.06,1.974-5.752,1.212-1.849-.524-4.212-2.075-4.96-6.489-.31-1.829-.382-4.038-.473-6.835-.122-3.725-.273-8.361-1.066-13.676-1.422-9.537-4.002-15.332-5.413-17.937-2.004-3.702-3.451-6.377-6.391-8.701-7.006-5.541-16.292-4.189-18.971-3.643-3.183.649-9.185,2.499-13.624,7.607-3.688,4.243-6.025,10.148-5.445,25.174.562,14.538,3.299,23.529,5.945,32.223,2.052,6.739,4.173,13.709,5.229,22.914,1.624,14.161.153,29.022-4.374,44.17Z" fill="#1b38e0"/>
            <path d="M606.495,320.29l-8.667-4.168c4.241-8.818,6.308-18.427,5.977-27.787-.17-4.809-.455-12.859-5.332-21.585-2.145-3.838-4.908-7.316-8.213-10.339-1.646-1.506-2.04-3.946-.952-5.893,3.558-6.37,6.13-13.121,7.647-20.066,1.927-8.824,5.152-23.593-2.633-34.886-1.311-1.901-4.794-6.953-11.221-9.012-5.351-1.714-11.264-.908-17.573,2.396-10.484,5.489-14.222,16.635-16.455,23.294-2.463,7.339-3.319,15.139-2.545,23.186l-9.574.92c-.904-9.399.106-18.539,3-27.165,2.517-7.504,7.201-21.472,21.111-28.755,10.805-5.658,19.542-4.775,24.97-3.035,9.55,3.059,14.559,10.324,16.205,12.712,10.153,14.729,6.223,32.727,4.111,42.397-1.461,6.692-3.783,13.218-6.917,19.446,2.899,3.065,5.393,6.452,7.435,10.108,6.012,10.755,6.361,20.632,6.549,25.938.385,10.912-2.008,22.079-6.922,32.295Z" fill="#1b38e0"/>
          </g>
          <circle cx="526.434" cy="263.668" r="5.94" fill="#1b38e0"/>
          <circle cx="568.8" cy="259.951" r="5.94" fill="#1b38e0"/>
          <circle cx="556.978" cy="282.82" r="9.42" fill="#1b38e0"/>
        </g>
      </g>
    </g>
  </g>
</svg>